<?xml version="1.0" standalone="no"?>
<!DOCTYPE svg PUBLIC "-//W3C//DTD SVG 1.1//EN" "http://www.w3.org/Graphics/SVG/1.1/DTD/svg11.dtd" >
<svg xmlns="http://www.w3.org/2000/svg" xmlns:xlink="http://www.w3.org/1999/xlink" version="1.1">
<metadata>
Created by FontForge 20170731 at Tue Apr 16 15:01:41 2019
 By Aleksey,,,
</metadata>
<defs>
<font id="PublicSans-Italic" horiz-adv-x="0" >
  <font-face 
    font-family="Public Sans"
    font-weight="800"
    font-style="italic"
    font-stretch="normal"
    units-per-em="2000"
    panose-1="0 0 9 0 0 0 0 0 0 0"
    ascent="1560"
    descent="-440"
    x-height="1034"
    cap-height="1446"
    bbox="-606 -606 2363 2226"
    underline-thickness="50"
    underline-position="-150"
    slope="-8"
    unicode-range="U+000D-FB02"
  />
<missing-glyph horiz-adv-x="1625" 
d="M1323.5 1640.5q9.5 -11.5 9.5 -30.5v-1876q0 -30 -15.5 -43t-50.5 -13h-872q-30 0 -42 11.5t-12 36.5v1880q0 22 10.5 34t27.5 12h918q17 0 26.5 -11.5zM1222.5 1544.5q-8.5 9.5 -21.5 9.5h-686l716 -1668v1634q0 15 -8.5 24.5zM453 -214.5q10 -9.5 34 -9.5h671
l-715 1657v-1617q0 -21 10 -30.5z" />
    <glyph glyph-name="fi" unicode="fi" horiz-adv-x="1282" 
d="M329 902h-208l20 132h206l23 161q19 123 87.5 187t186.5 64h183l-18 -128h-145q-59 0 -86.5 -32.5t-38.5 -105.5l-20 -146h240l-20 -132h-237l-129 -902h-174zM1061 1437h185l-28 -187h-185zM1008 1034h174l-148 -1034h-175z" />
    <glyph glyph-name="fl" unicode="fl" horiz-adv-x="1327" 
d="M329 902h-208l20 132h206l23 161q19 123 87.5 187t186.5 64h183l-18 -128h-145q-59 0 -86.5 -32.5t-38.5 -105.5l-20 -146h240l-20 -132h-237l-129 -902h-174zM924 39.5q-48 52.5 -48 143.5q0 33 7 82l177 1221h172l-174 -1204q-3 -25 -3 -46q0 -110 90 -116l52 -1
l-17 -116q-51 -16 -90 -16q-118 0 -166 52.5z" />
    <glyph glyph-name="colon_one_eight_F_colon.liga" unicode="&#x3a;&#x31;&#x38;F&#x3a;" horiz-adv-x="1747" 
d="M148 26v1472q0 24 23 24h1475q22 0 22 -24v-1472q0 -12 -6 -19t-16 -7h-1475q-23 0 -23 26zM968 491.5q39 23.5 62.5 63t23.5 85.5q0 43 -19.5 79.5t-54.5 60.5q27 26 40 54t13 62q0 40 -20.5 74.5t-55 55t-74.5 20.5q-43 0 -78 -20.5t-55 -54.5t-20 -75q0 -62 54 -116
q-36 -24 -55 -60t-19 -80q0 -46 23 -85.5t62.5 -63t87.5 -23.5q46 0 85 23.5zM618 478q8 0 8 8v544q0 10 -8 10h-135q-7 0 -7 -10v-52q0 -8 7 -8h73v-484q0 -8 7 -8h55zM1198 478q12 0 12 8v248h122q4 0 5.5 1.5t1.5 6.5v50q0 10 -7 10h-122v168h146q8 0 8 8v52q0 10 -8 10
h-210q-8 0 -8 -10v-544q0 -8 8 -8h52zM823 838.5q-24 22.5 -24 57.5q0 34 24.5 58t59.5 24q34 0 57.5 -24t23.5 -58q0 -35 -23.5 -57.5t-57.5 -22.5q-36 0 -60 22.5zM810 568q-30 30 -30 72q0 43 30 72.5t73 29.5t72 -29.5t29 -72.5q0 -42 -29.5 -72t-71.5 -30q-43 0 -73 30
z" />
    <glyph glyph-name="colon_f_l_a_g_two_colon.liga" unicode="&#x3a;flag&#x32;&#x3a;" horiz-adv-x="2525" 
d="M2363 1522v-1520h-2132v1520h2132zM2239 1396h-1070v-106h1070v106zM545 1170v118h-126v-118h126zM1013 1170v118h-122v-118h122zM779 1054v116h-122v-116h122zM2239 1056v110h-1070v-110h1070zM545 936v118h-122v-118h122zM891 1054v-118h122v118h-122zM657 936v-116
h122v116h-122zM2239 822v110h-1070v-110h1070zM423 820v-118h122v118h-122zM891 820v-118h122v118h-122zM2239 588v110h-1070v-110h1070zM353 464l1 -110h1885v110h-1886zM2239 126v104h-1885l1 -104h1884z" />
    <glyph glyph-name="colon_f_l_a_g_colon.liga" unicode="&#x3a;flag&#x3a;" horiz-adv-x="2525" 
d="M2363 1522v-1520h-2132v1520h2132zM347 1404v-818h1900v116h-1080v118h1080v116h-1080v118h1080v116h-1080v118h1080v116h-1900zM581 1170h-116v118h116v-118zM1049 1170h-116v118h116v-118zM815 1054h-116v116h116v-116zM581 936h-116v118h116v-118zM1049 936h-116v118
h116v-118zM815 820h-116v116h116v-116zM581 702h-116v118h116v-118zM1049 702h-116v118h116v-118zM347 468v-116h1900v116h-1900zM2247 118v116h-1900v-116h1900z" />
    <glyph glyph-name=".notdef" horiz-adv-x="1625" 
d="M1323.5 1640.5q9.5 -11.5 9.5 -30.5v-1876q0 -30 -15.5 -43t-50.5 -13h-872q-30 0 -42 11.5t-12 36.5v1880q0 22 10.5 34t27.5 12h918q17 0 26.5 -11.5zM1222.5 1544.5q-8.5 9.5 -21.5 9.5h-686l716 -1668v1634q0 15 -8.5 24.5zM453 -214.5q10 -9.5 34 -9.5h671
l-715 1657v-1617q0 -21 10 -30.5z" />
    <glyph glyph-name="uni0000" horiz-adv-x="53" 
 />
    <glyph glyph-name="uni0000" horiz-adv-x="53" 
 />
    <glyph glyph-name="nonmarkingreturn" unicode="&#xd;" horiz-adv-x="466" 
 />
    <glyph glyph-name="space" unicode=" " horiz-adv-x="479" 
 />
    <glyph glyph-name="exclam" unicode="!" horiz-adv-x="492" 
d="M269 1446h209l-202 -1083h-116zM93 229h208l-34 -229h-207z" />
    <glyph glyph-name="quotedbl" unicode="&#x22;" horiz-adv-x="836" 
d="M619 1446h212l-123 -462h-101zM269 1446h212l-123 -462h-101z" />
    <glyph glyph-name="numbersign" unicode="#" horiz-adv-x="1162" 
d="M901 880l-45 -299h213v-111h-230l-71 -473l-112 16l69 457h-295l-72 -473l-111 16l69 457h-234v111h251l46 299h-233v111h249l70 458l111 -13l-67 -445h295l70 458l111 -13l-67 -445h215v-111h-232zM788 880h-296l-46 -299h296z" />
    <glyph glyph-name="dollar" unicode="$" horiz-adv-x="1257" 
d="M613.5 1282q-73.5 -29 -123.5 -85.5t-61 -135.5q-3 -18 -3 -34q0 -42 21 -73t66.5 -56.5t123.5 -51.5l217 -69q138 -44 203 -128.5t65 -203.5q0 -35 -6 -73q-15 -103 -78 -186.5t-164.5 -136t-226.5 -65.5l-28 -194h-161l29 194q-184 18 -286.5 116.5t-101.5 267.5
l184 13q12 -122 93 -184.5t215 -62.5q80 0 154.5 29.5t124 83.5t59.5 123q3 23 3 44q0 75 -46.5 123.5t-144.5 77.5l-226 66q-281 79 -281 306q0 30 4 57q16 111 80 200t165.5 145t225.5 70l29 204h162l-29 -205q101 -15 173.5 -65t110 -125t37.5 -164q0 -23 -3 -47
l-178 -11q-2 132 -61.5 198.5t-182.5 66.5q-80 0 -153.5 -29z" />
    <glyph glyph-name="percent" unicode="%" horiz-adv-x="1678" 
d="M300.5 681.5q-59.5 38.5 -92 111t-32.5 171.5q0 44 6 90q17 124 71.5 218t133.5 145t168 51q78 0 137 -39t91.5 -112t32.5 -172q0 -35 -7 -91q-18 -124 -71 -217.5t-130.5 -143.5t-168.5 -50q-79 0 -138.5 38.5zM1052 986l466 476l-762 -992l-467 -478zM601 827.5
q61 84.5 80 226.5q7 46 7 92q0 104 -38.5 163t-110.5 59q-57 0 -105 -39.5t-80 -110.5t-46 -164q-6 -46 -6 -88q0 -104 38.5 -163.5t110.5 -59.5q89 0 150 84.5zM1038.5 18.5q-59.5 38.5 -92 111t-32.5 170.5q0 47 7 93q17 124 71 218t132.5 145t168.5 51q78 0 137 -39.5
t91.5 -112.5t32.5 -172q0 -34 -7 -90q-18 -125 -71 -218.5t-131 -144t-168 -50.5q-79 0 -138.5 38.5zM1294 122.5q48 39.5 80.5 109.5t45.5 159q6 45 6 85q0 105 -39 167t-110 62q-55 0 -103 -40.5t-81 -111.5t-46 -162q-6 -42 -6 -81q0 -104 39 -165.5t110 -61.5
q56 0 104 39.5z" />
    <glyph glyph-name="ampersand" unicode="&#x26;" horiz-adv-x="1345" 
d="M224.5 28q-81.5 38 -123 107t-41.5 162q0 28 5 66q20 139 113 242t274 197q-62 83 -93 152.5t-31 142.5q0 30 4 54q13 89 68 161.5t141.5 114t188.5 41.5q92 0 167.5 -32.5t119.5 -93t44 -139.5q0 -20 -3 -43q-13 -89 -99.5 -189.5t-279.5 -202.5l246 -377
q48 59 99.5 159.5t75.5 225.5h173q-38 -140 -106 -252.5t-170 -239.5l188 -284h-202l-110 162q-222 -172 -450 -172q-117 0 -198.5 38zM780.5 977.5q59.5 48.5 86 90.5t32.5 88q3 18 3 35q0 78 -52 115.5t-130 37.5q-58 0 -104 -25t-73.5 -66.5t-34.5 -90.5q-2 -22 -2 -32
q0 -60 25.5 -119.5t57.5 -102.5l27 -39q105 60 164.5 108.5zM645 171.5q85 37.5 156 100.5l-276 421q-115 -62 -186.5 -145t-81.5 -181q-1 -8 -1 -24q0 -63 29.5 -110.5t81 -73t115.5 -25.5q78 0 163 37.5z" />
    <glyph glyph-name="quotesingle" unicode="'" horiz-adv-x="486" 
d="M268 1446h212l-123 -462h-101z" />
    <glyph glyph-name="parenleft" unicode="(" horiz-adv-x="586" 
d="M177.5 86q-36.5 155 -36.5 322q0 110 16 225q35 238 140 467t258 423h119q-131 -206 -223.5 -436t-125.5 -456q-19 -129 -19 -260q0 -150 25 -302t74 -314h-119q-72 176 -108.5 331z" />
    <glyph glyph-name="parenright" unicode=")" horiz-adv-x="599" 
d="M429 1189.5q37 -155.5 37 -322.5q0 -110 -16 -225q-35 -238 -140 -466.5t-258 -423.5h-120q131 207 224 436.5t126 455.5q19 129 19 260q0 151 -25 303t-74 313h119q71 -175 108 -330.5z" />
    <glyph glyph-name="asterisk" unicode="*" horiz-adv-x="778" 
d="M216 845l188 233l-261 75l41 114l249 -100l-18 279h133l-17 -280l252 108l37 -113l-256 -81l183 -225l-108 -77l-155 251l-161 -258z" />
    <glyph glyph-name="plus" unicode="+" horiz-adv-x="1063" 
d="M958 658l-339 -1l-51 -359h-135l51 359l-341 -1l20 140h341l52 361h135l-52 -360h339z" />
    <glyph glyph-name="comma" unicode="," horiz-adv-x="469" 
d="M120 -4l-82 5l32 218h217l-27 -190l-201 -278h-80z" />
    <glyph glyph-name="hyphen" unicode="-" horiz-adv-x="733" 
d="M133 587l479 1l-20 -142l-478 -1z" />
    <glyph glyph-name="period" unicode="." horiz-adv-x="439" 
d="M72 231h207l-34 -231h-208z" />
    <glyph glyph-name="slash" unicode="/" horiz-adv-x="669" 
d="M635 1446h135l-692 -1526h-135z" />
    <glyph glyph-name="zero" unicode="0" horiz-adv-x="1161" 
d="M208.5 112q-103.5 131 -103.5 386q0 95 17 219q35 243 119 411.5t205.5 253.5t270.5 85q189 0 292.5 -134.5t103.5 -392.5q0 -96 -17 -220q-34 -242 -117 -407.5t-204 -248.5t-272 -83q-191 0 -294.5 131zM770.5 274.5q93.5 139.5 137.5 444.5q20 142 20 242
q0 182 -59 267.5t-175 85.5q-147 0 -243.5 -143.5t-141.5 -451.5q-19 -129 -19 -232q0 -181 60 -266.5t177 -85.5q150 0 243.5 139.5z" />
    <glyph glyph-name="one" unicode="1" horiz-adv-x="781" 
d="M444 1154h-264l17 119q120 0 191 18.5t105.5 56t47.5 98.5h124l-209 -1446h-179z" />
    <glyph glyph-name="two" unicode="2" horiz-adv-x="1161" 
d="M77 111l9 59q19 129 87.5 221.5t156 152.5t228.5 137q120 66 190.5 112.5t123 111.5t64.5 151q3 21 3 41q0 96 -64 153t-176 57q-132 0 -225 -80t-124 -215h-173q21 127 93 230t190 163.5t271 60.5q122 0 211.5 -42t136.5 -119.5t47 -181.5q0 -29 -5 -67
q-19 -129 -87 -221t-155 -150t-225 -131q-118 -62 -187 -107t-120.5 -108.5t-63.5 -149.5l-4 -30h719l-24 -159h-913z" />
    <glyph glyph-name="three" unicode="3" horiz-adv-x="1180" 
d="M267 24.5q-97 44.5 -149.5 128.5t-52.5 198q0 34 4 63h172q1 -134 74 -207t201 -73q100 0 179.5 33t129 93.5t60.5 139.5q3 21 3 42q0 73 -39.5 125t-109 79.5t-159.5 28.5l-122 2l21 153l118 3q88 1 165 36.5t126.5 93.5t59.5 125q2 18 2 27q0 56 -31 101.5t-90.5 72.5
t-143.5 27q-76 0 -147.5 -31.5t-123 -97t-67.5 -161.5h-174q20 135 97 235t192 152.5t246 52.5t228.5 -37t150.5 -108t53 -171q0 -31 -4 -56q-15 -111 -93 -196.5t-215 -133.5q118 -35 183.5 -113t65.5 -192q0 -26 -5 -61q-19 -127 -98.5 -222t-204 -145.5t-274.5 -50.5
q-131 0 -228 44.5z" />
    <glyph glyph-name="four" unicode="4" horiz-adv-x="1185" 
d="M703 372h-643l24 165l767 909h177l-131 -915h226l-23 -159h-227l-53 -372h-171zM722 531l98 678l-569 -678h471z" />
    <glyph glyph-name="five" unicode="5" horiz-adv-x="1234" 
d="M324.5 26.5q-101.5 46.5 -166.5 131t-84 193.5l160 63q32 -130 114.5 -206.5t211.5 -76.5q97 0 176 40.5t130 116.5t66 179q4 24 4 53q0 81 -35 142.5t-96 94.5t-138 33q-61 0 -109.5 -11t-99.5 -42.5t-109 -90.5q-7 -3 -9 -3q-3 0 -10 4l-139 46l171 753h815l-29 -155
h-661l-104 -474q76 66 161 96t182 30q113 0 203.5 -44t142.5 -131t52 -209q0 -41 -6 -86q-22 -149 -99.5 -260.5t-198.5 -172t-270 -60.5q-124 0 -225.5 46.5z" />
    <glyph glyph-name="six" unicode="6" horiz-adv-x="1176" 
d="M304.5 56q-96.5 63 -147 183t-50.5 288q0 83 14 186q34 233 120.5 405t220 265.5t302.5 93.5q114 0 204.5 -44.5t141 -129t48.5 -199.5h-165q-12 105 -76 164t-171 59q-121 0 -212.5 -73t-148 -214.5t-74.5 -346.5q35 74 95 130.5t135.5 88t154.5 31.5q120 0 208.5 -44.5
t136 -128t47.5 -198.5q0 -35 -7 -88q-20 -144 -94.5 -255.5t-191 -173.5t-259.5 -62q-135 0 -231.5 63zM710.5 182.5q71.5 42.5 119.5 118.5t63 175q5 40 5 69q0 120 -64 185.5t-186 65.5q-75 0 -149.5 -37.5t-126 -101t-61.5 -136.5q-7 -51 -7 -85q0 -88 30.5 -155
t87.5 -104t134 -37q83 0 154.5 42.5z" />
    <glyph glyph-name="seven" unicode="7" horiz-adv-x="1120" 
d="M393.5 363.5q96.5 214.5 241.5 460t323 467.5h-766l23 155h958l-23 -155q-142 -173 -292.5 -419t-264 -484.5t-151.5 -387.5h-189q44 149 140.5 363.5z" />
    <glyph glyph-name="eight" unicode="8" horiz-adv-x="1229" 
d="M291 36q-105 43 -161 122t-56 186q0 33 4 61q12 82 63 160t123 132.5t142 68.5q-82 39 -128 103t-46 155q0 29 4 54q18 122 90 211t183 135t243 46q120 0 212.5 -38.5t144 -113t51.5 -177.5q0 -26 -5 -63q-17 -113 -85 -190.5t-175 -121.5q60 -12 112.5 -58.5t83.5 -115
t31 -142.5q0 -22 -3 -45q-18 -124 -95.5 -217t-203 -144t-281.5 -51q-143 0 -248 43zM875.5 905q85.5 63 101.5 177q3 21 3 42q0 98 -67 155t-181 57q-82 0 -150.5 -31t-112 -88.5t-54.5 -134.5q-3 -21 -3 -41q0 -96 67.5 -147.5t182.5 -51.5q128 0 213.5 63zM740 170
q80 33 130 94t62 141q3 20 3 39q0 70 -36 124.5t-103.5 84.5t-158.5 30q-99 0 -179 -35.5t-130 -98.5t-62 -144q-3 -19 -3 -38q0 -70 35.5 -122t102.5 -80t159 -28q100 0 180 33z" />
    <glyph glyph-name="nine" unicode="9" horiz-adv-x="1161" 
d="M268 37q-89 45 -140 129.5t-50 197.5h159q10 -101 75 -161.5t170 -60.5q185 0 303 158.5t149 480.5q-33 -77 -91.5 -136.5t-134.5 -92t-159 -32.5q-117 0 -204 44.5t-134 129.5t-47 202q0 43 6 89q20 145 91.5 256.5t183.5 173t251 61.5q131 0 224 -63t142 -182.5
t49 -287.5q0 -83 -14 -187q-33 -241 -118 -412.5t-215 -261.5t-297 -90q-110 0 -199 45zM733 710.5q73 37.5 124 101t62 136.5q7 53 7 85q0 89 -30 156t-86.5 103.5t-132.5 36.5q-82 0 -151 -42t-115 -118.5t-60 -175.5q-5 -42 -5 -71q0 -118 61 -183.5t180 -65.5
q73 0 146 37.5z" />
    <glyph glyph-name="colon" unicode=":" horiz-adv-x="443" 
d="M181 992h209l-34 -230h-208zM72 235h208l-34 -229h-208z" />
    <glyph glyph-name="semicolon" unicode=";" horiz-adv-x="471" 
d="M203 990h209l-34 -233h-208zM146 0h-78l32 229h208l-29 -203l-206 -310h-75z" />
    <glyph glyph-name="less" unicode="&#x3c;" horiz-adv-x="1047" 
d="M137 610l23 164l846 333l-24 -170l-626 -245l553 -244l-23 -166z" />
    <glyph glyph-name="equal" unicode="=" horiz-adv-x="1066" 
d="M193 989l815 2l-21 -140l-814 -1zM129 546l815 2l-20 -140l-815 -1z" />
    <glyph glyph-name="greater" unicode="&#x3e;" horiz-adv-x="1047" 
d="M117 448l624 244l-555 245l25 170l749 -333l-25 -164l-843 -328z" />
    <glyph glyph-name="question" unicode="?" horiz-adv-x="1012" 
d="M418.5 541q38.5 78 86 135.5t121.5 132.5q60 62 95.5 103.5t63 91.5t35.5 107q3 18 3 36q0 84 -57.5 132.5t-156.5 48.5q-61 0 -124 -26t-115 -71t-81 -100l-149 48q80 135 209.5 211t281.5 76q114 0 198.5 -37.5t129.5 -104.5t45 -154q0 -17 -4 -51q-12 -80 -47 -145
t-79.5 -114.5t-117.5 -118.5t-116.5 -118t-78.5 -113.5t-47 -142.5h-148q14 96 52.5 174zM318 229h207l-34 -229h-207z" />
    <glyph glyph-name="at" unicode="@" horiz-adv-x="1565" 
d="M369.5 -141.5q-139.5 78.5 -211 215.5t-71.5 310q0 61 9 125q31 211 150 389.5t303.5 284t401.5 105.5q153 0 282.5 -55.5t208.5 -171t79 -285.5q0 -53 -9 -113q-21 -147 -84 -262t-153.5 -179t-192.5 -64q-72 0 -108 25.5t-44 77.5q-3 13 -7 13t-15 -11
q-114 -133 -273 -133q-62 0 -112 33.5t-78 95t-28 143.5q0 34 6 73q17 123 77.5 226.5t151 164t194.5 60.5q140 0 194 -121q2 -3 5 -3q6 0 9 10l24 64h117l-134 -445q-16 -52 -16 -87q0 -34 16 -49t49 -15q59 0 115 45t98 129t58 197q8 58 8 101q0 143 -64 236.5t-167.5 137
t-225.5 43.5q-192 0 -343 -88.5t-244.5 -239t-119.5 -333.5q-8 -61 -8 -111q0 -148 60 -260.5t179 -176t291 -63.5q80 0 141.5 16t109 41t113.5 69l52 -92q-95 -70 -213 -110.5t-246 -40.5q-195 0 -334.5 78.5zM797.5 296q56.5 37 99.5 99t62 134q15 57 15 101q0 80 -39 124
t-99 44q-65 0 -122 -42t-96 -113.5t-51 -157.5q-5 -37 -5 -63q0 -76 31.5 -119.5t90.5 -43.5q57 0 113.5 37z" />
    <glyph glyph-name="A" unicode="A" horiz-adv-x="1346" 
d="M711 1446h197l284 -1446h-178l-76 399h-559l-194 -399h-177zM915 565l-131 703l-337 -703h468z" />
    <glyph glyph-name="B" unicode="B" horiz-adv-x="1279" 
d="M323 1446h439q225 0 340.5 -79.5t115.5 -232.5q0 -27 -5 -65q-18 -120 -88.5 -201t-212.5 -131q241 -57 241 -279q0 -29 -5 -69q-56 -389 -580 -389h-454zM703 808q125 0 222 55.5t115 182.5q3 21 3 41q0 104 -78.5 157t-216.5 53h-273l-70 -489h298zM588 150
q349 0 386 246q3 23 3 42q0 110 -81 163.5t-215 53.5h-297l-73 -505h277z" />
    <glyph glyph-name="C" unicode="C" horiz-adv-x="1334" 
d="M362 47.5q-110 67.5 -166.5 194t-56.5 302.5q0 82 14 182q33 229 125 396t234 255.5t322 88.5q143 0 249 -58.5t160.5 -158.5t49.5 -221l-187 -10q-5 134 -80 212.5t-218 78.5q-185 0 -303 -146t-159 -439q-15 -103 -15 -189q0 -197 80.5 -297.5t239.5 -100.5
q124 0 222.5 77.5t144.5 209.5l181 -15q-31 -121 -109.5 -218.5t-197 -154t-263.5 -56.5q-157 0 -267 67.5z" />
    <glyph glyph-name="D" unicode="D" horiz-adv-x="1330" 
d="M323 1446l317 -2q319 -4 469.5 -139t150.5 -400q0 -83 -13 -173q-53 -364 -259 -548t-574 -184h-300zM437 155q266 0 424.5 135t201.5 439q12 83 12 150q0 221 -118.5 316.5t-350.5 95.5h-127l-163 -1136h121z" />
    <glyph glyph-name="E" unicode="E" horiz-adv-x="1200" 
d="M323 1446h861l-25 -159h-685l-68 -479h617l-23 -157h-617l-70 -489l704 -1l-24 -161h-879z" />
    <glyph glyph-name="F" unicode="F" horiz-adv-x="1124" 
d="M323 1446h850l-23 -157h-671l-68 -484h602l-23 -157h-602l-94 -648h-178z" />
    <glyph glyph-name="G" unicode="G" horiz-adv-x="1409" 
d="M361 46.5q-109 66.5 -166 192.5t-57 300q0 81 14 179q33 232 129.5 400.5t242 258t322.5 89.5q129 0 232 -55.5t161 -148.5t58 -201q0 -20 -1 -30l-191 -11q-2 81 -37.5 146t-100 102.5t-148.5 37.5q-121 0 -219.5 -66t-165.5 -195t-94 -315q-13 -90 -13 -171
q0 -209 87.5 -312.5t243.5 -103.5q107 0 191.5 52.5t136.5 131.5t67 157l24 130h-333l20 132l514 -1l-108 -745h-131l32 222q-173 -242 -448 -242q-153 0 -262 66.5z" />
    <glyph glyph-name="H" unicode="H" horiz-adv-x="1359" 
d="M323 1446h175l-89 -618h637l89 618h174l-209 -1446h-175l97 669h-637l-96 -669h-175z" />
    <glyph glyph-name="I" unicode="I" horiz-adv-x="548" 
d="M323 1446h175l-208 -1446h-174z" />
    <glyph glyph-name="J" unicode="J" horiz-adv-x="743" 
d="M73 -4.5q-60 15.5 -92 30.5l37 171q9 -3 29 -13q34 -15 62 -23.5t66 -8.5q62 0 100 23.5t60.5 74.5t34.5 139l152 1057h174l-159 -1108q-18 -121 -55 -198.5t-106 -118.5t-180 -41q-63 0 -123 15.5z" />
    <glyph glyph-name="K" unicode="K" horiz-adv-x="1298" 
d="M323 1446h181l-107 -753l720 753h207l-534 -564l368 -882h-198l-320 748l-278 -290l-66 -458h-182z" />
    <glyph glyph-name="L" unicode="L" horiz-adv-x="1076" 
d="M323 1446h179l-185 -1284h645l-23 -162h-825z" />
    <glyph glyph-name="M" unicode="M" horiz-adv-x="1684" 
d="M323 1446h242l239 -1203l591 1203h238l-207 -1446h-180l169 1172l-565 -1172h-162l-226 1161l-168 -1161h-178z" />
    <glyph glyph-name="N" unicode="N" horiz-adv-x="1437" 
d="M323 1446h166l561 -1133l163 1133h174l-209 -1446h-155l-569 1148l-165 -1148h-175z" />
    <glyph glyph-name="O" unicode="O" horiz-adv-x="1429" 
d="M367 44.5q-112 64.5 -170.5 189.5t-58.5 302q0 81 14 181q34 236 130 404.5t242.5 256.5t328.5 88q156 0 267 -65.5t169 -192t58 -305.5q0 -82 -14 -183q-34 -233 -128.5 -399.5t-239.5 -253.5t-327 -87q-159 0 -271 64.5zM978.5 280.5q122.5 143.5 163.5 437.5
q14 95 14 185q0 205 -83.5 305.5t-242.5 100.5q-193 0 -318 -147t-168 -444q-14 -101 -14 -177q0 -204 85.5 -304t247.5 -100q193 0 315.5 143.5z" />
    <glyph glyph-name="P" unicode="P" horiz-adv-x="1226" 
d="M323 1446h462q134 0 234.5 -43t156.5 -128t56 -205q0 -38 -6 -80q-21 -142 -96 -244.5t-192 -156t-261 -53.5h-305l-78 -536h-178zM696 688q93 0 170.5 38t127.5 108.5t64 165.5q4 36 4 52q0 118 -77.5 181t-211.5 63h-293l-87 -608h303z" />
    <glyph glyph-name="Q" unicode="Q" horiz-adv-x="1400" 
d="M931.5 -191q-99.5 51 -159.5 189q-97 -18 -164 -18q-156 0 -268 64t-171.5 188.5t-59.5 304.5q0 92 14 183q34 236 129.5 404t241.5 255t328 87q157 0 268.5 -65t170 -191.5t58.5 -306.5q0 -82 -14 -183q-33 -230 -120.5 -390t-239.5 -254q22 -79 84 -120.5t148 -44.5
l-23 -153q-123 0 -222.5 51zM948.5 280q122.5 143 165.5 439q14 92 14 182q0 204 -84 306t-245 102q-195 0 -318.5 -148t-166.5 -445q-14 -103 -14 -179q0 -203 84.5 -301.5t246.5 -98.5q195 0 317.5 143z" />
    <glyph glyph-name="R" unicode="R" horiz-adv-x="1299" 
d="M323 1446h528q195 0 294.5 -82.5t99.5 -234.5q0 -37 -6 -76q-23 -161 -111.5 -255t-211.5 -139l174 -659h-184l-159 626h-368l-91 -626h-174zM699 776q156 0 248.5 67t110.5 199q4 25 4 53q0 101 -64 152t-183 51h-340l-75 -522h299z" />
    <glyph glyph-name="S" unicode="S" horiz-adv-x="1323" 
d="M342 25q-112 45 -178 132.5t-65 210.5l185 13q5 -81 48.5 -137.5t115 -85t161.5 -28.5q98 0 180.5 29.5t134.5 83.5t62 127q3 20 3 39q0 81 -53.5 135t-155.5 79l-264 66q-282 70 -282 297q0 31 4 58q17 123 94.5 218.5t198.5 148.5t264 53q152 0 255.5 -56t152 -148.5
t43.5 -202.5l-179 -11q0 139 -80 202t-215 63q-81 0 -155.5 -29t-125.5 -85.5t-62 -135.5q-3 -18 -3 -35q0 -65 48.5 -107.5t162.5 -72.5l254 -67q155 -37 219 -124t64 -203q0 -41 -6 -80q-15 -109 -91 -198.5t-202.5 -141.5t-286.5 -52q-134 0 -246 45z" />
    <glyph glyph-name="T" unicode="T" horiz-adv-x="1094" 
d="M578 1281h-440l24 165h1032l-24 -165h-417l-184 -1281h-174z" />
    <glyph glyph-name="U" unicode="U" horiz-adv-x="1365" 
d="M280.5 79q-104.5 99 -104.5 296q0 62 11 142l134 929h180l-137 -957q-7 -43 -7 -88q0 -131 70 -197.5t204 -66.5q156 0 252.5 88t121.5 264l137 957h176l-136 -949q-37 -255 -177 -386t-397 -131q-223 0 -327.5 99z" />
    <glyph glyph-name="V" unicode="V" horiz-adv-x="1223" 
d="M158 1446h171l231 -1242l595 1242h172l-693 -1446h-209z" />
    <glyph glyph-name="W" unicode="W" horiz-adv-x="1813" 
d="M181 1446h177l135 -1162l474 1162h136l143 -1162l474 1162h174l-607 -1446h-161l-138 1130l-465 -1130h-157z" />
    <glyph glyph-name="X" unicode="X" horiz-adv-x="1247" 
d="M546 738l-342 708h220l257 -553l417 553h193l-535 -690l367 -756h-218l-282 596l-450 -596h-196z" />
    <glyph glyph-name="Y" unicode="Y" horiz-adv-x="1134" 
d="M492 617l-344 829h190l266 -669l454 669h191l-582 -830l-90 -616h-172z" />
    <glyph glyph-name="Z" unicode="Z" horiz-adv-x="1202" 
d="M46 100l918 1189h-716l23 157h961l-14 -96l-926 -1192h751l-24 -158h-988z" />
    <glyph glyph-name="bracketleft" unicode="[" horiz-adv-x="592" 
d="M318 1446h351l-17 -116h-198l-222 -1536h198l-17 -116h-348z" />
    <glyph glyph-name="backslash" unicode="\" horiz-adv-x="659" 
d="M155 1446h134l253 -1526h-136z" />
    <glyph glyph-name="bracketright" unicode="]" horiz-adv-x="619" 
d="M275 -322h-351l17 116h198l222 1536h-199l17 116h349z" />
    <glyph glyph-name="asciicircum" unicode="^" horiz-adv-x="904" 
d="M439 982q18 34 41 52t45 18q23 0 40 -17.5t26 -51.5l177 -726h-139l-134 588l-306 -585h-134z" />
    <glyph glyph-name="underscore" unicode="_" horiz-adv-x="993" 
d="M40 -94l741 1l-22 -141l-741 -1z" />
    <glyph glyph-name="grave" unicode="`" horiz-adv-x="551" 
d="M132 1327l65 138l433 -194l-43 -92z" />
    <glyph glyph-name="a" unicode="a" horiz-adv-x="1050" 
d="M129.5 45q-76.5 65 -76.5 181q0 29 4 53q24 173 150 256.5t377 89.5l174 5l12 82q3 20 3 38q0 82 -52 126.5t-144 44.5q-87 -1 -159 -47t-101 -131h-155q19 89 79 160t154.5 111t209.5 40q166 0 252.5 -72t86.5 -200q0 -33 -4 -61l-104 -721h-149l14 188
q-71 -114 -161.5 -161t-203.5 -47q-130 0 -206.5 65zM540 143q69 33 118 86.5t58 109.5l25 179l-144 -3q-174 -3 -263.5 -54t-105.5 -165q-2 -22 -2 -30q0 -73 49 -114.5t132 -41.5q64 0 133 33z" />
    <glyph glyph-name="b" unicode="b" horiz-adv-x="1130" 
d="M345.5 46q-68.5 66 -88.5 144l-44 -190h-131l213 1486h175l-91 -634q50 78 133 140t210 62q164 0 245.5 -106.5t81.5 -289.5q0 -68 -10 -137q-24 -167 -88 -288.5t-164.5 -187t-232.5 -65.5q-140 0 -208.5 66zM747 218q84 100 112 305q10 63 10 121q0 133 -55.5 201.5
t-162.5 68.5q-145 0 -214 -89.5t-92 -195.5l-30 -217q-3 -24 -3 -48q0 -70 27 -126t78.5 -88t122.5 -32q123 0 207 100z" />
    <glyph glyph-name="c" unicode="c" horiz-adv-x="1018" 
d="M257.5 32q-85.5 52 -130.5 147t-45 222q0 59 8 111q23 159 96 282t184 191.5t245 68.5q102 0 179.5 -41t119.5 -118.5t41 -183.5l-155 -3q-8 96 -61 148.5t-138 52.5q-88 0 -159.5 -48t-119.5 -137t-65 -208q-8 -56 -8 -99q0 -140 63 -220t176 -80q88 0 158 55t100 144
h150q-29 -107 -94.5 -183t-154 -114.5t-187.5 -38.5q-117 0 -202.5 52z" />
    <glyph glyph-name="d" unicode="d" horiz-adv-x="1129" 
d="M166 85q-86 105 -86 294q0 63 11 142q23 155 83.5 275.5t159 189t227.5 68.5q84 0 145 -29t96 -69.5t50 -79.5l87 610h175l-215 -1486h-133l12 212q-40 -88 -125.5 -160t-233.5 -72q-167 0 -253 105zM616 155.5q67 37.5 110.5 101.5t55.5 139l35 246q1 7 1 23
q0 55 -20 111.5t-71.5 97t-139.5 40.5q-128 0 -212 -100.5t-110 -290.5q-10 -66 -10 -125q0 -142 57.5 -211t158.5 -69q78 0 145 37.5z" />
    <glyph glyph-name="e" unicode="e" horiz-adv-x="1051" 
d="M263 29q-88 49 -135.5 142.5t-47.5 222.5q0 53 9 113q24 164 94.5 287.5t180.5 191.5t249 68q175 0 267.5 -102.5t92.5 -287.5q0 -57 -9 -122l-10 -68h-695q-6 -43 -6 -83q0 -123 59.5 -196.5t176.5 -73.5q93 0 162 45.5t110 134.5h162q-37 -105 -107 -177t-159.5 -108
t-186.5 -36q-119 0 -207 49zM805 597q6 39 6 75q0 112 -55 178t-164 66q-87 0 -154.5 -45.5t-108 -118.5t-51.5 -155h527z" />
    <glyph glyph-name="f" unicode="f" horiz-adv-x="758" 
d="M329 902h-208l20 132h206l23 161q19 123 87.5 187t186.5 64h183l-18 -128h-145q-59 0 -86.5 -32.5t-38.5 -105.5l-20 -146h240l-20 -132h-237l-129 -902h-174z" />
    <glyph glyph-name="g" unicode="g" horiz-adv-x="1167" 
d="M182.5 -313q-100.5 29 -151.5 83t-51 128q0 22 2 33q12 81 67.5 130t125.5 83q7 4 13 7t10 6q-6 5 -29.5 20.5t-38.5 38.5t-15 52q0 55 50.5 100.5t144.5 67.5q-75 44 -109.5 101t-34.5 132q0 29 4 54q15 101 79 175t165.5 113t226.5 39q91 0 153.5 -22.5t114.5 -67.5
q36 14 99 41l166 67l-26 -168l-176 -35q6 -21 10.5 -52t4.5 -58q0 -14 -2 -32q-13 -90 -69 -164t-154 -118t-231 -44q-28 0 -58 2q-99 -3 -142 -25t-43 -52q0 -17 17.5 -27t54.5 -15.5t105 -10.5l114 -8l97 -6q142 -9 212 -69t70 -161q0 -15 -4 -49q-14 -98 -79.5 -169.5
t-179 -110t-266.5 -38.5q-146 0 -246.5 29zM736 566.5q67 53.5 81 154.5q3 23 3 42q0 84 -55.5 129.5t-150.5 45.5q-112 0 -184 -58.5t-86 -158.5q-3 -19 -3 -37q0 -82 55 -126.5t157 -44.5q116 0 183 53.5zM693 -183q74 43 88 133q2 18 2 27q0 55 -38 86t-121 37l-271 19
q-37 2 -80.5 -20t-76 -61.5t-38.5 -86.5q-2 -16 -2 -23q0 -77 81.5 -115.5t238.5 -38.5q143 0 217 43z" />
    <glyph glyph-name="h" unicode="h" horiz-adv-x="1124" 
d="M296 1486h171l-87 -598q51 71 134.5 115.5t194.5 44.5q86 0 154 -32.5t106.5 -92t38.5 -136.5q0 -22 -3 -45l-107 -742h-175l102 707q3 18 3 33q0 75 -51.5 118t-139.5 43q-68 0 -129 -23.5t-102 -70t-50 -112.5l-100 -695h-175z" />
    <glyph glyph-name="i" unicode="i" horiz-adv-x="523" 
d="M303 1437h185l-28 -187h-185zM250 1034h174l-148 -1034h-175z" />
    <glyph glyph-name="j" unicode="j" horiz-adv-x="513" 
d="M299 1437h186l-27 -187h-186zM-126.5 -325.5q-29.5 6.5 -36.5 16.5l17 120l97 4q67 5 98 37t42 105l155 1077h175l-157 -1083q-14 -99 -48.5 -160.5t-98 -92t-162.5 -30.5q-52 0 -81.5 6.5z" />
    <glyph glyph-name="k" unicode="k" horiz-adv-x="1081" 
d="M296 1486h173l-140 -974l535 522h200l-410 -393l284 -641h-185l-229 523l-224 -215l-45 -308h-174z" />
    <glyph glyph-name="l" unicode="l" horiz-adv-x="569" 
d="M166 39.5q-48 52.5 -48 143.5q0 33 7 82l177 1221h172l-174 -1204q-3 -25 -3 -46q0 -110 90 -116l52 -1l-17 -116q-51 -16 -90 -16q-118 0 -166 52.5z" />
    <glyph glyph-name="m" unicode="m" horiz-adv-x="1667" 
d="M230 1034h169l-21 -144q122 164 318 164q87 0 160.5 -42t97.5 -121q58 76 144 119.5t178 43.5q69 0 130 -25.5t101 -87.5t40 -165q0 -44 -7 -87l-99 -689h-174l98 674q5 38 5 62q0 177 -170 177q-94 0 -165.5 -54t-88.5 -171l-99 -688h-173l104 729q2 20 2 28
q0 50 -25 85t-64.5 53t-83.5 18q-54 0 -107.5 -22t-92.5 -68.5t-49 -114.5l-103 -708h-173z" />
    <glyph glyph-name="n" unicode="n" horiz-adv-x="1125" 
d="M231 1034h169l-20 -144q54 72 136.5 115.5t192.5 43.5q84 0 150.5 -34.5t104.5 -101t38 -160.5q0 -35 -6 -74l-97 -679h-175l96 662q4 24 4 52q0 89 -49.5 138t-134.5 49q-69 0 -130.5 -23t-103 -69.5t-50.5 -112.5l-100 -696h-174z" />
    <glyph glyph-name="o" unicode="o" horiz-adv-x="1073" 
d="M254 31q-85 51 -129 144.5t-44 219.5q0 55 9 115q23 160 95.5 283.5t184 192t247.5 68.5q119 0 203 -52.5t127.5 -148t43.5 -221.5q0 -57 -9 -119q-23 -157 -93.5 -278t-181 -188t-248.5 -67q-120 0 -205 51zM702 231q83 109 107 286q9 59 9 112q0 131 -55 207t-168 76
q-136 0 -221 -109t-110 -286q-8 -58 -8 -104q0 -134 56.5 -212.5t171.5 -78.5q135 0 218 109z" />
    <glyph glyph-name="p" unicode="p" horiz-adv-x="1129" 
d="M232 1034h172l-21 -143q61 67 139 115t188 48q100 0 177 -44.5t120.5 -133.5t43.5 -219q0 -62 -10 -126q-25 -172 -99 -296.5t-181.5 -189.5t-232.5 -65q-83 0 -145 38.5t-105 124.5l-67 -465h-174zM678.5 166q73.5 48 124.5 140t69 219q7 48 7 95q0 96 -31 162t-84.5 99
t-120.5 33q-70 0 -134 -36.5t-106 -93t-50 -110.5l-54 -394q33 -75 90.5 -118.5t131.5 -43.5q84 0 157.5 48z" />
    <glyph glyph-name="q" unicode="q" horiz-adv-x="1126" 
d="M748 161q-57 -89 -136.5 -135t-174.5 -46q-108 0 -187.5 49t-123 143t-43.5 227q0 65 10 132q24 170 94.5 288t171 176.5t216.5 58.5q76 0 131 -25t84 -53t67 -72l19 130h172l-196 -1356h-173zM640.5 155.5q60.5 43.5 97 113.5t48.5 148l32 234q3 21 3 42
q0 62 -25.5 113.5t-74 82.5t-113.5 31q-78 0 -147.5 -43t-120 -131t-69.5 -218q-7 -50 -7 -102q0 -98 29 -168.5t83 -108t126 -37.5q78 0 138.5 43.5z" />
    <glyph glyph-name="r" unicode="r" horiz-adv-x="729" 
d="M231 1034h165l-28 -197q52 95 154.5 156t234.5 61l-25 -173q-12 1 -36 1q-162 0 -247 -63t-100 -172l-93 -647h-175z" />
    <glyph glyph-name="s" unicode="s" horiz-adv-x="983" 
d="M236 16q-82 36 -128 107.5t-45 175.5h162q4 -92 65 -137t153 -45q100 0 165.5 42t77.5 117q1 7 1 21q0 91 -121 126l-186 53q-108 30 -165 83.5t-57 142.5q0 22 3 44q14 97 70.5 166.5t146 105.5t200.5 36q146 0 231 -66.5t85 -185.5q0 -21 -3 -44h-154q1 74 -48 116.5
t-135 42.5q-85 0 -153 -37.5t-79 -122.5q-1 -7 -1 -19q0 -45 35.5 -72.5t109.5 -47.5l188 -54q103 -29 147.5 -92.5t44.5 -142.5q0 -22 -3 -43q-14 -97 -74 -166t-150.5 -104.5t-195.5 -35.5t-187 36z" />
    <glyph glyph-name="t" unicode="t" horiz-adv-x="707" 
d="M215.5 39.5q-52.5 44.5 -52.5 136.5q0 34 6 73l95 653h-160l20 132h163l75 300h139l-42 -299h221l-20 -133h-221l-91 -640q-4 -25 -4 -49q0 -34 11 -51t33.5 -23t61.5 -6h106l-18 -121q-44 -17 -146 -17q-124 0 -176.5 44.5z" />
    <glyph glyph-name="u" unicode="u" horiz-adv-x="1124" 
d="M292.5 11.5q-73.5 30.5 -121 96.5t-47.5 165q0 33 4 61l102 703h175l-100 -685q-3 -22 -3 -44q0 -96 59 -141t141 -45q64 0 122 27t98 81.5t52 132.5l97 674h174l-150 -1036h-138l9 198q-26 -72 -77 -121t-114.5 -73t-128.5 -24q-80 0 -153.5 30.5z" />
    <glyph glyph-name="v" unicode="v" horiz-adv-x="951" 
d="M117 1034h164l142 -810h16l378 810h163l-501 -1034h-159z" />
    <glyph glyph-name="w" unicode="w" horiz-adv-x="1487" 
d="M130 1034h162l108 -803h15l336 803h132l114 -801h15l329 801h162l-444 -1034h-171l-112 771l-323 -771h-171z" />
    <glyph glyph-name="x" unicode="x" horiz-adv-x="1075" 
d="M444 537l-274 497h190l202 -367l305 367h190l-418 -497l299 -537h-189l-227 409l-341 -409h-190z" />
    <glyph glyph-name="y" unicode="y" horiz-adv-x="1008" 
d="M23.5 -322.5q-37.5 7.5 -53.5 17.5l17 116l101 -1q97 -4 143.5 28.5t72.5 85.5l49 100l-236 1010h176l173 -805l401 805h170l-571 -1116q-74 -138 -158 -193t-192 -55q-55 0 -92.5 7.5z" />
    <glyph glyph-name="z" unicode="z" horiz-adv-x="974" 
d="M34 111l676 800h-520l18 123h733l-17 -113l-674 -796h569l-18 -125h-783z" />
    <glyph glyph-name="braceleft" unicode="{" horiz-adv-x="625" 
d="M195 -275.5q-59 46.5 -59 127.5q0 16 3 34l63 434q2 18 2 27q0 69 -47.5 116.5t-140.5 47.5l17 110q106 1 167 54.5t74 145.5l61 422q9 62 47 108t97 70.5t129 24.5h94l-17 -116h-68q-68 0 -96 -25t-35 -78l-62 -427q-16 -105 -78 -162t-141 -65q-12 -1 -12 -7
q0 -5 10 -6q68 -6 112.5 -49t44.5 -131q0 -22 -3 -48l-62 -431q-2 -22 -2 -30q0 -41 24 -59t81 -18h66l-17 -116h-92q-101 0 -160 46.5z" />
    <glyph glyph-name="bar" unicode="|" horiz-adv-x="511" 
d="M354 1652h136l-284 -1974h-135z" />
    <glyph glyph-name="braceright" unicode="}" horiz-adv-x="634" 
d="M429 1399.5q59 -46.5 59 -127.5q0 -16 -3 -34l-63 -434q-2 -20 -2 -29q0 -69 47.5 -115.5t140.5 -46.5l-17 -110q-106 -1 -167 -54.5t-74 -145.5l-61 -422q-9 -62 -47 -108t-97 -70.5t-129 -24.5h-94l17 116h68q68 0 96 25t35 78l62 427q16 105 78 162t141 65q12 2 12 7
t-10 6q-68 6 -112.5 49t-44.5 131q0 23 3 48l61 431q3 18 3 32q0 40 -23.5 57.5t-81.5 17.5h-66l17 116h91q102 0 161 -46.5z" />
    <glyph glyph-name="asciitilde" unicode="~" horiz-adv-x="1086" 
d="M144 710q73 66 135.5 100.5t139.5 34.5q49 0 87.5 -14t89.5 -41q50 -26 83.5 -38t73.5 -12q65 0 114 30t91 80l36 -104q-42 -59 -110 -94.5t-148 -35.5q-52 0 -91 14t-89 41q-47 25 -80 37t-75 12q-64 0 -116 -30.5t-105 -82.5z" />
    <glyph glyph-name="uni00A0" unicode="&#xa0;" horiz-adv-x="458" 
 />
    <glyph glyph-name="exclamdown" unicode="&#xa1;" horiz-adv-x="494" 
d="M211 1034h207l-31 -229h-207zM208 669h116l-85 -991h-211z" />
    <glyph glyph-name="cent" unicode="&#xa2;" horiz-adv-x="1063" 
d="M496.5 1083q-73.5 -48 -123 -137t-67.5 -208q-7 -48 -7 -98q0 -141 64.5 -221t180.5 -80q89 0 161 55t104 144h154q-33 -119 -112.5 -199.5t-186.5 -114.5l-15 -224h-127l14 202h-21q-120 0 -208 52t-134.5 147t-46.5 222q0 53 9 111q21 140 82.5 253t155 186t208.5 94
l12 179h127l-11 -171q95 -7 166.5 -50t110 -117.5t37.5 -174.5l-159 -3q-9 96 -63 148.5t-141 52.5q-90 0 -163.5 -48z" />
    <glyph glyph-name="sterling" unicode="&#xa3;" horiz-adv-x="1166" 
d="M-20 155h71q76 0 133 69.5t78 207.5q14 95 14 256h-192l18 116h170l-4 164l-1 28q0 141 64.5 248t170 164.5t223.5 57.5q88 0 162 -30.5t123 -84t66 -120.5l-161 -57q-24 71 -67.5 104.5t-122.5 33.5q-63 0 -117.5 -27t-91.5 -77.5t-47 -120.5q-7 -59 -7 -115
q0 -83 12 -167h304l-18 -115h-289q0 -73 -4.5 -125.5t-16.5 -105.5q-21 -116 -62 -186.5t-91 -115.5h329q98 0 159.5 36.5t106.5 125.5l143 -41q-64 -138 -170 -208t-253 -70h-655z" />
    <glyph glyph-name="currency" unicode="&#xa4;" horiz-adv-x="1035" 
d="M86 391l129 116q-37 74 -37 160q0 32 4 60q18 114 87 205q7 8 7 15q0 6 -6 12l-84 108l97 89l96 -122q48 34 104.5 52.5t111.5 18.5q53 0 101 -16t86 -47q8 -4 11 -4q6 0 12 6l118 108l70 -90l-128 -117q38 -76 38 -161q0 -31 -4 -56q-8 -57 -30.5 -110t-57.5 -95
q-5 -8 -5 -14q0 -4 3 -9l89 -105l-98 -90l-93 117q-110 -73 -219 -73q-53 0 -101.5 16t-86.5 45q-7 5 -12 5q-8 0 -14 -8l-119 -109zM629.5 518.5q56.5 33.5 94.5 89.5t47 120q3 18 3 37q0 56 -24.5 103t-69 75t-101.5 28q-63 0 -120.5 -34t-95.5 -90t-47 -119
q-3 -19 -3 -37q0 -57 24.5 -104t69.5 -74.5t103 -27.5q63 0 119.5 33.5z" />
    <glyph glyph-name="yen" unicode="&#xa5;" horiz-adv-x="1156" 
d="M725 676h267l-16 -114h-289l-26 -179h288l-17 -113l-287 -1l-39 -269h-198l38 269l-288 -1l16 114h288l26 179h-288l16 114h249l-323 771h226l265 -666l458 666h186z" />
    <glyph glyph-name="brokenbar" unicode="&#xa6;" horiz-adv-x="511" 
d="M354 1652h136l-116 -801h-135zM185 479h135l-114 -801h-135z" />
    <glyph glyph-name="section" unicode="&#xa7;" horiz-adv-x="936" 
d="M219 -113.5q-77 29.5 -130 82t-76 119.5l124 64q35 -77 103 -123.5t166 -46.5q93 0 156 38.5t73 107.5q2 14 2 22q0 46 -36 85.5t-122 77.5l-152 66q-109 47 -159.5 107t-50.5 141q0 21 3 43q13 90 73.5 157t150.5 103q-80 50 -113 102.5t-33 113.5q0 20 3 41
q12 79 65.5 142.5t139 100t190.5 36.5q82 0 150 -27.5t115 -74t70 -101.5l-124 -64q-41 66 -94.5 104t-126.5 38q-93 0 -151.5 -37.5t-68.5 -101.5q-1 -6 -1 -17q0 -41 29.5 -76.5t95.5 -65.5l147 -66q122 -55 178 -121t56 -152q0 -16 -4 -48q-12 -92 -66 -152.5
t-139 -103.5q71 -46 106.5 -98.5t35.5 -118.5q0 -18 -3 -38q-13 -83 -67.5 -148.5t-144 -102.5t-202.5 -37q-91 0 -168 29.5zM608 488q42 21 70 59.5t33 83.5q1 9 1 27q0 52 -29.5 90t-105.5 73l-96 43q-51 -4 -96 -29t-74 -63t-35 -79q-2 -18 -2 -26q0 -43 31 -75.5
t111 -69.5l105 -51q45 -4 87 17z" />
    <glyph glyph-name="dieresis" unicode="&#xa8;" horiz-adv-x="510" 
d="M131 1437h186l-27 -187h-186zM452 1437h186l-27 -187h-186z" />
    <glyph glyph-name="copyright" unicode="&#xa9;" horiz-adv-x="1548" 
d="M383.5 62q-137.5 82 -215 225.5t-77.5 321.5q0 63 8 115q29 201 147.5 371.5t294.5 270.5t366 100q172 0 309.5 -83t215 -227t77.5 -320q0 -61 -8 -112q-29 -203 -148.5 -374t-294.5 -270.5t-364 -99.5q-173 0 -310.5 82zM1012.5 179q142.5 77 240 218.5t123.5 326.5
q8 61 8 109q0 153 -63.5 269.5t-176 180t-254.5 63.5q-161 0 -304 -78t-239.5 -219.5t-122.5 -324.5q-8 -52 -8 -113q0 -154 63 -269.5t175.5 -177.5t257.5 -62q158 0 300.5 77zM583 352.5q-70 41.5 -107.5 117t-37.5 175.5q0 40 6 82q17 122 77 217.5t150 148.5t195 53
q110 0 178.5 -61.5t100.5 -158.5l-134 -33q-23 68 -60.5 104.5t-95.5 36.5q-63 0 -117.5 -36.5t-91.5 -105.5t-50 -161q-6 -42 -6 -79q0 -108 49 -168t134 -60q68 0 126 40.5t101 111.5l93 -37q-58 -97 -147 -162.5t-200 -65.5q-93 0 -163 41.5z" />
    <glyph glyph-name="ordfeminine" unicode="&#xaa;" horiz-adv-x="759" 
d="M198 831q-46 39 -46 109q0 22 2 33q13 94 98 150t230 67l105 9l6 47q2 18 2 25q0 99 -118 99q-51 0 -89.5 -21t-75.5 -75l-98 31q46 77 115 117t167 40q108 -1 160 -46t52 -128q0 -19 -3 -42q-17 -115 -25 -180l-8 -55q-4 -26 -7.5 -65t-3.5 -70v-72h-116l-4 86
q-57 -52 -106 -75t-107 -23q-84 0 -130 39zM505 930q25 21 39 40.5t16 40.5l15 107l-86 -6q-99 -7 -154 -41.5t-63 -91.5q-1 -5 -1 -14q0 -39 28.5 -61.5t78.5 -22.5q71 0 127 49z" />
    <glyph glyph-name="guillemotleft" unicode="&#xab;" horiz-adv-x="868" 
d="M78 502l301 377h100l-244 -377l135 -361h-98zM410 502l302 377h100l-244 -377l136 -361h-99z" />
    <glyph glyph-name="logicalnot" unicode="&#xac;" horiz-adv-x="1064" 
d="M969 727l-52 -356h-146l40 287l-668 -2l22 140l815 1z" />
    <glyph glyph-name="uni00AD" unicode="&#xad;" horiz-adv-x="733" 
d="M133 587l479 1l-20 -142l-478 -1z" />
    <glyph glyph-name="registered" unicode="&#xae;" horiz-adv-x="1023" 
d="M315 587q-86 51 -134 140.5t-48 199.5q0 42 5 73q18 127 92 234t184 169.5t231 62.5q107 0 192.5 -52t134 -142t48.5 -201q0 -31 -5 -71q-18 -127 -92.5 -233.5t-184 -168.5t-228.5 -62q-109 0 -195 51zM710 673q85 46 141 130.5t72 196.5q5 42 5 71q0 92 -36 161
t-103 106t-157 37q-103 0 -189 -46.5t-141.5 -131.5t-71.5 -197q-5 -31 -5 -72q0 -92 36 -160t103 -104.5t159 -36.5q102 0 187 46zM442 1228h196q65 0 100 -25t35 -73q0 -12 -1 -19q-12 -88 -110 -124l54 -220h-90l-42 212h-97l-31 -212h-82zM602 1047q38 0 61.5 15.5
t23.5 49.5q0 50 -74 50h-100l-17 -115h106z" />
    <glyph glyph-name="macron" unicode="&#xaf;" horiz-adv-x="623" 
d="M153 1420h564l-18 -127h-564z" />
    <glyph glyph-name="degree" unicode="&#xb0;" horiz-adv-x="891" 
d="M381.5 1079.5q-57.5 32.5 -89 90.5t-31.5 134q0 30 4 55q13 90 61.5 161.5t121.5 112t158 40.5q75 0 132.5 -33t89.5 -92t32 -136q0 -29 -4 -53q-13 -90 -62 -161t-122 -111t-158 -40q-75 0 -132.5 32.5zM664.5 1215.5q55.5 54.5 67.5 141.5q3 21 3 41q0 71 -40 113
t-111 42q-79 0 -135 -54.5t-68 -141.5q-2 -24 -2 -34q0 -74 39.5 -118t111.5 -44q79 0 134.5 54.5z" />
    <glyph glyph-name="plusminus" unicode="&#xb1;" horiz-adv-x="1067" 
d="M1003 949l-20 -139l-340 -1l-52 -358h-133l51 358l-341 -1l21 140h340l52 361h135l-53 -360h340zM89 258l814 1l-20 -139l-815 -1z" />
    <glyph glyph-name="uni00B2" unicode="&#xb2;" horiz-adv-x="688" 
d="M109 838l5 37q12 81 55 139.5t98 96t144 85.5q75 41 120 70.5t78 70.5t40 95q2 18 2 26q0 60 -40.5 96t-110.5 36q-83 0 -141.5 -50t-77.5 -136h-110q14 80 59 145t119 103t171 38q116 0 182 -58t66 -157q0 -20 -3 -43q-12 -81 -54.5 -139t-97 -94.5t-141.5 -82.5
q-74 -39 -118 -67t-76.5 -68t-39.5 -94l-2 -19h452l-15 -100h-575z" />
    <glyph glyph-name="uni00B3" unicode="&#xb3;" horiz-adv-x="754" 
d="M193 817.5q-72 62.5 -72 171.5q0 25 2 39h108q1 -84 47 -130t126 -46q68 0 121.5 24.5t83 68.5t29.5 100q0 69 -53.5 107.5t-140.5 39.5l-76 2l13 96l74 2q55 1 103.5 23t80 58.5t37.5 78.5q1 6 1 17q0 54 -44 90.5t-122 36.5q-48 0 -93 -20t-77.5 -61t-42.5 -102h-110
q13 85 61.5 148t121 96t154.5 33q125 0 198.5 -52t73.5 -147q0 -17 -3 -35q-10 -69 -59 -123.5t-135 -83.5q74 -22 115.5 -71t41.5 -120q0 -19 -3 -39q-12 -81 -62.5 -140.5t-129 -91.5t-173.5 -32q-124 0 -196 62.5z" />
    <glyph glyph-name="acute" unicode="&#xb4;" horiz-adv-x="549" 
d="M127 1271l488 194l23 -138l-496 -148z" />
    <glyph glyph-name="uni00B5" unicode="&#xb5;" horiz-adv-x="1143" 
d="M236 1060h179l-106 -726q-1 -8 -1 -22q0 -44 22 -80.5t61 -58t88 -21.5q145 0 305 178l104 730h180l-156 -1060h-172l24 164q-105 -86 -175.5 -119.5t-150.5 -33.5q-102 0 -166 61l-58 -402h-179z" />
    <glyph glyph-name="paragraph" unicode="&#xb6;" horiz-adv-x="1081" 
d="M496 595q-105 3 -182.5 48t-118.5 122t-41 175q0 29 5 69q17 116 80.5 216t170.5 160.5t245 60.5h405l-16 -111h-114l-216 -1501h-116l216 1501h-94l-217 -1501h-116z" />
    <glyph glyph-name="periodcentered" unicode="&#xb7;" horiz-adv-x="447" 
d="M157 837h216l-33 -217h-215z" />
    <glyph glyph-name="cedilla" unicode="&#xb8;" horiz-adv-x="438" 
d="M-101 -361l41 76q51 -47 122 -47q56 0 84.5 23t28.5 66q0 35 -33.5 53t-105.5 20q-13 0 -13 5q0 2 4 8l92 167h92l-62 -121q79 -4 114 -39t35 -86q0 -54 -31.5 -94t-83.5 -60.5t-111 -20.5q-107 0 -173 50z" />
    <glyph glyph-name="uni00B9" unicode="&#xb9;" horiz-adv-x="581" 
d="M313 1486h-166l11 75q75 0 119.5 11.5t66.5 35t30 62.5h78l-131 -910h-113z" />
    <glyph glyph-name="ordmasculine" unicode="&#xba;" horiz-adv-x="756" 
d="M236 866.5q-64 71.5 -64 191.5q0 29 5 69q14 100 60.5 176.5t117.5 119t157 42.5q114 0 179.5 -73.5t65.5 -196.5q0 -28 -5 -68q-14 -97 -59 -172.5t-116.5 -117.5t-160.5 -42q-116 0 -180 71.5zM562 952.5q51 63.5 66 179.5q5 40 5 68q0 81 -34 125t-101 44
q-81 0 -131.5 -62.5t-65.5 -174.5q-6 -39 -6 -73q0 -82 34 -126t100 -44q82 0 133 63.5z" />
    <glyph glyph-name="guillemotright" unicode="&#xbb;" horiz-adv-x="865" 
d="M288 502l-135 377h98l193 -377l-299 -361h-97zM622 502l-137 377h99l193 -377l-298 -361h-98z" />
    <glyph glyph-name="onequarter" unicode="&#xbc;" horiz-adv-x="1738" 
d="M284 1278h-166l11 75q75 0 119.5 11.5t66.5 35t30 62.5h78l-131 -910h-113zM954 986l434 476l-677 -992l-435 -478zM1353 234h-404l16 104l482 572h111l-82 -576h142l-15 -100h-143l-33 -234h-107zM1366 334l61 427l-358 -427h297z" />
    <glyph glyph-name="onehalf" unicode="&#xbd;" horiz-adv-x="1785" 
d="M284 1278h-166l11 75q75 0 119.5 11.5t66.5 35t30 62.5h78l-131 -910h-113zM954 986l434 476l-677 -992l-435 -478zM1060 70l6 37q12 81 55 139.5t98 96t144 85.5q75 41 119.5 70.5t77.5 70.5t40 95q2 18 2 27q0 60 -40 95.5t-111 35.5q-83 0 -141.5 -50.5t-77.5 -135.5
h-109q13 80 58.5 145t119.5 103t170 38q116 0 182 -58t66 -157q0 -20 -3 -43q-12 -81 -54.5 -139t-97 -94.5t-141.5 -82.5q-74 -39 -117.5 -67t-76 -68t-39.5 -94l-3 -19h453l-16 -100h-574z" />
    <glyph glyph-name="threequarters" unicode="&#xbe;" horiz-adv-x="1911" 
d="M163 607.5q-72 62.5 -72 171.5q0 25 2 39h108q1 -84 47 -130t126 -46q68 0 121.5 24.5t83 68.5t29.5 100q0 69 -53.5 107.5t-140.5 39.5l-76 2l13 96l74 2q55 1 103.5 23t80 58.5t37.5 78.5q1 6 1 17q0 54 -44 90.5t-122 36.5q-48 0 -93 -20t-77.5 -61t-42.5 -102h-110
q13 85 61.5 148t121 96t154.5 33q125 0 198.5 -52t73.5 -147q0 -17 -3 -35q-10 -69 -59 -123.5t-135 -83.5q74 -22 115.5 -71t41.5 -120q0 -19 -3 -39q-12 -81 -62.5 -140.5t-129 -91.5t-173.5 -32q-124 0 -196 62.5zM1127 986l434 476l-677 -992l-435 -478zM1526 234h-404
l16 104l482 572h111l-82 -576h142l-15 -100h-143l-33 -234h-107zM1539 334l61 427l-358 -427h297z" />
    <glyph glyph-name="questiondown" unicode="&#xbf;" horiz-adv-x="991" 
d="M478 1034h209l-31 -229h-209zM160.5 -304.5q-85.5 37.5 -129 105.5t-43.5 158q0 23 3 49q10 76 43.5 134.5t76 99t113.5 97.5q71 56 114 97.5t76.5 100t43.5 135.5h151q-13 -95 -50 -166.5t-83 -119.5t-119 -111q-58 -49 -92 -83t-59.5 -78.5t-32.5 -98.5q-2 -11 -2 -33
q0 -84 58.5 -133.5t157.5 -49.5q61 0 124.5 26t115.5 71t79 99l151 -49q-78 -135 -207.5 -211.5t-282.5 -76.5q-121 0 -206.5 37.5z" />
    <glyph glyph-name="Agrave" unicode="&#xc0;" horiz-adv-x="1346" 
d="M711 1446h197l284 -1446h-178l-76 399h-559l-194 -399h-177zM915 565l-131 703l-337 -703h468zM575 1739l65 138l433 -194l-43 -92z" />
    <glyph glyph-name="Aacute" unicode="&#xc1;" horiz-adv-x="1346" 
d="M711 1446h197l284 -1446h-178l-76 399h-559l-194 -399h-177zM915 565l-131 703l-337 -703h468zM591 1683l488 194l23 -138l-496 -148z" />
    <glyph glyph-name="Acircumflex" unicode="&#xc2;" horiz-adv-x="1346" 
d="M711 1446h197l284 -1446h-178l-76 399h-559l-194 -399h-177zM915 565l-131 703l-337 -703h468zM787 1865h124l200 -228h-166l-111 134l-162 -134h-155z" />
    <glyph glyph-name="Atilde" unicode="&#xc3;" horiz-adv-x="1346" 
d="M711 1446h197l284 -1446h-178l-76 399h-559l-194 -399h-177zM915 565l-131 703l-337 -703h468zM575 1775q44 37 81.5 55.5t87.5 18.5q32 0 61 -7.5t65 -21.5q37 -13 62 -19.5t52 -6.5q38 0 69.5 14t70.5 41l15 -108q-82 -57 -172 -57q-34 0 -60.5 6.5t-64.5 20.5
q-33 13 -56.5 19t-50.5 6q-41 0 -70 -13.5t-71 -42.5z" />
    <glyph glyph-name="Adieresis" unicode="&#xc4;" horiz-adv-x="1346" 
d="M711 1446h197l284 -1446h-178l-76 399h-559l-194 -399h-177zM915 565l-131 703l-337 -703h468zM611 1847h186l-27 -187h-186zM932 1847h186l-27 -187h-186z" />
    <glyph glyph-name="Aring" unicode="&#xc5;" horiz-adv-x="1346" 
d="M711 1446h197l284 -1446h-178l-76 399h-559l-194 -399h-177zM915 565l-131 703l-337 -703h468zM740.5 1589q-37.5 23 -59 63t-21.5 90q0 22 2 33q7 54 40 99.5t82 72.5t101 27q48 0 86.5 -22t60 -60.5t21.5 -86.5q0 -16 -3 -34q-7 -56 -40 -103t-81.5 -74.5t-102.5 -27.5
q-48 0 -85.5 23zM895 1679.5q27 18.5 44 48t17 60.5q0 40 -24 65t-63 25q-29 0 -56.5 -16t-44.5 -44.5t-17 -62.5q0 -39 25 -66.5t62 -27.5q30 0 57 18.5z" />
    <glyph glyph-name="AE" unicode="&#xc6;" horiz-adv-x="1857" 
d="M890 1446h948l-23 -156h-651l-69 -483h482l-22 -155h-483l-70 -495h673l-22 -157h-873l59 404h-468l-267 -404h-177zM862 565l107 750l-505 -750h398z" />
    <glyph glyph-name="Ccedilla" unicode="&#xc7;" horiz-adv-x="1334" 
d="M505 1163q-118 -146 -159 -439q-15 -103 -15 -189q0 -197 80.5 -297.5t239.5 -100.5q124 0 222.5 77.5t144.5 209.5l181 -15q-29 -115 -102 -209t-182.5 -152.5t-243.5 -66.5l-47 -92q79 -4 114 -39t35 -86q0 -54 -31.5 -94t-83.5 -60.5t-111 -20.5q-107 0 -173 50l41 76
q51 -47 122 -47q56 0 84.5 23t28.5 66q0 35 -33.5 53t-105.5 20q-13 0 -13 5q0 2 4 8l77 139q-142 10 -240.5 80t-149 192.5t-50.5 288.5q0 83 14 183q33 229 125 396t234 255.5t322 88.5q143 0 249 -58.5t160.5 -158.5t49.5 -221l-187 -10q-5 134 -80 212.5t-218 78.5
q-185 0 -303 -146z" />
    <glyph glyph-name="Egrave" unicode="&#xc8;" horiz-adv-x="1200" 
d="M323 1446h861l-25 -159h-685l-68 -479h617l-23 -157h-617l-70 -489l704 -1l-24 -161h-879zM500 1739l65 138l433 -194l-43 -92z" />
    <glyph glyph-name="Eacute" unicode="&#xc9;" horiz-adv-x="1200" 
d="M323 1446h861l-25 -159h-685l-68 -479h617l-23 -157h-617l-70 -489l704 -1l-24 -161h-879zM517 1683l488 194l23 -138l-496 -148z" />
    <glyph glyph-name="Ecircumflex" unicode="&#xca;" horiz-adv-x="1200" 
d="M323 1446h861l-25 -159h-685l-68 -479h617l-23 -157h-617l-70 -489l704 -1l-24 -161h-879zM733 1865h124l200 -228h-166l-111 134l-162 -134h-155z" />
    <glyph glyph-name="Edieresis" unicode="&#xcb;" horiz-adv-x="1200" 
d="M323 1446h861l-25 -159h-685l-68 -479h617l-23 -157h-617l-70 -489l704 -1l-24 -161h-879zM536 1847h186l-27 -187h-186zM857 1847h186l-27 -187h-186z" />
    <glyph glyph-name="Igrave" unicode="&#xcc;" horiz-adv-x="548" 
d="M323 1446h175l-208 -1446h-174zM178 1739l65 138l433 -194l-43 -92z" />
    <glyph glyph-name="Iacute" unicode="&#xcd;" horiz-adv-x="548" 
d="M323 1446h175l-208 -1446h-174zM195 1683l488 194l23 -138l-496 -148z" />
    <glyph glyph-name="Icircumflex" unicode="&#xce;" horiz-adv-x="548" 
d="M323 1446h175l-208 -1446h-174zM411 1865h124l200 -228h-166l-111 134l-162 -134h-155z" />
    <glyph glyph-name="Idieresis" unicode="&#xcf;" horiz-adv-x="548" 
d="M323 1446h175l-208 -1446h-174zM214 1847h186l-27 -187h-186zM535 1847h186l-27 -187h-186z" />
    <glyph glyph-name="Eth" unicode="&#xd0;" horiz-adv-x="1399" 
d="M1179 1305.5q150 -134.5 150 -399.5q0 -84 -13 -174q-53 -364 -259 -548t-574 -184h-300l94 650h-180l13 145h188l95 651l316 -2q320 -4 470 -138.5zM1144 880q0 220 -118.5 315.5t-350.5 95.5h-127l-71 -496h316l-13 -145h-324l-71 -495h121q266 0 424.5 135t201.5 439
q12 83 12 151z" />
    <glyph glyph-name="Ntilde" unicode="&#xd1;" horiz-adv-x="1437" 
d="M323 1446h166l561 -1133l163 1133h174l-209 -1446h-155l-569 1148l-165 -1148h-175zM621 1775q44 37 81.5 55.5t87.5 18.5q32 0 61 -7.5t65 -21.5q37 -13 62 -19.5t52 -6.5q38 0 69.5 14t70.5 41l15 -108q-82 -57 -172 -57q-34 0 -60.5 6.5t-64.5 20.5q-33 13 -56.5 19
t-50.5 6q-41 0 -70 -13.5t-71 -42.5z" />
    <glyph glyph-name="Ograve" unicode="&#xd2;" horiz-adv-x="1429" 
d="M367 44.5q-112 64.5 -170.5 189.5t-58.5 302q0 81 14 181q34 236 130 404.5t242.5 256.5t328.5 88q156 0 267 -65.5t169 -192t58 -305.5q0 -82 -14 -183q-34 -233 -128.5 -399.5t-239.5 -253.5t-327 -87q-159 0 -271 64.5zM978.5 280.5q122.5 143.5 163.5 437.5
q14 95 14 185q0 205 -83.5 305.5t-242.5 100.5q-193 0 -318 -147t-168 -444q-14 -101 -14 -177q0 -204 85.5 -304t247.5 -100q193 0 315.5 143.5zM612 1739l65 138l433 -194l-43 -92z" />
    <glyph glyph-name="Oacute" unicode="&#xd3;" horiz-adv-x="1429" 
d="M367 44.5q-112 64.5 -170.5 189.5t-58.5 302q0 81 14 181q34 236 130 404.5t242.5 256.5t328.5 88q156 0 267 -65.5t169 -192t58 -305.5q0 -82 -14 -183q-34 -233 -128.5 -399.5t-239.5 -253.5t-327 -87q-159 0 -271 64.5zM978.5 280.5q122.5 143.5 163.5 437.5
q14 95 14 185q0 205 -83.5 305.5t-242.5 100.5q-193 0 -318 -147t-168 -444q-14 -101 -14 -177q0 -204 85.5 -304t247.5 -100q193 0 315.5 143.5zM628 1683l488 194l23 -138l-496 -148z" />
    <glyph glyph-name="Ocircumflex" unicode="&#xd4;" horiz-adv-x="1429" 
d="M367 44.5q-112 64.5 -170.5 189.5t-58.5 302q0 81 14 181q34 236 130 404.5t242.5 256.5t328.5 88q156 0 267 -65.5t169 -192t58 -305.5q0 -82 -14 -183q-34 -233 -128.5 -399.5t-239.5 -253.5t-327 -87q-159 0 -271 64.5zM978.5 280.5q122.5 143.5 163.5 437.5
q14 95 14 185q0 205 -83.5 305.5t-242.5 100.5q-193 0 -318 -147t-168 -444q-14 -101 -14 -177q0 -204 85.5 -304t247.5 -100q193 0 315.5 143.5zM845 1865h124l200 -228h-166l-111 134l-162 -134h-155z" />
    <glyph glyph-name="Otilde" unicode="&#xd5;" horiz-adv-x="1429" 
d="M367 44.5q-112 64.5 -170.5 189.5t-58.5 302q0 81 14 181q34 236 130 404.5t242.5 256.5t328.5 88q156 0 267 -65.5t169 -192t58 -305.5q0 -82 -14 -183q-34 -233 -128.5 -399.5t-239.5 -253.5t-327 -87q-159 0 -271 64.5zM978.5 280.5q122.5 143.5 163.5 437.5
q14 95 14 185q0 205 -83.5 305.5t-242.5 100.5q-193 0 -318 -147t-168 -444q-14 -101 -14 -177q0 -204 85.5 -304t247.5 -100q193 0 315.5 143.5zM612 1775q44 37 81.5 55.5t87.5 18.5q32 0 61 -7.5t65 -21.5q37 -13 62 -19.5t52 -6.5q38 0 69.5 14t70.5 41l15 -108
q-82 -57 -172 -57q-34 0 -60.5 6.5t-64.5 20.5q-33 13 -56.5 19t-50.5 6q-41 0 -70 -13.5t-71 -42.5z" />
    <glyph glyph-name="Odieresis" unicode="&#xd6;" horiz-adv-x="1429" 
d="M367 44.5q-112 64.5 -170.5 189.5t-58.5 302q0 81 14 181q34 236 130 404.5t242.5 256.5t328.5 88q156 0 267 -65.5t169 -192t58 -305.5q0 -82 -14 -183q-34 -233 -128.5 -399.5t-239.5 -253.5t-327 -87q-159 0 -271 64.5zM978.5 280.5q122.5 143.5 163.5 437.5
q14 95 14 185q0 205 -83.5 305.5t-242.5 100.5q-193 0 -318 -147t-168 -444q-14 -101 -14 -177q0 -204 85.5 -304t247.5 -100q193 0 315.5 143.5zM648 1847h186l-27 -187h-186zM969 1847h186l-27 -187h-186z" />
    <glyph glyph-name="multiply" unicode="&#xd7;" horiz-adv-x="1035" 
d="M640 728l253 -314l-112 -100l-251 312l-340 -312l-80 100l340 312l-252 314l111 99l251 -311l342 314l82 -99z" />
    <glyph glyph-name="Oslash" unicode="&#xd8;" horiz-adv-x="1429" 
d="M-6 69l188 188q-48 114 -48 275q0 82 14 185q34 236 130 404.5t242 256.5t328 88q126 0 223 -43.5t161 -127.5l177 176l80 -94l-193 -194q47 -118 47 -280q0 -89 -13 -183q-33 -233 -128.5 -399.5t-241 -253.5t-327.5 -87q-127 0 -224 42t-159 124l-176 -173zM1088 1164
q-73 148 -263 148q-181 0 -293.5 -132.5t-158.5 -402.5q-20 -128 -20 -228q0 -67 9 -129zM946.5 262q109.5 126 153.5 387q23 125 23 242q0 74 -8 130l-724 -744q38 -71 104.5 -106t163.5 -35q178 0 287.5 126z" />
    <glyph glyph-name="Ugrave" unicode="&#xd9;" horiz-adv-x="1365" 
d="M280.5 79q-104.5 99 -104.5 296q0 62 11 142l134 929h180l-137 -957q-7 -43 -7 -88q0 -131 70 -197.5t204 -66.5q156 0 252.5 88t121.5 264l137 957h176l-136 -949q-37 -255 -177 -386t-397 -131q-223 0 -327.5 99zM587 1739l65 138l433 -194l-43 -92z" />
    <glyph glyph-name="Uacute" unicode="&#xda;" horiz-adv-x="1365" 
d="M280.5 79q-104.5 99 -104.5 296q0 62 11 142l134 929h180l-137 -957q-7 -43 -7 -88q0 -131 70 -197.5t204 -66.5q156 0 252.5 88t121.5 264l137 957h176l-136 -949q-37 -255 -177 -386t-397 -131q-223 0 -327.5 99zM603 1683l488 194l23 -138l-496 -148z" />
    <glyph glyph-name="Ucircumflex" unicode="&#xdb;" horiz-adv-x="1365" 
d="M280.5 79q-104.5 99 -104.5 296q0 62 11 142l134 929h180l-137 -957q-7 -43 -7 -88q0 -131 70 -197.5t204 -66.5q156 0 252.5 88t121.5 264l137 957h176l-136 -949q-37 -255 -177 -386t-397 -131q-223 0 -327.5 99zM820 1865h124l200 -228h-166l-111 134l-162 -134h-155z
" />
    <glyph glyph-name="Udieresis" unicode="&#xdc;" horiz-adv-x="1365" 
d="M280.5 79q-104.5 99 -104.5 296q0 62 11 142l134 929h180l-137 -957q-7 -43 -7 -88q0 -131 70 -197.5t204 -66.5q156 0 252.5 88t121.5 264l137 957h176l-136 -949q-37 -255 -177 -386t-397 -131q-223 0 -327.5 99zM623 1847h186l-27 -187h-186zM944 1847h186l-27 -187
h-186z" />
    <glyph glyph-name="Yacute" unicode="&#xdd;" horiz-adv-x="1134" 
d="M492 617l-344 829h190l266 -669l454 669h191l-582 -830l-90 -616h-172zM475 1686l488 194l23 -138l-496 -148z" />
    <glyph glyph-name="Thorn" unicode="&#xde;" horiz-adv-x="1278" 
d="M323 1446h200l-43 -298h309q210 0 335 -84t125 -249q0 -28 -5 -66q-20 -141 -95 -235t-191.5 -139.5t-262.5 -45.5h-333l-47 -329h-199zM695 483q144 0 234.5 66.5t110.5 201.5q3 24 3 45q0 102 -74.5 150t-211.5 48h-300l-73 -511h311z" />
    <glyph glyph-name="germandbls" unicode="&#xdf;" horiz-adv-x="1146" 
d="M468 -1q-66 19 -107 50l76 120q44 -30 80.5 -45.5t91.5 -15.5q100 0 166.5 52t79.5 144q3 18 3 35q0 53 -26 88t-65.5 56.5t-106.5 47.5q-51 21 -86.5 43.5t-58.5 59t-23 89.5q0 21 2 33q11 71 55 120t132 100l26 16q47 30 72.5 50t46.5 51t27 73q2 16 2 24
q0 59 -41.5 93t-119.5 34q-107 0 -180.5 -70.5t-91.5 -202.5l-148 -1044h-163l124 881h-124l19 132h122q19 127 80 225t161.5 153t232.5 55q146 0 215.5 -63.5t69.5 -166.5q0 -22 -3 -46q-9 -72 -43 -120.5t-83.5 -81.5t-130.5 -71q-47 -25 -69 -39.5t-34 -30t-16 -38.5
l-1 -12q0 -26 18.5 -40t71.5 -33l21 -9q83 -36 138 -69.5t95 -94t40 -150.5q0 -31 -4 -59q-15 -108 -73 -185.5t-145.5 -117t-190.5 -39.5q-68 0 -134 19z" />
    <glyph glyph-name="agrave" unicode="&#xe0;" horiz-adv-x="1050" 
d="M129.5 45q-76.5 65 -76.5 181q0 29 4 53q24 173 150 256.5t377 89.5l174 5l12 82q3 20 3 38q0 82 -52 126.5t-144 44.5q-87 -1 -159 -47t-101 -131h-155q19 89 79 160t154.5 111t209.5 40q166 0 252.5 -72t86.5 -200q0 -33 -4 -61l-104 -721h-149l14 188
q-71 -114 -161.5 -161t-203.5 -47q-130 0 -206.5 65zM540 143q69 33 118 86.5t58 109.5l25 179l-144 -3q-174 -3 -263.5 -54t-105.5 -165q-2 -22 -2 -30q0 -73 49 -114.5t132 -41.5q64 0 133 33zM368 1327l65 138l433 -194l-43 -92z" />
    <glyph glyph-name="aacute" unicode="&#xe1;" horiz-adv-x="1050" 
d="M129.5 45q-76.5 65 -76.5 181q0 29 4 53q24 173 150 256.5t377 89.5l174 5l12 82q3 20 3 38q0 82 -52 126.5t-144 44.5q-87 -1 -159 -47t-101 -131h-155q19 89 79 160t154.5 111t209.5 40q166 0 252.5 -72t86.5 -200q0 -33 -4 -61l-104 -721h-149l14 188
q-71 -114 -161.5 -161t-203.5 -47q-130 0 -206.5 65zM540 143q69 33 118 86.5t58 109.5l25 179l-144 -3q-174 -3 -263.5 -54t-105.5 -165q-2 -22 -2 -30q0 -73 49 -114.5t132 -41.5q64 0 133 33zM385 1271l488 194l23 -138l-496 -148z" />
    <glyph glyph-name="acircumflex" unicode="&#xe2;" horiz-adv-x="1050" 
d="M129.5 45q-76.5 65 -76.5 181q0 29 4 53q24 173 150 256.5t377 89.5l174 5l12 82q3 20 3 38q0 82 -52 126.5t-144 44.5q-87 -1 -159 -47t-101 -131h-155q19 89 79 160t154.5 111t209.5 40q166 0 252.5 -72t86.5 -200q0 -33 -4 -61l-104 -721h-149l14 188
q-71 -114 -161.5 -161t-203.5 -47q-130 0 -206.5 65zM540 143q69 33 118 86.5t58 109.5l25 179l-144 -3q-174 -3 -263.5 -54t-105.5 -165q-2 -22 -2 -30q0 -73 49 -114.5t132 -41.5q64 0 133 33zM601 1453h124l200 -228h-166l-111 134l-162 -134h-155z" />
    <glyph glyph-name="atilde" unicode="&#xe3;" horiz-adv-x="1050" 
d="M129.5 45q-76.5 65 -76.5 181q0 29 4 53q24 173 150 256.5t377 89.5l174 5l12 82q3 20 3 38q0 82 -52 126.5t-144 44.5q-87 -1 -159 -47t-101 -131h-155q19 89 79 160t154.5 111t209.5 40q166 0 252.5 -72t86.5 -200q0 -33 -4 -61l-104 -721h-149l14 188
q-71 -114 -161.5 -161t-203.5 -47q-130 0 -206.5 65zM540 143q69 33 118 86.5t58 109.5l25 179l-144 -3q-174 -3 -263.5 -54t-105.5 -165q-2 -22 -2 -30q0 -73 49 -114.5t132 -41.5q64 0 133 33zM368 1363q44 37 81.5 55.5t87.5 18.5q32 0 61 -7.5t65 -21.5q37 -13 62 -19.5
t52 -6.5q38 0 69.5 14t70.5 41l15 -108q-82 -57 -172 -57q-34 0 -60.5 6.5t-64.5 20.5q-33 13 -56.5 19t-50.5 6q-41 0 -70 -13.5t-71 -42.5z" />
    <glyph glyph-name="adieresis" unicode="&#xe4;" horiz-adv-x="1050" 
d="M129.5 45q-76.5 65 -76.5 181q0 29 4 53q24 173 150 256.5t377 89.5l174 5l12 82q3 20 3 38q0 82 -52 126.5t-144 44.5q-87 -1 -159 -47t-101 -131h-155q19 89 79 160t154.5 111t209.5 40q166 0 252.5 -72t86.5 -200q0 -33 -4 -61l-104 -721h-149l14 188
q-71 -114 -161.5 -161t-203.5 -47q-130 0 -206.5 65zM540 143q69 33 118 86.5t58 109.5l25 179l-144 -3q-174 -3 -263.5 -54t-105.5 -165q-2 -22 -2 -30q0 -73 49 -114.5t132 -41.5q64 0 133 33zM404 1435h186l-27 -187h-186zM725 1435h186l-27 -187h-186z" />
    <glyph glyph-name="aring" unicode="&#xe5;" horiz-adv-x="1050" 
d="M129.5 45q-76.5 65 -76.5 181q0 29 4 53q24 173 150 256.5t377 89.5l174 5l12 82q3 20 3 38q0 82 -52 126.5t-144 44.5q-87 -1 -159 -47t-101 -131h-155q19 89 79 160t154.5 111t209.5 40q166 0 252.5 -72t86.5 -200q0 -33 -4 -61l-104 -721h-149l14 188
q-71 -114 -161.5 -161t-203.5 -47q-130 0 -206.5 65zM540 143q69 33 118 86.5t58 109.5l25 179l-144 -3q-174 -3 -263.5 -54t-105.5 -165q-2 -22 -2 -30q0 -73 49 -114.5t132 -41.5q64 0 133 33zM533.5 1177q-37.5 23 -59 63t-21.5 90q0 22 2 33q7 54 40 99.5t82 72.5
t101 27q48 0 86.5 -22t60 -60.5t21.5 -86.5q0 -16 -3 -34q-7 -56 -40 -103t-81.5 -74.5t-102.5 -27.5q-48 0 -85.5 23zM688 1267.5q27 18.5 44 48t17 60.5q0 40 -24 65t-63 25q-29 0 -56.5 -16t-44.5 -44.5t-17 -62.5q0 -39 25 -66.5t62 -27.5q30 0 57 18.5z" />
    <glyph glyph-name="ae" unicode="&#xe6;" horiz-adv-x="1745" 
d="M123 42.5q-71 62.5 -71 173.5q0 29 4 54q21 149 153 238.5t368 106.5l186 15l10 78q4 32 4 46q0 82 -50 127.5t-146 45.5q-76 0 -148 -42.5t-135 -127.5l-139 50q158 247 454 247q130 -1 205 -46.5t99 -136.5q69 90 162 136.5t203 46.5q116 0 200.5 -51.5t130.5 -150.5
t46 -238q0 -67 -10 -134l-739 -2q-4 -24 -4 -54q0 -83 33 -154t92 -113.5t134 -42.5q72 0 129 23.5t99.5 59.5t91.5 90l106 -61q-86 -121 -203.5 -183.5t-261.5 -62.5q-134 0 -214.5 59t-134.5 148q-2 5 -5 5q-1 0 -8 -5q-58 -60 -117 -104t-140 -73.5t-182 -29.5
q-131 0 -202 62.5zM1494 653q0 76 -27 138.5t-78.5 99.5t-122.5 37q-80 0 -151 -40.5t-119.5 -116.5t-63.5 -176l558 -2q4 27 4 60zM544 137q72 31 119.5 83.5t56.5 114.5l26 182l-155 -12q-159 -12 -252 -69t-106 -155q-2 -22 -2 -31q0 -66 42 -105t120 -39q79 0 151 31z
" />
    <glyph glyph-name="ccedilla" unicode="&#xe7;" horiz-adv-x="1018" 
d="M441.5 861q-71.5 -48 -119.5 -137t-65 -208q-8 -56 -8 -99q0 -140 63 -220t176 -80q88 0 158 55t100 144h150q-27 -100 -86 -172.5t-138.5 -113t-171.5 -48.5l-47 -93q79 -4 114 -39t35 -86q0 -54 -31.5 -94t-83.5 -60.5t-111 -20.5q-107 0 -173 50l41 76q51 -47 122 -47
q56 0 84.5 23t28.5 66q0 35 -33.5 53t-105.5 20q-13 0 -13 5q0 2 4 8l77 140q-101 11 -174.5 65.5t-112.5 145t-39 207.5q0 59 8 111q23 159 96 282t184 191.5t245 68.5q102 0 179.5 -41t119.5 -118.5t41 -183.5l-155 -3q-8 96 -61 148.5t-138 52.5q-88 0 -159.5 -48z" />
    <glyph glyph-name="egrave" unicode="&#xe8;" horiz-adv-x="1051" 
d="M263 29q-88 49 -135.5 142.5t-47.5 222.5q0 53 9 113q24 164 94.5 287.5t180.5 191.5t249 68q175 0 267.5 -102.5t92.5 -287.5q0 -57 -9 -122l-10 -68h-695q-6 -43 -6 -83q0 -123 59.5 -196.5t176.5 -73.5q93 0 162 45.5t110 134.5h162q-37 -105 -107 -177t-159.5 -108
t-186.5 -36q-119 0 -207 49zM805 597q6 39 6 75q0 112 -55 178t-164 66q-87 0 -154.5 -45.5t-108 -118.5t-51.5 -155h527zM377 1327l65 138l433 -194l-43 -92z" />
    <glyph glyph-name="eacute" unicode="&#xe9;" horiz-adv-x="1051" 
d="M263 29q-88 49 -135.5 142.5t-47.5 222.5q0 53 9 113q24 164 94.5 287.5t180.5 191.5t249 68q175 0 267.5 -102.5t92.5 -287.5q0 -57 -9 -122l-10 -68h-695q-6 -43 -6 -83q0 -123 59.5 -196.5t176.5 -73.5q93 0 162 45.5t110 134.5h162q-37 -105 -107 -177t-159.5 -108
t-186.5 -36q-119 0 -207 49zM805 597q6 39 6 75q0 112 -55 178t-164 66q-87 0 -154.5 -45.5t-108 -118.5t-51.5 -155h527zM393 1271l488 194l23 -138l-496 -148z" />
    <glyph glyph-name="ecircumflex" unicode="&#xea;" horiz-adv-x="1051" 
d="M263 29q-88 49 -135.5 142.5t-47.5 222.5q0 53 9 113q24 164 94.5 287.5t180.5 191.5t249 68q175 0 267.5 -102.5t92.5 -287.5q0 -57 -9 -122l-10 -68h-695q-6 -43 -6 -83q0 -123 59.5 -196.5t176.5 -73.5q93 0 162 45.5t110 134.5h162q-37 -105 -107 -177t-159.5 -108
t-186.5 -36q-119 0 -207 49zM805 597q6 39 6 75q0 112 -55 178t-164 66q-87 0 -154.5 -45.5t-108 -118.5t-51.5 -155h527zM610 1453h124l200 -228h-166l-111 134l-162 -134h-155z" />
    <glyph glyph-name="edieresis" unicode="&#xeb;" horiz-adv-x="1051" 
d="M263 29q-88 49 -135.5 142.5t-47.5 222.5q0 53 9 113q24 164 94.5 287.5t180.5 191.5t249 68q175 0 267.5 -102.5t92.5 -287.5q0 -57 -9 -122l-10 -68h-695q-6 -43 -6 -83q0 -123 59.5 -196.5t176.5 -73.5q93 0 162 45.5t110 134.5h162q-37 -105 -107 -177t-159.5 -108
t-186.5 -36q-119 0 -207 49zM805 597q6 39 6 75q0 112 -55 178t-164 66q-87 0 -154.5 -45.5t-108 -118.5t-51.5 -155h527zM413 1435h186l-27 -187h-186zM734 1435h186l-27 -187h-186z" />
    <glyph glyph-name="igrave" unicode="&#xec;" horiz-adv-x="510" 
d="M244 1034h175l-150 -1034h-174zM98 1327l65 138l433 -194l-43 -92z" />
    <glyph glyph-name="iacute" unicode="&#xed;" horiz-adv-x="510" 
d="M244 1034h175l-150 -1034h-174zM115 1271l488 194l23 -138l-496 -148z" />
    <glyph glyph-name="icircumflex" unicode="&#xee;" horiz-adv-x="510" 
d="M244 1034h175l-150 -1034h-174zM331 1453h124l200 -228h-166l-111 134l-162 -134h-155z" />
    <glyph glyph-name="idieresis" unicode="&#xef;" horiz-adv-x="510" 
d="M244 1034h175l-150 -1034h-174zM134 1435h186l-27 -187h-186zM455 1435h186l-27 -187h-186z" />
    <glyph glyph-name="eth" unicode="&#xf0;" horiz-adv-x="1121" 
d="M267 32.5q-90 52.5 -138.5 147t-48.5 217.5q0 49 7 95q21 150 97.5 269t190.5 186t245 67q66 0 116 -22.5t82 -64.5q-26 86 -75 160.5t-129 139.5l-307 -170l-33 76l269 146q-79 52 -196 103l122 86q116 -43 220 -109l206 112l28 -78l-161 -89q281 -227 281 -617
q0 -87 -13 -172q-23 -158 -98 -279.5t-192 -188.5t-261 -67q-122 0 -212 52.5zM663 160q73 49 121.5 137t63.5 200q7 42 7 87q0 90 -29.5 158t-84 105.5t-128.5 37.5q-85 0 -158.5 -49.5t-123 -138t-65.5 -200.5q-7 -42 -7 -86q0 -90 30 -157.5t85 -105t130 -37.5
q86 0 159 49z" />
    <glyph glyph-name="ntilde" unicode="&#xf1;" horiz-adv-x="1125" 
d="M231 1034h169l-20 -144q54 72 136.5 115.5t192.5 43.5q84 0 150.5 -34.5t104.5 -101t38 -160.5q0 -35 -6 -74l-97 -679h-175l96 662q4 24 4 52q0 89 -49.5 138t-134.5 49q-69 0 -130.5 -23t-103 -69.5t-50.5 -112.5l-100 -696h-174zM419 1363q44 37 81.5 55.5t87.5 18.5
q32 0 61 -7.5t65 -21.5q37 -13 62 -19.5t52 -6.5q38 0 69.5 14t70.5 41l15 -108q-82 -57 -172 -57q-34 0 -60.5 6.5t-64.5 20.5q-33 13 -56.5 19t-50.5 6q-41 0 -70 -13.5t-71 -42.5z" />
    <glyph glyph-name="ograve" unicode="&#xf2;" horiz-adv-x="1073" 
d="M254 31q-85 51 -129 144.5t-44 219.5q0 55 9 115q23 160 95.5 283.5t184 192t247.5 68.5q119 0 203 -52.5t127.5 -148t43.5 -221.5q0 -57 -9 -119q-23 -157 -93.5 -278t-181 -188t-248.5 -67q-120 0 -205 51zM702 231q83 109 107 286q9 59 9 112q0 131 -55 207t-168 76
q-136 0 -221 -109t-110 -286q-8 -58 -8 -104q0 -134 56.5 -212.5t171.5 -78.5q135 0 218 109zM381 1327l65 138l433 -194l-43 -92z" />
    <glyph glyph-name="oacute" unicode="&#xf3;" horiz-adv-x="1073" 
d="M254 31q-85 51 -129 144.5t-44 219.5q0 55 9 115q23 160 95.5 283.5t184 192t247.5 68.5q119 0 203 -52.5t127.5 -148t43.5 -221.5q0 -57 -9 -119q-23 -157 -93.5 -278t-181 -188t-248.5 -67q-120 0 -205 51zM702 231q83 109 107 286q9 59 9 112q0 131 -55 207t-168 76
q-136 0 -221 -109t-110 -286q-8 -58 -8 -104q0 -134 56.5 -212.5t171.5 -78.5q135 0 218 109zM397 1271l488 194l23 -138l-496 -148z" />
    <glyph glyph-name="ocircumflex" unicode="&#xf4;" horiz-adv-x="1073" 
d="M254 31q-85 51 -129 144.5t-44 219.5q0 55 9 115q23 160 95.5 283.5t184 192t247.5 68.5q119 0 203 -52.5t127.5 -148t43.5 -221.5q0 -57 -9 -119q-23 -157 -93.5 -278t-181 -188t-248.5 -67q-120 0 -205 51zM702 231q83 109 107 286q9 59 9 112q0 131 -55 207t-168 76
q-136 0 -221 -109t-110 -286q-8 -58 -8 -104q0 -134 56.5 -212.5t171.5 -78.5q135 0 218 109zM614 1453h124l200 -228h-166l-111 134l-162 -134h-155z" />
    <glyph glyph-name="otilde" unicode="&#xf5;" horiz-adv-x="1073" 
d="M254 31q-85 51 -129 144.5t-44 219.5q0 55 9 115q23 160 95.5 283.5t184 192t247.5 68.5q119 0 203 -52.5t127.5 -148t43.5 -221.5q0 -57 -9 -119q-23 -157 -93.5 -278t-181 -188t-248.5 -67q-120 0 -205 51zM702 231q83 109 107 286q9 59 9 112q0 131 -55 207t-168 76
q-136 0 -221 -109t-110 -286q-8 -58 -8 -104q0 -134 56.5 -212.5t171.5 -78.5q135 0 218 109zM381 1363q44 37 81.5 55.5t87.5 18.5q32 0 61 -7.5t65 -21.5q37 -13 62 -19.5t52 -6.5q38 0 69.5 14t70.5 41l15 -108q-82 -57 -172 -57q-34 0 -60.5 6.5t-64.5 20.5
q-33 13 -56.5 19t-50.5 6q-41 0 -70 -13.5t-71 -42.5z" />
    <glyph glyph-name="odieresis" unicode="&#xf6;" horiz-adv-x="1073" 
d="M254 31q-85 51 -129 144.5t-44 219.5q0 55 9 115q23 160 95.5 283.5t184 192t247.5 68.5q119 0 203 -52.5t127.5 -148t43.5 -221.5q0 -57 -9 -119q-23 -157 -93.5 -278t-181 -188t-248.5 -67q-120 0 -205 51zM702 231q83 109 107 286q9 59 9 112q0 131 -55 207t-168 76
q-136 0 -221 -109t-110 -286q-8 -58 -8 -104q0 -134 56.5 -212.5t171.5 -78.5q135 0 218 109zM417 1435h186l-27 -187h-186zM738 1435h186l-27 -187h-186z" />
    <glyph glyph-name="divide" unicode="&#xf7;" horiz-adv-x="1063" 
d="M519 1187h219l-32 -220h-218zM163 796l815 1l-20 -139l-815 -2zM418 488h218l-31 -220h-219z" />
    <glyph glyph-name="oslash" unicode="&#xf8;" horiz-adv-x="1055" 
d="M914 824q32 -87 32 -194q0 -55 -9 -117q-23 -157 -93.5 -278t-181 -188t-248.5 -67q-169 0 -269 100l-94 -91l-75 78l106 103q-46 92 -46 225q0 62 8 115q23 160 95.5 283.5t184 192t248.5 68.5q95 0 168.5 -34t121.5 -98l124 120l73 -78zM210 412q0 -58 12 -108l516 498
q-56 110 -188 110q-136 0 -221.5 -109.5t-110.5 -285.5q-8 -58 -8 -105zM773 628q0 29 -3 56l-502 -485q59 -77 170 -77q136 0 218.5 109t107.5 286q9 59 9 111z" />
    <glyph glyph-name="ugrave" unicode="&#xf9;" horiz-adv-x="1124" 
d="M292.5 11.5q-73.5 30.5 -121 96.5t-47.5 165q0 33 4 61l102 703h175l-100 -685q-3 -22 -3 -44q0 -96 59 -141t141 -45q64 0 122 27t98 81.5t52 132.5l97 674h174l-150 -1036h-138l9 198q-26 -72 -77 -121t-114.5 -73t-128.5 -24q-80 0 -153.5 30.5zM403 1327l65 138
l433 -194l-43 -92z" />
    <glyph glyph-name="uacute" unicode="&#xfa;" horiz-adv-x="1124" 
d="M292.5 11.5q-73.5 30.5 -121 96.5t-47.5 165q0 33 4 61l102 703h175l-100 -685q-3 -22 -3 -44q0 -96 59 -141t141 -45q64 0 122 27t98 81.5t52 132.5l97 674h174l-150 -1036h-138l9 198q-26 -72 -77 -121t-114.5 -73t-128.5 -24q-80 0 -153.5 30.5zM419 1271l488 194
l23 -138l-496 -148z" />
    <glyph glyph-name="ucircumflex" unicode="&#xfb;" horiz-adv-x="1124" 
d="M292.5 11.5q-73.5 30.5 -121 96.5t-47.5 165q0 33 4 61l102 703h175l-100 -685q-3 -22 -3 -44q0 -96 59 -141t141 -45q64 0 122 27t98 81.5t52 132.5l97 674h174l-150 -1036h-138l9 198q-26 -72 -77 -121t-114.5 -73t-128.5 -24q-80 0 -153.5 30.5zM636 1453h124
l200 -228h-166l-111 134l-162 -134h-155z" />
    <glyph glyph-name="udieresis" unicode="&#xfc;" horiz-adv-x="1124" 
d="M292.5 11.5q-73.5 30.5 -121 96.5t-47.5 165q0 33 4 61l102 703h175l-100 -685q-3 -22 -3 -44q0 -96 59 -141t141 -45q64 0 122 27t98 81.5t52 132.5l97 674h174l-150 -1036h-138l9 198q-26 -72 -77 -121t-114.5 -73t-128.5 -24q-80 0 -153.5 30.5zM439 1435h186
l-27 -187h-186zM760 1435h186l-27 -187h-186z" />
    <glyph glyph-name="yacute" unicode="&#xfd;" horiz-adv-x="1008" 
d="M23.5 -322.5q-37.5 7.5 -53.5 17.5l17 116l101 -1q97 -4 143.5 28.5t72.5 85.5l49 100l-236 1010h176l173 -805l401 805h170l-571 -1116q-74 -138 -158 -193t-192 -55q-55 0 -92.5 7.5zM379 1271l488 194l23 -138l-496 -148z" />
    <glyph glyph-name="thorn" unicode="&#xfe;" horiz-adv-x="1129" 
d="M291 1446h173l-79 -555q48 48 85 78.5t100.5 57.5t145.5 27q99 0 174.5 -44t118 -132t42.5 -217q0 -64 -10 -130q-25 -173 -95 -297t-174 -189t-228 -65q-152 0 -246 99q-12 13 -19 13q-4 0 -7 -6t-5 -20l-56 -388h-174zM670.5 154.5q72.5 47.5 123 142.5t70.5 232
q8 61 8 106q0 147 -64.5 219t-170.5 72q-69 0 -130 -32.5t-100.5 -83t-47.5 -101.5l-67 -477q46 -61 99 -93t120 -32q87 0 159.5 47.5z" />
    <glyph glyph-name="ydieresis" unicode="&#xff;" horiz-adv-x="1008" 
d="M23.5 -322.5q-37.5 7.5 -53.5 17.5l17 116l101 -1q97 -4 143.5 28.5t72.5 85.5l49 100l-236 1010h176l173 -805l401 805h170l-571 -1116q-74 -138 -158 -193t-192 -55q-55 0 -92.5 7.5zM398 1435h186l-27 -187h-186zM719 1435h186l-27 -187h-186z" />
    <glyph glyph-name="Amacron" unicode="&#x100;" horiz-adv-x="1346" 
d="M711 1446h197l284 -1446h-178l-76 399h-559l-194 -399h-177zM915 565l-131 703l-337 -703h468zM582 1832h564l-18 -127h-564z" />
    <glyph glyph-name="amacron" unicode="&#x101;" horiz-adv-x="1050" 
d="M129.5 45q-76.5 65 -76.5 181q0 29 4 53q24 173 150 256.5t377 89.5l174 5l12 82q3 20 3 38q0 82 -52 126.5t-144 44.5q-87 -1 -159 -47t-101 -131h-155q19 89 79 160t154.5 111t209.5 40q166 0 252.5 -72t86.5 -200q0 -33 -4 -61l-104 -721h-149l14 188
q-71 -114 -161.5 -161t-203.5 -47q-130 0 -206.5 65zM540 143q69 33 118 86.5t58 109.5l25 179l-144 -3q-174 -3 -263.5 -54t-105.5 -165q-2 -22 -2 -30q0 -73 49 -114.5t132 -41.5q64 0 133 33zM375 1420h564l-18 -127h-564z" />
    <glyph glyph-name="Abreve" unicode="&#x102;" horiz-adv-x="1346" 
d="M711 1446h197l284 -1446h-178l-76 399h-559l-194 -399h-177zM915 565l-131 703l-337 -703h468zM711.5 1669q-54.5 28 -85.5 76.5t-38 109.5h127q20 -45 50.5 -74.5t91.5 -29.5q57 0 99 29.5t75 74.5h129q-25 -57 -71 -106t-110 -78.5t-139 -29.5q-74 0 -128.5 28z" />
    <glyph glyph-name="abreve" unicode="&#x103;" horiz-adv-x="1050" 
d="M129.5 45q-76.5 65 -76.5 181q0 29 4 53q24 173 150 256.5t377 89.5l174 5l12 82q3 20 3 38q0 82 -52 126.5t-144 44.5q-87 -1 -159 -47t-101 -131h-155q19 89 79 160t154.5 111t209.5 40q166 0 252.5 -72t86.5 -200q0 -33 -4 -61l-104 -721h-149l14 188
q-71 -114 -161.5 -161t-203.5 -47q-130 0 -206.5 65zM540 143q69 33 118 86.5t58 109.5l25 179l-144 -3q-174 -3 -263.5 -54t-105.5 -165q-2 -22 -2 -30q0 -73 49 -114.5t132 -41.5q64 0 133 33zM505.5 1257q-54.5 28 -85.5 76.5t-38 109.5h127q20 -45 50.5 -74.5
t91.5 -29.5q57 0 99 29.5t75 74.5h129q-25 -57 -71 -106t-110 -78.5t-139 -29.5q-74 0 -128.5 28z" />
    <glyph glyph-name="Aogonek" unicode="&#x104;" horiz-adv-x="1346" 
d="M1147.5 -225q36.5 11 63.5 26l-15 -95q-28 -16 -78 -28.5t-103 -12.5q-82 0 -124 34t-42 96q0 8 2 28q8 57 48 100t126 77h-11l-76 399h-559l-194 -399h-177l703 1446h197l283 -1441l7 -1l-6 -3v-1h-4q-98 -42 -143 -78.5t-52 -83.5q-1 -5 -1 -15q0 -30 18.5 -44.5
t59.5 -14.5t77.5 11zM915 565l-131 703l-337 -703h468z" />
    <glyph glyph-name="aogonek" unicode="&#x105;" horiz-adv-x="1050" 
d="M677.5 -75q-41.5 -36 -48.5 -81q-1 -5 -1 -15q0 -30 18.5 -44.5t59.5 -14.5t77.5 11t63.5 26l-15 -95q-28 -16 -78 -28.5t-103 -12.5q-82 0 -124 34t-42 96q0 8 2 28q9 61 54.5 106.5t146.5 80.5l13 172q-71 -114 -161.5 -161t-203.5 -47q-130 0 -206.5 65t-76.5 181
q0 29 4 53q24 173 150 256.5t377 89.5l174 5l12 82q3 20 3 38q0 82 -52 126.5t-144 44.5q-87 -1 -159 -47t-101 -131h-155q19 89 79 160t154.5 111t209.5 40q166 0 252.5 -72t86.5 -200q0 -33 -4 -61l-104 -721h-26q-91 -39 -132.5 -75zM540 143q69 33 118 86.5t58 109.5
l25 179l-144 -3q-174 -3 -263.5 -54t-105.5 -165q-2 -22 -2 -30q0 -73 49 -114.5t132 -41.5q64 0 133 33z" />
    <glyph glyph-name="Cacute" unicode="&#x106;" horiz-adv-x="1334" 
d="M362 47.5q-110 67.5 -166.5 194t-56.5 302.5q0 82 14 182q33 229 125 396t234 255.5t322 88.5q143 0 249 -58.5t160.5 -158.5t49.5 -221l-187 -10q-5 134 -80 212.5t-218 78.5q-185 0 -303 -146t-159 -439q-15 -103 -15 -189q0 -197 80.5 -297.5t239.5 -100.5
q124 0 222.5 77.5t144.5 209.5l181 -15q-31 -121 -109.5 -218.5t-197 -154t-263.5 -56.5q-157 0 -267 67.5zM615 1683l488 194l23 -138l-496 -148z" />
    <glyph glyph-name="cacute" unicode="&#x107;" horiz-adv-x="1018" 
d="M257.5 32q-85.5 52 -130.5 147t-45 222q0 59 8 111q23 159 96 282t184 191.5t245 68.5q102 0 179.5 -41t119.5 -118.5t41 -183.5l-155 -3q-8 96 -61 148.5t-138 52.5q-88 0 -159.5 -48t-119.5 -137t-65 -208q-8 -56 -8 -99q0 -140 63 -220t176 -80q88 0 158 55t100 144
h150q-29 -107 -94.5 -183t-154 -114.5t-187.5 -38.5q-117 0 -202.5 52zM393 1271l488 194l23 -138l-496 -148z" />
    <glyph glyph-name="Ccircumflex" unicode="&#x108;" horiz-adv-x="1334" 
d="M362 47.5q-110 67.5 -166.5 194t-56.5 302.5q0 82 14 182q33 229 125 396t234 255.5t322 88.5q143 0 249 -58.5t160.5 -158.5t49.5 -221l-187 -10q-5 134 -80 212.5t-218 78.5q-185 0 -303 -146t-159 -439q-15 -103 -15 -189q0 -197 80.5 -297.5t239.5 -100.5
q124 0 222.5 77.5t144.5 209.5l181 -15q-31 -121 -109.5 -218.5t-197 -154t-263.5 -56.5q-157 0 -267 67.5zM831 1865h124l200 -228h-166l-111 134l-162 -134h-155z" />
    <glyph glyph-name="ccircumflex" unicode="&#x109;" horiz-adv-x="1018" 
d="M257.5 32q-85.5 52 -130.5 147t-45 222q0 59 8 111q23 159 96 282t184 191.5t245 68.5q102 0 179.5 -41t119.5 -118.5t41 -183.5l-155 -3q-8 96 -61 148.5t-138 52.5q-88 0 -159.5 -48t-119.5 -137t-65 -208q-8 -56 -8 -99q0 -140 63 -220t176 -80q88 0 158 55t100 144
h150q-29 -107 -94.5 -183t-154 -114.5t-187.5 -38.5q-117 0 -202.5 52zM610 1453h124l200 -228h-166l-111 134l-162 -134h-155z" />
    <glyph glyph-name="Cdotaccent" unicode="&#x10a;" horiz-adv-x="1334" 
d="M362 47.5q-110 67.5 -166.5 194t-56.5 302.5q0 82 14 182q33 229 125 396t234 255.5t322 88.5q143 0 249 -58.5t160.5 -158.5t49.5 -221l-187 -10q-5 134 -80 212.5t-218 78.5q-185 0 -303 -146t-159 -439q-15 -103 -15 -189q0 -197 80.5 -297.5t239.5 -100.5
q124 0 222.5 77.5t144.5 209.5l181 -15q-31 -121 -109.5 -218.5t-197 -154t-263.5 -56.5q-157 0 -267 67.5zM792 1811h185l-27 -187h-185z" />
    <glyph glyph-name="cdotaccent" unicode="&#x10b;" horiz-adv-x="1018" 
d="M257.5 32q-85.5 52 -130.5 147t-45 222q0 59 8 111q23 159 96 282t184 191.5t245 68.5q102 0 179.5 -41t119.5 -118.5t41 -183.5l-155 -3q-8 96 -61 148.5t-138 52.5q-88 0 -159.5 -48t-119.5 -137t-65 -208q-8 -56 -8 -99q0 -140 63 -220t176 -80q88 0 158 55t100 144
h150q-29 -107 -94.5 -183t-154 -114.5t-187.5 -38.5q-117 0 -202.5 52zM570 1399h185l-27 -187h-185z" />
    <glyph glyph-name="Ccaron" unicode="&#x10c;" horiz-adv-x="1334" 
d="M362 47.5q-110 67.5 -166.5 194t-56.5 302.5q0 82 14 182q33 229 125 396t234 255.5t322 88.5q143 0 249 -58.5t160.5 -158.5t49.5 -221l-187 -10q-5 134 -80 212.5t-218 78.5q-185 0 -303 -146t-159 -439q-15 -103 -15 -189q0 -197 80.5 -297.5t239.5 -100.5
q124 0 222.5 77.5t144.5 209.5l181 -15q-31 -121 -109.5 -218.5t-197 -154t-263.5 -56.5q-157 0 -267 67.5zM592 1859h157l122 -135l152 135h165l-265 -229h-127z" />
    <glyph glyph-name="ccaron" unicode="&#x10d;" horiz-adv-x="1018" 
d="M257.5 32q-85.5 52 -130.5 147t-45 222q0 59 8 111q23 159 96 282t184 191.5t245 68.5q102 0 179.5 -41t119.5 -118.5t41 -183.5l-155 -3q-8 96 -61 148.5t-138 52.5q-88 0 -159.5 -48t-119.5 -137t-65 -208q-8 -56 -8 -99q0 -140 63 -220t176 -80q88 0 158 55t100 144
h150q-29 -107 -94.5 -183t-154 -114.5t-187.5 -38.5q-117 0 -202.5 52zM370 1447h157l122 -135l152 135h165l-265 -229h-127z" />
    <glyph glyph-name="Dcaron" unicode="&#x10e;" horiz-adv-x="1330" 
d="M323 1446l317 -2q319 -4 469.5 -139t150.5 -400q0 -83 -13 -173q-53 -364 -259 -548t-574 -184h-300zM437 155q266 0 424.5 135t201.5 439q12 83 12 150q0 221 -118.5 316.5t-350.5 95.5h-127l-163 -1136h121zM545 1859h157l122 -135l152 135h165l-265 -229h-127z" />
    <glyph glyph-name="dcaron" unicode="&#x10f;" horiz-adv-x="1294" 
d="M166 85q-86 105 -86 294q0 63 11 142q23 155 83.5 275.5t159 189t227.5 68.5q84 0 145 -29t96 -69.5t50 -79.5l87 610h175l-215 -1486h-133l12 212q-40 -88 -125.5 -160t-233.5 -72q-167 0 -253 105zM616 155.5q67 37.5 110.5 101.5t55.5 139l35 246q1 7 1 23
q0 55 -20 111.5t-71.5 97t-139.5 40.5q-128 0 -212 -100.5t-110 -290.5q-10 -66 -10 -125q0 -142 57.5 -211t158.5 -69q78 0 145 37.5zM1256 1244l-50 10l27 193h144l-29 -202l-101 -183h-89z" />
    <glyph glyph-name="Dcroat" unicode="&#x110;" horiz-adv-x="1399" 
d="M1179 1305.5q150 -134.5 150 -399.5q0 -84 -13 -174q-53 -364 -259 -548t-574 -184h-300l94 650h-180l13 145h188l95 651l316 -2q320 -4 470 -138.5zM1144 880q0 220 -118.5 315.5t-350.5 95.5h-127l-71 -496h316l-13 -145h-324l-71 -495h121q266 0 424.5 135t201.5 439
q12 83 12 151z" />
    <glyph glyph-name="dcroat" unicode="&#x111;" horiz-adv-x="1192" 
d="M1193 1193h-121l-173 -1193h-133l12 212q-40 -88 -125.5 -160t-233.5 -72q-167 0 -253 105t-86 294q0 63 11 142q23 155 83.5 275.5t159 189t227.5 68.5q84 0 145 -29t96 -69.5t50 -79.5l45 317h-319l10 113h325l26 180h175l-26 -180h114zM818 665q0 55 -20 111.5
t-71.5 97t-139.5 40.5q-128 0 -212 -100.5t-110 -290.5q-10 -66 -10 -125q0 -142 57.5 -211t158.5 -69q78 0 145 37.5t110.5 101.5t55.5 139l35 246q1 7 1 23z" />
    <glyph glyph-name="Emacron" unicode="&#x112;" horiz-adv-x="1200" 
d="M323 1446h861l-25 -159h-685l-68 -479h617l-23 -157h-617l-70 -489l704 -1l-24 -161h-879zM507 1832h564l-18 -127h-564z" />
    <glyph glyph-name="emacron" unicode="&#x113;" horiz-adv-x="1051" 
d="M263 29q-88 49 -135.5 142.5t-47.5 222.5q0 53 9 113q24 164 94.5 287.5t180.5 191.5t249 68q175 0 267.5 -102.5t92.5 -287.5q0 -57 -9 -122l-10 -68h-695q-6 -43 -6 -83q0 -123 59.5 -196.5t176.5 -73.5q93 0 162 45.5t110 134.5h162q-37 -105 -107 -177t-159.5 -108
t-186.5 -36q-119 0 -207 49zM805 597q6 39 6 75q0 112 -55 178t-164 66q-87 0 -154.5 -45.5t-108 -118.5t-51.5 -155h527zM384 1420h564l-18 -127h-564z" />
    <glyph glyph-name="Ebreve" unicode="&#x114;" horiz-adv-x="1200" 
d="M323 1446h861l-25 -159h-685l-68 -479h617l-23 -157h-617l-70 -489l704 -1l-24 -161h-879zM637.5 1669q-54.5 28 -85.5 76.5t-38 109.5h127q20 -45 50.5 -74.5t91.5 -29.5q57 0 99 29.5t75 74.5h129q-25 -57 -71 -106t-110 -78.5t-139 -29.5q-74 0 -128.5 28z" />
    <glyph glyph-name="ebreve" unicode="&#x115;" horiz-adv-x="1051" 
d="M263 29q-88 49 -135.5 142.5t-47.5 222.5q0 53 9 113q24 164 94.5 287.5t180.5 191.5t249 68q175 0 267.5 -102.5t92.5 -287.5q0 -57 -9 -122l-10 -68h-695q-6 -43 -6 -83q0 -123 59.5 -196.5t176.5 -73.5q93 0 162 45.5t110 134.5h162q-37 -105 -107 -177t-159.5 -108
t-186.5 -36q-119 0 -207 49zM805 597q6 39 6 75q0 112 -55 178t-164 66q-87 0 -154.5 -45.5t-108 -118.5t-51.5 -155h527zM513.5 1257q-54.5 28 -85.5 76.5t-38 109.5h127q20 -45 50.5 -74.5t91.5 -29.5q57 0 99 29.5t75 74.5h129q-25 -57 -71 -106t-110 -78.5t-139 -29.5
q-74 0 -128.5 28z" />
    <glyph glyph-name="Edotaccent" unicode="&#x116;" horiz-adv-x="1200" 
d="M323 1446h861l-25 -159h-685l-68 -479h617l-23 -157h-617l-70 -489l704 -1l-24 -161h-879zM694 1811h185l-27 -187h-185z" />
    <glyph glyph-name="edotaccent" unicode="&#x117;" horiz-adv-x="1051" 
d="M263 29q-88 49 -135.5 142.5t-47.5 222.5q0 53 9 113q24 164 94.5 287.5t180.5 191.5t249 68q175 0 267.5 -102.5t92.5 -287.5q0 -57 -9 -122l-10 -68h-695q-6 -43 -6 -83q0 -123 59.5 -196.5t176.5 -73.5q93 0 162 45.5t110 134.5h162q-37 -105 -107 -177t-159.5 -108
t-186.5 -36q-119 0 -207 49zM805 597q6 39 6 75q0 112 -55 178t-164 66q-87 0 -154.5 -45.5t-108 -118.5t-51.5 -155h527zM571 1399h185l-27 -187h-185z" />
    <glyph glyph-name="Eogonek" unicode="&#x118;" horiz-adv-x="1200" 
d="M474 1287l-68 -479h617l-23 -157h-617l-70 -489l704 -1l-23 -156l15 -1q-104 -43 -151 -80.5t-54 -85.5q-1 -5 -1 -15q0 -30 18.5 -44.5t59.5 -14.5t77.5 11t63.5 26l-15 -95q-28 -16 -78 -28.5t-103 -12.5q-82 0 -124 34t-42 96q0 8 2 28q8 57 48 100t126 77h-722
l209 1446h861l-25 -159h-685z" />
    <glyph glyph-name="eogonek" unicode="&#x119;" horiz-adv-x="1051" 
d="M880.5 951.5q92.5 -102.5 92.5 -287.5q0 -57 -9 -122l-10 -68h-695q-6 -43 -6 -83q0 -123 59.5 -196.5t176.5 -73.5q93 0 162 45.5t110 134.5h162q-35 -98 -98 -167.5t-146 -107.5l6 -1q-104 -43 -151 -80.5t-54 -85.5q-1 -5 -1 -15q0 -30 18.5 -44.5t59.5 -14.5t77.5 11
t63.5 26l-15 -95q-28 -16 -78 -28.5t-103 -12.5q-82 0 -124 34t-42 96q0 51 22 91.5t74 73.5q-108 8 -187.5 59.5t-122 141.5t-42.5 212q0 53 9 113q24 164 94.5 287.5t180.5 191.5t249 68q175 0 267.5 -102.5zM811 672q0 112 -55 178t-164 66q-87 0 -154.5 -45.5
t-108 -118.5t-51.5 -155h527q6 39 6 75z" />
    <glyph glyph-name="Ecaron" unicode="&#x11a;" horiz-adv-x="1200" 
d="M323 1446h861l-25 -159h-685l-68 -479h617l-23 -157h-617l-70 -489l704 -1l-24 -161h-879zM494 1859h157l122 -135l152 135h165l-265 -229h-127z" />
    <glyph glyph-name="ecaron" unicode="&#x11b;" horiz-adv-x="1055" 
d="M263 29q-88 49 -135.5 142.5t-47.5 222.5q0 53 9 113q24 164 94.5 287.5t180.5 191.5t249 68q175 0 267.5 -102.5t92.5 -287.5q0 -57 -9 -122l-10 -68h-695q-6 -43 -6 -83q0 -123 59.5 -196.5t176.5 -73.5q93 0 162 45.5t110 134.5h162q-37 -105 -107 -177t-159.5 -108
t-186.5 -36q-119 0 -207 49zM805 597q6 39 6 75q0 112 -55 178t-164 66q-87 0 -154.5 -45.5t-108 -118.5t-51.5 -155h527zM367 1447h157l122 -135l152 135h165l-265 -229h-127z" />
    <glyph glyph-name="Gcircumflex" unicode="&#x11c;" horiz-adv-x="1409" 
d="M361 46.5q-109 66.5 -166 192.5t-57 300q0 81 14 179q33 232 129.5 400.5t242 258t322.5 89.5q129 0 232 -55.5t161 -148.5t58 -201q0 -20 -1 -30l-191 -11q-2 81 -37.5 146t-100 102.5t-148.5 37.5q-121 0 -219.5 -66t-165.5 -195t-94 -315q-13 -90 -13 -171
q0 -209 87.5 -312.5t243.5 -103.5q107 0 191.5 52.5t136.5 131.5t67 157l24 130h-333l20 132l514 -1l-108 -745h-131l32 222q-173 -242 -448 -242q-153 0 -262 66.5zM840 1865h124l200 -228h-166l-111 134l-162 -134h-155z" />
    <glyph glyph-name="gcircumflex" unicode="&#x11d;" horiz-adv-x="1167" 
d="M182.5 -313q-100.5 29 -151.5 83t-51 128q0 22 2 33q12 81 67.5 130t125.5 83q7 4 13 7t10 6q-6 5 -29.5 20.5t-38.5 38.5t-15 52q0 55 50.5 100.5t144.5 67.5q-75 44 -109.5 101t-34.5 132q0 29 4 54q15 101 79 175t165.5 113t226.5 39q91 0 153.5 -22.5t114.5 -67.5
q36 14 99 41l166 67l-26 -168l-176 -35q6 -21 10.5 -52t4.5 -58q0 -14 -2 -32q-13 -90 -69 -164t-154 -118t-231 -44q-28 0 -58 2q-99 -3 -142 -25t-43 -52q0 -17 17.5 -27t54.5 -15.5t105 -10.5l114 -8l97 -6q142 -9 212 -69t70 -161q0 -15 -4 -49q-14 -98 -79.5 -169.5
t-179 -110t-266.5 -38.5q-146 0 -246.5 29zM736 566.5q67 53.5 81 154.5q3 23 3 42q0 84 -55.5 129.5t-150.5 45.5q-112 0 -184 -58.5t-86 -158.5q-3 -19 -3 -37q0 -82 55 -126.5t157 -44.5q116 0 183 53.5zM693 -183q74 43 88 133q2 18 2 27q0 55 -38 86t-121 37l-271 19
q-37 2 -80.5 -20t-76 -61.5t-38.5 -86.5q-2 -16 -2 -23q0 -77 81.5 -115.5t238.5 -38.5q143 0 217 43zM636 1453h124l200 -228h-166l-111 134l-162 -134h-155z" />
    <glyph glyph-name="Gbreve" unicode="&#x11e;" horiz-adv-x="1409" 
d="M361 46.5q-109 66.5 -166 192.5t-57 300q0 81 14 179q33 232 129.5 400.5t242 258t322.5 89.5q129 0 232 -55.5t161 -148.5t58 -201q0 -20 -1 -30l-191 -11q-2 81 -37.5 146t-100 102.5t-148.5 37.5q-121 0 -219.5 -66t-165.5 -195t-94 -315q-13 -90 -13 -171
q0 -209 87.5 -312.5t243.5 -103.5q107 0 191.5 52.5t136.5 131.5t67 157l24 130h-333l20 132l514 -1l-108 -745h-131l32 222q-173 -242 -448 -242q-153 0 -262 66.5zM743.5 1669q-54.5 28 -85.5 76.5t-38 109.5h127q20 -45 50.5 -74.5t91.5 -29.5q57 0 99 29.5t75 74.5h129
q-25 -57 -71 -106t-110 -78.5t-139 -29.5q-74 0 -128.5 28z" />
    <glyph glyph-name="gbreve" unicode="&#x11f;" horiz-adv-x="1167" 
d="M182.5 -313q-100.5 29 -151.5 83t-51 128q0 22 2 33q12 81 67.5 130t125.5 83q7 4 13 7t10 6q-6 5 -29.5 20.5t-38.5 38.5t-15 52q0 55 50.5 100.5t144.5 67.5q-75 44 -109.5 101t-34.5 132q0 29 4 54q15 101 79 175t165.5 113t226.5 39q91 0 153.5 -22.5t114.5 -67.5
q36 14 99 41l166 67l-26 -168l-176 -35q6 -21 10.5 -52t4.5 -58q0 -14 -2 -32q-13 -90 -69 -164t-154 -118t-231 -44q-28 0 -58 2q-99 -3 -142 -25t-43 -52q0 -17 17.5 -27t54.5 -15.5t105 -10.5l114 -8l97 -6q142 -9 212 -69t70 -161q0 -15 -4 -49q-14 -98 -79.5 -169.5
t-179 -110t-266.5 -38.5q-146 0 -246.5 29zM736 566.5q67 53.5 81 154.5q3 23 3 42q0 84 -55.5 129.5t-150.5 45.5q-112 0 -184 -58.5t-86 -158.5q-3 -19 -3 -37q0 -82 55 -126.5t157 -44.5q116 0 183 53.5zM693 -183q74 43 88 133q2 18 2 27q0 55 -38 86t-121 37l-271 19
q-37 2 -80.5 -20t-76 -61.5t-38.5 -86.5q-2 -16 -2 -23q0 -77 81.5 -115.5t238.5 -38.5q143 0 217 43zM539.5 1257q-54.5 28 -85.5 76.5t-38 109.5h127q20 -45 50.5 -74.5t91.5 -29.5q57 0 99 29.5t75 74.5h129q-25 -57 -71 -106t-110 -78.5t-139 -29.5q-74 0 -128.5 28z
" />
    <glyph glyph-name="Gdotaccent" unicode="&#x120;" horiz-adv-x="1409" 
d="M361 46.5q-109 66.5 -166 192.5t-57 300q0 81 14 179q33 232 129.5 400.5t242 258t322.5 89.5q129 0 232 -55.5t161 -148.5t58 -201q0 -20 -1 -30l-191 -11q-2 81 -37.5 146t-100 102.5t-148.5 37.5q-121 0 -219.5 -66t-165.5 -195t-94 -315q-13 -90 -13 -171
q0 -209 87.5 -312.5t243.5 -103.5q107 0 191.5 52.5t136.5 131.5t67 157l24 130h-333l20 132l514 -1l-108 -745h-131l32 222q-173 -242 -448 -242q-153 0 -262 66.5zM800 1811h185l-27 -187h-185z" />
    <glyph glyph-name="gdotaccent" unicode="&#x121;" horiz-adv-x="1167" 
d="M182.5 -313q-100.5 29 -151.5 83t-51 128q0 22 2 33q12 81 67.5 130t125.5 83q7 4 13 7t10 6q-6 5 -29.5 20.5t-38.5 38.5t-15 52q0 55 50.5 100.5t144.5 67.5q-75 44 -109.5 101t-34.5 132q0 29 4 54q15 101 79 175t165.5 113t226.5 39q91 0 153.5 -22.5t114.5 -67.5
q36 14 99 41l166 67l-26 -168l-176 -35q6 -21 10.5 -52t4.5 -58q0 -14 -2 -32q-13 -90 -69 -164t-154 -118t-231 -44q-28 0 -58 2q-99 -3 -142 -25t-43 -52q0 -17 17.5 -27t54.5 -15.5t105 -10.5l114 -8l97 -6q142 -9 212 -69t70 -161q0 -15 -4 -49q-14 -98 -79.5 -169.5
t-179 -110t-266.5 -38.5q-146 0 -246.5 29zM736 566.5q67 53.5 81 154.5q3 23 3 42q0 84 -55.5 129.5t-150.5 45.5q-112 0 -184 -58.5t-86 -158.5q-3 -19 -3 -37q0 -82 55 -126.5t157 -44.5q116 0 183 53.5zM693 -183q74 43 88 133q2 18 2 27q0 55 -38 86t-121 37l-271 19
q-37 2 -80.5 -20t-76 -61.5t-38.5 -86.5q-2 -16 -2 -23q0 -77 81.5 -115.5t238.5 -38.5q143 0 217 43zM597 1399h185l-27 -187h-185z" />
    <glyph glyph-name="uni0122" unicode="&#x122;" horiz-adv-x="1409" 
d="M361 46.5q-109 66.5 -166 192.5t-57 300q0 81 14 179q33 232 129.5 400.5t242 258t322.5 89.5q129 0 232 -55.5t161 -148.5t58 -201q0 -20 -1 -30l-191 -11q-2 81 -37.5 146t-100 102.5t-148.5 37.5q-121 0 -219.5 -66t-165.5 -195t-94 -315q-13 -90 -13 -171
q0 -209 87.5 -312.5t243.5 -103.5q107 0 191.5 52.5t136.5 131.5t67 157l24 130h-333l20 132l514 -1l-108 -745h-131l32 222q-173 -242 -448 -242q-153 0 -262 66.5zM525 -361l-82 5l32 218h217l-27 -190l-201 -278h-80z" />
    <glyph glyph-name="uni0123" unicode="&#x123;" horiz-adv-x="1167" 
d="M597 1396l111 143h84l-108 -153h70l-25 -175h-158zM182.5 -313q-100.5 29 -151.5 83t-51 128q0 22 2 33q12 81 67.5 130t125.5 83q7 4 13 7t10 6q-6 5 -29.5 20.5t-38.5 38.5t-15 52q0 55 50.5 100.5t144.5 67.5q-75 44 -109.5 101t-34.5 132q0 29 4 54q15 101 79 175
t165.5 113t226.5 39q91 0 153.5 -22.5t114.5 -67.5q36 14 99 41l166 67l-26 -168l-176 -35q6 -21 10.5 -52t4.5 -58q0 -14 -2 -32q-13 -90 -69 -164t-154 -118t-231 -44q-28 0 -58 2q-99 -3 -142 -25t-43 -52q0 -17 17.5 -27t54.5 -15.5t105 -10.5l114 -8l97 -6
q142 -9 212 -69t70 -161q0 -15 -4 -49q-14 -98 -79.5 -169.5t-179 -110t-266.5 -38.5q-146 0 -246.5 29zM736 566.5q67 53.5 81 154.5q3 23 3 42q0 84 -55.5 129.5t-150.5 45.5q-112 0 -184 -58.5t-86 -158.5q-3 -19 -3 -37q0 -82 55 -126.5t157 -44.5q116 0 183 53.5z
M693 -183q74 43 88 133q2 18 2 27q0 55 -38 86t-121 37l-271 19q-37 2 -80.5 -20t-76 -61.5t-38.5 -86.5q-2 -16 -2 -23q0 -77 81.5 -115.5t238.5 -38.5q143 0 217 43z" />
    <glyph glyph-name="Hcircumflex" unicode="&#x124;" horiz-adv-x="1359" 
d="M323 1446h175l-89 -618h637l89 618h174l-209 -1446h-175l97 669h-637l-96 -669h-175zM816 1865h124l200 -228h-166l-111 134l-162 -134h-155z" />
    <glyph glyph-name="hcircumflex" unicode="&#x125;" horiz-adv-x="1124" 
d="M296 1486h171l-87 -598q51 71 134.5 115.5t194.5 44.5q86 0 154 -32.5t106.5 -92t38.5 -136.5q0 -22 -3 -45l-107 -742h-175l102 707q3 18 3 33q0 75 -51.5 118t-139.5 43q-68 0 -129 -23.5t-102 -70t-50 -112.5l-100 -695h-175zM767 1453h124l200 -228h-166l-111 134
l-162 -134h-155z" />
    <glyph glyph-name="Hbar" unicode="&#x126;" horiz-adv-x="1401" 
d="M1457 1113h-146l-161 -1113h-174l96 669h-637l-96 -669h-175l162 1113h-216l18 118h215l31 215h174l-31 -215h637l31 215h174l-31 -215h147zM1137 1113h-637l-41 -285h637z" />
    <glyph glyph-name="hbar" unicode="&#x127;" horiz-adv-x="1224" 
d="M963 1015q68 -33 106.5 -92.5t38.5 -137.5q0 -20 -3 -43l-108 -742h-175l103 707q3 17 3 33q0 75 -52 118t-140 43q-68 0 -128.5 -23.5t-101.5 -70t-50 -112.5l-101 -695h-175l173 1193h-216l14 113h219l26 180h170l-26 -180h227l-15 -113h-228l-44 -305q50 71 134 115.5
t195 44.5q86 0 154 -33z" />
    <glyph glyph-name="Itilde" unicode="&#x128;" horiz-adv-x="548" 
d="M323 1446h175l-208 -1446h-174zM178 1775q44 37 81.5 55.5t87.5 18.5q32 0 61 -7.5t65 -21.5q37 -13 62 -19.5t52 -6.5q38 0 69.5 14t70.5 41l15 -108q-82 -57 -172 -57q-34 0 -60.5 6.5t-64.5 20.5q-33 13 -56.5 19t-50.5 6q-41 0 -70 -13.5t-71 -42.5z" />
    <glyph glyph-name="itilde" unicode="&#x129;" horiz-adv-x="510" 
d="M244 1034h175l-150 -1034h-174zM98 1363q44 37 81.5 55.5t87.5 18.5q32 0 61 -7.5t65 -21.5q37 -13 62 -19.5t52 -6.5q38 0 69.5 14t70.5 41l15 -108q-82 -57 -172 -57q-34 0 -60.5 6.5t-64.5 20.5q-33 13 -56.5 19t-50.5 6q-41 0 -70 -13.5t-71 -42.5z" />
    <glyph glyph-name="Imacron" unicode="&#x12a;" horiz-adv-x="548" 
d="M323 1446h175l-208 -1446h-174zM185 1832h564l-18 -127h-564z" />
    <glyph glyph-name="imacron" unicode="&#x12b;" horiz-adv-x="510" 
d="M244 1034h175l-150 -1034h-174zM105 1420h564l-18 -127h-564z" />
    <glyph glyph-name="Ibreve" unicode="&#x12c;" horiz-adv-x="548" 
d="M323 1446h175l-208 -1446h-174zM315.5 1669q-54.5 28 -85.5 76.5t-38 109.5h127q20 -45 50.5 -74.5t91.5 -29.5q57 0 99 29.5t75 74.5h129q-25 -57 -71 -106t-110 -78.5t-139 -29.5q-74 0 -128.5 28z" />
    <glyph glyph-name="ibreve" unicode="&#x12d;" horiz-adv-x="510" 
d="M244 1034h175l-150 -1034h-174zM235.5 1257q-54.5 28 -85.5 76.5t-38 109.5h127q20 -45 50.5 -74.5t91.5 -29.5q57 0 99 29.5t75 74.5h129q-25 -57 -71 -106t-110 -78.5t-139 -29.5q-74 0 -128.5 28z" />
    <glyph glyph-name="Iogonek" unicode="&#x12e;" horiz-adv-x="548" 
d="M83 -181q0 -30 18.5 -44.5t59.5 -14.5t77.5 11t63.5 26l-15 -95q-28 -16 -78 -28.5t-103 -12.5q-82 0 -124 34t-42 96q0 70 41.5 120.5t145.5 88.5h-11l207 1446h175l-208 -1446h-1q-104 -43 -151 -80.5t-54 -85.5q-1 -5 -1 -15z" />
    <glyph glyph-name="iogonek" unicode="&#x12f;" horiz-adv-x="510" 
d="M477 1399l-27 -187h-185l27 187h185zM110 -76q-43 -36 -50 -82q-1 -5 -1 -15q0 -30 18.5 -44.5t59.5 -14.5t77.5 11t63.5 26l-15 -95q-28 -16 -78 -28.5t-103 -12.5q-82 0 -124 34t-42 96q0 8 2 28q8 57 48.5 101t129.5 77l148 1029h175l-150 -1034h-23q-93 -40 -136 -76
z" />
    <glyph glyph-name="Idotaccent" unicode="&#x130;" horiz-adv-x="548" 
d="M323 1446h175l-208 -1446h-174zM372 1811h185l-27 -187h-185z" />
    <glyph glyph-name="dotlessi" unicode="&#x131;" horiz-adv-x="510" 
d="M244 1034h175l-150 -1034h-174z" />
    <glyph glyph-name="Jcircumflex" unicode="&#x134;" horiz-adv-x="743" 
d="M73 -4.5q-60 15.5 -92 30.5l37 171q9 -3 29 -13q34 -15 62 -23.5t66 -8.5q62 0 100 23.5t60.5 74.5t34.5 139l152 1057h174l-159 -1108q-18 -121 -55 -198.5t-106 -118.5t-180 -41q-63 0 -123 15.5zM605 1865h124l200 -228h-166l-111 134l-162 -134h-155z" />
    <glyph glyph-name="jcircumflex" unicode="&#x135;" horiz-adv-x="486" 
d="M-164 -325.5q-24 6.5 -23 16.5l18 120l98 4q66 5 98 37t42 105l155 1077h175l-157 -1083q-21 -147 -92.5 -215t-217.5 -68q-72 0 -96 6.5zM310 1453h124l200 -228h-166l-111 134l-162 -134h-155z" />
    <glyph glyph-name="uni0136" unicode="&#x136;" horiz-adv-x="1298" 
d="M323 1446h181l-107 -753l720 753h207l-534 -564l368 -882h-198l-320 748l-278 -290l-66 -458h-182zM476 -361l-82 5l32 218h217l-27 -190l-201 -278h-80z" />
    <glyph glyph-name="uni0137" unicode="&#x137;" horiz-adv-x="1081" 
d="M296 1486h173l-140 -974l535 522h200l-410 -393l284 -641h-185l-229 523l-224 -215l-45 -308h-174zM362 -361l-82 5l32 218h217l-27 -190l-201 -278h-80z" />
    <glyph glyph-name="kgreenlandic" unicode="&#x138;" horiz-adv-x="1098" 
d="M231 1034h174l-77 -536l555 536h191l-388 -362l272 -672h-204l-208 537l-246 -229l-44 -308h-175z" />
    <glyph glyph-name="Lacute" unicode="&#x139;" horiz-adv-x="1076" 
d="M323 1446h179l-185 -1284h645l-23 -162h-825zM193 1683l488 194l23 -138l-496 -148z" />
    <glyph glyph-name="lacute" unicode="&#x13a;" horiz-adv-x="569" 
d="M166 39.5q-48 52.5 -48 143.5q0 33 7 82l177 1221h172l-174 -1204q-3 -25 -3 -46q0 -110 90 -116l52 -1l-17 -116q-51 -16 -90 -16q-118 0 -166 52.5zM172 1763l488 194l23 -138l-496 -148z" />
    <glyph glyph-name="uni013B" unicode="&#x13b;" horiz-adv-x="1076" 
d="M323 1446h179l-185 -1284h645l-23 -162h-825zM414 -361l-82 5l32 218h217l-27 -190l-201 -278h-80z" />
    <glyph glyph-name="uni013C" unicode="&#x13c;" horiz-adv-x="569" 
d="M166 39.5q-48 52.5 -48 143.5q0 33 7 82l177 1221h172l-174 -1204q-3 -25 -3 -46q0 -110 90 -116l52 -1l-17 -116q-51 -16 -90 -16q-118 0 -166 52.5zM88 -360l-82 5l32 218h217l-27 -190l-201 -278h-80z" />
    <glyph glyph-name="Lcaron" unicode="&#x13d;" horiz-adv-x="1076" 
d="M323 1446h179l-185 -1284h645l-23 -162h-825zM859 1243l-50 10l27 193h144l-29 -202l-101 -183h-89z" />
    <glyph glyph-name="lcaron" unicode="&#x13e;" horiz-adv-x="569" 
d="M166 39.5q-48 52.5 -48 143.5q0 33 7 82l177 1221h172l-174 -1204q-3 -25 -3 -46q0 -110 90 -116l52 -1l-17 -116q-51 -16 -90 -16q-118 0 -166 52.5zM608 1270l-50 10l27 193h144l-29 -202l-101 -183h-89z" />
    <glyph glyph-name="Ldot" unicode="&#x13f;" horiz-adv-x="1117" 
d="M323 1446h179l-185 -1284h645l-23 -162h-825zM891 896h216l-33 -217h-215z" />
    <glyph glyph-name="ldot" unicode="&#x140;" horiz-adv-x="706" 
d="M166 39.5q-48 52.5 -48 143.5q0 33 7 82l177 1221h172l-174 -1204q-3 -25 -3 -46q0 -110 90 -116l52 -1l-17 -116q-51 -16 -90 -16q-118 0 -166 52.5zM550 680h216l-33 -217h-215z" />
    <glyph glyph-name="Lslash" unicode="&#x141;" horiz-adv-x="1116" 
d="M1002 162l-23 -162h-825l94 650l-174 -47v154l197 51l93 638h178l-85 -590l289 75v-146l-311 -84l-78 -539h645z" />
    <glyph glyph-name="lslash" unicode="&#x142;" horiz-adv-x="532" 
d="M353 282q-3 -25 -3 -46q0 -110 90 -116l53 -1l-18 -116q-50 -16 -89 -16q-118 0 -166 52.5t-48 143.5q0 33 7 82l31 213l-188 -156v166l214 174l119 824h172l-96 -666l108 88v-157l-134 -111z" />
    <glyph glyph-name="Nacute" unicode="&#x143;" horiz-adv-x="1437" 
d="M323 1446h166l561 -1133l163 1133h174l-209 -1446h-155l-569 1148l-165 -1148h-175zM637 1683l488 194l23 -138l-496 -148z" />
    <glyph glyph-name="nacute" unicode="&#x144;" horiz-adv-x="1125" 
d="M231 1034h169l-20 -144q54 72 136.5 115.5t192.5 43.5q84 0 150.5 -34.5t104.5 -101t38 -160.5q0 -35 -6 -74l-97 -679h-175l96 662q4 24 4 52q0 89 -49.5 138t-134.5 49q-69 0 -130.5 -23t-103 -69.5t-50.5 -112.5l-100 -696h-174zM435 1271l488 194l23 -138l-496 -148z
" />
    <glyph glyph-name="uni0145" unicode="&#x145;" horiz-adv-x="1437" 
d="M323 1446h166l561 -1133l163 1133h174l-209 -1446h-155l-569 1148l-165 -1148h-175zM514 -361l-82 5l32 218h217l-27 -190l-201 -278h-80z" />
    <glyph glyph-name="uni0146" unicode="&#x146;" horiz-adv-x="1125" 
d="M231 1034h169l-20 -144q54 72 136.5 115.5t192.5 43.5q84 0 150.5 -34.5t104.5 -101t38 -160.5q0 -35 -6 -74l-97 -679h-175l96 662q4 24 4 52q0 89 -49.5 138t-134.5 49q-69 0 -130.5 -23t-103 -69.5t-50.5 -112.5l-100 -696h-174zM390 -361l-82 5l32 218h217l-27 -190
l-201 -278h-80z" />
    <glyph glyph-name="Ncaron" unicode="&#x147;" horiz-adv-x="1437" 
d="M323 1446h166l561 -1133l163 1133h174l-209 -1446h-155l-569 1148l-165 -1148h-175zM615 1859h157l122 -135l152 135h165l-265 -229h-127z" />
    <glyph glyph-name="ncaron" unicode="&#x148;" horiz-adv-x="1125" 
d="M231 1034h169l-20 -144q54 72 136.5 115.5t192.5 43.5q84 0 150.5 -34.5t104.5 -101t38 -160.5q0 -35 -6 -74l-97 -679h-175l96 662q4 24 4 52q0 89 -49.5 138t-134.5 49q-69 0 -130.5 -23t-103 -69.5t-50.5 -112.5l-100 -696h-174zM412 1447h157l122 -135l152 135h165
l-265 -229h-127z" />
    <glyph glyph-name="Eng" unicode="&#x14a;" horiz-adv-x="1440" 
d="M1188 67h3l-28 -189q-17 -121 -53.5 -198.5t-106 -118.5t-182.5 -41q-62 0 -121 15.5t-93 30.5l37 171q9 -3 29 -13q34 -15 62 -23.5t66 -8.5q62 0 101 23.5t61 75t34 138.5l14 96l-557 1123l-165 -1148h-175l209 1446h166l561 -1133l163 1133h174z" />
    <glyph glyph-name="eng" unicode="&#x14b;" horiz-adv-x="1105" 
d="M486 -326.5q-21 5.5 -19 15.5l17 120l82 3q63 4 95 36.5t42 106.5l107 756q4 34 4 49q0 154 -161 154q-133 0 -299 -156l-107 -758h-166l148 1034h158l-22 -158q117 97 200 137.5t170 40.5q119 0 184.5 -65t65.5 -177q0 -30 -4 -55l-112 -793q-20 -140 -97 -218t-200 -78
q-65 0 -86 5.5z" />
    <glyph glyph-name="Omacron" unicode="&#x14c;" horiz-adv-x="1429" 
d="M367 44.5q-112 64.5 -170.5 189.5t-58.5 302q0 81 14 181q34 236 130 404.5t242.5 256.5t328.5 88q156 0 267 -65.5t169 -192t58 -305.5q0 -82 -14 -183q-34 -233 -128.5 -399.5t-239.5 -253.5t-327 -87q-159 0 -271 64.5zM978.5 280.5q122.5 143.5 163.5 437.5
q14 95 14 185q0 205 -83.5 305.5t-242.5 100.5q-193 0 -318 -147t-168 -444q-14 -101 -14 -177q0 -204 85.5 -304t247.5 -100q193 0 315.5 143.5zM619 1832h564l-18 -127h-564z" />
    <glyph glyph-name="omacron" unicode="&#x14d;" horiz-adv-x="1073" 
d="M254 31q-85 51 -129 144.5t-44 219.5q0 55 9 115q23 160 95.5 283.5t184 192t247.5 68.5q119 0 203 -52.5t127.5 -148t43.5 -221.5q0 -57 -9 -119q-23 -157 -93.5 -278t-181 -188t-248.5 -67q-120 0 -205 51zM702 231q83 109 107 286q9 59 9 112q0 131 -55 207t-168 76
q-136 0 -221 -109t-110 -286q-8 -58 -8 -104q0 -134 56.5 -212.5t171.5 -78.5q135 0 218 109zM388 1420h564l-18 -127h-564z" />
    <glyph glyph-name="Obreve" unicode="&#x14e;" horiz-adv-x="1429" 
d="M367 44.5q-112 64.5 -170.5 189.5t-58.5 302q0 81 14 181q34 236 130 404.5t242.5 256.5t328.5 88q156 0 267 -65.5t169 -192t58 -305.5q0 -82 -14 -183q-34 -233 -128.5 -399.5t-239.5 -253.5t-327 -87q-159 0 -271 64.5zM978.5 280.5q122.5 143.5 163.5 437.5
q14 95 14 185q0 205 -83.5 305.5t-242.5 100.5q-193 0 -318 -147t-168 -444q-14 -101 -14 -177q0 -204 85.5 -304t247.5 -100q193 0 315.5 143.5zM748.5 1669q-54.5 28 -85.5 76.5t-38 109.5h127q20 -45 50.5 -74.5t91.5 -29.5q57 0 99 29.5t75 74.5h129q-25 -57 -71 -106
t-110 -78.5t-139 -29.5q-74 0 -128.5 28z" />
    <glyph glyph-name="obreve" unicode="&#x14f;" horiz-adv-x="1073" 
d="M254 31q-85 51 -129 144.5t-44 219.5q0 55 9 115q23 160 95.5 283.5t184 192t247.5 68.5q119 0 203 -52.5t127.5 -148t43.5 -221.5q0 -57 -9 -119q-23 -157 -93.5 -278t-181 -188t-248.5 -67q-120 0 -205 51zM702 231q83 109 107 286q9 59 9 112q0 131 -55 207t-168 76
q-136 0 -221 -109t-110 -286q-8 -58 -8 -104q0 -134 56.5 -212.5t171.5 -78.5q135 0 218 109zM517.5 1257q-54.5 28 -85.5 76.5t-38 109.5h127q20 -45 50.5 -74.5t91.5 -29.5q57 0 99 29.5t75 74.5h129q-25 -57 -71 -106t-110 -78.5t-139 -29.5q-74 0 -128.5 28z" />
    <glyph glyph-name="Ohungarumlaut" unicode="&#x150;" horiz-adv-x="1429" 
d="M367 44.5q-112 64.5 -170.5 189.5t-58.5 302q0 81 14 181q34 236 130 404.5t242.5 256.5t328.5 88q156 0 267 -65.5t169 -192t58 -305.5q0 -82 -14 -183q-34 -233 -128.5 -399.5t-239.5 -253.5t-327 -87q-159 0 -271 64.5zM978.5 280.5q122.5 143.5 163.5 437.5
q14 95 14 185q0 205 -83.5 305.5t-242.5 100.5q-193 0 -318 -147t-168 -444q-14 -101 -14 -177q0 -204 85.5 -304t247.5 -100q193 0 315.5 143.5zM911 1606l294 275l74 -111l-321 -240zM601 1606l296 274l72 -110l-319 -238z" />
    <glyph glyph-name="ohungarumlaut" unicode="&#x151;" horiz-adv-x="1073" 
d="M254 31q-85 51 -129 144.5t-44 219.5q0 55 9 115q23 160 95.5 283.5t184 192t247.5 68.5q119 0 203 -52.5t127.5 -148t43.5 -221.5q0 -57 -9 -119q-23 -157 -93.5 -278t-181 -188t-248.5 -67q-120 0 -205 51zM702 231q83 109 107 286q9 59 9 112q0 131 -55 207t-168 76
q-136 0 -221 -109t-110 -286q-8 -58 -8 -104q0 -134 56.5 -212.5t171.5 -78.5q135 0 218 109zM680 1194l294 275l74 -111l-321 -240zM370 1194l296 274l72 -110l-319 -238z" />
    <glyph glyph-name="OE" unicode="&#x152;" horiz-adv-x="2127" 
d="M370.5 44.5q-113.5 64.5 -173 189t-59.5 302.5q0 81 14 181q34 236 131 404.5t246.5 256.5t338.5 88q130 0 221 -52t138 -154l65 186h814l-23 -156h-675l-68 -483h494l-23 -155h-494l-72 -495h700l-24 -157h-844l-6 185q-77 -102 -185 -153.5t-241 -51.5
q-161 0 -274.5 64.5zM967 276q112 142 155 442q17 117 17 206q0 197 -76.5 293t-231.5 96q-193 0 -310 -147t-160 -448q-15 -108 -15 -195q0 -198 79 -293.5t238 -95.5q192 0 304 142z" />
    <glyph glyph-name="oe" unicode="&#x153;" horiz-adv-x="1855" 
d="M269 32.5q-91 52.5 -139 148.5t-48 225q0 46 8 104q23 160 101 283.5t194.5 192t253.5 68.5q119 0 205 -56t130 -157q8 -13 14 -13t17 13q69 100 170 156.5t215 56.5q119 0 204 -51.5t130 -149.5t45 -235q0 -68 -10 -138h-736q-5 -38 -5 -66q0 -86 33.5 -154t93 -106.5
t134.5 -38.5q179 0 315 172l108 -61q-97 -130 -207 -188t-254 -58q-116 0 -202.5 53.5t-132.5 149.5q-6 14 -13 14q-8 0 -21 -18q-73 -95 -173 -147t-216 -52q-123 0 -214 52.5zM1608 653q0 76 -27 138.5t-78.5 99t-122.5 36.5q-82 0 -154 -42t-120.5 -117.5t-61.5 -172.5
l560 -2q4 27 4 60zM667 161q72 48 120 138.5t66 215.5q8 59 8 103q0 144 -63 224.5t-177 80.5q-89 0 -162.5 -49t-122.5 -141t-67 -218q-8 -58 -8 -101q0 -142 64.5 -221.5t179.5 -79.5q90 0 162 48z" />
    <glyph glyph-name="Racute" unicode="&#x154;" horiz-adv-x="1299" 
d="M323 1446h528q195 0 294.5 -82.5t99.5 -234.5q0 -37 -6 -76q-23 -161 -111.5 -255t-211.5 -139l174 -659h-184l-159 626h-368l-91 -626h-174zM699 776q156 0 248.5 67t110.5 199q4 25 4 53q0 101 -64 152t-183 51h-340l-75 -522h299zM547 1683l488 194l23 -138l-496 -148
z" />
    <glyph glyph-name="racute" unicode="&#x155;" horiz-adv-x="729" 
d="M231 1034h165l-28 -197q52 95 154.5 156t234.5 61l-25 -173q-12 1 -36 1q-162 0 -247 -63t-100 -172l-93 -647h-175zM268 1271l488 194l23 -138l-496 -148z" />
    <glyph glyph-name="uni0156" unicode="&#x156;" horiz-adv-x="1299" 
d="M323 1446h528q195 0 294.5 -82.5t99.5 -234.5q0 -37 -6 -76q-23 -161 -111.5 -255t-211.5 -139l174 -659h-184l-159 626h-368l-91 -626h-174zM699 776q156 0 248.5 67t110.5 199q4 25 4 53q0 101 -64 152t-183 51h-340l-75 -522h299zM469 -361l-82 5l32 218h217l-27 -190
l-201 -278h-80z" />
    <glyph glyph-name="uni0157" unicode="&#x157;" horiz-adv-x="729" 
d="M231 1034h165l-28 -197q52 95 154.5 156t234.5 61l-25 -173q-12 1 -36 1q-162 0 -247 -63t-100 -172l-93 -647h-175zM74 -361l-82 5l32 218h217l-27 -190l-201 -278h-80z" />
    <glyph glyph-name="Rcaron" unicode="&#x158;" horiz-adv-x="1299" 
d="M323 1446h528q195 0 294.5 -82.5t99.5 -234.5q0 -37 -6 -76q-23 -161 -111.5 -255t-211.5 -139l174 -659h-184l-159 626h-368l-91 -626h-174zM699 776q156 0 248.5 67t110.5 199q4 25 4 53q0 101 -64 152t-183 51h-340l-75 -522h299zM524 1859h157l122 -135l152 135h165
l-265 -229h-127z" />
    <glyph glyph-name="rcaron" unicode="&#x159;" horiz-adv-x="729" 
d="M231 1034h165l-28 -197q52 95 154.5 156t234.5 61l-25 -173q-12 1 -36 1q-162 0 -247 -63t-100 -172l-93 -647h-175zM245 1447h157l122 -135l152 135h165l-265 -229h-127z" />
    <glyph glyph-name="Sacute" unicode="&#x15a;" horiz-adv-x="1323" 
d="M342 25q-112 45 -178 132.5t-65 210.5l185 13q5 -81 48.5 -137.5t115 -85t161.5 -28.5q98 0 180.5 29.5t134.5 83.5t62 127q3 20 3 39q0 81 -53.5 135t-155.5 79l-264 66q-282 70 -282 297q0 31 4 58q17 123 94.5 218.5t198.5 148.5t264 53q152 0 255.5 -56t152 -148.5
t43.5 -202.5l-179 -11q0 139 -80 202t-215 63q-81 0 -155.5 -29t-125.5 -85.5t-62 -135.5q-3 -18 -3 -35q0 -65 48.5 -107.5t162.5 -72.5l254 -67q155 -37 219 -124t64 -203q0 -41 -6 -80q-15 -109 -91 -198.5t-202.5 -141.5t-286.5 -52q-134 0 -246 45zM572 1683l488 194
l23 -138l-496 -148z" />
    <glyph glyph-name="sacute" unicode="&#x15b;" horiz-adv-x="983" 
d="M236 16q-82 36 -128 107.5t-45 175.5h162q4 -92 65 -137t153 -45q100 0 165.5 42t77.5 117q1 7 1 21q0 91 -121 126l-186 53q-108 30 -165 83.5t-57 142.5q0 22 3 44q14 97 70.5 166.5t146 105.5t200.5 36q146 0 231 -66.5t85 -185.5q0 -21 -3 -44h-154q1 74 -48 116.5
t-135 42.5q-85 0 -153 -37.5t-79 -122.5q-1 -7 -1 -19q0 -45 35.5 -72.5t109.5 -47.5l188 -54q103 -29 147.5 -92.5t44.5 -142.5q0 -22 -3 -43q-14 -97 -74 -166t-150.5 -104.5t-195.5 -35.5t-187 36zM332 1271l488 194l23 -138l-496 -148z" />
    <glyph glyph-name="Scircumflex" unicode="&#x15c;" horiz-adv-x="1323" 
d="M342 25q-112 45 -178 132.5t-65 210.5l185 13q5 -81 48.5 -137.5t115 -85t161.5 -28.5q98 0 180.5 29.5t134.5 83.5t62 127q3 20 3 39q0 81 -53.5 135t-155.5 79l-264 66q-282 70 -282 297q0 31 4 58q17 123 94.5 218.5t198.5 148.5t264 53q152 0 255.5 -56t152 -148.5
t43.5 -202.5l-179 -11q0 139 -80 202t-215 63q-81 0 -155.5 -29t-125.5 -85.5t-62 -135.5q-3 -18 -3 -35q0 -65 48.5 -107.5t162.5 -72.5l254 -67q155 -37 219 -124t64 -203q0 -41 -6 -80q-15 -109 -91 -198.5t-202.5 -141.5t-286.5 -52q-134 0 -246 45zM789 1865h124
l200 -228h-166l-111 134l-162 -134h-155z" />
    <glyph glyph-name="scircumflex" unicode="&#x15d;" horiz-adv-x="983" 
d="M236 16q-82 36 -128 107.5t-45 175.5h162q4 -92 65 -137t153 -45q100 0 165.5 42t77.5 117q1 7 1 21q0 91 -121 126l-186 53q-108 30 -165 83.5t-57 142.5q0 22 3 44q14 97 70.5 166.5t146 105.5t200.5 36q146 0 231 -66.5t85 -185.5q0 -21 -3 -44h-154q1 74 -48 116.5
t-135 42.5q-85 0 -153 -37.5t-79 -122.5q-1 -7 -1 -19q0 -45 35.5 -72.5t109.5 -47.5l188 -54q103 -29 147.5 -92.5t44.5 -142.5q0 -22 -3 -43q-14 -97 -74 -166t-150.5 -104.5t-195.5 -35.5t-187 36zM549 1453h124l200 -228h-166l-111 134l-162 -134h-155z" />
    <glyph glyph-name="Scedilla" unicode="&#x15e;" horiz-adv-x="1323" 
d="M616.5 1282q-74.5 -29 -125.5 -85.5t-62 -135.5q-3 -18 -3 -35q0 -65 48.5 -107.5t162.5 -72.5l254 -67q155 -37 219 -124t64 -203q0 -41 -6 -80q-15 -107 -87 -194.5t-193.5 -140.5t-275.5 -57l-47 -91q79 -4 114 -39t35 -86q0 -54 -31.5 -94t-83.5 -60.5t-111 -20.5
q-107 0 -173 50l41 76q51 -47 122 -47q56 0 84.5 23t28.5 66q0 35 -33.5 53t-105.5 20q-13 0 -13 5q0 2 4 8l77 140q-119 11 -215 58.5t-151.5 131t-54.5 195.5l185 13q5 -81 48.5 -137.5t115 -85t161.5 -28.5q98 0 180.5 29.5t134.5 83.5t62 127q3 20 3 39q0 81 -53.5 135
t-155.5 79l-264 66q-282 70 -282 297q0 31 4 58q17 123 94.5 218.5t198.5 148.5t264 53q152 0 255.5 -56t152 -148.5t43.5 -202.5l-179 -11q0 139 -80 202t-215 63q-81 0 -155.5 -29z" />
    <glyph glyph-name="scedilla" unicode="&#x15f;" horiz-adv-x="983" 
d="M737 758q1 74 -48 116.5t-135 42.5q-85 0 -153 -37.5t-79 -122.5q-1 -7 -1 -19q0 -45 35.5 -72.5t109.5 -47.5l188 -54q103 -29 147.5 -92.5t44.5 -142.5q0 -22 -3 -43q-14 -93 -69.5 -160.5t-140.5 -104t-185 -40.5l-47 -92q79 -4 114 -39t35 -86q0 -54 -31.5 -94
t-83.5 -60.5t-111 -20.5q-107 0 -173 50l41 76q51 -47 122 -47q56 0 84.5 23t28.5 66q0 35 -33.5 53t-105.5 20q-13 0 -13 5q0 2 4 8l78 141q-135 16 -215.5 97t-78.5 218h162q4 -92 65 -137t153 -45q100 0 165.5 42t77.5 117q1 7 1 21q0 91 -121 126l-186 53
q-108 30 -165 83.5t-57 142.5q0 22 3 44q14 97 70.5 166.5t146 105.5t200.5 36q146 0 231 -66.5t85 -185.5q0 -21 -3 -44h-154z" />
    <glyph glyph-name="Scaron" unicode="&#x160;" horiz-adv-x="1323" 
d="M342 25q-112 45 -178 132.5t-65 210.5l185 13q5 -81 48.5 -137.5t115 -85t161.5 -28.5q98 0 180.5 29.5t134.5 83.5t62 127q3 20 3 39q0 81 -53.5 135t-155.5 79l-264 66q-282 70 -282 297q0 31 4 58q17 123 94.5 218.5t198.5 148.5t264 53q152 0 255.5 -56t152 -148.5
t43.5 -202.5l-179 -11q0 139 -80 202t-215 63q-81 0 -155.5 -29t-125.5 -85.5t-62 -135.5q-3 -18 -3 -35q0 -65 48.5 -107.5t162.5 -72.5l254 -67q155 -37 219 -124t64 -203q0 -41 -6 -80q-15 -109 -91 -198.5t-202.5 -141.5t-286.5 -52q-134 0 -246 45zM550 1859h157
l122 -135l152 135h165l-265 -229h-127z" />
    <glyph glyph-name="scaron" unicode="&#x161;" horiz-adv-x="983" 
d="M236 16q-82 36 -128 107.5t-45 175.5h162q4 -92 65 -137t153 -45q100 0 165.5 42t77.5 117q1 7 1 21q0 91 -121 126l-186 53q-108 30 -165 83.5t-57 142.5q0 22 3 44q14 97 70.5 166.5t146 105.5t200.5 36q146 0 231 -66.5t85 -185.5q0 -21 -3 -44h-154q1 74 -48 116.5
t-135 42.5q-85 0 -153 -37.5t-79 -122.5q-1 -7 -1 -19q0 -45 35.5 -72.5t109.5 -47.5l188 -54q103 -29 147.5 -92.5t44.5 -142.5q0 -22 -3 -43q-14 -97 -74 -166t-150.5 -104.5t-195.5 -35.5t-187 36zM309 1447h157l122 -135l152 135h165l-265 -229h-127z" />
    <glyph glyph-name="uni0162" unicode="&#x162;" horiz-adv-x="1094" 
d="M1194 1446l-24 -165h-417l-184 -1281h-33l-55 -108q79 -4 114 -39t35 -86q0 -54 -31.5 -94t-83.5 -60.5t-111 -20.5q-107 0 -173 50l41 76q51 -47 122 -47q56 0 84.5 23t28.5 66q0 35 -33.5 53t-105.5 20q-13 0 -13 5q0 2 4 8l85 154h-49l183 1281h-440l24 165h1032z" />
    <glyph glyph-name="uni0163" unicode="&#x163;" horiz-adv-x="707" 
d="M348 262q-4 -25 -4 -49q0 -34 11 -51t33.5 -23t61.5 -6h106l-18 -121q-44 -17 -146 -17h-20l-51 -100q79 -4 114 -39t35 -86q0 -54 -31.5 -94t-83.5 -60.5t-111 -20.5q-107 0 -173 50l41 76q51 -47 122 -47q56 0 84.5 23t28.5 66q0 35 -33.5 53t-105.5 20q-13 0 -13 5
q0 2 4 8l87 157q-66 17 -94.5 58.5t-28.5 111.5q0 34 6 73l95 653h-160l20 132h163l75 300h139l-42 -299h221l-20 -133h-221z" />
    <glyph glyph-name="Tcaron" unicode="&#x164;" horiz-adv-x="1094" 
d="M578 1281h-440l24 165h1032l-24 -165h-417l-184 -1281h-174zM458 1859h157l122 -135l152 135h165l-265 -229h-127z" />
    <glyph glyph-name="tcaron" unicode="&#x165;" horiz-adv-x="707" 
d="M215.5 39.5q-52.5 44.5 -52.5 136.5q0 34 6 73l95 653h-160l20 132h163l75 300h139l-42 -299h221l-20 -133h-221l-91 -640q-4 -25 -4 -49q0 -34 11 -51t33.5 -23t61.5 -6h106l-18 -121q-44 -17 -146 -17q-124 0 -176.5 44.5zM727 1307l-50 10l27 193h144l-29 -202
l-101 -183h-89z" />
    <glyph glyph-name="Tbar" unicode="&#x166;" horiz-adv-x="1094" 
d="M753 1281l-70 -485h298l-13 -144h-305l-94 -652h-174l93 652h-279l13 144h287l69 485h-440l24 165h1032l-24 -165h-417z" />
    <glyph glyph-name="tbar" unicode="&#x167;" horiz-adv-x="764" 
d="M466 902l-39 -273h209v-114h-225l-36 -253q-4 -25 -4 -48q0 -34 11 -51.5t33.5 -23.5t61.5 -6h106l-18 -121q-44 -17 -146 -17q-124 0 -176 44t-52 136q0 34 6 74l38 266h-135v114h152l39 273h-159l19 132h163l75 300h140l-43 -299h221l-19 -133h-222z" />
    <glyph glyph-name="Utilde" unicode="&#x168;" horiz-adv-x="1365" 
d="M280.5 79q-104.5 99 -104.5 296q0 62 11 142l134 929h180l-137 -957q-7 -43 -7 -88q0 -131 70 -197.5t204 -66.5q156 0 252.5 88t121.5 264l137 957h176l-136 -949q-37 -255 -177 -386t-397 -131q-223 0 -327.5 99zM587 1775q44 37 81.5 55.5t87.5 18.5q32 0 61 -7.5
t65 -21.5q37 -13 62 -19.5t52 -6.5q38 0 69.5 14t70.5 41l15 -108q-82 -57 -172 -57q-34 0 -60.5 6.5t-64.5 20.5q-33 13 -56.5 19t-50.5 6q-41 0 -70 -13.5t-71 -42.5z" />
    <glyph glyph-name="utilde" unicode="&#x169;" horiz-adv-x="1124" 
d="M292.5 11.5q-73.5 30.5 -121 96.5t-47.5 165q0 33 4 61l102 703h175l-100 -685q-3 -22 -3 -44q0 -96 59 -141t141 -45q64 0 122 27t98 81.5t52 132.5l97 674h174l-150 -1036h-138l9 198q-26 -72 -77 -121t-114.5 -73t-128.5 -24q-80 0 -153.5 30.5zM403 1363
q44 37 81.5 55.5t87.5 18.5q32 0 61 -7.5t65 -21.5q37 -13 62 -19.5t52 -6.5q38 0 69.5 14t70.5 41l15 -108q-82 -57 -172 -57q-34 0 -60.5 6.5t-64.5 20.5q-33 13 -56.5 19t-50.5 6q-41 0 -70 -13.5t-71 -42.5z" />
    <glyph glyph-name="Umacron" unicode="&#x16a;" horiz-adv-x="1365" 
d="M280.5 79q-104.5 99 -104.5 296q0 62 11 142l134 929h180l-137 -957q-7 -43 -7 -88q0 -131 70 -197.5t204 -66.5q156 0 252.5 88t121.5 264l137 957h176l-136 -949q-37 -255 -177 -386t-397 -131q-223 0 -327.5 99zM594 1832h564l-18 -127h-564z" />
    <glyph glyph-name="umacron" unicode="&#x16b;" horiz-adv-x="1124" 
d="M292.5 11.5q-73.5 30.5 -121 96.5t-47.5 165q0 33 4 61l102 703h175l-100 -685q-3 -22 -3 -44q0 -96 59 -141t141 -45q64 0 122 27t98 81.5t52 132.5l97 674h174l-150 -1036h-138l9 198q-26 -72 -77 -121t-114.5 -73t-128.5 -24q-80 0 -153.5 30.5zM410 1420h564
l-18 -127h-564z" />
    <glyph glyph-name="Ubreve" unicode="&#x16c;" horiz-adv-x="1365" 
d="M280.5 79q-104.5 99 -104.5 296q0 62 11 142l134 929h180l-137 -957q-7 -43 -7 -88q0 -131 70 -197.5t204 -66.5q156 0 252.5 88t121.5 264l137 957h176l-136 -949q-37 -255 -177 -386t-397 -131q-223 0 -327.5 99zM723.5 1669q-54.5 28 -85.5 76.5t-38 109.5h127
q20 -45 50.5 -74.5t91.5 -29.5q57 0 99 29.5t75 74.5h129q-25 -57 -71 -106t-110 -78.5t-139 -29.5q-74 0 -128.5 28z" />
    <glyph glyph-name="ubreve" unicode="&#x16d;" horiz-adv-x="1124" 
d="M292.5 11.5q-73.5 30.5 -121 96.5t-47.5 165q0 33 4 61l102 703h175l-100 -685q-3 -22 -3 -44q0 -96 59 -141t141 -45q64 0 122 27t98 81.5t52 132.5l97 674h174l-150 -1036h-138l9 198q-26 -72 -77 -121t-114.5 -73t-128.5 -24q-80 0 -153.5 30.5zM539.5 1257
q-54.5 28 -85.5 76.5t-38 109.5h127q20 -45 50.5 -74.5t91.5 -29.5q57 0 99 29.5t75 74.5h129q-25 -57 -71 -106t-110 -78.5t-139 -29.5q-74 0 -128.5 28z" />
    <glyph glyph-name="Uring" unicode="&#x16e;" horiz-adv-x="1365" 
d="M280.5 79q-104.5 99 -104.5 296q0 62 11 142l134 929h180l-137 -957q-7 -43 -7 -88q0 -131 70 -197.5t204 -66.5q156 0 252.5 88t121.5 264l137 957h176l-136 -949q-37 -255 -177 -386t-397 -131q-223 0 -327.5 99zM752.5 1589q-37.5 23 -59 63t-21.5 90q0 22 2 33
q7 54 40 99.5t82 72.5t101 27q48 0 86.5 -22t60 -60.5t21.5 -86.5q0 -16 -3 -34q-7 -56 -40 -103t-81.5 -74.5t-102.5 -27.5q-48 0 -85.5 23zM907 1679.5q27 18.5 44 48t17 60.5q0 40 -24 65t-63 25q-29 0 -56.5 -16t-44.5 -44.5t-17 -62.5q0 -39 25 -66.5t62 -27.5
q30 0 57 18.5z" />
    <glyph glyph-name="uring" unicode="&#x16f;" horiz-adv-x="1124" 
d="M292.5 11.5q-73.5 30.5 -121 96.5t-47.5 165q0 33 4 61l102 703h175l-100 -685q-3 -22 -3 -44q0 -96 59 -141t141 -45q64 0 122 27t98 81.5t52 132.5l97 674h174l-150 -1036h-138l9 198q-26 -72 -77 -121t-114.5 -73t-128.5 -24q-80 0 -153.5 30.5zM568.5 1177
q-37.5 23 -59 63t-21.5 90q0 22 2 33q7 54 40 99.5t82 72.5t101 27q48 0 86.5 -22t60 -60.5t21.5 -86.5q0 -16 -3 -34q-7 -56 -40 -103t-81.5 -74.5t-102.5 -27.5q-48 0 -85.5 23zM723 1267.5q27 18.5 44 48t17 60.5q0 40 -24 65t-63 25q-29 0 -56.5 -16t-44.5 -44.5
t-17 -62.5q0 -39 25 -66.5t62 -27.5q30 0 57 18.5z" />
    <glyph glyph-name="Uhungarumlaut" unicode="&#x170;" horiz-adv-x="1365" 
d="M280.5 79q-104.5 99 -104.5 296q0 62 11 142l134 929h180l-137 -957q-7 -43 -7 -88q0 -131 70 -197.5t204 -66.5q156 0 252.5 88t121.5 264l137 957h176l-136 -949q-37 -255 -177 -386t-397 -131q-223 0 -327.5 99zM886 1606l294 275l74 -111l-321 -240zM576 1606
l296 274l72 -110l-319 -238z" />
    <glyph glyph-name="uhungarumlaut" unicode="&#x171;" horiz-adv-x="1124" 
d="M292.5 11.5q-73.5 30.5 -121 96.5t-47.5 165q0 33 4 61l102 703h175l-100 -685q-3 -22 -3 -44q0 -96 59 -141t141 -45q64 0 122 27t98 81.5t52 132.5l97 674h174l-150 -1036h-138l9 198q-26 -72 -77 -121t-114.5 -73t-128.5 -24q-80 0 -153.5 30.5zM702 1194l294 275
l74 -111l-321 -240zM392 1194l296 274l72 -110l-319 -238z" />
    <glyph glyph-name="Uogonek" unicode="&#x172;" horiz-adv-x="1365" 
d="M1318 1446l-136 -949q-32 -221 -140.5 -348.5t-302.5 -158.5q-86 -39 -125.5 -73.5t-46.5 -78.5q-1 -5 -1 -15q0 -30 18.5 -44.5t59.5 -14.5t77.5 11t63.5 26l-15 -95q-28 -16 -78 -28.5t-103 -12.5q-82 0 -124 34t-42 96q0 8 2 28q7 50 37.5 88.5t94.5 69.5
q-196 11 -288.5 109.5t-92.5 284.5q0 62 11 142l134 929h180l-137 -957q-7 -43 -7 -88q0 -131 70 -197.5t204 -66.5q156 0 252.5 88t121.5 264l137 957h176z" />
    <glyph glyph-name="uogonek" unicode="&#x173;" horiz-adv-x="1124" 
d="M683 -175q0 -30 18.5 -44.5t59.5 -14.5t77.5 11t63.5 26l-15 -95q-28 -16 -78 -28.5t-103 -12.5q-82 0 -124 34t-42 96q0 8 2 28q9 63 57.5 109.5t158.5 82.5l8 182q-26 -72 -77 -121t-114.5 -73t-128.5 -24q-80 0 -153.5 30.5t-121 96.5t-47.5 166q0 32 4 60l102 703
h175l-100 -685q-3 -22 -3 -44q0 -96 59 -141t141 -45q64 0 122 27t98 81.5t52 132.5l97 674h174l-150 -1036h-18q-97 -42 -141.5 -78t-51.5 -83q-1 -5 -1 -15z" />
    <glyph glyph-name="Wcircumflex" unicode="&#x174;" horiz-adv-x="1813" 
d="M181 1446h177l135 -1162l474 1162h136l143 -1162l474 1162h174l-607 -1446h-161l-138 1130l-465 -1130h-157zM1036 1865h124l200 -228h-166l-111 134l-162 -134h-155z" />
    <glyph glyph-name="wcircumflex" unicode="&#x175;" horiz-adv-x="1487" 
d="M130 1034h162l108 -803h15l336 803h132l114 -801h15l329 801h162l-444 -1034h-171l-112 771l-323 -771h-171zM824 1453h124l200 -228h-166l-111 134l-162 -134h-155z" />
    <glyph glyph-name="Ycircumflex" unicode="&#x176;" horiz-adv-x="1134" 
d="M492 617l-344 829h190l266 -669l454 669h191l-582 -830l-90 -616h-172zM692 1868h124l200 -228h-166l-111 134l-162 -134h-155z" />
    <glyph glyph-name="ycircumflex" unicode="&#x177;" horiz-adv-x="1008" 
d="M23.5 -322.5q-37.5 7.5 -53.5 17.5l17 116l101 -1q97 -4 143.5 28.5t72.5 85.5l49 100l-236 1010h176l173 -805l401 805h170l-571 -1116q-74 -138 -158 -193t-192 -55q-55 0 -92.5 7.5zM595 1453h124l200 -228h-166l-111 134l-162 -134h-155z" />
    <glyph glyph-name="Ydieresis" unicode="&#x178;" horiz-adv-x="1134" 
d="M492 617l-344 829h190l266 -669l454 669h191l-582 -830l-90 -616h-172zM495 1850h186l-27 -187h-186zM816 1850h186l-27 -187h-186z" />
    <glyph glyph-name="Zacute" unicode="&#x179;" horiz-adv-x="1202" 
d="M46 100l918 1189h-716l23 157h961l-14 -96l-926 -1192h751l-24 -158h-988zM540 1683l488 194l23 -138l-496 -148z" />
    <glyph glyph-name="zacute" unicode="&#x17a;" horiz-adv-x="974" 
d="M34 111l676 800h-520l18 123h733l-17 -113l-674 -796h569l-18 -125h-783zM357 1271l488 194l23 -138l-496 -148z" />
    <glyph glyph-name="Zdotaccent" unicode="&#x17b;" horiz-adv-x="1202" 
d="M46 100l918 1189h-716l23 157h961l-14 -96l-926 -1192h751l-24 -158h-988zM718 1811h185l-27 -187h-185z" />
    <glyph glyph-name="zdotaccent" unicode="&#x17c;" horiz-adv-x="974" 
d="M34 111l676 800h-520l18 123h733l-17 -113l-674 -796h569l-18 -125h-783zM534 1399h185l-27 -187h-185z" />
    <glyph glyph-name="Zcaron" unicode="&#x17d;" horiz-adv-x="1202" 
d="M46 100l918 1189h-716l23 157h961l-14 -96l-926 -1192h751l-24 -158h-988zM517 1859h157l122 -135l152 135h165l-265 -229h-127z" />
    <glyph glyph-name="zcaron" unicode="&#x17e;" horiz-adv-x="974" 
d="M34 111l676 800h-520l18 123h733l-17 -113l-674 -796h569l-18 -125h-783zM334 1447h157l122 -135l152 135h165l-265 -229h-127z" />
    <glyph glyph-name="uni018F" unicode="&#x18f;" horiz-adv-x="1427" 
d="M259 129q-119 149 -119 405q0 97 15 200q4 21 9 28.5t21 7.5h920q12 0 17.5 4.5t7.5 16.5q10 68 10 136q0 159 -69.5 265.5t-243.5 106.5q-112 0 -190 -45t-122 -103t-88 -139q-20 -36 -33 -56q-4 -5 -9 -5q-6 0 -17 4l-123 60q-8 3 -8 10q0 6 8 22q66 111 131.5 193.5
t186 154t287.5 71.5q177 0 287.5 -77t159 -204.5t48.5 -286.5q0 -81 -13 -175q-29 -199 -120 -368.5t-238.5 -272t-338.5 -102.5q-257 0 -376 149zM958.5 271q103.5 135 144.5 355h-724q-13 0 -18.5 -4t-8.5 -16q-8 -58 -8 -109q0 -159 74 -260t239 -101q198 0 301.5 135z
" />
    <glyph glyph-name="florin" unicode="&#x192;" horiz-adv-x="859" 
d="M-224 -206l109 1q66 1 103 35.5t63 121.5l292 950h-157l41 132h159l48 161q40 122 121.5 186.5t194.5 64.5h183l-39 -128h-138q-50 0 -93 -39.5t-63 -103.5l-45 -141h243l-42 -132h-238l-300 -976q-39 -124 -120 -191.5t-199 -67.5h-160z" />
    <glyph glyph-name="Ohorn" unicode="&#x1a0;" horiz-adv-x="1522" 
d="M1486.5 1248.5q-62.5 -73.5 -182.5 -78.5q43 -117 43 -267q0 -82 -14 -183q-34 -233 -128.5 -399.5t-239.5 -253.5t-327 -87q-159 0 -271 64.5t-170.5 189.5t-58.5 302q0 81 14 181q34 236 130 404.5t242.5 256.5t328.5 88q129 0 228 -45.5t162 -133.5q62 -1 95 11
t55 52.5t39 126.5h140q-23 -155 -85.5 -228.5zM1156 903q0 205 -83.5 305.5t-242.5 100.5q-193 0 -318 -147t-168 -444q-14 -101 -14 -177q0 -204 85.5 -304t247.5 -100q193 0 315.5 143.5t163.5 437.5q14 95 14 185z" />
    <glyph glyph-name="ohorn" unicode="&#x1a1;" horiz-adv-x="1283" 
d="M1180 770.5q-65 -73.5 -192 -74.5q3 -31 3 -66q0 -57 -9 -117q-23 -157 -93.5 -278t-181 -188t-248.5 -67q-120 0 -205 51t-129 144.5t-44 219.5q0 55 9 115q23 160 95.5 283.5t184 192t247.5 68.5q131 0 220 -63.5t127 -177.5q51 1 80.5 15t49.5 54t36 121h139
q-24 -159 -89 -232.5zM818 629q0 131 -55 207t-168 76q-136 0 -221 -109t-110 -286q-8 -58 -8 -104q0 -134 56.5 -212.5t171.5 -78.5q135 0 218 109t107 286q9 59 9 112z" />
    <glyph glyph-name="Uhorn" unicode="&#x1af;" horiz-adv-x="1575" 
d="M1587 1477q-24 -160 -89.5 -233.5t-192.5 -73.5l-26 1l-97 -674q-37 -255 -177 -386t-397 -131q-223 0 -327.5 99t-104.5 296q0 62 11 142l134 929h180l-137 -957q-7 -43 -7 -88q0 -131 70 -197.5t204 -66.5q156 0 252.5 88t121.5 264l137 957h176l-23 -159q46 3 73 18.5
t46 55t34 116.5h139z" />
    <glyph glyph-name="uhorn" unicode="&#x1b0;" horiz-adv-x="1334" 
d="M1323 1113q-24 -160 -89.5 -233.5t-192.5 -73.5q-19 0 -29 1l-117 -806h-138l9 198q-26 -72 -77 -121t-114.5 -73t-128.5 -24q-80 0 -153.5 30.5t-121 96.5t-47.5 166q0 32 4 60l102 703h175l-100 -685q-3 -22 -3 -44q0 -96 59 -141t141 -45q64 0 122 27t98 81.5
t52 132.5l97 674h174l-16 -114q46 2 73.5 17.5t47 55.5t34.5 117h139z" />
    <glyph glyph-name="uni01EA" unicode="&#x1ea;" horiz-adv-x="1429" 
d="M1120 1400.5q111 -65.5 169 -192t58 -305.5q0 -82 -14 -183q-29 -198 -101.5 -348t-183 -244.5t-250.5 -128.5q-98 -42 -143 -78.5t-52 -83.5q-1 -5 -1 -15q0 -30 18.5 -44.5t59.5 -14.5t77.5 11t63.5 26l-15 -95q-28 -16 -78 -28.5t-103 -12.5q-82 0 -124 34t-42 96
q0 8 2 28q7 50 38 89t96 70q-145 9 -247.5 76.5t-156 189t-53.5 290.5q0 80 14 180q34 236 130 404.5t242.5 256.5t328.5 88q156 0 267 -65.5zM1156 903q0 205 -83.5 305.5t-242.5 100.5q-193 0 -318 -147t-168 -444q-14 -101 -14 -177q0 -204 85.5 -304t247.5 -100
q193 0 315.5 143.5t163.5 437.5q14 95 14 185z" />
    <glyph glyph-name="uni01EB" unicode="&#x1eb;" horiz-adv-x="1073" 
d="M820 1001.5q84 -52.5 127.5 -148t43.5 -221.5q0 -57 -9 -119q-28 -193 -126 -328t-248 -183q-102 -43 -148 -80t-53 -84q-1 -5 -1 -15q0 -30 18.5 -44.5t59.5 -14.5t77.5 11t63.5 26l-15 -95q-28 -16 -78 -28.5t-103 -12.5q-82 0 -124 34t-42 96q0 8 2 28q7 50 38.5 89.5
t97.5 70.5q-154 19 -237 128t-83 284q0 55 9 115q23 160 95.5 283.5t184 192t247.5 68.5q119 0 203 -52.5zM818 629q0 131 -55 207t-168 76q-136 0 -221 -109t-110 -286q-8 -58 -8 -104q0 -134 56.5 -212.5t171.5 -78.5q135 0 218 109t107 286q9 59 9 112z" />
    <glyph glyph-name="Aringacute" unicode="&#x1fa;" horiz-adv-x="1346" 
d="M1192 0h-178l-76 399h-559l-194 -399h-177l681 1400q-27 23 -41 56t-14 74q0 22 2 34q10 71 61 123.5t120 64.5l48 128h129l-74 -138q45 -18 71.5 -58t26.5 -93q0 -20 -2 -31q-7 -49 -33.5 -90.5t-65.5 -68.5zM720 1544q0 -39 26 -67t62 -28q30 0 57 18.5t43.5 47.5
t16.5 61q0 40 -24.5 65t-62.5 25q-41 0 -75.5 -31t-41.5 -77q-1 -5 -1 -14zM915 565l-131 703l-337 -703h468z" />
    <glyph glyph-name="aringacute" unicode="&#x1fb;" horiz-adv-x="1050" 
d="M906.5 926.5q37.5 -60.5 37.5 -145.5q0 -32 -4 -60l-104 -721h-149l14 188q-71 -114 -161.5 -161t-203.5 -47q-130 0 -206.5 65t-76.5 181q0 29 4 53q24 173 150 256.5t377 89.5l174 5l12 82q3 20 3 38q0 82 -52 126.5t-144 44.5q-87 -1 -159 -47t-101 -131h-155
q17 79 66.5 144t127 107.5t173.5 54.5q-25 41 -25 96q0 22 2 33q10 71 62 123.5t120 64.5l48 128h129l-74 -138q45 -18 71.5 -58.5t26.5 -93.5q0 -10 -2 -30q-7 -48 -31 -87.5t-61 -66.5q74 -33 111.5 -93.5zM590 1158q0 -39 26 -67t62 -28q41 0 75.5 33t40.5 76q2 14 2 19
q0 39 -24.5 64t-62.5 25q-41 0 -76 -31t-42 -77q-1 -5 -1 -14zM741 518l-144 -3q-174 -3 -263.5 -54t-105.5 -165q-2 -22 -2 -30q0 -73 49 -114.5t132 -41.5q64 0 133 33t118 86.5t58 109.5z" />
    <glyph glyph-name="AEacute" unicode="&#x1fc;" horiz-adv-x="1857" 
d="M890 1446h948l-23 -156h-651l-69 -483h482l-22 -155h-483l-70 -495h673l-22 -157h-873l59 404h-468l-267 -404h-177zM862 565l107 750l-505 -750h398zM1130 1683l488 194l23 -138l-496 -148z" />
    <glyph glyph-name="aeacute" unicode="&#x1fd;" horiz-adv-x="1745" 
d="M123 42.5q-71 62.5 -71 173.5q0 29 4 54q21 149 153 238.5t368 106.5l186 15l10 78q4 32 4 46q0 82 -50 127.5t-146 45.5q-76 0 -148 -42.5t-135 -127.5l-139 50q158 247 454 247q130 -1 205 -46.5t99 -136.5q69 90 162 136.5t203 46.5q116 0 200.5 -51.5t130.5 -150.5
t46 -238q0 -67 -10 -134l-739 -2q-4 -24 -4 -54q0 -83 33 -154t92 -113.5t134 -42.5q72 0 129 23.5t99.5 59.5t91.5 90l106 -61q-86 -121 -203.5 -183.5t-261.5 -62.5q-134 0 -214.5 59t-134.5 148q-2 5 -5 5q-1 0 -8 -5q-58 -60 -117 -104t-140 -73.5t-182 -29.5
q-131 0 -202 62.5zM1494 653q0 76 -27 138.5t-78.5 99.5t-122.5 37q-80 0 -151 -40.5t-119.5 -116.5t-63.5 -176l558 -2q4 27 4 60zM544 137q72 31 119.5 83.5t56.5 114.5l26 182l-155 -12q-159 -12 -252 -69t-106 -155q-2 -22 -2 -31q0 -66 42 -105t120 -39q79 0 151 31z
M714 1271l488 194l23 -138l-496 -148z" />
    <glyph glyph-name="Oslashacute" unicode="&#x1fe;" horiz-adv-x="1429" 
d="M-6 69l188 188q-48 114 -48 275q0 82 14 185q34 236 130 404.5t242 256.5t328 88q126 0 223 -43.5t161 -127.5l177 176l80 -94l-193 -194q47 -118 47 -280q0 -89 -13 -183q-33 -233 -128.5 -399.5t-241 -253.5t-327.5 -87q-127 0 -224 42t-159 124l-176 -173zM1088 1164
q-73 148 -263 148q-181 0 -293.5 -132.5t-158.5 -402.5q-20 -128 -20 -228q0 -67 9 -129zM946.5 262q109.5 126 153.5 387q23 125 23 242q0 74 -8 130l-724 -744q38 -71 104.5 -106t163.5 -35q178 0 287.5 126zM627 1683l488 194l23 -138l-496 -148z" />
    <glyph glyph-name="oslashacute" unicode="&#x1ff;" horiz-adv-x="1055" 
d="M914 824q32 -87 32 -194q0 -55 -9 -117q-23 -157 -93.5 -278t-181 -188t-248.5 -67q-169 0 -269 100l-94 -91l-75 78l106 103q-46 92 -46 225q0 62 8 115q23 160 95.5 283.5t184 192t248.5 68.5q95 0 168.5 -34t121.5 -98l124 120l73 -78zM210 412q0 -58 12 -108l516 498
q-56 110 -188 110q-136 0 -221.5 -109.5t-110.5 -285.5q-8 -58 -8 -105zM773 628q0 29 -3 56l-502 -485q59 -77 170 -77q136 0 218.5 109t107.5 286q9 59 9 111zM302 1271l488 194l23 -138l-496 -148z" />
    <glyph glyph-name="uni0200" unicode="&#x200;" horiz-adv-x="1346" 
d="M711 1446h197l284 -1446h-178l-76 399h-559l-194 -399h-177zM915 565l-131 703l-337 -703h468zM524 1770l105 111l216 -275l-69 -75zM832 1770l105 111l217 -275l-71 -75z" />
    <glyph glyph-name="uni0201" unicode="&#x201;" horiz-adv-x="1050" 
d="M129.5 45q-76.5 65 -76.5 181q0 29 4 53q24 173 150 256.5t377 89.5l174 5l12 82q3 20 3 38q0 82 -52 126.5t-144 44.5q-87 -1 -159 -47t-101 -131h-155q19 89 79 160t154.5 111t209.5 40q166 0 252.5 -72t86.5 -200q0 -33 -4 -61l-104 -721h-149l14 188
q-71 -114 -161.5 -161t-203.5 -47q-130 0 -206.5 65zM540 143q69 33 118 86.5t58 109.5l25 179l-144 -3q-174 -3 -263.5 -54t-105.5 -165q-2 -22 -2 -30q0 -73 49 -114.5t132 -41.5q64 0 133 33zM317 1358l105 111l216 -275l-69 -75zM625 1358l105 111l217 -275l-71 -75z
" />
    <glyph glyph-name="uni0202" unicode="&#x202;" horiz-adv-x="1346" 
d="M711 1446h197l284 -1446h-178l-76 399h-559l-194 -399h-177zM915 565l-131 703l-337 -703h468zM1011 1908q56 -30 88.5 -78.5t40.5 -105.5h-129q-46 104 -145 104q-61 0 -99.5 -29.5t-70.5 -74.5h-128q37 94 120 154t193 60q74 0 130 -30z" />
    <glyph glyph-name="uni0203" unicode="&#x203;" horiz-adv-x="1050" 
d="M129.5 45q-76.5 65 -76.5 181q0 29 4 53q24 173 150 256.5t377 89.5l174 5l12 82q3 20 3 38q0 82 -52 126.5t-144 44.5q-87 -1 -159 -47t-101 -131h-155q19 89 79 160t154.5 111t209.5 40q166 0 252.5 -72t86.5 -200q0 -33 -4 -61l-104 -721h-149l14 188
q-71 -114 -161.5 -161t-203.5 -47q-130 0 -206.5 65zM540 143q69 33 118 86.5t58 109.5l25 179l-144 -3q-174 -3 -263.5 -54t-105.5 -165q-2 -22 -2 -30q0 -73 49 -114.5t132 -41.5q64 0 133 33zM804 1496q56 -30 88.5 -78.5t40.5 -105.5h-129q-46 104 -145 104
q-61 0 -99.5 -29.5t-70.5 -74.5h-128q37 94 120 154t193 60q74 0 130 -30z" />
    <glyph glyph-name="uni0204" unicode="&#x204;" horiz-adv-x="1200" 
d="M323 1446h861l-25 -159h-685l-68 -479h617l-23 -157h-617l-70 -489l704 -1l-24 -161h-879zM449 1770l105 111l216 -275l-69 -75zM757 1770l105 111l217 -275l-71 -75z" />
    <glyph glyph-name="uni0205" unicode="&#x205;" horiz-adv-x="1051" 
d="M263 29q-88 49 -135.5 142.5t-47.5 222.5q0 53 9 113q24 164 94.5 287.5t180.5 191.5t249 68q175 0 267.5 -102.5t92.5 -287.5q0 -57 -9 -122l-10 -68h-695q-6 -43 -6 -83q0 -123 59.5 -196.5t176.5 -73.5q93 0 162 45.5t110 134.5h162q-37 -105 -107 -177t-159.5 -108
t-186.5 -36q-119 0 -207 49zM805 597q6 39 6 75q0 112 -55 178t-164 66q-87 0 -154.5 -45.5t-108 -118.5t-51.5 -155h527zM326 1358l105 111l216 -275l-69 -75zM634 1358l105 111l217 -275l-71 -75z" />
    <glyph glyph-name="uni0206" unicode="&#x206;" horiz-adv-x="1200" 
d="M323 1446h861l-25 -159h-685l-68 -479h617l-23 -157h-617l-70 -489l704 -1l-24 -161h-879zM936 1908q56 -30 88.5 -78.5t40.5 -105.5h-129q-46 104 -145 104q-61 0 -99.5 -29.5t-70.5 -74.5h-128q37 94 120 154t193 60q74 0 130 -30z" />
    <glyph glyph-name="uni0207" unicode="&#x207;" horiz-adv-x="1051" 
d="M263 29q-88 49 -135.5 142.5t-47.5 222.5q0 53 9 113q24 164 94.5 287.5t180.5 191.5t249 68q175 0 267.5 -102.5t92.5 -287.5q0 -57 -9 -122l-10 -68h-695q-6 -43 -6 -83q0 -123 59.5 -196.5t176.5 -73.5q93 0 162 45.5t110 134.5h162q-37 -105 -107 -177t-159.5 -108
t-186.5 -36q-119 0 -207 49zM805 597q6 39 6 75q0 112 -55 178t-164 66q-87 0 -154.5 -45.5t-108 -118.5t-51.5 -155h527zM813 1496q56 -30 88.5 -78.5t40.5 -105.5h-129q-46 104 -145 104q-61 0 -99.5 -29.5t-70.5 -74.5h-128q37 94 120 154t193 60q74 0 130 -30z" />
    <glyph glyph-name="uni0208" unicode="&#x208;" horiz-adv-x="548" 
d="M323 1446h175l-208 -1446h-174zM127 1770l105 111l216 -275l-69 -75zM435 1770l105 111l217 -275l-71 -75z" />
    <glyph glyph-name="uni0209" unicode="&#x209;" horiz-adv-x="510" 
d="M244 1034h175l-150 -1034h-174zM47 1358l105 111l216 -275l-69 -75zM355 1358l105 111l217 -275l-71 -75z" />
    <glyph glyph-name="uni020A" unicode="&#x20a;" horiz-adv-x="548" 
d="M323 1446h175l-208 -1446h-174zM614 1908q56 -30 88.5 -78.5t40.5 -105.5h-129q-46 104 -145 104q-61 0 -99.5 -29.5t-70.5 -74.5h-128q37 94 120 154t193 60q74 0 130 -30z" />
    <glyph glyph-name="uni020B" unicode="&#x20b;" horiz-adv-x="510" 
d="M244 1034h175l-150 -1034h-174zM534 1496q56 -30 88.5 -78.5t40.5 -105.5h-129q-46 104 -145 104q-61 0 -99.5 -29.5t-70.5 -74.5h-128q37 94 120 154t193 60q74 0 130 -30z" />
    <glyph glyph-name="uni020C" unicode="&#x20c;" horiz-adv-x="1429" 
d="M367 44.5q-112 64.5 -170.5 189.5t-58.5 302q0 81 14 181q34 236 130 404.5t242.5 256.5t328.5 88q156 0 267 -65.5t169 -192t58 -305.5q0 -82 -14 -183q-34 -233 -128.5 -399.5t-239.5 -253.5t-327 -87q-159 0 -271 64.5zM978.5 280.5q122.5 143.5 163.5 437.5
q14 95 14 185q0 205 -83.5 305.5t-242.5 100.5q-193 0 -318 -147t-168 -444q-14 -101 -14 -177q0 -204 85.5 -304t247.5 -100q193 0 315.5 143.5zM560 1770l105 111l216 -275l-69 -75zM868 1770l105 111l217 -275l-71 -75z" />
    <glyph glyph-name="uni020D" unicode="&#x20d;" horiz-adv-x="1073" 
d="M254 31q-85 51 -129 144.5t-44 219.5q0 55 9 115q23 160 95.5 283.5t184 192t247.5 68.5q119 0 203 -52.5t127.5 -148t43.5 -221.5q0 -57 -9 -119q-23 -157 -93.5 -278t-181 -188t-248.5 -67q-120 0 -205 51zM702 231q83 109 107 286q9 59 9 112q0 131 -55 207t-168 76
q-136 0 -221 -109t-110 -286q-8 -58 -8 -104q0 -134 56.5 -212.5t171.5 -78.5q135 0 218 109zM329 1358l105 111l216 -275l-69 -75zM637 1358l105 111l217 -275l-71 -75z" />
    <glyph glyph-name="uni020E" unicode="&#x20e;" horiz-adv-x="1429" 
d="M367 44.5q-112 64.5 -170.5 189.5t-58.5 302q0 81 14 181q34 236 130 404.5t242.5 256.5t328.5 88q156 0 267 -65.5t169 -192t58 -305.5q0 -82 -14 -183q-34 -233 -128.5 -399.5t-239.5 -253.5t-327 -87q-159 0 -271 64.5zM978.5 280.5q122.5 143.5 163.5 437.5
q14 95 14 185q0 205 -83.5 305.5t-242.5 100.5q-193 0 -318 -147t-168 -444q-14 -101 -14 -177q0 -204 85.5 -304t247.5 -100q193 0 315.5 143.5zM1048 1908q56 -30 88.5 -78.5t40.5 -105.5h-129q-46 104 -145 104q-61 0 -99.5 -29.5t-70.5 -74.5h-128q37 94 120 154t193 60
q74 0 130 -30z" />
    <glyph glyph-name="uni020F" unicode="&#x20f;" horiz-adv-x="1073" 
d="M254 31q-85 51 -129 144.5t-44 219.5q0 55 9 115q23 160 95.5 283.5t184 192t247.5 68.5q119 0 203 -52.5t127.5 -148t43.5 -221.5q0 -57 -9 -119q-23 -157 -93.5 -278t-181 -188t-248.5 -67q-120 0 -205 51zM702 231q83 109 107 286q9 59 9 112q0 131 -55 207t-168 76
q-136 0 -221 -109t-110 -286q-8 -58 -8 -104q0 -134 56.5 -212.5t171.5 -78.5q135 0 218 109zM817 1496q56 -30 88.5 -78.5t40.5 -105.5h-129q-46 104 -145 104q-61 0 -99.5 -29.5t-70.5 -74.5h-128q37 94 120 154t193 60q74 0 130 -30z" />
    <glyph glyph-name="uni0210" unicode="&#x210;" horiz-adv-x="1299" 
d="M323 1446h528q195 0 294.5 -82.5t99.5 -234.5q0 -37 -6 -76q-23 -161 -111.5 -255t-211.5 -139l174 -659h-184l-159 626h-368l-91 -626h-174zM699 776q156 0 248.5 67t110.5 199q4 25 4 53q0 101 -64 152t-183 51h-340l-75 -522h299zM479 1770l105 111l216 -275l-69 -75z
M787 1770l105 111l217 -275l-71 -75z" />
    <glyph glyph-name="uni0211" unicode="&#x211;" horiz-adv-x="729" 
d="M231 1034h165l-28 -197q52 95 154.5 156t234.5 61l-25 -173q-12 1 -36 1q-162 0 -247 -63t-100 -172l-93 -647h-175zM200 1358l105 111l216 -275l-69 -75zM508 1358l105 111l217 -275l-71 -75z" />
    <glyph glyph-name="uni0212" unicode="&#x212;" horiz-adv-x="1299" 
d="M979 1908q54 -30 84.5 -78.5t36.5 -105.5h-129q-18 45 -50.5 74.5t-90.5 29.5q-61 0 -101 -29.5t-74 -74.5h-127q41 94 126.5 154t195.5 60q75 0 129 -30zM323 1446h528q195 0 294.5 -82.5t99.5 -234.5q0 -37 -6 -76q-23 -161 -111.5 -255t-211.5 -139l174 -659h-184
l-159 626h-368l-91 -626h-174zM699 776q156 0 248.5 67t110.5 199q4 25 4 53q0 101 -64 152t-183 51h-340l-75 -522h299z" />
    <glyph glyph-name="uni0213" unicode="&#x213;" horiz-adv-x="729" 
d="M231 1034h165l-28 -197q52 95 154.5 156t234.5 61l-25 -173q-12 1 -36 1q-162 0 -247 -63t-100 -172l-93 -647h-175zM688 1496q56 -30 88.5 -78.5t40.5 -105.5h-129q-46 104 -145 104q-61 0 -99.5 -29.5t-70.5 -74.5h-128q37 94 120 154t193 60q74 0 130 -30z" />
    <glyph glyph-name="uni0214" unicode="&#x214;" horiz-adv-x="1365" 
d="M280.5 79q-104.5 99 -104.5 296q0 62 11 142l134 929h180l-137 -957q-7 -43 -7 -88q0 -131 70 -197.5t204 -66.5q156 0 252.5 88t121.5 264l137 957h176l-136 -949q-37 -255 -177 -386t-397 -131q-223 0 -327.5 99zM535 1770l105 111l216 -275l-69 -75zM843 1770l105 111
l217 -275l-71 -75z" />
    <glyph glyph-name="uni0215" unicode="&#x215;" horiz-adv-x="1124" 
d="M292.5 11.5q-73.5 30.5 -121 96.5t-47.5 165q0 33 4 61l102 703h175l-100 -685q-3 -22 -3 -44q0 -96 59 -141t141 -45q64 0 122 27t98 81.5t52 132.5l97 674h174l-150 -1036h-138l9 198q-26 -72 -77 -121t-114.5 -73t-128.5 -24q-80 0 -153.5 30.5zM351 1358l105 111
l216 -275l-69 -75zM659 1358l105 111l217 -275l-71 -75z" />
    <glyph glyph-name="uni0216" unicode="&#x216;" horiz-adv-x="1365" 
d="M280.5 79q-104.5 99 -104.5 296q0 62 11 142l134 929h180l-137 -957q-7 -43 -7 -88q0 -131 70 -197.5t204 -66.5q156 0 252.5 88t121.5 264l137 957h176l-136 -949q-37 -255 -177 -386t-397 -131q-223 0 -327.5 99zM1023 1908q56 -30 88.5 -78.5t40.5 -105.5h-129
q-46 104 -145 104q-61 0 -99.5 -29.5t-70.5 -74.5h-128q37 94 120 154t193 60q74 0 130 -30z" />
    <glyph glyph-name="uni0217" unicode="&#x217;" horiz-adv-x="1124" 
d="M292.5 11.5q-73.5 30.5 -121 96.5t-47.5 165q0 33 4 61l102 703h175l-100 -685q-3 -22 -3 -44q0 -96 59 -141t141 -45q64 0 122 27t98 81.5t52 132.5l97 674h174l-150 -1036h-138l9 198q-26 -72 -77 -121t-114.5 -73t-128.5 -24q-80 0 -153.5 30.5zM839 1496
q56 -30 88.5 -78.5t40.5 -105.5h-129q-46 104 -145 104q-61 0 -99.5 -29.5t-70.5 -74.5h-128q37 94 120 154t193 60q74 0 130 -30z" />
    <glyph glyph-name="uni0218" unicode="&#x218;" horiz-adv-x="1323" 
d="M342 25q-112 45 -178 132.5t-65 210.5l185 13q5 -81 48.5 -137.5t115 -85t161.5 -28.5q98 0 180.5 29.5t134.5 83.5t62 127q3 20 3 39q0 81 -53.5 135t-155.5 79l-264 66q-282 70 -282 297q0 31 4 58q17 123 94.5 218.5t198.5 148.5t264 53q152 0 255.5 -56t152 -148.5
t43.5 -202.5l-179 -11q0 139 -80 202t-215 63q-81 0 -155.5 -29t-125.5 -85.5t-62 -135.5q-3 -18 -3 -35q0 -65 48.5 -107.5t162.5 -72.5l254 -67q155 -37 219 -124t64 -203q0 -41 -6 -80q-15 -109 -91 -198.5t-202.5 -141.5t-286.5 -52q-134 0 -246 45zM472 -361l-82 5
l32 218h217l-27 -190l-201 -278h-80z" />
    <glyph glyph-name="uni0219" unicode="&#x219;" horiz-adv-x="983" 
d="M236 16q-82 36 -128 107.5t-45 175.5h162q4 -92 65 -137t153 -45q100 0 165.5 42t77.5 117q1 7 1 21q0 91 -121 126l-186 53q-108 30 -165 83.5t-57 142.5q0 22 3 44q14 97 70.5 166.5t146 105.5t200.5 36q146 0 231 -66.5t85 -185.5q0 -21 -3 -44h-154q1 74 -48 116.5
t-135 42.5q-85 0 -153 -37.5t-79 -122.5q-1 -7 -1 -19q0 -45 35.5 -72.5t109.5 -47.5l188 -54q103 -29 147.5 -92.5t44.5 -142.5q0 -22 -3 -43q-14 -97 -74 -166t-150.5 -104.5t-195.5 -35.5t-187 36zM308 -361l-82 5l32 218h217l-27 -190l-201 -278h-80z" />
    <glyph glyph-name="uni021A" unicode="&#x21a;" horiz-adv-x="1094" 
d="M578 1281h-440l24 165h1032l-24 -165h-417l-184 -1281h-174zM388 -358l-82 5l32 218h217l-27 -190l-201 -278h-80z" />
    <glyph glyph-name="uni021B" unicode="&#x21b;" horiz-adv-x="707" 
d="M215.5 39.5q-52.5 44.5 -52.5 136.5q0 34 6 73l95 653h-160l20 132h163l75 300h139l-42 -299h221l-20 -133h-221l-91 -640q-4 -25 -4 -49q0 -34 11 -51t33.5 -23t61.5 -6h106l-18 -121q-44 -17 -146 -17q-124 0 -176.5 44.5zM228 -355l-82 5l32 218h217l-27 -190
l-201 -278h-80z" />
    <glyph glyph-name="uni0237" unicode="&#x237;" horiz-adv-x="486" 
d="M-164 -325.5q-24 6.5 -23 16.5l18 120l98 4q66 5 98 37t42 105l155 1077h175l-157 -1083q-21 -147 -92.5 -215t-217.5 -68q-72 0 -96 6.5z" />
    <glyph glyph-name="uni0259" unicode="&#x259;" horiz-adv-x="1052" 
d="M788 1005q88 -49 135.5 -142.5t47.5 -222.5q0 -53 -9 -113q-23 -163 -93.5 -287t-181 -192t-248.5 -68q-175 0 -268 103t-93 287q0 58 9 122l10 68h696q6 42 6 81q0 124 -59.5 198t-176.5 74q-93 0 -162 -45.5t-110 -134.5h-163q37 105 107 177t159.5 108t186.5 36
q119 0 207 -49zM246 437q-6 -39 -6 -75q0 -112 55 -178t165 -66q87 0 154 45.5t107.5 118.5t51.5 155h-527z" />
    <glyph glyph-name="uni02BB" unicode="&#x2bb;" horiz-adv-x="403" 
d="M195 1182q9 66 44 123t84 91t98 34q14 0 27 -3l-11 -69l-16 -1q-24 -1 -49 -20.5t-43 -49.5t-22 -62l-3 -13l111 -6l-31 -214h-217z" />
    <glyph glyph-name="uni02BC" unicode="&#x2bc;" horiz-adv-x="454" 
d="M444 1240q-19 -66 -60 -123t-92 -91t-97 -34q-13 0 -25 3l20 69l15 2q23 1 49.5 20.5t47.5 49t30 61.5l5 13l-104 6l60 214h205z" />
    <glyph glyph-name="circumflex" unicode="&#x2c6;" horiz-adv-x="612" 
d="M379 1453h124l200 -228h-166l-111 134l-162 -134h-155z" />
    <glyph glyph-name="caron" unicode="&#x2c7;" horiz-adv-x="623" 
d="M139 1447h157l122 -135l152 135h165l-265 -229h-127z" />
    <glyph glyph-name="breve" unicode="&#x2d8;" horiz-adv-x="620" 
d="M278.5 1260q-54.5 28 -85.5 76.5t-38 109.5h127q20 -45 50.5 -74.5t91.5 -29.5q57 0 99 29.5t75 74.5h129q-25 -57 -71 -106t-110 -78.5t-139 -29.5q-74 0 -128.5 28z" />
    <glyph glyph-name="dotaccent" unicode="&#x2d9;" horiz-adv-x="245" 
d="M154 1399h185l-27 -187h-185z" />
    <glyph glyph-name="ring" unicode="&#x2da;" horiz-adv-x="446" 
d="M222.5 1170q-37.5 23 -59 63t-21.5 90q0 22 2 33q7 54 40 99.5t82 72.5t101 27q48 0 86.5 -22t60 -60.5t21.5 -86.5q0 -16 -3 -34q-7 -56 -40 -103t-81.5 -74.5t-102.5 -27.5q-48 0 -85.5 23zM377 1260.5q27 18.5 44 48t17 60.5q0 40 -24 65t-63 25q-29 0 -56.5 -16
t-44.5 -44.5t-17 -62.5q0 -39 25 -66.5t62 -27.5q30 0 57 18.5z" />
    <glyph glyph-name="ogonek" unicode="&#x2db;" horiz-adv-x="421" 
d="M-31 -298q-42 34 -42 96q0 8 2 28q9 64 58.5 110.5t161.5 82.5l127 -12q-104 -43 -151 -80.5t-54 -85.5q-1 -5 -1 -15q0 -30 18.5 -44.5t59.5 -14.5t77.5 11t63.5 26l-15 -95q-28 -16 -78 -28.5t-103 -12.5q-82 0 -124 34z" />
    <glyph glyph-name="tilde" unicode="&#x2dc;" horiz-adv-x="652" 
d="M159 1363q44 37 81.5 55.5t87.5 18.5q32 0 61 -7.5t65 -21.5q37 -13 62 -19.5t52 -6.5q38 0 69.5 14t70.5 41l15 -108q-82 -57 -172 -57q-34 0 -60.5 6.5t-64.5 20.5q-33 13 -56.5 19t-50.5 6q-41 0 -70 -13.5t-71 -42.5z" />
    <glyph glyph-name="hungarumlaut" unicode="&#x2dd;" horiz-adv-x="745" 
d="M449 1194l294 275l74 -111l-321 -240zM139 1194l296 274l72 -110l-319 -238z" />
    <glyph glyph-name="gravecomb" unicode="&#x300;" 
d="M-419 1327l65 138l433 -194l-43 -92z" />
    <glyph glyph-name="acutecomb" unicode="&#x301;" 
d="M-422 1271l488 194l23 -138l-496 -148z" />
    <glyph glyph-name="uni0302" unicode="&#x302;" 
d="M-233 1453h124l200 -228h-166l-111 134l-162 -134h-155z" />
    <glyph glyph-name="tildecomb" unicode="&#x303;" 
d="M-493 1363q44 37 81.5 55.5t87.5 18.5q32 0 61 -7.5t65 -21.5q37 -13 62 -19.5t52 -6.5q38 0 69.5 14t70.5 41l15 -108q-82 -57 -172 -57q-34 0 -60.5 6.5t-64.5 20.5q-33 13 -56.5 19t-50.5 6q-41 0 -70 -13.5t-71 -42.5z" />
    <glyph glyph-name="uni0304" unicode="&#x304;" 
d="M-470 1420h564l-18 -127h-564z" />
    <glyph glyph-name="uni0306" unicode="&#x306;" 
d="M-341.5 1260q-54.5 28 -85.5 76.5t-38 109.5h127q20 -45 50.5 -74.5t91.5 -29.5q57 0 99 29.5t75 74.5h129q-25 -57 -71 -106t-110 -78.5t-139 -29.5q-74 0 -128.5 28z" />
    <glyph glyph-name="uni0307" unicode="&#x307;" 
d="M-91 1399h185l-27 -187h-185z" />
    <glyph glyph-name="uni0308" unicode="&#x308;" 
d="M-379 1437h186l-27 -187h-186zM-58 1437h186l-27 -187h-186z" />
    <glyph glyph-name="hookabovecomb" unicode="&#x309;" 
d="M-474 1275q36 23 57 51t21 56q0 14 -6 27q-7 16 -21.5 24.5t-33.5 8.5q-37 0 -81 -28l-40 82q73 45 141 45q43 0 76 -19t51 -55q18 -37 18 -75q0 -56 -37 -107.5t-106 -92.5z" />
    <glyph glyph-name="uni030A" unicode="&#x30a;" 
d="M-223.5 1170q-37.5 23 -59 63t-21.5 90q0 22 2 33q7 54 40 99.5t82 72.5t101 27q48 0 86.5 -22t60 -60.5t21.5 -86.5q0 -16 -3 -34q-7 -56 -40 -103t-81.5 -74.5t-102.5 -27.5q-48 0 -85.5 23zM-69 1260.5q27 18.5 44 48t17 60.5q0 40 -24 65t-63 25q-29 0 -56.5 -16
t-44.5 -44.5t-17 -62.5q0 -39 25 -66.5t62 -27.5q30 0 57 18.5z" />
    <glyph glyph-name="uni030B" unicode="&#x30b;" 
d="M-296 1194l294 275l74 -111l-321 -240zM-606 1194l296 274l72 -110l-319 -238z" />
    <glyph glyph-name="uni030C" unicode="&#x30c;" 
d="M-484 1447h157l122 -135l152 135h165l-265 -229h-127z" />
    <glyph glyph-name="uni030F" unicode="&#x30f;" 
d="M-586 1358l105 111l216 -275l-69 -75zM-278 1358l105 111l217 -275l-71 -75z" />
    <glyph glyph-name="uni0311" unicode="&#x311;" 
d="M-31 1496q56 -30 88.5 -78.5t40.5 -105.5h-129q-46 104 -145 104q-61 0 -99.5 -29.5t-70.5 -74.5h-128q37 94 120 154t193 60q74 0 130 -30z" />
    <glyph glyph-name="uni031B" unicode="&#x31b;" 
d="M-229 1061q64 -1 97.5 10.5t56 52t39.5 127.5h139q-24 -160 -89.5 -233.5t-193.5 -73.5q-35 0 -66 4z" />
    <glyph glyph-name="dotbelowcomb" unicode="&#x323;" 
d="M-299 -176h185l-27 -187h-185z" />
    <glyph glyph-name="uni0326" unicode="&#x326;" 
d="M-257 -361l-82 5l32 218h217l-27 -190l-201 -278h-80z" />
    <glyph glyph-name="uni0327" unicode="&#x327;" 
d="M-539 -361l41 76q51 -47 122 -47q56 0 84.5 23t28.5 66q0 35 -33.5 53t-105.5 20q-13 0 -13 5q0 2 4 8l92 167h92l-62 -121q79 -4 114 -39t35 -86q0 -54 -31.5 -94t-83.5 -60.5t-111 -20.5q-107 0 -173 50z" />
    <glyph glyph-name="uni0328" unicode="&#x328;" 
d="M-452 -298q-42 34 -42 96q0 8 2 28q9 64 58.5 110.5t161.5 82.5l127 -12q-104 -43 -151 -80.5t-54 -85.5q-1 -5 -1 -15q0 -30 18.5 -44.5t59.5 -14.5t77.5 11t63.5 26l-15 -95q-28 -16 -78 -28.5t-103 -12.5q-82 0 -124 34z" />
    <glyph glyph-name="pi" unicode="&#x3c0;" horiz-adv-x="1323" 
d="M265 421.5q42 238.5 48 460.5q0 20 -16 20h-182l12 132h1202l-12 -132h-227l-35 -902h-174l34 902h-431q-6 -240 -51 -496t-102 -406h-163q55 183 97 421.5z" />
    <glyph glyph-name="uni1E0C" unicode="&#x1e0c;" horiz-adv-x="1330" 
d="M323 1446l317 -2q319 -4 469.5 -139t150.5 -400q0 -83 -13 -173q-53 -364 -259 -548t-574 -184h-300zM437 155q266 0 424.5 135t201.5 439q12 83 12 150q0 221 -118.5 316.5t-350.5 95.5h-127l-163 -1136h121zM492 -176h185l-27 -187h-185z" />
    <glyph glyph-name="uni1E0D" unicode="&#x1e0d;" horiz-adv-x="1129" 
d="M166 85q-86 105 -86 294q0 63 11 142q23 155 83.5 275.5t159 189t227.5 68.5q84 0 145 -29t96 -69.5t50 -79.5l87 610h175l-215 -1486h-133l12 212q-40 -88 -125.5 -160t-233.5 -72q-167 0 -253 105zM616 155.5q67 37.5 110.5 101.5t55.5 139l35 246q1 7 1 23
q0 55 -20 111.5t-71.5 97t-139.5 40.5q-128 0 -212 -100.5t-110 -290.5q-10 -66 -10 -125q0 -142 57.5 -211t158.5 -69q78 0 145 37.5zM361 -176h185l-27 -187h-185z" />
    <glyph glyph-name="uni1E24" unicode="&#x1e24;" horiz-adv-x="1359" 
d="M323 1446h175l-89 -618h637l89 618h174l-209 -1446h-175l97 669h-637l-96 -669h-175zM492 -176h185l-27 -187h-185z" />
    <glyph glyph-name="uni1E25" unicode="&#x1e25;" horiz-adv-x="1124" 
d="M296 1486h171l-87 -598q51 71 134.5 115.5t194.5 44.5q86 0 154 -32.5t106.5 -92t38.5 -136.5q0 -22 -3 -45l-107 -742h-175l102 707q3 18 3 33q0 75 -51.5 118t-139.5 43q-68 0 -129 -23.5t-102 -70t-50 -112.5l-100 -695h-175zM391 -176h185l-27 -187h-185z" />
    <glyph glyph-name="uni1E44" unicode="&#x1e44;" horiz-adv-x="1437" 
d="M323 1446h166l561 -1133l163 1133h174l-209 -1446h-155l-569 1148l-165 -1148h-175zM815 1811h185l-27 -187h-185z" />
    <glyph glyph-name="uni1E45" unicode="&#x1e45;" horiz-adv-x="1125" 
d="M231 1034h169l-20 -144q54 72 136.5 115.5t192.5 43.5q84 0 150.5 -34.5t104.5 -101t38 -160.5q0 -35 -6 -74l-97 -679h-175l96 662q4 24 4 52q0 89 -49.5 138t-134.5 49q-69 0 -130.5 -23t-103 -69.5t-50.5 -112.5l-100 -696h-174zM612 1399h185l-27 -187h-185z" />
    <glyph glyph-name="uni1E5A" unicode="&#x1e5a;" horiz-adv-x="1299" 
d="M323 1446h528q195 0 294.5 -82.5t99.5 -234.5q0 -37 -6 -76q-23 -161 -111.5 -255t-211.5 -139l174 -659h-184l-159 626h-368l-91 -626h-174zM699 776q156 0 248.5 67t110.5 199q4 25 4 53q0 101 -64 152t-183 51h-340l-75 -522h299zM458 -176h185l-27 -187h-185z" />
    <glyph glyph-name="uni1E5B" unicode="&#x1e5b;" horiz-adv-x="729" 
d="M231 1034h165l-28 -197q52 95 154.5 156t234.5 61l-25 -173q-12 1 -36 1q-162 0 -247 -63t-100 -172l-93 -647h-175zM63 -176h185l-27 -187h-185z" />
    <glyph glyph-name="uni1E62" unicode="&#x1e62;" horiz-adv-x="1323" 
d="M342 25q-112 45 -178 132.5t-65 210.5l185 13q5 -81 48.5 -137.5t115 -85t161.5 -28.5q98 0 180.5 29.5t134.5 83.5t62 127q3 20 3 39q0 81 -53.5 135t-155.5 79l-264 66q-282 70 -282 297q0 31 4 58q17 123 94.5 218.5t198.5 148.5t264 53q152 0 255.5 -56t152 -148.5
t43.5 -202.5l-179 -11q0 139 -80 202t-215 63q-81 0 -155.5 -29t-125.5 -85.5t-62 -135.5q-3 -18 -3 -35q0 -65 48.5 -107.5t162.5 -72.5l254 -67q155 -37 219 -124t64 -203q0 -41 -6 -80q-15 -109 -91 -198.5t-202.5 -141.5t-286.5 -52q-134 0 -246 45zM461 -176h185
l-27 -187h-185z" />
    <glyph glyph-name="uni1E63" unicode="&#x1e63;" horiz-adv-x="983" 
d="M236 16q-82 36 -128 107.5t-45 175.5h162q4 -92 65 -137t153 -45q100 0 165.5 42t77.5 117q1 7 1 21q0 91 -121 126l-186 53q-108 30 -165 83.5t-57 142.5q0 22 3 44q14 97 70.5 166.5t146 105.5t200.5 36q146 0 231 -66.5t85 -185.5q0 -21 -3 -44h-154q1 74 -48 116.5
t-135 42.5q-85 0 -153 -37.5t-79 -122.5q-1 -7 -1 -19q0 -45 35.5 -72.5t109.5 -47.5l188 -54q103 -29 147.5 -92.5t44.5 -142.5q0 -22 -3 -43q-14 -97 -74 -166t-150.5 -104.5t-195.5 -35.5t-187 36zM297 -176h185l-27 -187h-185z" />
    <glyph glyph-name="uni1E6C" unicode="&#x1e6c;" horiz-adv-x="1094" 
d="M578 1281h-440l24 165h1032l-24 -165h-417l-184 -1281h-174zM377 -173h185l-27 -187h-185z" />
    <glyph glyph-name="uni1E6D" unicode="&#x1e6d;" horiz-adv-x="707" 
d="M215.5 39.5q-52.5 44.5 -52.5 136.5q0 34 6 73l95 653h-160l20 132h163l75 300h139l-42 -299h221l-20 -133h-221l-91 -640q-4 -25 -4 -49q0 -34 11 -51t33.5 -23t61.5 -6h106l-18 -121q-44 -17 -146 -17q-124 0 -176.5 44.5zM217 -170h185l-27 -187h-185z" />
    <glyph glyph-name="Wgrave" unicode="&#x1e80;" horiz-adv-x="1813" 
d="M181 1446h177l135 -1162l474 1162h136l143 -1162l474 1162h174l-607 -1446h-161l-138 1130l-465 -1130h-157zM803 1739l65 138l433 -194l-43 -92z" />
    <glyph glyph-name="wgrave" unicode="&#x1e81;" horiz-adv-x="1487" 
d="M130 1034h162l108 -803h15l336 803h132l114 -801h15l329 801h162l-444 -1034h-171l-112 771l-323 -771h-171zM591 1327l65 138l433 -194l-43 -92z" />
    <glyph glyph-name="Wacute" unicode="&#x1e82;" horiz-adv-x="1813" 
d="M181 1446h177l135 -1162l474 1162h136l143 -1162l474 1162h174l-607 -1446h-161l-138 1130l-465 -1130h-157zM819 1683l488 194l23 -138l-496 -148z" />
    <glyph glyph-name="wacute" unicode="&#x1e83;" horiz-adv-x="1487" 
d="M130 1034h162l108 -803h15l336 803h132l114 -801h15l329 801h162l-444 -1034h-171l-112 771l-323 -771h-171zM607 1271l488 194l23 -138l-496 -148z" />
    <glyph glyph-name="Wdieresis" unicode="&#x1e84;" horiz-adv-x="1813" 
d="M181 1446h177l135 -1162l474 1162h136l143 -1162l474 1162h174l-607 -1446h-161l-138 1130l-465 -1130h-157zM839 1847h186l-27 -187h-186zM1160 1847h186l-27 -187h-186z" />
    <glyph glyph-name="wdieresis" unicode="&#x1e85;" horiz-adv-x="1487" 
d="M130 1034h162l108 -803h15l336 803h132l114 -801h15l329 801h162l-444 -1034h-171l-112 771l-323 -771h-171zM627 1435h186l-27 -187h-186zM948 1435h186l-27 -187h-186z" />
    <glyph glyph-name="uni1E92" unicode="&#x1e92;" horiz-adv-x="1202" 
d="M46 100l918 1189h-716l23 157h961l-14 -96l-926 -1192h751l-24 -158h-988zM430 -176h185l-27 -187h-185z" />
    <glyph glyph-name="uni1E93" unicode="&#x1e93;" horiz-adv-x="974" 
d="M34 111l676 800h-520l18 123h733l-17 -113l-674 -796h569l-18 -125h-783zM312 -176h185l-27 -187h-185z" />
    <glyph glyph-name="uni1EA0" unicode="&#x1ea0;" horiz-adv-x="1346" 
d="M711 1446h197l284 -1446h-178l-76 399h-559l-194 -399h-177zM915 565l-131 703l-337 -703h468zM487 -176h185l-27 -187h-185z" />
    <glyph glyph-name="uni1EA1" unicode="&#x1ea1;" horiz-adv-x="1050" 
d="M129.5 45q-76.5 65 -76.5 181q0 29 4 53q24 173 150 256.5t377 89.5l174 5l12 82q3 20 3 38q0 82 -52 126.5t-144 44.5q-87 -1 -159 -47t-101 -131h-155q19 89 79 160t154.5 111t209.5 40q166 0 252.5 -72t86.5 -200q0 -33 -4 -61l-104 -721h-149l14 188
q-71 -114 -161.5 -161t-203.5 -47q-130 0 -206.5 65zM540 143q69 33 118 86.5t58 109.5l25 179l-144 -3q-174 -3 -263.5 -54t-105.5 -165q-2 -22 -2 -30q0 -73 49 -114.5t132 -41.5q64 0 133 33zM341 -176h185l-27 -187h-185z" />
    <glyph glyph-name="uni1EA2" unicode="&#x1ea2;" horiz-adv-x="1346" 
d="M711 1446h197l284 -1446h-178l-76 399h-559l-194 -399h-177zM915 565l-131 703l-337 -703h468zM846 1669q36 23 57 51t21 56q0 14 -6 27q-7 16 -21.5 24.5t-33.5 8.5q-37 0 -81 -28l-40 82q73 45 141 45q43 0 76 -19t51 -55q18 -37 18 -75q0 -56 -37 -107.5t-106 -92.5z
" />
    <glyph glyph-name="uni1EA3" unicode="&#x1ea3;" horiz-adv-x="1050" 
d="M129.5 45q-76.5 65 -76.5 181q0 29 4 53q24 173 150 256.5t377 89.5l174 5l12 82q3 20 3 38q0 82 -52 126.5t-144 44.5q-87 -1 -159 -47t-101 -131h-155q19 89 79 160t154.5 111t209.5 40q166 0 252.5 -72t86.5 -200q0 -33 -4 -61l-104 -721h-149l14 188
q-71 -114 -161.5 -161t-203.5 -47q-130 0 -206.5 65zM540 143q69 33 118 86.5t58 109.5l25 179l-144 -3q-174 -3 -263.5 -54t-105.5 -165q-2 -22 -2 -30q0 -73 49 -114.5t132 -41.5q64 0 133 33zM640 1257q36 23 57 51t21 56q0 14 -6 27q-7 16 -21.5 24.5t-33.5 8.5
q-37 0 -81 -28l-40 82q73 45 141 45q43 0 76 -19t51 -55q18 -37 18 -75q0 -56 -37 -107.5t-106 -92.5z" />
    <glyph glyph-name="uni1EA4" unicode="&#x1ea4;" horiz-adv-x="1346" 
d="M711 1446h197l284 -1446h-178l-76 399h-559l-194 -399h-177zM915 565l-131 703l-337 -703h468zM815 1865h124l200 -228h-166l-111 134l-162 -134h-155zM596 2022l488 194l23 -138l-496 -148z" />
    <glyph glyph-name="uni1EA5" unicode="&#x1ea5;" horiz-adv-x="1050" 
d="M129.5 45q-76.5 65 -76.5 181q0 29 4 53q24 173 150 256.5t377 89.5l174 5l12 82q3 20 3 38q0 82 -52 126.5t-144 44.5q-87 -1 -159 -47t-101 -131h-155q19 89 79 160t154.5 111t209.5 40q166 0 252.5 -72t86.5 -200q0 -33 -4 -61l-104 -721h-149l14 188
q-71 -114 -161.5 -161t-203.5 -47q-130 0 -206.5 65zM540 143q69 33 118 86.5t58 109.5l25 179l-144 -3q-174 -3 -263.5 -54t-105.5 -165q-2 -22 -2 -30q0 -73 49 -114.5t132 -41.5q64 0 133 33zM608 1453h124l200 -228h-166l-111 134l-162 -134h-155zM389 1610l488 194
l23 -138l-496 -148z" />
    <glyph glyph-name="uni1EA6" unicode="&#x1ea6;" horiz-adv-x="1346" 
d="M711 1446h197l284 -1446h-178l-76 399h-559l-194 -399h-177zM915 565l-131 703l-337 -703h468zM811 1865h124l200 -228h-166l-111 134l-162 -134h-155zM605 2071l65 138l433 -194l-43 -92z" />
    <glyph glyph-name="uni1EA7" unicode="&#x1ea7;" horiz-adv-x="1050" 
d="M129.5 45q-76.5 65 -76.5 181q0 29 4 53q24 173 150 256.5t377 89.5l174 5l12 82q3 20 3 38q0 82 -52 126.5t-144 44.5q-87 -1 -159 -47t-101 -131h-155q19 89 79 160t154.5 111t209.5 40q166 0 252.5 -72t86.5 -200q0 -33 -4 -61l-104 -721h-149l14 188
q-71 -114 -161.5 -161t-203.5 -47q-130 0 -206.5 65zM540 143q69 33 118 86.5t58 109.5l25 179l-144 -3q-174 -3 -263.5 -54t-105.5 -165q-2 -22 -2 -30q0 -73 49 -114.5t132 -41.5q64 0 133 33zM604 1453h124l200 -228h-166l-111 134l-162 -134h-155zM398 1659l65 138
l433 -194l-43 -92z" />
    <glyph glyph-name="uni1EA8" unicode="&#x1ea8;" horiz-adv-x="1346" 
d="M711 1446h197l284 -1446h-178l-76 399h-559l-194 -399h-177zM915 565l-131 703l-337 -703h468zM797 1865h124l200 -228h-166l-111 134l-162 -134h-155zM1015 1907q36 23 57 51t21 56q0 14 -6 27q-7 16 -21.5 24.5t-33.5 8.5q-37 0 -81 -28l-40 82q73 45 141 45
q43 0 76 -19t51 -55q18 -37 18 -75q0 -56 -37 -107.5t-106 -92.5z" />
    <glyph glyph-name="uni1EA9" unicode="&#x1ea9;" horiz-adv-x="1050" 
d="M129.5 45q-76.5 65 -76.5 181q0 29 4 53q24 173 150 256.5t377 89.5l174 5l12 82q3 20 3 38q0 82 -52 126.5t-144 44.5q-87 -1 -159 -47t-101 -131h-155q19 89 79 160t154.5 111t209.5 40q166 0 252.5 -72t86.5 -200q0 -33 -4 -61l-104 -721h-149l14 188
q-71 -114 -161.5 -161t-203.5 -47q-130 0 -206.5 65zM540 143q69 33 118 86.5t58 109.5l25 179l-144 -3q-174 -3 -263.5 -54t-105.5 -165q-2 -22 -2 -30q0 -73 49 -114.5t132 -41.5q64 0 133 33zM590 1453h124l200 -228h-166l-111 134l-162 -134h-155zM808 1495q36 23 57 51
t21 56q0 14 -6 27q-7 16 -21.5 24.5t-33.5 8.5q-37 0 -81 -28l-40 82q73 45 141 45q43 0 76 -19t51 -55q18 -37 18 -75q0 -56 -37 -107.5t-106 -92.5z" />
    <glyph glyph-name="uni1EAA" unicode="&#x1eaa;" horiz-adv-x="1346" 
d="M711 1446h197l284 -1446h-178l-76 399h-559l-194 -399h-177zM915 565l-131 703l-337 -703h468zM819 1865h124l200 -228h-166l-111 134l-162 -134h-155zM582 2041q44 37 81.5 55.5t87.5 18.5q32 0 61 -7.5t65 -21.5q37 -13 62 -19.5t52 -6.5q38 0 69.5 14t70.5 41l15 -108
q-82 -57 -172 -57q-34 0 -60.5 6.5t-64.5 20.5q-33 13 -56.5 19t-50.5 6q-41 0 -70 -13.5t-71 -42.5z" />
    <glyph glyph-name="uni1EAB" unicode="&#x1eab;" horiz-adv-x="1050" 
d="M129.5 45q-76.5 65 -76.5 181q0 29 4 53q24 173 150 256.5t377 89.5l174 5l12 82q3 20 3 38q0 82 -52 126.5t-144 44.5q-87 -1 -159 -47t-101 -131h-155q19 89 79 160t154.5 111t209.5 40q166 0 252.5 -72t86.5 -200q0 -33 -4 -61l-104 -721h-149l14 188
q-71 -114 -161.5 -161t-203.5 -47q-130 0 -206.5 65zM540 143q69 33 118 86.5t58 109.5l25 179l-144 -3q-174 -3 -263.5 -54t-105.5 -165q-2 -22 -2 -30q0 -73 49 -114.5t132 -41.5q64 0 133 33zM612 1453h124l200 -228h-166l-111 134l-162 -134h-155zM375 1629
q44 37 81.5 55.5t87.5 18.5q32 0 61 -7.5t65 -21.5q37 -13 62 -19.5t52 -6.5q38 0 69.5 14t70.5 41l15 -108q-82 -57 -172 -57q-34 0 -60.5 6.5t-64.5 20.5q-33 13 -56.5 19t-50.5 6q-41 0 -70 -13.5t-71 -42.5z" />
    <glyph glyph-name="uni1EAC" unicode="&#x1eac;" horiz-adv-x="1346" 
d="M711 1446h197l284 -1446h-178l-76 399h-559l-194 -399h-177zM915 565l-131 703l-337 -703h468zM487 -176h185l-27 -187h-185zM808 1865h124l200 -228h-166l-111 134l-162 -134h-155z" />
    <glyph glyph-name="uni1EAD" unicode="&#x1ead;" horiz-adv-x="1050" 
d="M129.5 45q-76.5 65 -76.5 181q0 29 4 53q24 173 150 256.5t377 89.5l174 5l12 82q3 20 3 38q0 82 -52 126.5t-144 44.5q-87 -1 -159 -47t-101 -131h-155q19 89 79 160t154.5 111t209.5 40q166 0 252.5 -72t86.5 -200q0 -33 -4 -61l-104 -721h-149l14 188
q-71 -114 -161.5 -161t-203.5 -47q-130 0 -206.5 65zM540 143q69 33 118 86.5t58 109.5l25 179l-144 -3q-174 -3 -263.5 -54t-105.5 -165q-2 -22 -2 -30q0 -73 49 -114.5t132 -41.5q64 0 133 33zM341 -176h185l-27 -187h-185zM601 1453h124l200 -228h-166l-111 134
l-162 -134h-155z" />
    <glyph glyph-name="uni1EAE" unicode="&#x1eae;" horiz-adv-x="1346" 
d="M711 1446h197l284 -1446h-178l-76 399h-559l-194 -399h-177zM915 565l-131 703l-337 -703h468zM746.5 1672q-54.5 28 -85.5 76.5t-38 109.5h127q20 -45 50.5 -74.5t91.5 -29.5q57 0 99 29.5t75 74.5h129q-25 -57 -71 -106t-110 -78.5t-139 -29.5q-74 0 -128.5 28z
M629 2022l488 194l23 -138l-496 -148z" />
    <glyph glyph-name="uni1EAF" unicode="&#x1eaf;" horiz-adv-x="1050" 
d="M129.5 45q-76.5 65 -76.5 181q0 29 4 53q24 173 150 256.5t377 89.5l174 5l12 82q3 20 3 38q0 82 -52 126.5t-144 44.5q-87 -1 -159 -47t-101 -131h-155q19 89 79 160t154.5 111t209.5 40q166 0 252.5 -72t86.5 -200q0 -33 -4 -61l-104 -721h-149l14 188
q-71 -114 -161.5 -161t-203.5 -47q-130 0 -206.5 65zM540 143q69 33 118 86.5t58 109.5l25 179l-144 -3q-174 -3 -263.5 -54t-105.5 -165q-2 -22 -2 -30q0 -73 49 -114.5t132 -41.5q64 0 133 33zM539.5 1260q-54.5 28 -85.5 76.5t-38 109.5h127q20 -45 50.5 -74.5
t91.5 -29.5q57 0 99 29.5t75 74.5h129q-25 -57 -71 -106t-110 -78.5t-139 -29.5q-74 0 -128.5 28zM422 1610l488 194l23 -138l-496 -148z" />
    <glyph glyph-name="uni1EB0" unicode="&#x1eb0;" horiz-adv-x="1346" 
d="M711 1446h197l284 -1446h-178l-76 399h-559l-194 -399h-177zM915 565l-131 703l-337 -703h468zM742.5 1672q-54.5 28 -85.5 76.5t-38 109.5h127q20 -45 50.5 -74.5t91.5 -29.5q57 0 99 29.5t75 74.5h129q-25 -57 -71 -106t-110 -78.5t-139 -29.5q-74 0 -128.5 28z
M638 2071l65 138l433 -194l-43 -92z" />
    <glyph glyph-name="uni1EB1" unicode="&#x1eb1;" horiz-adv-x="1050" 
d="M129.5 45q-76.5 65 -76.5 181q0 29 4 53q24 173 150 256.5t377 89.5l174 5l12 82q3 20 3 38q0 82 -52 126.5t-144 44.5q-87 -1 -159 -47t-101 -131h-155q19 89 79 160t154.5 111t209.5 40q166 0 252.5 -72t86.5 -200q0 -33 -4 -61l-104 -721h-149l14 188
q-71 -114 -161.5 -161t-203.5 -47q-130 0 -206.5 65zM540 143q69 33 118 86.5t58 109.5l25 179l-144 -3q-174 -3 -263.5 -54t-105.5 -165q-2 -22 -2 -30q0 -73 49 -114.5t132 -41.5q64 0 133 33zM535.5 1260q-54.5 28 -85.5 76.5t-38 109.5h127q20 -45 50.5 -74.5
t91.5 -29.5q57 0 99 29.5t75 74.5h129q-25 -57 -71 -106t-110 -78.5t-139 -29.5q-74 0 -128.5 28zM431 1659l65 138l433 -194l-43 -92z" />
    <glyph glyph-name="uni1EB2" unicode="&#x1eb2;" horiz-adv-x="1346" 
d="M711 1446h197l284 -1446h-178l-76 399h-559l-194 -399h-177zM915 565l-131 703l-337 -703h468zM719.5 1672q-54.5 28 -85.5 76.5t-38 109.5h127q20 -45 50.5 -74.5t91.5 -29.5q57 0 99 29.5t75 74.5h129q-25 -57 -71 -106t-110 -78.5t-139 -29.5q-74 0 -128.5 28z
M894 1960q36 23 57 51t21 56q0 14 -6 27q-7 16 -21.5 24.5t-33.5 8.5q-37 0 -81 -28l-40 82q73 45 141 45q43 0 76 -19t51 -55q18 -37 18 -75q0 -56 -37 -107.5t-106 -92.5z" />
    <glyph glyph-name="uni1EB3" unicode="&#x1eb3;" horiz-adv-x="1050" 
d="M129.5 45q-76.5 65 -76.5 181q0 29 4 53q24 173 150 256.5t377 89.5l174 5l12 82q3 20 3 38q0 82 -52 126.5t-144 44.5q-87 -1 -159 -47t-101 -131h-155q19 89 79 160t154.5 111t209.5 40q166 0 252.5 -72t86.5 -200q0 -33 -4 -61l-104 -721h-149l14 188
q-71 -114 -161.5 -161t-203.5 -47q-130 0 -206.5 65zM540 143q69 33 118 86.5t58 109.5l25 179l-144 -3q-174 -3 -263.5 -54t-105.5 -165q-2 -22 -2 -30q0 -73 49 -114.5t132 -41.5q64 0 133 33zM512.5 1260q-54.5 28 -85.5 76.5t-38 109.5h127q20 -45 50.5 -74.5
t91.5 -29.5q57 0 99 29.5t75 74.5h129q-25 -57 -71 -106t-110 -78.5t-139 -29.5q-74 0 -128.5 28zM687 1548q36 23 57 51t21 56q0 14 -6 27q-7 16 -21.5 24.5t-33.5 8.5q-37 0 -81 -28l-40 82q73 45 141 45q43 0 76 -19t51 -55q18 -37 18 -75q0 -56 -37 -107.5t-106 -92.5z
" />
    <glyph glyph-name="uni1EB4" unicode="&#x1eb4;" horiz-adv-x="1346" 
d="M711 1446h197l284 -1446h-178l-76 399h-559l-194 -399h-177zM915 565l-131 703l-337 -703h468zM739.5 1672q-54.5 28 -85.5 76.5t-38 109.5h127q20 -45 50.5 -74.5t91.5 -29.5q57 0 99 29.5t75 74.5h129q-25 -57 -71 -106t-110 -78.5t-139 -29.5q-74 0 -128.5 28z
M604 2041q44 37 81.5 55.5t87.5 18.5q32 0 61 -7.5t65 -21.5q37 -13 62 -19.5t52 -6.5q38 0 69.5 14t70.5 41l15 -108q-82 -57 -172 -57q-34 0 -60.5 6.5t-64.5 20.5q-33 13 -56.5 19t-50.5 6q-41 0 -70 -13.5t-71 -42.5z" />
    <glyph glyph-name="uni1EB5" unicode="&#x1eb5;" horiz-adv-x="1050" 
d="M129.5 45q-76.5 65 -76.5 181q0 29 4 53q24 173 150 256.5t377 89.5l174 5l12 82q3 20 3 38q0 82 -52 126.5t-144 44.5q-87 -1 -159 -47t-101 -131h-155q19 89 79 160t154.5 111t209.5 40q166 0 252.5 -72t86.5 -200q0 -33 -4 -61l-104 -721h-149l14 188
q-71 -114 -161.5 -161t-203.5 -47q-130 0 -206.5 65zM540 143q69 33 118 86.5t58 109.5l25 179l-144 -3q-174 -3 -263.5 -54t-105.5 -165q-2 -22 -2 -30q0 -73 49 -114.5t132 -41.5q64 0 133 33zM533.5 1260q-54.5 28 -85.5 76.5t-38 109.5h127q20 -45 50.5 -74.5
t91.5 -29.5q57 0 99 29.5t75 74.5h129q-25 -57 -71 -106t-110 -78.5t-139 -29.5q-74 0 -128.5 28zM398 1629q44 37 81.5 55.5t87.5 18.5q32 0 61 -7.5t65 -21.5q37 -13 62 -19.5t52 -6.5q38 0 69.5 14t70.5 41l15 -108q-82 -57 -172 -57q-34 0 -60.5 6.5t-64.5 20.5
q-33 13 -56.5 19t-50.5 6q-41 0 -70 -13.5t-71 -42.5z" />
    <glyph glyph-name="uni1EB6" unicode="&#x1eb6;" horiz-adv-x="1346" 
d="M711 1446h197l284 -1446h-178l-76 399h-559l-194 -399h-177zM915 565l-131 703l-337 -703h468zM487 -176h185l-27 -187h-185zM711.5 1669q-54.5 28 -85.5 76.5t-38 109.5h127q20 -45 50.5 -74.5t91.5 -29.5q57 0 99 29.5t75 74.5h129q-25 -57 -71 -106t-110 -78.5
t-139 -29.5q-74 0 -128.5 28z" />
    <glyph glyph-name="uni1EB7" unicode="&#x1eb7;" horiz-adv-x="1050" 
d="M129.5 45q-76.5 65 -76.5 181q0 29 4 53q24 173 150 256.5t377 89.5l174 5l12 82q3 20 3 38q0 82 -52 126.5t-144 44.5q-87 -1 -159 -47t-101 -131h-155q19 89 79 160t154.5 111t209.5 40q166 0 252.5 -72t86.5 -200q0 -33 -4 -61l-104 -721h-149l14 188
q-71 -114 -161.5 -161t-203.5 -47q-130 0 -206.5 65zM540 143q69 33 118 86.5t58 109.5l25 179l-144 -3q-174 -3 -263.5 -54t-105.5 -165q-2 -22 -2 -30q0 -73 49 -114.5t132 -41.5q64 0 133 33zM341 -176h185l-27 -187h-185zM505.5 1257q-54.5 28 -85.5 76.5t-38 109.5h127
q20 -45 50.5 -74.5t91.5 -29.5q57 0 99 29.5t75 74.5h129q-25 -57 -71 -106t-110 -78.5t-139 -29.5q-74 0 -128.5 28z" />
    <glyph glyph-name="uni1EB8" unicode="&#x1eb8;" horiz-adv-x="1200" 
d="M323 1446h861l-25 -159h-685l-68 -479h617l-23 -157h-617l-70 -489l704 -1l-24 -161h-879zM446 -176h185l-27 -187h-185z" />
    <glyph glyph-name="uni1EB9" unicode="&#x1eb9;" horiz-adv-x="1051" 
d="M263 29q-88 49 -135.5 142.5t-47.5 222.5q0 53 9 113q24 164 94.5 287.5t180.5 191.5t249 68q175 0 267.5 -102.5t92.5 -287.5q0 -57 -9 -122l-10 -68h-695q-6 -43 -6 -83q0 -123 59.5 -196.5t176.5 -73.5q93 0 162 45.5t110 134.5h162q-37 -105 -107 -177t-159.5 -108
t-186.5 -36q-119 0 -207 49zM805 597q6 39 6 75q0 112 -55 178t-164 66q-87 0 -154.5 -45.5t-108 -118.5t-51.5 -155h527zM349 -176h185l-27 -187h-185z" />
    <glyph glyph-name="uni1EBA" unicode="&#x1eba;" horiz-adv-x="1200" 
d="M323 1446h861l-25 -159h-685l-68 -479h617l-23 -157h-617l-70 -489l704 -1l-24 -161h-879zM772 1669q36 23 57 51t21 56q0 14 -6 27q-7 16 -21.5 24.5t-33.5 8.5q-37 0 -81 -28l-40 82q73 45 141 45q43 0 76 -19t51 -55q18 -37 18 -75q0 -56 -37 -107.5t-106 -92.5z" />
    <glyph glyph-name="uni1EBB" unicode="&#x1ebb;" horiz-adv-x="1051" 
d="M263 29q-88 49 -135.5 142.5t-47.5 222.5q0 53 9 113q24 164 94.5 287.5t180.5 191.5t249 68q175 0 267.5 -102.5t92.5 -287.5q0 -57 -9 -122l-10 -68h-695q-6 -43 -6 -83q0 -123 59.5 -196.5t176.5 -73.5q93 0 162 45.5t110 134.5h162q-37 -105 -107 -177t-159.5 -108
t-186.5 -36q-119 0 -207 49zM805 597q6 39 6 75q0 112 -55 178t-164 66q-87 0 -154.5 -45.5t-108 -118.5t-51.5 -155h527zM648 1257q36 23 57 51t21 56q0 14 -6 27q-7 16 -21.5 24.5t-33.5 8.5q-37 0 -81 -28l-40 82q73 45 141 45q43 0 76 -19t51 -55q18 -37 18 -75
q0 -56 -37 -107.5t-106 -92.5z" />
    <glyph glyph-name="uni1EBC" unicode="&#x1ebc;" horiz-adv-x="1200" 
d="M323 1446h861l-25 -159h-685l-68 -479h617l-23 -157h-617l-70 -489l704 -1l-24 -161h-879zM500 1775q44 37 81.5 55.5t87.5 18.5q32 0 61 -7.5t65 -21.5q37 -13 62 -19.5t52 -6.5q38 0 69.5 14t70.5 41l15 -108q-82 -57 -172 -57q-34 0 -60.5 6.5t-64.5 20.5
q-33 13 -56.5 19t-50.5 6q-41 0 -70 -13.5t-71 -42.5z" />
    <glyph glyph-name="uni1EBD" unicode="&#x1ebd;" horiz-adv-x="1051" 
d="M263 29q-88 49 -135.5 142.5t-47.5 222.5q0 53 9 113q24 164 94.5 287.5t180.5 191.5t249 68q175 0 267.5 -102.5t92.5 -287.5q0 -57 -9 -122l-10 -68h-695q-6 -43 -6 -83q0 -123 59.5 -196.5t176.5 -73.5q93 0 162 45.5t110 134.5h162q-37 -105 -107 -177t-159.5 -108
t-186.5 -36q-119 0 -207 49zM805 597q6 39 6 75q0 112 -55 178t-164 66q-87 0 -154.5 -45.5t-108 -118.5t-51.5 -155h527zM377 1363q44 37 81.5 55.5t87.5 18.5q32 0 61 -7.5t65 -21.5q37 -13 62 -19.5t52 -6.5q38 0 69.5 14t70.5 41l15 -108q-82 -57 -172 -57
q-34 0 -60.5 6.5t-64.5 20.5q-33 13 -56.5 19t-50.5 6q-41 0 -70 -13.5t-71 -42.5z" />
    <glyph glyph-name="uni1EBE" unicode="&#x1ebe;" horiz-adv-x="1200" 
d="M323 1446h861l-25 -159h-685l-68 -479h617l-23 -157h-617l-70 -489l704 -1l-24 -161h-879zM740 1865h124l200 -228h-166l-111 134l-162 -134h-155zM521 2022l488 194l23 -138l-496 -148z" />
    <glyph glyph-name="uni1EBF" unicode="&#x1ebf;" horiz-adv-x="1051" 
d="M263 29q-88 49 -135.5 142.5t-47.5 222.5q0 53 9 113q24 164 94.5 287.5t180.5 191.5t249 68q175 0 267.5 -102.5t92.5 -287.5q0 -57 -9 -122l-10 -68h-695q-6 -43 -6 -83q0 -123 59.5 -196.5t176.5 -73.5q93 0 162 45.5t110 134.5h162q-37 -105 -107 -177t-159.5 -108
t-186.5 -36q-119 0 -207 49zM805 597q6 39 6 75q0 112 -55 178t-164 66q-87 0 -154.5 -45.5t-108 -118.5t-51.5 -155h527zM617 1453h124l200 -228h-166l-111 134l-162 -134h-155zM398 1610l488 194l23 -138l-496 -148z" />
    <glyph glyph-name="uni1EC0" unicode="&#x1ec0;" horiz-adv-x="1200" 
d="M323 1446h861l-25 -159h-685l-68 -479h617l-23 -157h-617l-70 -489l704 -1l-24 -161h-879zM736 1865h124l200 -228h-166l-111 134l-162 -134h-155zM530 2071l65 138l433 -194l-43 -92z" />
    <glyph glyph-name="uni1EC1" unicode="&#x1ec1;" horiz-adv-x="1051" 
d="M263 29q-88 49 -135.5 142.5t-47.5 222.5q0 53 9 113q24 164 94.5 287.5t180.5 191.5t249 68q175 0 267.5 -102.5t92.5 -287.5q0 -57 -9 -122l-10 -68h-695q-6 -43 -6 -83q0 -123 59.5 -196.5t176.5 -73.5q93 0 162 45.5t110 134.5h162q-37 -105 -107 -177t-159.5 -108
t-186.5 -36q-119 0 -207 49zM805 597q6 39 6 75q0 112 -55 178t-164 66q-87 0 -154.5 -45.5t-108 -118.5t-51.5 -155h527zM613 1453h124l200 -228h-166l-111 134l-162 -134h-155zM407 1659l65 138l433 -194l-43 -92z" />
    <glyph glyph-name="uni1EC2" unicode="&#x1ec2;" horiz-adv-x="1200" 
d="M323 1446h861l-25 -159h-685l-68 -479h617l-23 -157h-617l-70 -489l704 -1l-24 -161h-879zM722 1865h124l200 -228h-166l-111 134l-162 -134h-155zM940 1907q36 23 57 51t21 56q0 14 -6 27q-7 16 -21.5 24.5t-33.5 8.5q-37 0 -81 -28l-40 82q73 45 141 45q43 0 76 -19
t51 -55q18 -37 18 -75q0 -56 -37 -107.5t-106 -92.5z" />
    <glyph glyph-name="uni1EC3" unicode="&#x1ec3;" horiz-adv-x="1051" 
d="M263 29q-88 49 -135.5 142.5t-47.5 222.5q0 53 9 113q24 164 94.5 287.5t180.5 191.5t249 68q175 0 267.5 -102.5t92.5 -287.5q0 -57 -9 -122l-10 -68h-695q-6 -43 -6 -83q0 -123 59.5 -196.5t176.5 -73.5q93 0 162 45.5t110 134.5h162q-37 -105 -107 -177t-159.5 -108
t-186.5 -36q-119 0 -207 49zM805 597q6 39 6 75q0 112 -55 178t-164 66q-87 0 -154.5 -45.5t-108 -118.5t-51.5 -155h527zM599 1453h124l200 -228h-166l-111 134l-162 -134h-155zM817 1495q36 23 57 51t21 56q0 14 -6 27q-7 16 -21.5 24.5t-33.5 8.5q-37 0 -81 -28l-40 82
q73 45 141 45q43 0 76 -19t51 -55q18 -37 18 -75q0 -56 -37 -107.5t-106 -92.5z" />
    <glyph glyph-name="uni1EC4" unicode="&#x1ec4;" horiz-adv-x="1200" 
d="M323 1446h861l-25 -159h-685l-68 -479h617l-23 -157h-617l-70 -489l704 -1l-24 -161h-879zM744 1865h124l200 -228h-166l-111 134l-162 -134h-155zM507 2041q44 37 81.5 55.5t87.5 18.5q32 0 61 -7.5t65 -21.5q37 -13 62 -19.5t52 -6.5q38 0 69.5 14t70.5 41l15 -108
q-82 -57 -172 -57q-34 0 -60.5 6.5t-64.5 20.5q-33 13 -56.5 19t-50.5 6q-41 0 -70 -13.5t-71 -42.5z" />
    <glyph glyph-name="uni1EC5" unicode="&#x1ec5;" horiz-adv-x="1051" 
d="M263 29q-88 49 -135.5 142.5t-47.5 222.5q0 53 9 113q24 164 94.5 287.5t180.5 191.5t249 68q175 0 267.5 -102.5t92.5 -287.5q0 -57 -9 -122l-10 -68h-695q-6 -43 -6 -83q0 -123 59.5 -196.5t176.5 -73.5q93 0 162 45.5t110 134.5h162q-37 -105 -107 -177t-159.5 -108
t-186.5 -36q-119 0 -207 49zM805 597q6 39 6 75q0 112 -55 178t-164 66q-87 0 -154.5 -45.5t-108 -118.5t-51.5 -155h527zM621 1453h124l200 -228h-166l-111 134l-162 -134h-155zM384 1629q44 37 81.5 55.5t87.5 18.5q32 0 61 -7.5t65 -21.5q37 -13 62 -19.5t52 -6.5
q38 0 69.5 14t70.5 41l15 -108q-82 -57 -172 -57q-34 0 -60.5 6.5t-64.5 20.5q-33 13 -56.5 19t-50.5 6q-41 0 -70 -13.5t-71 -42.5z" />
    <glyph glyph-name="uni1EC6" unicode="&#x1ec6;" horiz-adv-x="1200" 
d="M323 1446h861l-25 -159h-685l-68 -479h617l-23 -157h-617l-70 -489l704 -1l-24 -161h-879zM446 -176h185l-27 -187h-185zM733 1865h124l200 -228h-166l-111 134l-162 -134h-155z" />
    <glyph glyph-name="uni1EC7" unicode="&#x1ec7;" horiz-adv-x="1051" 
d="M263 29q-88 49 -135.5 142.5t-47.5 222.5q0 53 9 113q24 164 94.5 287.5t180.5 191.5t249 68q175 0 267.5 -102.5t92.5 -287.5q0 -57 -9 -122l-10 -68h-695q-6 -43 -6 -83q0 -123 59.5 -196.5t176.5 -73.5q93 0 162 45.5t110 134.5h162q-37 -105 -107 -177t-159.5 -108
t-186.5 -36q-119 0 -207 49zM805 597q6 39 6 75q0 112 -55 178t-164 66q-87 0 -154.5 -45.5t-108 -118.5t-51.5 -155h527zM349 -176h185l-27 -187h-185zM610 1453h124l200 -228h-166l-111 134l-162 -134h-155z" />
    <glyph glyph-name="uni1EC8" unicode="&#x1ec8;" horiz-adv-x="548" 
d="M323 1446h175l-208 -1446h-174zM450 1669q36 23 57 51t21 56q0 14 -6 27q-7 16 -21.5 24.5t-33.5 8.5q-37 0 -81 -28l-40 82q73 45 141 45q43 0 76 -19t51 -55q18 -37 18 -75q0 -56 -37 -107.5t-106 -92.5z" />
    <glyph glyph-name="uni1EC9" unicode="&#x1ec9;" horiz-adv-x="510" 
d="M244 1034h175l-150 -1034h-174zM370 1257q36 23 57 51t21 56q0 14 -6 27q-7 16 -21.5 24.5t-33.5 8.5q-37 0 -81 -28l-40 82q73 45 141 45q43 0 76 -19t51 -55q18 -37 18 -75q0 -56 -37 -107.5t-106 -92.5z" />
    <glyph glyph-name="uni1ECA" unicode="&#x1eca;" horiz-adv-x="548" 
d="M323 1446h175l-208 -1446h-174zM98 -176h185l-27 -187h-185z" />
    <glyph glyph-name="uni1ECB" unicode="&#x1ecb;" horiz-adv-x="526" 
d="M303 1437h185l-28 -187h-185zM250 1034h174l-148 -1034h-175zM74 -176h185l-27 -187h-185z" />
    <glyph glyph-name="uni1ECC" unicode="&#x1ecc;" horiz-adv-x="1429" 
d="M367 44.5q-112 64.5 -170.5 189.5t-58.5 302q0 81 14 181q34 236 130 404.5t242.5 256.5t328.5 88q156 0 267 -65.5t169 -192t58 -305.5q0 -82 -14 -183q-34 -233 -128.5 -399.5t-239.5 -253.5t-327 -87q-159 0 -271 64.5zM978.5 280.5q122.5 143.5 163.5 437.5
q14 95 14 185q0 205 -83.5 305.5t-242.5 100.5q-193 0 -318 -147t-168 -444q-14 -101 -14 -177q0 -204 85.5 -304t247.5 -100q193 0 315.5 143.5zM530 -176h185l-27 -187h-185z" />
    <glyph glyph-name="uni1ECD" unicode="&#x1ecd;" horiz-adv-x="1073" 
d="M254 31q-85 51 -129 144.5t-44 219.5q0 55 9 115q23 160 95.5 283.5t184 192t247.5 68.5q119 0 203 -52.5t127.5 -148t43.5 -221.5q0 -57 -9 -119q-23 -157 -93.5 -278t-181 -188t-248.5 -67q-120 0 -205 51zM702 231q83 109 107 286q9 59 9 112q0 131 -55 207t-168 76
q-136 0 -221 -109t-110 -286q-8 -58 -8 -104q0 -134 56.5 -212.5t171.5 -78.5q135 0 218 109zM350 -176h185l-27 -187h-185z" />
    <glyph glyph-name="uni1ECE" unicode="&#x1ece;" horiz-adv-x="1429" 
d="M367 44.5q-112 64.5 -170.5 189.5t-58.5 302q0 81 14 181q34 236 130 404.5t242.5 256.5t328.5 88q156 0 267 -65.5t169 -192t58 -305.5q0 -82 -14 -183q-34 -233 -128.5 -399.5t-239.5 -253.5t-327 -87q-159 0 -271 64.5zM978.5 280.5q122.5 143.5 163.5 437.5
q14 95 14 185q0 205 -83.5 305.5t-242.5 100.5q-193 0 -318 -147t-168 -444q-14 -101 -14 -177q0 -204 85.5 -304t247.5 -100q193 0 315.5 143.5zM883 1669q36 23 57 51t21 56q0 14 -6 27q-7 16 -21.5 24.5t-33.5 8.5q-37 0 -81 -28l-40 82q73 45 141 45q43 0 76 -19t51 -55
q18 -37 18 -75q0 -56 -37 -107.5t-106 -92.5z" />
    <glyph glyph-name="uni1ECF" unicode="&#x1ecf;" horiz-adv-x="1073" 
d="M254 31q-85 51 -129 144.5t-44 219.5q0 55 9 115q23 160 95.5 283.5t184 192t247.5 68.5q119 0 203 -52.5t127.5 -148t43.5 -221.5q0 -57 -9 -119q-23 -157 -93.5 -278t-181 -188t-248.5 -67q-120 0 -205 51zM702 231q83 109 107 286q9 59 9 112q0 131 -55 207t-168 76
q-136 0 -221 -109t-110 -286q-8 -58 -8 -104q0 -134 56.5 -212.5t171.5 -78.5q135 0 218 109zM652 1257q36 23 57 51t21 56q0 14 -6 27q-7 16 -21.5 24.5t-33.5 8.5q-37 0 -81 -28l-40 82q73 45 141 45q43 0 76 -19t51 -55q18 -37 18 -75q0 -56 -37 -107.5t-106 -92.5z" />
    <glyph glyph-name="uni1ED0" unicode="&#x1ed0;" horiz-adv-x="1429" 
d="M367 44.5q-112 64.5 -170.5 189.5t-58.5 302q0 81 14 181q34 236 130 404.5t242.5 256.5t328.5 88q156 0 267 -65.5t169 -192t58 -305.5q0 -82 -14 -183q-34 -233 -128.5 -399.5t-239.5 -253.5t-327 -87q-159 0 -271 64.5zM978.5 280.5q122.5 143.5 163.5 437.5
q14 95 14 185q0 205 -83.5 305.5t-242.5 100.5q-193 0 -318 -147t-168 -444q-14 -101 -14 -177q0 -204 85.5 -304t247.5 -100q193 0 315.5 143.5zM851 1865h124l200 -228h-166l-111 134l-162 -134h-155zM632 2022l488 194l23 -138l-496 -148z" />
    <glyph glyph-name="uni1ED1" unicode="&#x1ed1;" horiz-adv-x="1073" 
d="M254 31q-85 51 -129 144.5t-44 219.5q0 55 9 115q23 160 95.5 283.5t184 192t247.5 68.5q119 0 203 -52.5t127.5 -148t43.5 -221.5q0 -57 -9 -119q-23 -157 -93.5 -278t-181 -188t-248.5 -67q-120 0 -205 51zM702 231q83 109 107 286q9 59 9 112q0 131 -55 207t-168 76
q-136 0 -221 -109t-110 -286q-8 -58 -8 -104q0 -134 56.5 -212.5t171.5 -78.5q135 0 218 109zM620 1453h124l200 -228h-166l-111 134l-162 -134h-155zM401 1610l488 194l23 -138l-496 -148z" />
    <glyph glyph-name="uni1ED2" unicode="&#x1ed2;" horiz-adv-x="1429" 
d="M367 44.5q-112 64.5 -170.5 189.5t-58.5 302q0 81 14 181q34 236 130 404.5t242.5 256.5t328.5 88q156 0 267 -65.5t169 -192t58 -305.5q0 -82 -14 -183q-34 -233 -128.5 -399.5t-239.5 -253.5t-327 -87q-159 0 -271 64.5zM978.5 280.5q122.5 143.5 163.5 437.5
q14 95 14 185q0 205 -83.5 305.5t-242.5 100.5q-193 0 -318 -147t-168 -444q-14 -101 -14 -177q0 -204 85.5 -304t247.5 -100q193 0 315.5 143.5zM847 1865h124l200 -228h-166l-111 134l-162 -134h-155zM641 2071l65 138l433 -194l-43 -92z" />
    <glyph glyph-name="uni1ED3" unicode="&#x1ed3;" horiz-adv-x="1073" 
d="M254 31q-85 51 -129 144.5t-44 219.5q0 55 9 115q23 160 95.5 283.5t184 192t247.5 68.5q119 0 203 -52.5t127.5 -148t43.5 -221.5q0 -57 -9 -119q-23 -157 -93.5 -278t-181 -188t-248.5 -67q-120 0 -205 51zM702 231q83 109 107 286q9 59 9 112q0 131 -55 207t-168 76
q-136 0 -221 -109t-110 -286q-8 -58 -8 -104q0 -134 56.5 -212.5t171.5 -78.5q135 0 218 109zM616 1453h124l200 -228h-166l-111 134l-162 -134h-155zM410 1659l65 138l433 -194l-43 -92z" />
    <glyph glyph-name="uni1ED4" unicode="&#x1ed4;" horiz-adv-x="1429" 
d="M367 44.5q-112 64.5 -170.5 189.5t-58.5 302q0 81 14 181q34 236 130 404.5t242.5 256.5t328.5 88q156 0 267 -65.5t169 -192t58 -305.5q0 -82 -14 -183q-34 -233 -128.5 -399.5t-239.5 -253.5t-327 -87q-159 0 -271 64.5zM978.5 280.5q122.5 143.5 163.5 437.5
q14 95 14 185q0 205 -83.5 305.5t-242.5 100.5q-193 0 -318 -147t-168 -444q-14 -101 -14 -177q0 -204 85.5 -304t247.5 -100q193 0 315.5 143.5zM833 1865h124l200 -228h-166l-111 134l-162 -134h-155zM1051 1907q36 23 57 51t21 56q0 14 -6 27q-7 16 -21.5 24.5t-33.5 8.5
q-37 0 -81 -28l-40 82q73 45 141 45q43 0 76 -19t51 -55q18 -37 18 -75q0 -56 -37 -107.5t-106 -92.5z" />
    <glyph glyph-name="uni1ED5" unicode="&#x1ed5;" horiz-adv-x="1073" 
d="M254 31q-85 51 -129 144.5t-44 219.5q0 55 9 115q23 160 95.5 283.5t184 192t247.5 68.5q119 0 203 -52.5t127.5 -148t43.5 -221.5q0 -57 -9 -119q-23 -157 -93.5 -278t-181 -188t-248.5 -67q-120 0 -205 51zM702 231q83 109 107 286q9 59 9 112q0 131 -55 207t-168 76
q-136 0 -221 -109t-110 -286q-8 -58 -8 -104q0 -134 56.5 -212.5t171.5 -78.5q135 0 218 109zM602 1453h124l200 -228h-166l-111 134l-162 -134h-155zM820 1495q36 23 57 51t21 56q0 14 -6 27q-7 16 -21.5 24.5t-33.5 8.5q-37 0 -81 -28l-40 82q73 45 141 45q43 0 76 -19
t51 -55q18 -37 18 -75q0 -56 -37 -107.5t-106 -92.5z" />
    <glyph glyph-name="uni1ED6" unicode="&#x1ed6;" horiz-adv-x="1429" 
d="M367 44.5q-112 64.5 -170.5 189.5t-58.5 302q0 81 14 181q34 236 130 404.5t242.5 256.5t328.5 88q156 0 267 -65.5t169 -192t58 -305.5q0 -82 -14 -183q-34 -233 -128.5 -399.5t-239.5 -253.5t-327 -87q-159 0 -271 64.5zM978.5 280.5q122.5 143.5 163.5 437.5
q14 95 14 185q0 205 -83.5 305.5t-242.5 100.5q-193 0 -318 -147t-168 -444q-14 -101 -14 -177q0 -204 85.5 -304t247.5 -100q193 0 315.5 143.5zM856 1865h124l200 -228h-166l-111 134l-162 -134h-155zM619 2041q44 37 81.5 55.5t87.5 18.5q32 0 61 -7.5t65 -21.5
q37 -13 62 -19.5t52 -6.5q38 0 69.5 14t70.5 41l15 -108q-82 -57 -172 -57q-34 0 -60.5 6.5t-64.5 20.5q-33 13 -56.5 19t-50.5 6q-41 0 -70 -13.5t-71 -42.5z" />
    <glyph glyph-name="uni1ED7" unicode="&#x1ed7;" horiz-adv-x="1073" 
d="M254 31q-85 51 -129 144.5t-44 219.5q0 55 9 115q23 160 95.5 283.5t184 192t247.5 68.5q119 0 203 -52.5t127.5 -148t43.5 -221.5q0 -57 -9 -119q-23 -157 -93.5 -278t-181 -188t-248.5 -67q-120 0 -205 51zM702 231q83 109 107 286q9 59 9 112q0 131 -55 207t-168 76
q-136 0 -221 -109t-110 -286q-8 -58 -8 -104q0 -134 56.5 -212.5t171.5 -78.5q135 0 218 109zM625 1453h124l200 -228h-166l-111 134l-162 -134h-155zM388 1629q44 37 81.5 55.5t87.5 18.5q32 0 61 -7.5t65 -21.5q37 -13 62 -19.5t52 -6.5q38 0 69.5 14t70.5 41l15 -108
q-82 -57 -172 -57q-34 0 -60.5 6.5t-64.5 20.5q-33 13 -56.5 19t-50.5 6q-41 0 -70 -13.5t-71 -42.5z" />
    <glyph glyph-name="uni1ED8" unicode="&#x1ed8;" horiz-adv-x="1429" 
d="M367 44.5q-112 64.5 -170.5 189.5t-58.5 302q0 81 14 181q34 236 130 404.5t242.5 256.5t328.5 88q156 0 267 -65.5t169 -192t58 -305.5q0 -82 -14 -183q-34 -233 -128.5 -399.5t-239.5 -253.5t-327 -87q-159 0 -271 64.5zM978.5 280.5q122.5 143.5 163.5 437.5
q14 95 14 185q0 205 -83.5 305.5t-242.5 100.5q-193 0 -318 -147t-168 -444q-14 -101 -14 -177q0 -204 85.5 -304t247.5 -100q193 0 315.5 143.5zM530 -176h185l-27 -187h-185zM845 1865h124l200 -228h-166l-111 134l-162 -134h-155z" />
    <glyph glyph-name="uni1ED9" unicode="&#x1ed9;" horiz-adv-x="1073" 
d="M254 31q-85 51 -129 144.5t-44 219.5q0 55 9 115q23 160 95.5 283.5t184 192t247.5 68.5q119 0 203 -52.5t127.5 -148t43.5 -221.5q0 -57 -9 -119q-23 -157 -93.5 -278t-181 -188t-248.5 -67q-120 0 -205 51zM702 231q83 109 107 286q9 59 9 112q0 131 -55 207t-168 76
q-136 0 -221 -109t-110 -286q-8 -58 -8 -104q0 -134 56.5 -212.5t171.5 -78.5q135 0 218 109zM350 -176h185l-27 -187h-185zM614 1453h124l200 -228h-166l-111 134l-162 -134h-155z" />
    <glyph glyph-name="uni1EDA" unicode="&#x1eda;" horiz-adv-x="1522" 
d="M1486.5 1248.5q-62.5 -73.5 -182.5 -78.5q43 -117 43 -267q0 -82 -14 -183q-34 -233 -128.5 -399.5t-239.5 -253.5t-327 -87q-159 0 -271 64.5t-170.5 189.5t-58.5 302q0 81 14 181q34 236 130 404.5t242.5 256.5t328.5 88q129 0 228 -45.5t162 -133.5q62 -1 95 11
t55 52.5t39 126.5h140q-23 -155 -85.5 -228.5zM1156 903q0 205 -83.5 305.5t-242.5 100.5q-193 0 -318 -147t-168 -444q-14 -101 -14 -177q0 -204 85.5 -304t247.5 -100q193 0 315.5 143.5t163.5 437.5q14 95 14 185zM628 1683l488 194l23 -138l-496 -148z" />
    <glyph glyph-name="uni1EDB" unicode="&#x1edb;" horiz-adv-x="1283" 
d="M412 1179l-15 92l488 194l23 -138zM1180 770.5q-65 -73.5 -192 -74.5q3 -31 3 -66q0 -57 -9 -117q-23 -157 -93.5 -278t-181 -188t-248.5 -67q-120 0 -205 51t-129 144.5t-44 219.5q0 55 9 115q23 160 95.5 283.5t184 192t247.5 68.5q131 0 220 -63.5t127 -177.5
q51 1 80.5 15t49.5 54t36 121h139q-24 -159 -89 -232.5zM818 629q0 131 -55 207t-168 76q-136 0 -221 -109t-110 -286q-8 -58 -8 -104q0 -134 56.5 -212.5t171.5 -78.5q135 0 218 109t107 286q9 59 9 112z" />
    <glyph glyph-name="uni1EDC" unicode="&#x1edc;" horiz-adv-x="1522" 
d="M1486.5 1248.5q-62.5 -73.5 -182.5 -78.5q43 -117 43 -267q0 -82 -14 -183q-34 -233 -128.5 -399.5t-239.5 -253.5t-327 -87q-159 0 -271 64.5t-170.5 189.5t-58.5 302q0 81 14 181q34 236 130 404.5t242.5 256.5t328.5 88q129 0 228 -45.5t162 -133.5q62 -1 95 11
t55 52.5t39 126.5h140q-23 -155 -85.5 -228.5zM1156 903q0 205 -83.5 305.5t-242.5 100.5q-193 0 -318 -147t-168 -444q-14 -101 -14 -177q0 -204 85.5 -304t247.5 -100q193 0 315.5 143.5t163.5 437.5q14 95 14 185zM612 1739l65 138l433 -194l-43 -92z" />
    <glyph glyph-name="uni1EDD" unicode="&#x1edd;" horiz-adv-x="1283" 
d="M836 1179l-455 148l65 138l433 -194zM1180 770.5q-65 -73.5 -192 -74.5q3 -31 3 -66q0 -57 -9 -117q-23 -157 -93.5 -278t-181 -188t-248.5 -67q-120 0 -205 51t-129 144.5t-44 219.5q0 55 9 115q23 160 95.5 283.5t184 192t247.5 68.5q131 0 220 -63.5t127 -177.5
q51 1 80.5 15t49.5 54t36 121h139q-24 -159 -89 -232.5zM818 629q0 131 -55 207t-168 76q-136 0 -221 -109t-110 -286q-8 -58 -8 -104q0 -134 56.5 -212.5t171.5 -78.5q135 0 218 109t107 286q9 59 9 112z" />
    <glyph glyph-name="uni1EDE" unicode="&#x1ede;" horiz-adv-x="1522" 
d="M1486.5 1248.5q-62.5 -73.5 -182.5 -78.5q43 -117 43 -267q0 -82 -14 -183q-34 -233 -128.5 -399.5t-239.5 -253.5t-327 -87q-159 0 -271 64.5t-170.5 189.5t-58.5 302q0 81 14 181q34 236 130 404.5t242.5 256.5t328.5 88q129 0 228 -45.5t162 -133.5q62 -1 95 11
t55 52.5t39 126.5h140q-23 -155 -85.5 -228.5zM1156 903q0 205 -83.5 305.5t-242.5 100.5q-193 0 -318 -147t-168 -444q-14 -101 -14 -177q0 -204 85.5 -304t247.5 -100q193 0 315.5 143.5t163.5 437.5q14 95 14 185zM883 1669q36 23 57 51t21 56q0 14 -6 27
q-7 16 -21.5 24.5t-33.5 8.5q-37 0 -81 -28l-40 82q73 45 141 45q43 0 76 -19t51 -55q18 -37 18 -75q0 -56 -37 -107.5t-106 -92.5z" />
    <glyph glyph-name="uni1EDF" unicode="&#x1edf;" horiz-adv-x="1283" 
d="M702.5 1415.5q-14.5 8.5 -33.5 8.5q-37 0 -81 -28l-40 82q73 45 141 45q43 0 76 -19t51 -55q18 -38 18 -75q0 -56 -37 -107.5t-106 -92.5l-39 83q36 23 57 51t21 56q0 14 -6 27q-7 16 -21.5 24.5zM1180 770.5q-65 -73.5 -192 -74.5q3 -31 3 -66q0 -57 -9 -117
q-23 -157 -93.5 -278t-181 -188t-248.5 -67q-120 0 -205 51t-129 144.5t-44 219.5q0 55 9 115q23 160 95.5 283.5t184 192t247.5 68.5q131 0 220 -63.5t127 -177.5q51 1 80.5 15t49.5 54t36 121h139q-24 -159 -89 -232.5zM818 629q0 131 -55 207t-168 76q-136 0 -221 -109
t-110 -286q-8 -58 -8 -104q0 -134 56.5 -212.5t171.5 -78.5q135 0 218 109t107 286q9 59 9 112z" />
    <glyph glyph-name="uni1EE0" unicode="&#x1ee0;" horiz-adv-x="1522" 
d="M1486.5 1248.5q-62.5 -73.5 -182.5 -78.5q43 -117 43 -267q0 -82 -14 -183q-34 -233 -128.5 -399.5t-239.5 -253.5t-327 -87q-159 0 -271 64.5t-170.5 189.5t-58.5 302q0 81 14 181q34 236 130 404.5t242.5 256.5t328.5 88q129 0 228 -45.5t162 -133.5q62 -1 95 11
t55 52.5t39 126.5h140q-23 -155 -85.5 -228.5zM1156 903q0 205 -83.5 305.5t-242.5 100.5q-193 0 -318 -147t-168 -444q-14 -101 -14 -177q0 -204 85.5 -304t247.5 -100q193 0 315.5 143.5t163.5 437.5q14 95 14 185zM612 1775q44 37 81.5 55.5t87.5 18.5q32 0 61 -7.5
t65 -21.5q37 -13 62 -19.5t52 -6.5q38 0 69.5 14t70.5 41l15 -108q-82 -57 -172 -57q-34 0 -60.5 6.5t-64.5 20.5q-33 13 -56.5 19t-50.5 6q-41 0 -70 -13.5t-71 -42.5z" />
    <glyph glyph-name="uni1EE1" unicode="&#x1ee1;" horiz-adv-x="1283" 
d="M471 1310.5q-29 -13.5 -71 -42.5l-19 95q44 37 81.5 55.5t87.5 18.5q32 0 61 -7.5t65 -21.5q37 -13 62 -19.5t52 -6.5q38 0 69.5 14t70.5 41l15 -108q-82 -57 -172 -57q-34 0 -60.5 6.5t-64.5 20.5q-33 13 -56.5 19t-50.5 6q-41 0 -70 -13.5zM1180 770.5
q-65 -73.5 -192 -74.5q3 -31 3 -66q0 -57 -9 -117q-23 -157 -93.5 -278t-181 -188t-248.5 -67q-120 0 -205 51t-129 144.5t-44 219.5q0 55 9 115q23 160 95.5 283.5t184 192t247.5 68.5q131 0 220 -63.5t127 -177.5q51 1 80.5 15t49.5 54t36 121h139q-24 -159 -89 -232.5z
M818 629q0 131 -55 207t-168 76q-136 0 -221 -109t-110 -286q-8 -58 -8 -104q0 -134 56.5 -212.5t171.5 -78.5q135 0 218 109t107 286q9 59 9 112z" />
    <glyph glyph-name="uni1EE2" unicode="&#x1ee2;" horiz-adv-x="1522" 
d="M1486.5 1248.5q-62.5 -73.5 -182.5 -78.5q43 -117 43 -267q0 -82 -14 -183q-34 -233 -128.5 -399.5t-239.5 -253.5t-327 -87q-159 0 -271 64.5t-170.5 189.5t-58.5 302q0 81 14 181q34 236 130 404.5t242.5 256.5t328.5 88q129 0 228 -45.5t162 -133.5q62 -1 95 11
t55 52.5t39 126.5h140q-23 -155 -85.5 -228.5zM1156 903q0 205 -83.5 305.5t-242.5 100.5q-193 0 -318 -147t-168 -444q-14 -101 -14 -177q0 -204 85.5 -304t247.5 -100q193 0 315.5 143.5t163.5 437.5q14 95 14 185zM530 -176h185l-27 -187h-185z" />
    <glyph glyph-name="uni1EE3" unicode="&#x1ee3;" horiz-adv-x="1283" 
d="M1180 770.5q-65 -73.5 -192 -74.5q3 -31 3 -66q0 -57 -9 -117q-23 -157 -93.5 -278t-181 -188t-248.5 -67q-120 0 -205 51t-129 144.5t-44 219.5q0 55 9 115q23 160 95.5 283.5t184 192t247.5 68.5q131 0 220 -63.5t127 -177.5q51 1 80.5 15t49.5 54t36 121h139
q-24 -159 -89 -232.5zM818 629q0 131 -55 207t-168 76q-136 0 -221 -109t-110 -286q-8 -58 -8 -104q0 -134 56.5 -212.5t171.5 -78.5q135 0 218 109t107 286q9 59 9 112zM349 -176h186l-27 -187h-186z" />
    <glyph glyph-name="uni1EE4" unicode="&#x1ee4;" horiz-adv-x="1365" 
d="M280.5 79q-104.5 99 -104.5 296q0 62 11 142l134 929h180l-137 -957q-7 -43 -7 -88q0 -131 70 -197.5t204 -66.5q156 0 252.5 88t121.5 264l137 957h176l-136 -949q-37 -255 -177 -386t-397 -131q-223 0 -327.5 99zM496 -173h185l-27 -187h-185z" />
    <glyph glyph-name="uni1EE5" unicode="&#x1ee5;" horiz-adv-x="1124" 
d="M292.5 11.5q-73.5 30.5 -121 96.5t-47.5 165q0 33 4 61l102 703h175l-100 -685q-3 -22 -3 -44q0 -96 59 -141t141 -45q64 0 122 27t98 81.5t52 132.5l97 674h174l-150 -1036h-138l9 198q-26 -72 -77 -121t-114.5 -73t-128.5 -24q-80 0 -153.5 30.5zM374 -176h185
l-27 -187h-185z" />
    <glyph glyph-name="uni1EE6" unicode="&#x1ee6;" horiz-adv-x="1365" 
d="M280.5 79q-104.5 99 -104.5 296q0 62 11 142l134 929h180l-137 -957q-7 -43 -7 -88q0 -131 70 -197.5t204 -66.5q156 0 252.5 88t121.5 264l137 957h176l-136 -949q-37 -255 -177 -386t-397 -131q-223 0 -327.5 99zM858 1669q36 23 57 51t21 56q0 14 -6 27
q-7 16 -21.5 24.5t-33.5 8.5q-37 0 -81 -28l-40 82q73 45 141 45q43 0 76 -19t51 -55q18 -37 18 -75q0 -56 -37 -107.5t-106 -92.5z" />
    <glyph glyph-name="uni1EE7" unicode="&#x1ee7;" horiz-adv-x="1124" 
d="M292.5 11.5q-73.5 30.5 -121 96.5t-47.5 165q0 33 4 61l102 703h175l-100 -685q-3 -22 -3 -44q0 -96 59 -141t141 -45q64 0 122 27t98 81.5t52 132.5l97 674h174l-150 -1036h-138l9 198q-26 -72 -77 -121t-114.5 -73t-128.5 -24q-80 0 -153.5 30.5zM674 1257q36 23 57 51
t21 56q0 14 -6 27q-7 16 -21.5 24.5t-33.5 8.5q-37 0 -81 -28l-40 82q73 45 141 45q43 0 76 -19t51 -55q18 -37 18 -75q0 -56 -37 -107.5t-106 -92.5z" />
    <glyph glyph-name="uni1EE8" unicode="&#x1ee8;" horiz-adv-x="1575" 
d="M618 1591l-15 92l488 194l23 -138zM1587 1477q-24 -160 -89.5 -233.5t-192.5 -73.5l-26 1l-97 -674q-37 -255 -177 -386t-397 -131q-223 0 -327.5 99t-104.5 296q0 62 11 142l134 929h180l-137 -957q-7 -43 -7 -88q0 -131 70 -197.5t204 -66.5q156 0 252.5 88t121.5 264
l137 957h176l-23 -159q46 3 73 18.5t46 55t34 116.5h139z" />
    <glyph glyph-name="uni1EE9" unicode="&#x1ee9;" horiz-adv-x="1334" 
d="M434 1179l-15 92l488 194l23 -138zM1323 1113q-24 -160 -89.5 -233.5t-192.5 -73.5q-19 0 -29 1l-117 -806h-138l9 198q-26 -72 -77 -121t-114.5 -73t-128.5 -24q-80 0 -153.5 30.5t-121 96.5t-47.5 166q0 32 4 60l102 703h175l-100 -685q-3 -22 -3 -44q0 -96 59 -141
t141 -45q64 0 122 27t98 81.5t52 132.5l97 674h174l-16 -114q46 2 73.5 17.5t47 55.5t34.5 117h139z" />
    <glyph glyph-name="uni1EEA" unicode="&#x1eea;" horiz-adv-x="1575" 
d="M1042 1591l-455 148l65 138l433 -194zM1587 1477q-24 -160 -89.5 -233.5t-192.5 -73.5l-26 1l-97 -674q-37 -255 -177 -386t-397 -131q-223 0 -327.5 99t-104.5 296q0 62 11 142l134 929h180l-137 -957q-7 -43 -7 -88q0 -131 70 -197.5t204 -66.5q156 0 252.5 88
t121.5 264l137 957h176l-23 -159q46 3 73 18.5t46 55t34 116.5h139z" />
    <glyph glyph-name="uni1EEB" unicode="&#x1eeb;" horiz-adv-x="1334" 
d="M858 1179l-455 148l65 138l433 -194zM1323 1113q-24 -160 -89.5 -233.5t-192.5 -73.5q-19 0 -29 1l-117 -806h-138l9 198q-26 -72 -77 -121t-114.5 -73t-128.5 -24q-80 0 -153.5 30.5t-121 96.5t-47.5 166q0 32 4 60l102 703h175l-100 -685q-3 -22 -3 -44q0 -96 59 -141
t141 -45q64 0 122 27t98 81.5t52 132.5l97 674h174l-16 -114q46 2 73.5 17.5t47 55.5t34.5 117h139z" />
    <glyph glyph-name="uni1EEC" unicode="&#x1eec;" horiz-adv-x="1575" 
d="M908.5 1827.5q-14.5 8.5 -33.5 8.5q-37 0 -81 -28l-40 82q73 45 141 45q43 0 76 -19t51 -55q18 -37 18 -75q0 -56 -37 -107.5t-106 -92.5l-39 83q36 23 57 51t21 56q0 14 -6 27q-7 16 -21.5 24.5zM1587 1477q-24 -160 -89.5 -233.5t-192.5 -73.5l-26 1l-97 -674
q-37 -255 -177 -386t-397 -131q-223 0 -327.5 99t-104.5 296q0 62 11 142l134 929h180l-137 -957q-7 -43 -7 -88q0 -131 70 -197.5t204 -66.5q156 0 252.5 88t121.5 264l137 957h176l-23 -159q46 3 73 18.5t46 55t34 116.5h139z" />
    <glyph glyph-name="uni1EED" unicode="&#x1eed;" horiz-adv-x="1334" 
d="M724.5 1415.5q-14.5 8.5 -33.5 8.5q-37 0 -81 -28l-40 82q73 45 141 45q43 0 76 -19t51 -55q18 -37 18 -75q0 -56 -37 -107.5t-106 -92.5l-39 83q36 23 57 51t21 56q0 14 -6 27q-7 16 -21.5 24.5zM1323 1113q-24 -160 -89.5 -233.5t-192.5 -73.5q-19 0 -29 1l-117 -806
h-138l9 198q-26 -72 -77 -121t-114.5 -73t-128.5 -24q-80 0 -153.5 30.5t-121 96.5t-47.5 166q0 32 4 60l102 703h175l-100 -685q-3 -22 -3 -44q0 -96 59 -141t141 -45q64 0 122 27t98 81.5t52 132.5l97 674h174l-16 -114q46 2 73.5 17.5t47 55.5t34.5 117h139z" />
    <glyph glyph-name="uni1EEE" unicode="&#x1eee;" horiz-adv-x="1575" 
d="M677 1722.5q-29 -13.5 -71 -42.5l-19 95q44 37 81.5 55.5t87.5 18.5q32 0 61 -7.5t65 -21.5q37 -13 62 -19.5t52 -6.5q38 0 69.5 14t70.5 41l15 -108q-82 -57 -172 -57q-34 0 -60.5 6.5t-64.5 20.5q-33 13 -56.5 19t-50.5 6q-41 0 -70 -13.5zM1587 1477
q-24 -160 -89.5 -233.5t-192.5 -73.5l-26 1l-97 -674q-37 -255 -177 -386t-397 -131q-223 0 -327.5 99t-104.5 296q0 62 11 142l134 929h180l-137 -957q-7 -43 -7 -88q0 -131 70 -197.5t204 -66.5q156 0 252.5 88t121.5 264l137 957h176l-23 -159q46 3 73 18.5t46 55
t34 116.5h139z" />
    <glyph glyph-name="uni1EEF" unicode="&#x1eef;" horiz-adv-x="1334" 
d="M493 1310.5q-29 -13.5 -71 -42.5l-19 95q44 37 81.5 55.5t87.5 18.5q32 0 61 -7.5t65 -21.5q37 -13 62 -19.5t52 -6.5q38 0 69.5 14t70.5 41l15 -108q-82 -57 -172 -57q-34 0 -60.5 6.5t-64.5 20.5q-33 13 -56.5 19t-50.5 6q-41 0 -70 -13.5zM1323 1113
q-24 -160 -89.5 -233.5t-192.5 -73.5q-19 0 -29 1l-117 -806h-138l9 198q-26 -72 -77 -121t-114.5 -73t-128.5 -24q-80 0 -153.5 30.5t-121 96.5t-47.5 166q0 32 4 60l102 703h175l-100 -685q-3 -22 -3 -44q0 -96 59 -141t141 -45q64 0 122 27t98 81.5t52 132.5l97 674h174
l-16 -114q46 2 73.5 17.5t47 55.5t34.5 117h139z" />
    <glyph glyph-name="uni1EF0" unicode="&#x1ef0;" horiz-adv-x="1575" 
d="M1587 1477q-24 -160 -89.5 -233.5t-192.5 -73.5l-26 1l-97 -674q-37 -255 -177 -386t-397 -131q-223 0 -327.5 99t-104.5 296q0 62 11 142l134 929h180l-137 -957q-7 -43 -7 -88q0 -131 70 -197.5t204 -66.5q156 0 252.5 88t121.5 264l137 957h176l-23 -159q46 3 73 18.5
t46 55t34 116.5h139zM495 -173h186l-27 -187h-186z" />
    <glyph glyph-name="uni1EF1" unicode="&#x1ef1;" horiz-adv-x="1334" 
d="M1323 1113q-24 -160 -89.5 -233.5t-192.5 -73.5q-19 0 -29 1l-117 -806h-138l9 198q-26 -72 -77 -121t-114.5 -73t-128.5 -24q-80 0 -153.5 30.5t-121 96.5t-47.5 166q0 32 4 60l102 703h175l-100 -685q-3 -22 -3 -44q0 -96 59 -141t141 -45q64 0 122 27t98 81.5
t52 132.5l97 674h174l-16 -114q46 2 73.5 17.5t47 55.5t34.5 117h139zM373 -176h186l-27 -187h-186z" />
    <glyph glyph-name="Ygrave" unicode="&#x1ef2;" horiz-adv-x="1134" 
d="M492 617l-344 829h190l266 -669l454 669h191l-582 -830l-90 -616h-172zM459 1742l65 138l433 -194l-43 -92z" />
    <glyph glyph-name="ygrave" unicode="&#x1ef3;" horiz-adv-x="1008" 
d="M23.5 -322.5q-37.5 7.5 -53.5 17.5l17 116l101 -1q97 -4 143.5 28.5t72.5 85.5l49 100l-236 1010h176l173 -805l401 805h170l-571 -1116q-74 -138 -158 -193t-192 -55q-55 0 -92.5 7.5zM362 1327l65 138l433 -194l-43 -92z" />
    <glyph glyph-name="uni1EF4" unicode="&#x1ef4;" horiz-adv-x="1134" 
d="M492 617l-344 829h190l266 -669l454 669h191l-582 -830l-90 -616h-172zM379 -176h185l-27 -187h-185z" />
    <glyph glyph-name="uni1EF5" unicode="&#x1ef5;" horiz-adv-x="1008" 
d="M23.5 -322.5q-37.5 7.5 -53.5 17.5l17 116l101 -1q97 -4 143.5 28.5t72.5 85.5l49 100l-236 1010h176l173 -805l401 805h170l-571 -1116q-74 -138 -158 -193t-192 -55q-55 0 -92.5 7.5zM340 -384h185l-27 -187h-185z" />
    <glyph glyph-name="uni1EF6" unicode="&#x1ef6;" horiz-adv-x="1134" 
d="M492 617l-344 829h190l266 -669l454 669h191l-582 -830l-90 -616h-172zM730 1672q36 23 57 51t21 56q0 14 -6 27q-7 16 -21.5 24.5t-33.5 8.5q-37 0 -81 -28l-40 82q73 45 141 45q43 0 76 -19t51 -55q18 -37 18 -75q0 -56 -37 -107.5t-106 -92.5z" />
    <glyph glyph-name="uni1EF7" unicode="&#x1ef7;" horiz-adv-x="1008" 
d="M23.5 -322.5q-37.5 7.5 -53.5 17.5l17 116l101 -1q97 -4 143.5 28.5t72.5 85.5l49 100l-236 1010h176l173 -805l401 805h170l-571 -1116q-74 -138 -158 -193t-192 -55q-55 0 -92.5 7.5zM634 1257q36 23 57 51t21 56q0 14 -6 27q-7 16 -21.5 24.5t-33.5 8.5q-37 0 -81 -28
l-40 82q73 45 141 45q43 0 76 -19t51 -55q18 -37 18 -75q0 -56 -37 -107.5t-106 -92.5z" />
    <glyph glyph-name="uni1EF8" unicode="&#x1ef8;" horiz-adv-x="1134" 
d="M492 617l-344 829h190l266 -669l454 669h191l-582 -830l-90 -616h-172zM459 1778q44 37 81.5 55.5t87.5 18.5q32 0 61 -7.5t65 -21.5q37 -13 62 -19.5t52 -6.5q38 0 69.5 14t70.5 41l15 -108q-82 -57 -172 -57q-34 0 -60.5 6.5t-64.5 20.5q-33 13 -56.5 19t-50.5 6
q-41 0 -70 -13.5t-71 -42.5z" />
    <glyph glyph-name="uni1EF9" unicode="&#x1ef9;" horiz-adv-x="1008" 
d="M23.5 -322.5q-37.5 7.5 -53.5 17.5l17 116l101 -1q97 -4 143.5 28.5t72.5 85.5l49 100l-236 1010h176l173 -805l401 805h170l-571 -1116q-74 -138 -158 -193t-192 -55q-55 0 -92.5 7.5zM362 1363q44 37 81.5 55.5t87.5 18.5q32 0 61 -7.5t65 -21.5q37 -13 62 -19.5
t52 -6.5q38 0 69.5 14t70.5 41l15 -108q-82 -57 -172 -57q-34 0 -60.5 6.5t-64.5 20.5q-33 13 -56.5 19t-50.5 6q-41 0 -70 -13.5t-71 -42.5z" />
    <glyph glyph-name="endash" unicode="&#x2013;" horiz-adv-x="1070" 
d="M132 572l815 1l-20 -141l-815 -2z" />
    <glyph glyph-name="emdash" unicode="&#x2014;" horiz-adv-x="1664" 
d="M133 572l1409 1l-22 -141l-1409 -2z" />
    <glyph glyph-name="quoteleft" unicode="&#x2018;" horiz-adv-x="484" 
d="M355 1263l82 -5l-26 -216h-221l24 189l192 278h82z" />
    <glyph glyph-name="quoteright" unicode="&#x2019;" horiz-adv-x="427" 
d="M302 1226l-84 4l17 216h226l-15 -189l-184 -278h-85z" />
    <glyph glyph-name="quotesinglbase" unicode="&#x201a;" horiz-adv-x="480" 
d="M122 -3l-84 5l31 218h229l-28 -189l-206 -279h-85z" />
    <glyph glyph-name="quotedblleft" unicode="&#x201c;" horiz-adv-x="821" 
d="M537 1201l85 -5l-17 -217h-258l15 190l186 277h115z" />
    <glyph glyph-name="quotedblright" unicode="&#x201d;" horiz-adv-x="779" 
d="M302 1226l-84 4l17 216h226l-15 -189l-184 -278h-85zM656 1226l-84 4l16 216h226l-15 -189l-184 -278h-86z" />
    <glyph glyph-name="quotedblbase" unicode="&#x201e;" horiz-adv-x="843" 
d="M486 -3l-84 5l31 218h229l-28 -189l-206 -279h-85zM122 -3l-84 5l31 218h229l-28 -189l-206 -279h-85z" />
    <glyph glyph-name="dagger" unicode="&#x2020;" horiz-adv-x="865" 
d="M413 803l-347 -27l25 169l332 -23l48 524h183l-104 -524l340 23l-26 -169l-340 27l-125 -1125h-181z" />
    <glyph glyph-name="daggerdbl" unicode="&#x2021;" horiz-adv-x="867" 
d="M321 190l-341 -24l26 170l338 -27l69 480l-346 -26l24 168l333 -23l50 538h182l-105 -538l339 23l-25 -168l-339 26l-68 -480l347 27l-26 -170l-333 24l-43 -512h-183z" />
    <glyph glyph-name="bullet" unicode="&#x2022;" horiz-adv-x="633" 
d="M245 568q-44 26 -69.5 70.5t-25.5 97.5q0 52 25.5 96t69.5 70t97 26t97 -26t70 -70t26 -96q0 -53 -26 -97.5t-70 -70.5t-97 -26t-97 26z" />
    <glyph glyph-name="ellipsis" unicode="&#x2026;" horiz-adv-x="1512" 
d="M1168 231h207l-34 -231h-208zM92 231h207l-34 -231h-208zM630 231h207l-34 -231h-208z" />
    <glyph glyph-name="perthousand" unicode="&#x2030;" horiz-adv-x="2413" 
d="M300 681.5q-60 38.5 -92.5 111t-32.5 170.5q0 46 7 91q17 124 71 218t133 145t169 51q78 0 136.5 -39t90.5 -112.5t32 -172.5q0 -42 -6 -90q-18 -124 -71 -217t-130.5 -143.5t-167.5 -50.5q-79 0 -139 38.5zM1051 986l466 476l-762 -992l-468 -478zM600 827.5
q61 84.5 81 226.5q7 56 7 91q0 104 -38.5 163.5t-110.5 59.5q-58 0 -105.5 -39.5t-80 -110.5t-45.5 -164q-7 -56 -7 -89q0 -103 39 -162.5t111 -59.5q88 0 149 84.5zM1038 18.5q-60 38.5 -92.5 111t-32.5 171.5q0 47 7 92q17 123 71 217t133 145.5t168 51.5q79 0 138 -39.5
t91.5 -112.5t32.5 -172q0 -34 -7 -90q-18 -125 -71.5 -218.5t-131 -144t-167.5 -50.5q-79 0 -139 38.5zM1773.5 19q-59.5 39 -92 112t-32.5 172q0 42 6 90q18 124 72 218t132.5 145t167.5 51q79 0 138 -39t91 -112t32 -171q0 -47 -7 -92q-18 -125 -71 -218.5t-130.5 -144
t-167.5 -50.5q-79 0 -138.5 39zM1293 122.5q48 39.5 80.5 109.5t44.5 159q6 47 6 87q0 104 -39 165.5t-109 61.5q-56 0 -103.5 -40t-80.5 -111.5t-46 -162.5q-6 -43 -6 -82q0 -103 39 -164.5t109 -61.5q57 0 105 39.5zM2028 122.5q48 39.5 80.5 109.5t44.5 159q6 45 6 85
q0 105 -39 167t-109 62q-55 0 -103 -40.5t-81 -111.5t-46 -162q-6 -43 -6 -82q0 -103 39 -164.5t110 -61.5q56 0 104 39.5z" />
    <glyph glyph-name="guilsinglleft" unicode="&#x2039;" horiz-adv-x="535" 
d="M78 502l303 377h98l-244 -377l136 -361h-99z" />
    <glyph glyph-name="guilsinglright" unicode="&#x203a;" horiz-adv-x="534" 
d="M290 502l-136 377h98l194 -377l-301 -361h-95z" />
    <glyph glyph-name="fraction" unicode="&#x2044;" horiz-adv-x="452" 
d="M373 986l434 476l-677 -992l-435 -478z" />
    <glyph glyph-name="uni2070" unicode="&#x2070;" horiz-adv-x="782" 
d="M178.5 836.5q-65.5 82.5 -65.5 242.5q0 59 11 138q22 153 74.5 259t129 159.5t170.5 53.5q119 0 184.5 -85t65.5 -247q0 -59 -11 -138q-33 -228 -131.5 -346.5t-242.5 -118.5q-119 0 -184.5 82.5zM532 938.5q59 87.5 86 279.5q12 87 12 152q0 114 -36.5 168t-109.5 54
q-93 0 -153.5 -90t-89.5 -284q-12 -82 -12 -145q0 -114 37.5 -168t111.5 -54q95 0 154 87.5z" />
    <glyph glyph-name="uni2074" unicode="&#x2074;" horiz-adv-x="786" 
d="M508 994h-404l16 104l482 572h111l-82 -576h142l-15 -100h-143l-33 -234h-107zM521 1094l61 427l-358 -427h297z" />
    <glyph glyph-name="uni2075" unicode="&#x2075;" horiz-adv-x="755" 
d="M275 776.5q-64 29.5 -105 82.5t-53 122l101 40q20 -82 72 -130t133 -48q93 0 156.5 56.5t77.5 154.5q2 12 2 34q0 76 -47.5 122.5t-121.5 46.5q-58 0 -102.5 -18t-97.5 -73q-3 -1 -5.5 -1t-5.5 2l-88 29l108 474h512l-18 -98h-416l-65 -298q90 79 215 79q71 0 128 -28
t90 -82t33 -131q0 -29 -4 -54q-14 -94 -62.5 -164t-124.5 -108.5t-170 -38.5q-78 0 -142 29.5z" />
    <glyph glyph-name="uni2076" unicode="&#x2076;" horiz-adv-x="721" 
d="M214.5 854q-71.5 88 -71.5 248q0 55 9 116q22 147 76.5 255.5t138.5 167t190 58.5q72 0 128.5 -28t88 -81t30.5 -126h-103q-8 66 -48 103t-108 37q-115 0 -186 -102.5t-88 -295.5q35 71 101.5 114t141.5 43q114 0 180 -62t66 -171q0 -30 -4 -55q-13 -91 -59.5 -161
t-119.5 -109t-163 -39q-128 0 -199.5 88zM523 884.5q45 26.5 75.5 74.5t39.5 110q3 23 3 43q0 76 -40.5 117.5t-116.5 41.5q-47 0 -94 -23.5t-79.5 -63.5t-39.5 -86q-4 -24 -4 -53q0 -85 42.5 -136t116.5 -51q52 0 97 26.5z" />
    <glyph glyph-name="uni2077" unicode="&#x2077;" horiz-adv-x="695" 
d="M342.5 989q60.5 135 152 289.5t203.5 293.5h-482l15 98h602l-15 -98q-89 -108 -183.5 -263t-166 -305t-95.5 -244h-119q28 94 88.5 229z" />
    <glyph glyph-name="uni2078" unicode="&#x2078;" horiz-adv-x="754" 
d="M245 791q-66 27 -101.5 76t-35.5 116q0 20 3 39q7 51 39 100.5t77 84t90 43.5q-109 52 -109 162q0 22 2 34q11 77 56.5 133t115 85t152.5 29q116 0 186.5 -54.5t70.5 -152.5q0 -19 -3 -40q-20 -137 -163 -196q38 -8 70.5 -37t52 -72t19.5 -89q0 -20 -2 -30
q-11 -78 -60 -136.5t-127.5 -90t-177.5 -31.5q-89 0 -155 27zM612 1337.5q54 39.5 64 111.5q2 18 2 26q0 62 -42.5 97.5t-113.5 35.5q-79 0 -134 -43t-65 -116q-2 -18 -2 -27q0 -60 42.5 -92t114.5 -32q80 0 134 39.5zM572.5 900q63.5 46 74.5 123q2 16 2 25q0 67 -50 108
t-137 41q-62 0 -112.5 -22.5t-82 -62t-38.5 -89.5q-2 -16 -2 -25q0 -66 50 -105t137 -39q95 0 158.5 46z" />
    <glyph glyph-name="uni2079" unicode="&#x2079;" horiz-adv-x="750" 
d="M229 793.5q-56 28.5 -88 81.5t-32 124h100q7 -64 47.5 -102t106.5 -38q116 0 190.5 99.5t94.5 302.5q-32 -74 -97.5 -119t-144.5 -45q-113 0 -178 62.5t-65 174.5q0 30 4 55q13 91 58 161t115.5 109t158.5 39q124 0 192 -88t68 -248q0 -62 -8 -117
q-32 -229 -135.5 -354.5t-261.5 -125.5q-69 0 -125 28.5zM521.5 1216.5q46.5 23.5 78.5 63.5t39 86q4 24 4 53q0 85 -42 136t-115 51q-51 0 -94.5 -26.5t-72.5 -74.5t-38 -110q-3 -24 -3 -45q0 -74 38.5 -115.5t112.5 -41.5q46 0 92.5 23.5z" />
    <glyph glyph-name="colonmonetary" unicode="&#x20a1;" horiz-adv-x="1143" 
d="M799 1062.5q-54 52.5 -142 52.5q-90 0 -163.5 -48t-122.5 -137t-67 -208q-7 -48 -7 -98q0 -141 64.5 -221t180.5 -80q90 0 161.5 55t102.5 144h154q-30 -107 -96.5 -183t-157.5 -114.5t-193 -38.5q-34 0 -61 4l8 -74l-89 -115l-18 177l21 29q-118 39 -183.5 144
t-65.5 257q0 59 8 110q23 158 98 281.5t189.5 192t251.5 68.5q38 0 74 -6l54 191l121 1l-62 -229q77 -41 119.5 -118.5t41.5 -181.5l-158 -3q-9 96 -63 148.5zM657 803l-119 15l79 293l119 -19zM538 530l86 101l21 -161l-92 -135z" />
    <glyph glyph-name="franc" unicode="&#x20a3;" horiz-adv-x="1159" 
d="M472 1290l-72 -506h582l-23 -153h-581l-36 -248h308l-16 -114l-308 -1l-39 -268h-198l38 268l-175 -1l17 115h175l153 1064h893l-25 -156h-693z" />
    <glyph glyph-name="lira" unicode="&#x20a4;" horiz-adv-x="1166" 
d="M-20 155h71q70 -2 126 64t79 195q4 19 11 75q-1 7 -4 9.5t-11 2.5h-200l16 114h201l-1 179h-175l16 115h158l1 59q1 174 63.5 285.5t164.5 162t229 50.5q82 0 156.5 -29.5t126.5 -83t69 -122.5l-162 -57q-22 67 -66 102.5t-124 35.5q-63 0 -117.5 -27t-91.5 -77.5
t-47 -120.5q-3 -33 -3 -160q0 -18 18 -18l296 1l-17 -114l-297 -2l1 -179l272 1l-18 -114h-268q-12 -94 -53.5 -189t-105.5 -156h332q96 0 159.5 37t106.5 125l143 -41q-62 -136 -171.5 -207t-251.5 -71h-655z" />
    <glyph glyph-name="uni20A6" unicode="&#x20a6;" horiz-adv-x="1429" 
d="M1344 982h91l-16 -107h-105l-72 -256h140l-15 -107h-155l-144 -512h-147l-165 511h-384l-143 -511h-165l143 510h-194l15 108h210l71 255h-244l16 107h258l131 466h156l150 -465l403 1l130 464h165zM503 981h101l-54 167zM1149 875l-338 -1l82 -255h185zM721 619l-82 255
h-166l-71 -256zM1048 512l-120 -1l64 -198z" />
    <glyph glyph-name="uni20A9" unicode="&#x20a9;" horiz-adv-x="1978" 
d="M1997 854h1l-16 -114h-381l-400 -740h-152l22 740l-197 -1l-394 -739h-148l17 739h-289l15 109h-1l16 113h265l11 485h167l-17 -485l336 1l256 484h129l-14 -484l340 1l255 483h165l-261 -483h291zM992 962h85l5 168zM1445 740h-228l-13 -456zM734 739h-225l-16 -455z
" />
    <glyph glyph-name="dong" unicode="&#x20ab;" horiz-adv-x="968" 
d="M1034 1223h-115l-139 -960h-146l18 118q-41 -41 -72 -66t-83 -46.5t-119 -21.5q-83 0 -146.5 37t-99 110.5t-35.5 178.5q0 44 8 102q20 134 80 236.5t148 159t188 56.5q70 0 114 -23.5t83 -66.5q9 -9 15 -9q7 0 10 20l26 175h-251l14 97h251l18 125h150l-18 -125h115z
M719 913q-36 48 -78 72t-97 24q-68 0 -125 -37.5t-97 -111.5t-55 -181q-7 -54 -7 -86q0 -116 51 -174t135 -58q55 0 103 26.5t79.5 67.5t37.5 83zM67 102h697l-16 -102h-695z" />
    <glyph glyph-name="Euro" unicode="&#x20ac;" horiz-adv-x="1136" 
d="M1024 1427.5q86 -38.5 145 -107.5l-137 -112q-45 49 -93 76.5t-111 27.5q-144 0 -248 -92.5t-163 -277.5l373 1l-16 -114l-387 -1q-11 -51 -18 -104q-8 -59 -11 -100l386 1l-17 -114l-371 -1q7 -183 88 -276t231 -93q64 0 130 28t118 71l79 -115q-79 -67 -175.5 -106
t-196.5 -39q-146 0 -251.5 63t-163.5 182t-64 284h-172l16 115h158q3 43 11 102q8 58 19 102h-157l15 113h172q53 165 144.5 283t213.5 180t266 62q101 0 187 -38.5z" />
    <glyph glyph-name="uni20B9" unicode="&#x20b9;" horiz-adv-x="1109" 
d="M1183 1340h-259q76 -76 76 -199h156l-17 -107h-154q-31 -128 -116 -207t-196 -116q-6 -1 -8 -7.5t0 -13.5l151 -690h-216l-134 675h-423l20 141h363q151 0 236 51.5t115 166.5l-680 -1l15 107l679 1q-1 96 -63.5 143.5t-188.5 47.5h-402l16 114l1045 1z" />
    <glyph glyph-name="uni20BA" unicode="&#x20ba;" horiz-adv-x="1072" 
d="M1038 462q-100 -218 -264.5 -340t-389.5 -122h-236l64 444l-150 -54l-21 117l190 69l28 193l-163 -59l-22 118l204 74l79 544h199l-67 -468l269 97l25 -116l-313 -114l-28 -193l282 102l24 -117l-325 -117l-52 -363h90q128 2 231.5 85t190.5 258z" />
    <glyph glyph-name="uni2113" unicode="&#x2113;" horiz-adv-x="966" 
d="M356 398q-8 -62 -8 -102q0 -92 34.5 -132t105.5 -40q75 0 142 44l-191 -188q-116 0 -173.5 52.5t-72.5 117.5t-18 149q0 20 -2 40q0 12 -9 5l-98 -67l-37 111l166 115l72 503q22 152 81 255.5t143 154t183 50.5q116 0 173.5 -65t57.5 -177q0 -34 -6 -72
q-20 -135 -99 -258.5t-182 -223.5t-256 -227zM388 608q144 122 254 265t132 299q4 32 4 45q0 60 -29 91.5t-85 31.5q-85 0 -140.5 -83t-84.5 -283zM765 300l-14 -14zM630 168l121 118q-2 -2 -1 -2q-67 -81 -120 -116z" />
    <glyph glyph-name="uni2116" unicode="&#x2116;" horiz-adv-x="2193" 
d="M323 1446h166l561 -1133l163 1133h174l-209 -1446h-155l-569 1148l-165 -1148h-175zM1673 866.5q-64 71.5 -64 191.5q0 29 5 69q14 100 60.5 176.5t117.5 119t157 42.5q114 0 179.5 -73.5t65.5 -196.5q0 -28 -5 -68q-14 -97 -59 -172.5t-116.5 -117.5t-160.5 -42
q-116 0 -180 71.5zM1999 952.5q51 63.5 66 179.5q5 40 5 68q0 81 -34 125t-101 44q-81 0 -131.5 -62.5t-65.5 -174.5q-6 -39 -6 -73q0 -82 34 -126t100 -44q82 0 133 63.5z" />
    <glyph glyph-name="uni2117" unicode="&#x2117;" horiz-adv-x="1548" 
d="M383.5 62q-137.5 82 -215 225.5t-77.5 321.5q0 63 8 115q29 201 147.5 371.5t294.5 270.5t366 100q172 0 309.5 -83t215 -227t77.5 -320q0 -61 -8 -112q-29 -203 -148.5 -374t-294.5 -270.5t-364 -99.5q-173 0 -310.5 82zM1012.5 179q142.5 77 240 218.5t123.5 326.5
q8 61 8 109q0 153 -63.5 269.5t-176 180t-254.5 63.5q-161 0 -304 -78t-239.5 -219.5t-122.5 -324.5q-8 -52 -8 -113q0 -154 63 -269.5t175.5 -177.5t257.5 -62q158 0 300.5 77zM606 1108h291q112 0 179 -46t67 -137q0 -18 -3 -38q-18 -121 -99.5 -185.5t-200.5 -64.5h-178
l-43 -305h-125zM844 738q65 0 111 35t56 101q2 18 2 27q0 105 -138 105h-159l-39 -268h167z" />
    <glyph glyph-name="uni2120" unicode="&#x2120;" horiz-adv-x="1926" 
d="M190 15q-70 28 -111 83t-41 132l116 8q4 -75 60.5 -116t142.5 -41q66 0 120.5 21.5t86 61t31.5 90.5q0 102 -131 135l-165 42q-177 43 -177 185q0 17 3 36q11 77 59.5 136.5t124 93t164.5 33.5q95 0 160 -35t95 -93t27 -127l-111 -6q-1 87 -51 126t-134 39
q-50 0 -96.5 -18t-79 -53.5t-39.5 -84.5q-2 -14 -2 -21q0 -41 30 -67.5t102 -45.5l159 -42q96 -23 136.5 -77.5t40.5 -126.5q0 -18 -4 -50q-10 -69 -57 -125t-126 -88.5t-179 -32.5q-84 0 -154 28zM1045 904h152l149 -752l369 752h149l-129 -904h-113l106 733l-353 -733
h-102l-141 726l-105 -726h-111z" />
    <glyph glyph-name="trademark" unicode="&#x2122;" horiz-adv-x="1781" 
d="M338 801h-275l15 103h645l-15 -103h-261l-115 -801h-109zM900 904h152l149 -752l369 752h149l-129 -904h-113l106 733l-353 -733h-102l-141 726l-105 -726h-111z" />
    <glyph glyph-name="uni2126" unicode="&#x2126;" horiz-adv-x="1463" 
d="M116 163h296q-6 6 -76.5 73t-127 198.5t-56.5 276.5q0 50 8 112q27 179 122.5 335t249 251t343.5 95q170 0 287.5 -77.5t175.5 -205.5t58 -281q0 -54 -8 -115q-20 -138 -70 -244.5t-139 -203.5t-237 -214h301l-24 -163h-497l22 152q155 106 279.5 260t158.5 389
q9 63 9 124q0 122 -37.5 217t-114 149.5t-188.5 54.5q-130 0 -233.5 -72t-169.5 -196.5t-88 -279.5q-9 -66 -9 -125q0 -156 64.5 -281t197.5 -240l-23 -152h-498z" />
    </font>
</defs>
</svg>
