<?xml version="1.0" standalone="no"?>
<!DOCTYPE svg PUBLIC "-//W3C//DTD SVG 1.1//EN" "http://www.w3.org/Graphics/SVG/1.1/DTD/svg11.dtd" >
<svg xmlns="http://www.w3.org/2000/svg" xmlns:xlink="http://www.w3.org/1999/xlink" version="1.1">
<metadata>
Created by FontForge 20170731 at Tue Apr 16 15:01:43 2019
 By Aleksey,,,
</metadata>
<defs>
<font id="PublicSans-SemiBoldItalic" horiz-adv-x="0" >
  <font-face 
    font-family="Public Sans SemiBold"
    font-weight="600"
    font-style="italic"
    font-stretch="normal"
    units-per-em="2000"
    panose-1="0 0 7 0 0 0 0 0 0 0"
    ascent="1560"
    descent="-440"
    x-height="1034"
    cap-height="1446"
    bbox="-679 -648 2369 2250"
    underline-thickness="50"
    underline-position="-150"
    slope="-8"
    unicode-range="U+000D-FB02"
  />
<missing-glyph horiz-adv-x="1598" 
d="M1309.5 1640.5q9.5 -11.5 9.5 -30.5v-1876q0 -30 -15.5 -43t-50.5 -13h-872q-30 0 -42 11.5t-12 36.5v1880q0 22 10.5 34t27.5 12h918q17 0 26.5 -11.5zM1208.5 1544.5q-8.5 9.5 -21.5 9.5h-686l716 -1668v1634q0 15 -8.5 24.5zM439 -214.5q10 -9.5 34 -9.5h671
l-715 1657v-1617q0 -21 10 -30.5z" />
    <glyph glyph-name="fi" unicode="fi" horiz-adv-x="1309" 
d="M295 862h-194l26 172h193l23 154q19 124 95.5 191t201.5 67h211l-24 -166h-137q-56 0 -82 -29.5t-35 -96.5l-17 -120h226l-26 -172h-222l-125 -862h-239zM1051 1452h247l-35 -230h-247zM993 1034h239l-151 -1034h-239z" />
    <glyph glyph-name="fl" unicode="fl" horiz-adv-x="1365" 
d="M295 862h-194l26 172h193l23 154q19 124 95.5 191t201.5 67h211l-24 -166h-137q-56 0 -82 -29.5t-35 -96.5l-17 -120h226l-26 -172h-222l-125 -862h-239zM920 40q-56 55 -56 150q0 41 8 89l177 1207h235l-173 -1179q-3 -21 -3 -40q0 -50 22.5 -76.5t71.5 -30.5l48 -2
l-23 -153q-60 -20 -107 -20q-144 0 -200 55z" />
    <glyph glyph-name="colon_one_eight_F_colon.liga" unicode="&#x3a;&#x31;&#x38;F&#x3a;" horiz-adv-x="1759" 
d="M154 26v1472q0 24 23 24h1475q22 0 22 -24v-1472q0 -12 -6 -19t-16 -7h-1475q-23 0 -23 26zM974 491.5q39 23.5 62.5 63t23.5 85.5q0 43 -19.5 79.5t-54.5 60.5q27 26 40 54t13 62q0 40 -20.5 74.5t-55 55t-74.5 20.5q-43 0 -78 -20.5t-55 -54.5t-20 -75q0 -62 54 -116
q-36 -24 -55 -60t-19 -80q0 -46 23 -85.5t62.5 -63t87.5 -23.5q46 0 85 23.5zM624 478q8 0 8 8v544q0 10 -8 10h-135q-7 0 -7 -10v-52q0 -8 7 -8h73v-484q0 -8 7 -8h55zM1204 478q12 0 12 8v248h122q4 0 5.5 1.5t1.5 6.5v50q0 10 -7 10h-122v168h146q8 0 8 8v52q0 10 -8 10
h-210q-8 0 -8 -10v-544q0 -8 8 -8h52zM829 838.5q-24 22.5 -24 57.5q0 34 24.5 58t59.5 24q34 0 57.5 -24t23.5 -58q0 -35 -23.5 -57.5t-57.5 -22.5q-36 0 -60 22.5zM816 568q-30 30 -30 72q0 43 30 72.5t73 29.5t72 -29.5t29 -72.5q0 -42 -29.5 -72t-71.5 -30q-43 0 -73 30
z" />
    <glyph glyph-name="colon_f_l_a_g_two_colon.liga" unicode="&#x3a;flag&#x32;&#x3a;" horiz-adv-x="2537" 
d="M2369 1522v-1520h-2132v1520h2132zM2245 1396h-1070v-106h1070v106zM551 1170v118h-126v-118h126zM1019 1170v118h-122v-118h122zM785 1054v116h-122v-116h122zM2245 1056v110h-1070v-110h1070zM551 936v118h-122v-118h122zM897 1054v-118h122v118h-122zM663 936v-116
h122v116h-122zM2245 822v110h-1070v-110h1070zM429 820v-118h122v118h-122zM897 820v-118h122v118h-122zM2245 588v110h-1070v-110h1070zM359 464l1 -110h1885v110h-1886zM2245 126v104h-1885l1 -104h1884z" />
    <glyph glyph-name="colon_f_l_a_g_colon.liga" unicode="&#x3a;flag&#x3a;" horiz-adv-x="2537" 
d="M2369 1522v-1520h-2132v1520h2132zM353 1404v-818h1900v116h-1080v118h1080v116h-1080v118h1080v116h-1080v118h1080v116h-1900zM587 1170h-116v118h116v-118zM1055 1170h-116v118h116v-118zM821 1054h-116v116h116v-116zM587 936h-116v118h116v-118zM1055 936h-116v118
h116v-118zM821 820h-116v116h116v-116zM587 702h-116v118h116v-118zM1055 702h-116v118h116v-118zM353 468v-116h1900v116h-1900zM2253 118v116h-1900v-116h1900z" />
    <glyph glyph-name=".notdef" horiz-adv-x="1598" 
d="M1309.5 1640.5q9.5 -11.5 9.5 -30.5v-1876q0 -30 -15.5 -43t-50.5 -13h-872q-30 0 -42 11.5t-12 36.5v1880q0 22 10.5 34t27.5 12h918q17 0 26.5 -11.5zM1208.5 1544.5q-8.5 9.5 -21.5 9.5h-686l716 -1668v1634q0 15 -8.5 24.5zM439 -214.5q10 -9.5 34 -9.5h671
l-715 1657v-1617q0 -21 10 -30.5z" />
    <glyph glyph-name="uni0000" horiz-adv-x="53" 
 />
    <glyph glyph-name="uni0000" horiz-adv-x="53" 
 />
    <glyph glyph-name="nonmarkingreturn" unicode="&#xd;" horiz-adv-x="472" 
 />
    <glyph glyph-name="space" unicode=" " horiz-adv-x="461" 
 />
    <glyph glyph-name="exclam" unicode="!" horiz-adv-x="531" 
d="M248 1446h282l-214 -1036h-154zM84 276h268l-41 -276h-269z" />
    <glyph glyph-name="quotedbl" unicode="&#x22;" horiz-adv-x="903" 
d="M655 1446h258l-143 -517h-126zM255 1446h258l-143 -517h-126z" />
    <glyph glyph-name="numbersign" unicode="#" horiz-adv-x="1181" 
d="M920 868l-41 -275h214v-135h-234l-69 -462l-135 18l67 444h-281l-69 -462l-134 18l67 444h-231v135h251l41 275h-228v135h248l67 446l134 -14l-65 -432h281l67 446l135 -14l-65 -432h217v-135h-237zM783 868h-281l-41 -275h281z" />
    <glyph glyph-name="dollar" unicode="$" horiz-adv-x="1299" 
d="M644 1241q-65 -25 -107 -72t-51 -111q-2 -11 -2 -31q0 -56 42 -91t147 -66l217 -62q288 -80 288 -345q0 -38 -6 -79q-15 -106 -78.5 -190.5t-166 -138t-231.5 -69.5l-27 -185h-210l27 185q-194 22 -298 124t-98 280l250 9q10 -108 84 -164.5t198 -56.5q73 0 137.5 26
t107 72.5t50.5 105.5q3 20 3 37q0 67 -44.5 107t-138.5 65l-224 58q-140 34 -216 113t-76 205q0 27 5 64q16 113 82 203.5t169.5 147.5t230.5 75l29 200h212l-30 -202q103 -17 177 -67t112.5 -124.5t38.5 -162.5q0 -32 -4 -59l-243 -8q-1 116 -50.5 174t-163.5 58
q-77 0 -142 -25z" />
    <glyph glyph-name="percent" unicode="%" horiz-adv-x="1716" 
d="M299.5 686.5q-62.5 41.5 -97 116t-34.5 172.5q0 39 6 79q17 118 73.5 212.5t138.5 148t174 53.5q81 0 143 -42t96 -118t34 -174q0 -38 -6 -80q-17 -118 -72 -211.5t-136.5 -145.5t-173.5 -52q-83 0 -145.5 41.5zM807 683l722 779l-471 -689l-722 -781zM589.5 848
q51.5 74 69.5 206q7 46 7 93q0 92 -32 143t-94 51q-76 0 -128 -77.5t-71 -209.5q-7 -46 -7 -91q0 -90 31.5 -139.5t94.5 -49.5q78 0 129.5 74zM1061 21.5q-62 41.5 -96.5 116t-34.5 172.5q0 39 6 81q17 118 73 212.5t138 148t174 53.5q81 0 143 -42t96 -117.5t34 -172.5
q0 -40 -6 -82q-16 -119 -71.5 -212.5t-137 -146t-174.5 -52.5q-82 0 -144 41.5zM1350 185.5q52 75.5 70 203.5q7 56 7 90q0 92 -32 144.5t-93 52.5q-74 0 -127 -78.5t-71 -208.5q-6 -46 -6 -86q0 -91 31.5 -142t92.5 -51q76 0 128 75.5z" />
    <glyph glyph-name="ampersand" unicode="&#x26;" horiz-adv-x="1450" 
d="M161.5 72q-97.5 82 -97.5 225q0 28 5 66q20 141 117.5 243t289.5 200q-65 86 -95.5 149t-30.5 134q0 27 4 50q14 93 74.5 168t155.5 118t208 43q103 0 185.5 -33.5t130 -95t47.5 -142.5q0 -20 -3 -41q-14 -93 -104 -192t-268 -196l206 -313q44 63 89 153t67 194h243
q-40 -112 -103.5 -211t-163.5 -231q-13 -16 -37 -48l211 -312h-275l-103 150q-117 -83 -234.5 -121.5t-229.5 -38.5q-191 0 -288.5 82zM877.5 1027q52.5 58 61.5 121q2 11 2 31q0 67 -43.5 100.5t-110.5 33.5q-57 0 -101.5 -25.5t-69 -68t-24.5 -91.5q0 -50 21.5 -100.5
t53.5 -91.5l30 -41q128 74 180.5 132zM679.5 210.5q77.5 31.5 139.5 85.5l-247 368q-106 -58 -170.5 -134.5t-64.5 -168.5q0 -56 27 -97t72 -63t99 -22q67 0 144.5 31.5z" />
    <glyph glyph-name="quotesingle" unicode="'" horiz-adv-x="504" 
d="M254 1446h258l-143 -517h-126z" />
    <glyph glyph-name="parenleft" unicode="(" horiz-adv-x="630" 
d="M163.5 65q-38.5 155 -38.5 323q0 100 17 221q35 240 141.5 468t262.5 422h167q-134 -205 -227 -434t-126 -458q-19 -129 -19 -258q0 -151 26 -303t77 -315h-166q-76 179 -114.5 334z" />
    <glyph glyph-name="parenright" unicode=")" horiz-adv-x="639" 
d="M469 1164.5q39 -155.5 39 -323.5q0 -100 -17 -221q-35 -240 -141.5 -468t-262.5 -422h-167q134 205 227 434t126 458q19 129 19 258q0 151 -26 303t-77 315h166q75 -178 114 -333.5z" />
    <glyph glyph-name="asterisk" unicode="*" horiz-adv-x="873" 
d="M221 796l198 241l-279 78l52 146l266 -112l-21 297h166l-22 -298l269 118l47 -146l-273 -82l194 -235l-137 -96l-160 264l-165 -269z" />
    <glyph glyph-name="plus" unicode="+" horiz-adv-x="1115" 
d="M1011 637h-347l-53 -363h-178l53 362h-350l27 181h350l53 365h177l-53 -364h348z" />
    <glyph glyph-name="comma" unicode="," horiz-adv-x="516" 
d="M128 -6l-91 7l38 255h258l-33 -223l-225 -300h-95z" />
    <glyph glyph-name="hyphen" unicode="-" horiz-adv-x="758" 
d="M132 606l509 1l-26 -182l-509 -1z" />
    <glyph glyph-name="period" unicode="." horiz-adv-x="495" 
d="M73 280h268l-42 -280h-268z" />
    <glyph glyph-name="slash" unicode="/" horiz-adv-x="718" 
d="M647 1446h172l-702 -1501h-173z" />
    <glyph glyph-name="zero" unicode="0" horiz-adv-x="1205" 
d="M207 116q-111 134 -111 392q0 99 16 210q35 240 123 408t217 254.5t289 86.5q203 0 314 -137.5t111 -398.5q0 -100 -16 -211q-35 -239 -121 -404.5t-214.5 -249.5t-290.5 -84q-206 0 -317 134zM711 236.5q66 54.5 112 173t74 309.5q19 133 19 236q0 163 -51 238.5
t-154 75.5q-135 0 -220 -131t-127 -419q-19 -129 -19 -228q0 -160 52 -234.5t157 -74.5q91 0 157 54.5z" />
    <glyph glyph-name="one" unicode="1" horiz-adv-x="812" 
d="M424 1114h-256l21 145q176 0 259 46t106 141h162l-213 -1446h-242z" />
    <glyph glyph-name="two" unicode="2" horiz-adv-x="1214" 
d="M68 130l10 67q19 132 91.5 226t164 153.5t236.5 133.5q115 59 183 100.5t117 98.5t60 131q3 20 3 37q0 83 -56.5 133t-155.5 50q-118 0 -204.5 -71.5t-119.5 -199.5h-232q22 135 98 243t202.5 171t293.5 63q134 0 230.5 -43.5t147 -124t50.5 -187.5q0 -40 -5 -70
q-20 -132 -91 -224t-160.5 -148.5t-232.5 -126.5q-113 -54 -178 -93t-113 -93t-58 -127l-3 -21h717l-32 -208h-983z" />
    <glyph glyph-name="three" unicode="3" horiz-adv-x="1223" 
d="M267 25.5q-103 45.5 -157 131t-54 204.5q0 30 5 72h231q1 -125 67.5 -189t181.5 -64q92 0 163.5 29t116 81.5t54.5 120.5q2 12 2 34q0 92 -73.5 145t-194.5 56l-128 4l28 198l120 5q81 2 148 32t109.5 79.5t51.5 110.5q2 16 2 25q0 50 -29 89t-83.5 61t-127.5 22
q-114 0 -200 -64t-111 -196h-232q21 144 103 246.5t205 155t267 52.5q140 0 245.5 -36.5t163.5 -108.5t58 -176q0 -25 -5 -60q-15 -110 -91 -193t-213 -130q112 -34 178 -109t66 -188q0 -25 -5 -60q-19 -133 -106 -229t-220 -146t-289 -50q-144 0 -247 45.5z" />
    <glyph glyph-name="four" unicode="4" horiz-adv-x="1219" 
d="M688 343h-644l31 207l768 896h237l-130 -896h220l-31 -207h-221l-50 -343h-231zM717 550l87 594l-506 -594h419z" />
    <glyph glyph-name="five" unicode="5" horiz-adv-x="1275" 
d="M333 24.5q-108 44.5 -179.5 124.5t-96.5 183l208 104q85 -258 313 -258q89 0 161.5 35.5t119 100t58.5 151.5q3 23 3 45q0 69 -31.5 122t-88 82t-129.5 29q-78 0 -141 -23.5t-142 -92.5q-9 -4 -15 -4t-15 5l-170 76l172 742h866l-40 -203h-663l-90 -402q81 53 159.5 77.5
t167.5 24.5q121 0 215.5 -44.5t147.5 -131t53 -208.5q0 -41 -6 -86q-22 -150 -103 -261.5t-208.5 -171.5t-286.5 -60q-131 0 -239 44.5z" />
    <glyph glyph-name="six" unicode="6" horiz-adv-x="1228" 
d="M309 56q-104 64 -158.5 185.5t-54.5 289.5q0 79 14 175q34 235 126.5 408t233.5 266.5t318 93.5q120 0 216 -44t151.5 -127.5t55.5 -197.5q0 -19 -1 -29h-221q-12 97 -70 149.5t-155 52.5q-108 0 -190 -65t-132 -186.5t-62 -289.5q57 88 154.5 140.5t204.5 52.5
q125 0 216.5 -44.5t140.5 -127.5t49 -197q0 -39 -6 -81q-21 -142 -101 -253t-204.5 -173t-274.5 -62q-146 0 -250 64zM718.5 216.5q64.5 36.5 108.5 102.5t57 150q4 27 4 56q0 105 -60 161.5t-166 56.5q-65 0 -131.5 -32t-112.5 -83.5t-54 -107.5q-6 -42 -6 -79
q0 -121 59.5 -191t162.5 -70q74 0 138.5 36.5z" />
    <glyph glyph-name="seven" unicode="7" horiz-adv-x="1148" 
d="M372 346.5q90 205.5 233 443t327 453.5h-757l31 203h1011l-32 -203q-136 -156 -282.5 -389.5t-256.5 -466t-143 -387.5h-258q37 141 127 346.5z" />
    <glyph glyph-name="eight" unicode="8" horiz-adv-x="1249" 
d="M287.5 34q-110.5 43 -170 123t-59.5 189q0 32 4 60q12 81 62.5 157.5t121 129.5t138.5 67q-78 39 -123 103t-45 154q0 28 4 52q18 126 94 216t193 136.5t257 46.5q128 0 226 -39t152.5 -114.5t54.5 -181.5q0 -27 -5 -64q-16 -110 -83.5 -187t-170.5 -122
q58 -12 109 -57.5t81.5 -111.5t30.5 -139q0 -22 -3 -46q-18 -126 -99.5 -219.5t-213 -144.5t-295.5 -51q-150 0 -260.5 43zM862 914q76 57 91 160q3 18 3 36q0 88 -59 138.5t-157 50.5q-71 0 -131 -27.5t-99 -78.5t-48 -119q-3 -19 -3 -38q0 -85 59 -132t158 -47
q110 0 186 57zM734 205q70 29 113.5 82t54.5 124q3 18 3 36q0 62 -31 108.5t-89.5 72.5t-139.5 26q-88 0 -158.5 -31t-114.5 -86t-54 -126q-2 -12 -2 -34q0 -93 69 -147t191 -54q88 0 158 29z" />
    <glyph glyph-name="nine" unicode="9" horiz-adv-x="1192" 
d="M276.5 35.5q-93.5 45.5 -148 130t-54.5 196.5l1 24h213q7 -92 63.5 -146t150.5 -54q167 0 274 134.5t132 414.5q-51 -97 -146.5 -155t-211.5 -58q-120 0 -209.5 45.5t-138.5 131.5t-49 203q0 39 6 81q20 143 95.5 253.5t193.5 172.5t262 62q139 0 238 -64t150.5 -185
t51.5 -289q0 -86 -13 -176q-35 -249 -123 -420.5t-222.5 -259t-306.5 -87.5q-115 0 -208.5 45.5zM738 752q64 32 109 83.5t53 107.5q6 42 6 80q0 121 -58 191t-159 70q-71 0 -132 -36.5t-101.5 -102.5t-52.5 -151q-4 -27 -4 -58q0 -102 55.5 -159t156.5 -57q63 0 127 32z
" />
    <glyph glyph-name="colon" unicode=":" horiz-adv-x="500" 
d="M179 1002h269l-41 -278h-270zM73 282h269l-41 -276h-269z" />
    <glyph glyph-name="semicolon" unicode=";" horiz-adv-x="522" 
d="M196 998h269l-41 -281h-269zM152 0h-97l40 277h270l-36 -245l-241 -330h-98z" />
    <glyph glyph-name="less" unicode="&#x3c;" horiz-adv-x="1098" 
d="M129 584l30 209l907 348l-32 -216l-621 -238l551 -233l-31 -214z" />
    <glyph glyph-name="equal" unicode="=" horiz-adv-x="1120" 
d="M194 1009l875 1l-27 -181l-875 -1zM127 558l875 1l-27 -182l-875 -1z" />
    <glyph glyph-name="greater" unicode="&#x3e;" horiz-adv-x="1098" 
d="M115 454l619 233l-553 238l32 216l805 -348l-31 -209l-906 -344z" />
    <glyph glyph-name="question" unicode="?" horiz-adv-x="1041" 
d="M417 589.5q39 77.5 86 133.5t119 126q56 56 88 92t56 79t31 91q2 20 2 29q0 71 -50 112t-133 41q-56 0 -113 -24.5t-105 -68.5t-77 -100l-199 55q83 149 219 230t303 81q121 0 211 -38t138 -105.5t48 -153.5q0 -22 -3 -46q-11 -78 -46 -141t-79.5 -109.5t-117.5 -111.5
q-70 -61 -113.5 -106.5t-77.5 -105.5t-45 -134h-195q14 97 53 174.5zM307 276h269l-41 -276h-269z" />
    <glyph glyph-name="at" unicode="@" horiz-adv-x="1603" 
d="M374.5 -141.5q-142.5 78.5 -216 216t-73.5 311.5q0 60 9 123q31 211 152 389.5t310 284t415 105.5q159 0 292 -55.5t213.5 -171t80.5 -287.5q0 -60 -8 -112q-22 -147 -86 -261.5t-157 -178.5t-198 -64q-139 0 -162 97q-4 12 -8 12t-15 -11q-53 -58 -121.5 -92t-149.5 -34
q-67 0 -119.5 33t-82 94.5t-29.5 142.5q0 36 6 75q18 121 79.5 224.5t155 165t202.5 61.5q73 0 118.5 -28.5t74.5 -80.5q2 -4 5 -4q7 0 10 11l19 52h144l-133 -437q-14 -45 -14 -77q0 -30 14.5 -43.5t42.5 -13.5q52 0 103 40.5t90 118.5t55 186q8 56 8 99q0 138 -62.5 226.5
t-164 129t-225.5 40.5q-196 0 -345 -85t-238 -229t-115 -321q-8 -52 -8 -112q0 -147 60.5 -255.5t177.5 -167.5t284 -59q81 0 143 15.5t109 39.5t115 67l62 -107q-92 -68 -216 -109.5t-262 -41.5q-199 0 -341.5 78.5zM824 321q53 35 92 92.5t54 122.5q11 47 11 81
q0 72 -35 113t-92 41q-58 0 -111 -37.5t-89.5 -101.5t-47.5 -141q-4 -25 -4 -55q0 -69 29.5 -109.5t85.5 -40.5q54 0 107 35z" />
    <glyph glyph-name="A" unicode="A" horiz-adv-x="1379" 
d="M700 1446h258l286 -1446h-241l-68 363h-528l-177 -363h-241zM907 579l-112 630l-300 -630h412z" />
    <glyph glyph-name="B" unicode="B" horiz-adv-x="1318" 
d="M311 1446h482q237 0 356.5 -79.5t119.5 -233.5q0 -27 -5 -65q-17 -115 -86 -194.5t-209 -134.5q128 -34 181 -105.5t53 -171.5q0 -32 -5 -72q-30 -198 -176.5 -294t-421.5 -96h-500zM742 830q68 0 129 21t103.5 67.5t52.5 118.5q3 20 3 37q0 88 -67 133.5t-182 45.5h-259
l-62 -423h282zM632 194q144 0 227.5 55.5t99.5 160.5q3 18 3 36q0 92 -68.5 139.5t-180.5 47.5h-281l-63 -439h263z" />
    <glyph glyph-name="C" unicode="C" horiz-adv-x="1380" 
d="M368.5 50.5q-116.5 70.5 -177 201t-60.5 308.5q0 84 13 171q33 226 130 392t247.5 254.5t338.5 88.5q151 0 263 -61t170 -167t52 -238l-253 -7q-4 125 -72 197t-197 72q-164 0 -270.5 -131t-146.5 -403q-14 -103 -14 -178q0 -184 72 -275t211 -91q114 0 204.5 75.5
t132.5 199.5l250 -10q-36 -134 -115 -239.5t-205 -167.5t-293 -62q-164 0 -280.5 70.5z" />
    <glyph glyph-name="D" unicode="D" horiz-adv-x="1378" 
d="M312 1446q260 0 378 -2q322 -7 475 -146t153 -401q0 -82 -13 -166q-52 -354 -262 -542.5t-578 -188.5h-365zM498 201q225 0 370.5 126t186.5 403q10 70 10 135q0 199 -105 289.5t-305 90.5h-131l-151 -1044h125z" />
    <glyph glyph-name="E" unicode="E" horiz-adv-x="1239" 
d="M312 1446h922l-33 -209h-680l-58 -405h599l-30 -206h-601l-60 -414l696 -1l-33 -211h-934z" />
    <glyph glyph-name="F" unicode="F" horiz-adv-x="1168" 
d="M312 1446h912l-32 -206h-668l-60 -416h588l-30 -203h-588l-91 -621h-242z" />
    <glyph glyph-name="G" unicode="G" horiz-adv-x="1456" 
d="M366 49q-116 69 -177 197.5t-61 303.5q0 83 13 168q34 229 136 398t256 259.5t340 90.5q142 0 251.5 -58t170 -155.5t60.5 -211.5q0 -13 -2 -39l-256 -8q-3 75 -34.5 134.5t-89.5 94t-136 34.5q-108 0 -197 -58t-151 -176.5t-88 -292.5q-13 -85 -13 -159
q0 -194 82 -284.5t221 -90.5q90 0 163.5 42.5t119.5 107t61 129.5l24 106h-307l26 172l558 -2l-111 -751h-168l29 203q-79 -99 -185.5 -161t-258.5 -62q-160 0 -276 69z" />
    <glyph glyph-name="H" unicode="H" horiz-adv-x="1404" 
d="M312 1446h240l-88 -597h576l87 597h240l-213 -1446h-240l94 642h-575l-93 -642h-240z" />
    <glyph glyph-name="I" unicode="I" horiz-adv-x="589" 
d="M311 1446h240l-210 -1446h-240z" />
    <glyph glyph-name="J" unicode="J" horiz-adv-x="778" 
d="M82 -7.5q-65 12.5 -102 25.5l42 226q9 -2 26 -9q33 -12 60 -18.5t61 -6.5q64 0 103 23t61 73t34 135l147 1005h239l-157 -1071q-20 -136 -61 -221.5t-119.5 -129.5t-207.5 -44q-61 0 -126 12.5z" />
    <glyph glyph-name="K" unicode="K" horiz-adv-x="1358" 
d="M312 1446h249l-102 -701l654 701h277l-518 -560l354 -886h-264l-291 706l-258 -273l-64 -433h-249z" />
    <glyph glyph-name="L" unicode="L" horiz-adv-x="1100" 
d="M312 1446h242l-180 -1236h623l-31 -210h-866z" />
    <glyph glyph-name="M" unicode="M" horiz-adv-x="1752" 
d="M311 1446h345l195 -1105l523 1105h340l-210 -1446h-244l166 1134l-526 -1134h-198l-194 1127l-166 -1127h-241z" />
    <glyph glyph-name="N" unicode="N" horiz-adv-x="1497" 
d="M312 1446h235l523 -1033l150 1033h240l-212 -1446h-215l-539 1061l-154 -1061h-240z" />
    <glyph glyph-name="O" unicode="O" horiz-adv-x="1473" 
d="M372 46.5q-119 66.5 -181 194t-62 306.5q0 84 13 171q34 232 135 400.5t255.5 258t343.5 89.5q165 0 283 -68t180 -197t62 -309q0 -84 -13 -172q-34 -230 -133.5 -396.5t-252.5 -255t-343 -88.5q-168 0 -287 66.5zM975 314.5q112 130.5 151 402.5q14 91 14 176
q0 188 -76 278.5t-218 90.5q-173 0 -287.5 -134t-154.5 -411q-13 -88 -13 -166q0 -187 77.5 -277t221.5 -90q173 0 285 130.5z" />
    <glyph glyph-name="P" unicode="P" horiz-adv-x="1262" 
d="M312 1446h494q137 0 241.5 -44.5t163 -132t58.5 -210.5q0 -38 -6 -80q-22 -141 -98.5 -244t-195.5 -157t-266 -54h-283l-77 -524h-242zM726 719q79 0 146 34.5t111 97t55 142.5q3 23 3 43q0 103 -66.5 160.5t-177.5 57.5h-272l-78 -535h279z" />
    <glyph glyph-name="Q" unicode="Q" horiz-adv-x="1450" 
d="M1043 -226q-73 18 -138 70.5t-114 151.5q-96 -16 -163 -16q-166 0 -284.5 66.5t-181.5 194t-63 308.5q0 84 13 171q34 232 135 400t255 257t344 89q165 0 283 -67.5t180.5 -196.5t62.5 -310q0 -84 -13 -172q-61 -426 -337 -618q16 -69 75.5 -107t141.5 -40l-30 -199
q-93 0 -166 18zM946.5 313.5q111.5 129.5 151.5 404.5q14 100 14 174q0 187 -76 278.5t-220 91.5q-176 0 -288.5 -134.5t-153.5 -411.5q-13 -91 -13 -170q0 -362 297 -362q177 0 288.5 129.5z" />
    <glyph glyph-name="R" unicode="R" horiz-adv-x="1337" 
d="M311 1446h566q207 0 310 -88t103 -247q0 -38 -6 -80q-23 -160 -107 -255t-207 -148l172 -628h-249l-151 587h-317l-86 -587h-239zM728 780q130 0 212.5 64t98.5 178q3 23 3 44q0 91 -57.5 140.5t-158.5 49.5h-304l-69 -476h275z" />
    <glyph glyph-name="S" unicode="S" horiz-adv-x="1358" 
d="M345 26.5q-119 46.5 -189 139t-66 224.5l251 9q7 -107 87 -165.5t206 -58.5q88 0 162 24t121.5 71t57.5 112q2 18 2 27q0 140 -213 188l-250 58q-141 30 -217 108.5t-76 204.5q0 34 4 63q18 128 101.5 226.5t212 152.5t278.5 54q158 0 269 -58t165.5 -154.5t49.5 -209.5
l-244 -8q1 121 -70 176.5t-197 55.5q-78 0 -144 -25t-108.5 -72.5t-51.5 -110.5q-3 -16 -3 -32q0 -58 43 -94.5t147 -61.5l243 -58q313 -66 313 -342q0 -39 -7 -86q-17 -114 -99 -206t-216.5 -145t-300.5 -53q-142 0 -261 46.5z" />
    <glyph glyph-name="T" unicode="T" horiz-adv-x="1148" 
d="M560 1227h-430l33 219h1085l-33 -219h-415l-180 -1227h-238z" />
    <glyph glyph-name="U" unicode="U" horiz-adv-x="1406" 
d="M275.5 85.5q-111.5 105.5 -111.5 309.5q0 69 12 147l132 904h245l-136 -929q-6 -43 -6 -81q0 -124 64.5 -185.5t184.5 -61.5q138 0 228.5 82t114.5 246l134 929h242l-133 -918q-40 -267 -189 -407.5t-428 -140.5q-242 0 -353.5 105.5z" />
    <glyph glyph-name="V" unicode="V" horiz-adv-x="1288" 
d="M156 1446h230l216 -1165l561 1165h231l-696 -1446h-275z" />
    <glyph glyph-name="W" unicode="W" horiz-adv-x="1855" 
d="M175 1446h237l126 -1044l430 1044h177l132 -1044l430 1044h235l-620 -1446h-199l-129 1025l-430 -1025h-196z" />
    <glyph glyph-name="X" unicode="X" horiz-adv-x="1317" 
d="M544 736l-345 710h299l229 -504l375 504h257l-532 -681l373 -765h-300l-255 552l-412 -552h-262z" />
    <glyph glyph-name="Y" unicode="Y" horiz-adv-x="1224" 
d="M500 612l-354 834h259l248 -622l425 622h262l-600 -835l-90 -611h-238z" />
    <glyph glyph-name="Z" unicode="Z" horiz-adv-x="1269" 
d="M46 124l887 1115h-684l31 207h1025l-17 -118l-899 -1119h729l-32 -209h-1060z" />
    <glyph glyph-name="bracketleft" unicode="[" horiz-adv-x="640" 
d="M303 1446h407l-22 -144h-206l-216 -1480h206l-22 -144h-404z" />
    <glyph glyph-name="backslash" unicode="\" horiz-adv-x="701" 
d="M150 1446h172l264 -1501h-173z" />
    <glyph glyph-name="bracketright" unicode="]" horiz-adv-x="660" 
d="M323 -322h-406l22 144h206l216 1480h-206l22 144h404z" />
    <glyph glyph-name="asciicircum" unicode="^" horiz-adv-x="928" 
d="M440 982q19 34 45 52t52 18t45.5 -17.5t28.5 -51.5l185 -733h-169l-130 544l-288 -542h-168z" />
    <glyph glyph-name="underscore" unicode="_" horiz-adv-x="1046" 
d="M38 -78l800 1l-28 -181l-800 -1z" />
    <glyph glyph-name="grave" unicode="`" horiz-adv-x="591" 
d="M131 1299l82 167l449 -200l-53 -111z" />
    <glyph glyph-name="a" unicode="a" horiz-adv-x="1078" 
d="M180 10q-66 30 -102 87t-36 137q0 29 4 54q25 173 157.5 259t391.5 90l146 4l10 70q2 12 2 33q0 68 -43 104.5t-120 36.5q-75 0 -141 -38.5t-96 -112.5h-203q20 98 85.5 170t165.5 111t222 39q185 0 275 -70.5t90 -197.5q0 -26 -5 -61l-106 -725h-201l7 181
q-69 -111 -154 -156t-196 -45q-87 0 -153 30zM549 173.5q58 28.5 99 74.5t49 95l23 163l-119 -2q-296 -3 -323 -191q-2 -20 -2 -28q0 -66 43.5 -103t115.5 -37q56 0 114 28.5z" />
    <glyph glyph-name="b" unicode="b" horiz-adv-x="1158" 
d="M435 10q-62 30 -97.5 74.5t-49.5 91.5l-49 -176h-174l216 1486h240l-91 -626q53 80 137 137t196 57q162 0 245 -106t83 -290q0 -67 -10 -136q-25 -166 -90.5 -288t-169 -188t-237.5 -66q-87 0 -149 30zM736 247.5q73 88.5 100 276.5q9 63 9 114q0 119 -48 177t-138 58
q-122 0 -185 -81.5t-84 -193.5l-20 -151q-5 -37 -5 -63q0 -103 50.5 -164t139.5 -61q108 0 181 88.5z" />
    <glyph glyph-name="c" unicode="c" horiz-adv-x="1034" 
d="M256.5 33q-90.5 53 -139 149.5t-48.5 225.5q0 46 8 104q23 158 100 281t194 192t255 69q109 0 189 -44t122.5 -123t42.5 -182l-1 -25l-204 -1q-5 84 -49 135t-123 51q-76 0 -138.5 -42t-104.5 -120.5t-58 -186.5q-7 -45 -7 -92q0 -125 55 -196t153 -71q79 0 140 54
t86 131h198q-26 -109 -92 -191t-161.5 -126.5t-205.5 -44.5q-121 0 -211.5 53z" />
    <glyph glyph-name="d" unicode="d" horiz-adv-x="1157" 
d="M157 85.5q-89 105.5 -89 294.5q0 73 11 142q23 157 85 277t160.5 187.5t226.5 67.5q74 0 132.5 -24.5t96 -62t54.5 -79.5l87 598h240l-219 -1486h-175l3 212q-43 -94 -129 -163t-225 -69q-170 0 -259 105.5zM618.5 193q57.5 34 96 93.5t50.5 134.5l29 199q2 24 2 36
q0 88 -47.5 152.5t-151.5 64.5q-110 0 -184 -86.5t-99 -262.5q-10 -63 -10 -118q0 -126 50.5 -186.5t138.5 -60.5q68 0 125.5 34z" />
    <glyph glyph-name="e" unicode="e" horiz-adv-x="1075" 
d="M262 30q-93 50 -143 144.5t-50 224.5q0 58 8 107q23 159 96.5 283.5t190 194.5t261.5 70q187 0 285 -106t98 -294q0 -56 -9 -119l-11 -75h-681q-6 -37 -6 -73q0 -104 52.5 -165t150.5 -61q168 0 242 155h218q-36 -106 -111 -182t-172 -115t-200 -39q-126 0 -219 50z
M785 612q5 35 5 60q0 94 -48 150t-143 56q-73 0 -131 -37.5t-93.5 -98.5t-45.5 -130h456z" />
    <glyph glyph-name="f" unicode="f" horiz-adv-x="763" 
d="M295 862h-194l26 172h193l23 154q19 124 95.5 191t201.5 67h211l-24 -166h-137q-56 0 -82 -29.5t-35 -96.5l-17 -120h226l-26 -172h-222l-125 -862h-239z" />
    <glyph glyph-name="g" unicode="g" horiz-adv-x="1199" 
d="M180 -313q-109 29 -163.5 81.5t-54.5 123.5q0 64 34.5 110t75.5 70.5t89 45.5l23 11q-5 3 -31 19t-44.5 43t-18.5 60q0 61 56 111t161 69q-79 43 -117 105t-38 139q0 17 4 49q15 101 84.5 174.5t178.5 112.5t239 39q94 0 157.5 -21.5t117.5 -63.5q61 23 194 77l99 39
l-30 -201l-178 -32q11 -39 11 -93q0 -14 -2 -30q-13 -90 -73.5 -166.5t-165.5 -122.5t-245 -46q-51 0 -81 3q-74 -3 -106.5 -19t-32.5 -39q0 -16 17.5 -25t52 -13.5t102.5 -9.5l209 -13q155 -10 231.5 -74t76.5 -168q0 -15 -4 -47q-15 -99 -84.5 -172.5t-191 -114
t-285.5 -40.5q-158 0 -267 29zM727 581.5q59 48.5 72 137.5q3 20 3 36q0 74 -47 116.5t-128 42.5q-94 0 -156.5 -53.5t-75.5 -141.5q-2 -12 -2 -34q0 -72 46 -112t132 -40q97 0 156 48.5zM698.5 -164q62.5 35 73.5 107q1 7 1 20q0 98 -146 108l-244 16q-44 2 -86 -19
t-68.5 -58t-26.5 -79q0 -67 76.5 -98.5t229.5 -31.5q128 0 190.5 35z" />
    <glyph glyph-name="h" unicode="h" horiz-adv-x="1152" 
d="M283 1486h237l-87 -592q51 67 129 108t188 41q87 0 156 -33.5t108 -94.5t39 -141q0 -23 -3 -47l-107 -727h-240l101 688q2 18 2 26q0 64 -45.5 101t-119.5 37q-56 0 -107.5 -20t-86.5 -59.5t-43 -93.5l-100 -679h-239z" />
    <glyph glyph-name="i" unicode="i" horiz-adv-x="545" 
d="M288 1452h247l-35 -230h-247zM230 1034h239l-151 -1034h-239z" />
    <glyph glyph-name="j" unicode="j" horiz-adv-x="555" 
d="M295 1452h248l-34 -230h-248zM-115.5 -324.5q-30.5 7.5 -39.5 18.5l24 163l87 6q63 7 91.5 35.5t37.5 89.5l153 1046h240l-155 -1051q-24 -161 -108 -238t-248 -77q-52 0 -82.5 7.5z" />
    <glyph glyph-name="k" unicode="k" horiz-adv-x="1119" 
d="M282 1486h239l-134 -921l474 469h262l-420 -404l285 -630h-243l-214 479l-183 -176l-45 -303h-238z" />
    <glyph glyph-name="l" unicode="l" horiz-adv-x="601" 
d="M157 40q-56 55 -56 150q0 41 8 89l177 1207h235l-173 -1179q-3 -21 -3 -40q0 -50 22.5 -76.5t71.5 -30.5l48 -2l-23 -153q-60 -20 -107 -20q-144 0 -200 55z" />
    <glyph glyph-name="m" unicode="m" horiz-adv-x="1721" 
d="M216 1034h234l-21 -138q127 158 330 158q85 0 158.5 -39.5t100.5 -117.5q60 72 148 114.5t177 42.5q71 0 133.5 -28t103 -90t40.5 -159q0 -35 -6 -76l-102 -701h-239l99 676q3 26 3 46q0 79 -41.5 114.5t-107.5 35.5q-89 0 -148 -50t-74 -155l-98 -667h-238l104 715
q2 16 2 24q0 41 -22 71.5t-57.5 46t-73.5 15.5q-46 0 -92.5 -19t-80 -58t-42.5 -95l-103 -700h-238z" />
    <glyph glyph-name="n" unicode="n" horiz-adv-x="1153" 
d="M217 1034h234l-19 -138q59 70 134 110t184 40q84 0 152 -35.5t107.5 -102.5t39.5 -158q0 -27 -5 -65l-100 -685h-240l97 657q3 21 3 39q0 73 -44 114.5t-116 41.5q-57 0 -109 -19.5t-87.5 -58.5t-43.5 -93l-100 -681h-239z" />
    <glyph glyph-name="o" unicode="o" horiz-adv-x="1095" 
d="M252 32q-90 52 -136.5 147t-46.5 222q0 48 8 109q24 160 100.5 283.5t193.5 192t258 68.5q126 0 215 -53.5t135 -150.5t46 -225q0 -54 -9 -113q-23 -156 -97.5 -276.5t-190.5 -188t-260 -67.5q-126 0 -216 52zM689.5 265q71.5 100 92.5 254q8 58 8 103q0 114 -46 181.5
t-143 67.5q-120 0 -192.5 -99t-94.5 -253q-8 -54 -8 -100q0 -115 46.5 -184.5t146.5 -69.5q119 0 190.5 100z" />
    <glyph glyph-name="p" unicode="p" horiz-adv-x="1160" 
d="M218 1034h238l-19 -136q59 66 139.5 111t180.5 45q98 0 174 -44t119 -133t43 -219q0 -64 -10 -130q-27 -177 -102.5 -300.5t-183 -185.5t-229.5 -62q-83 0 -142.5 38t-97.5 129l-68 -469h-240zM686.5 201.5q63.5 42.5 108.5 125t61 197.5q7 45 7 88q0 85 -27 143.5
t-73 88t-103 29.5q-61 0 -118 -33.5t-95 -85.5t-46 -103l-45 -321q18 -76 70.5 -123.5t124.5 -47.5t135.5 42.5z" />
    <glyph glyph-name="q" unicode="q" horiz-adv-x="1154" 
d="M724 141q-126 -161 -305 -161q-105 0 -183.5 46.5t-122 139t-43.5 226.5q0 66 10 136q25 172 96 290.5t171.5 177t214.5 58.5q95 0 159.5 -38.5t117.5 -96.5l17 115h239l-199 -1356h-239zM638 190q53 41 87 109.5t46 151.5l22 162q4 27 4 58q0 95 -48 153.5t-132 58.5
q-68 0 -128 -38.5t-104 -118.5t-61 -198q-8 -58 -8 -100q0 -131 54 -205t147 -74q68 0 121 41z" />
    <glyph glyph-name="r" unicode="r" horiz-adv-x="767" 
d="M217 1034h228l-32 -224q55 108 156 176t234 68l-34 -232q-38 2 -53 2q-156 0 -232.5 -60.5t-90.5 -162.5l-89 -601h-239z" />
    <glyph glyph-name="s" unicode="s" horiz-adv-x="1012" 
d="M243 17q-87 37 -138 112t-50 185h212q6 -83 62.5 -121.5t133.5 -38.5q90 0 148 33.5t68 95.5q1 6 1 17q0 41 -29.5 67t-89.5 40l-174 44q-117 28 -179.5 85.5t-62.5 153.5q0 21 3 45q14 97 74 169t156.5 111t218.5 39q105 0 183 -31t120 -89.5t42 -140.5q0 -26 -4 -49
h-203q-1 65 -47 101t-123 36q-76 0 -134 -30.5t-68 -98.5q-1 -5 -1 -13q0 -39 35 -63.5t110 -42.5l171 -44q116 -32 164.5 -100.5t48.5 -149.5q0 -22 -3 -42q-15 -100 -78.5 -172t-161 -108.5t-210.5 -36.5q-108 0 -195 37z" />
    <glyph glyph-name="t" unicode="t" horiz-adv-x="762" 
d="M222.5 41.5q-61.5 50.5 -61.5 149.5q0 39 5 69l88 602h-161l26 172h167l85 307h193l-44 -306h222l-26 -173h-222l-85 -588q-3 -21 -3 -37q0 -42 21 -56t70 -14h122l-23 -154q-54 -22 -166 -22q-146 0 -207.5 50.5z" />
    <glyph glyph-name="u" unicode="u" horiz-adv-x="1152" 
d="M278 12.5q-75 31.5 -123.5 97t-48.5 161.5q0 30 4 55l105 710h240l-102 -682q-3 -18 -3 -35q0 -79 50 -118t122 -39q56 0 105.5 23t83 68.5t42.5 108.5l99 674h240l-155 -1035h-182l2 202q-41 -115 -131.5 -168.5t-192.5 -53.5q-80 0 -155 31.5z" />
    <glyph glyph-name="v" unicode="v" horiz-adv-x="986" 
d="M106 1034h220l129 -724h11l340 724h220l-519 -1034h-186z" />
    <glyph glyph-name="w" unicode="w" horiz-adv-x="1518" 
d="M116 1034h215l101 -711h10l303 711h173l101 -710h11l300 710h218l-468 -1034h-203l-101 689l-297 -689h-199z" />
    <glyph glyph-name="x" unicode="x" horiz-adv-x="1116" 
d="M435 538l-277 496h253l181 -323l271 323h254l-424 -496l303 -538h-253l-205 368l-310 -368h-254z" />
    <glyph glyph-name="y" unicode="y" horiz-adv-x="1059" 
d="M31 -321q-43 9 -62 22l23 156l100 -3q9 -1 26 -1q64 0 103 17t57.5 39t32.5 50l36 76l-241 999h239l153 -731l367 731h233l-564 -1072q-62 -114 -125 -178t-128.5 -89t-144.5 -25q-62 0 -105 9z" />
    <glyph glyph-name="z" unicode="z" horiz-adv-x="1013" 
d="M25 133l644 743h-494l24 158h792l-20 -133l-645 -741h544l-24 -160h-840z" />
    <glyph glyph-name="braceleft" unicode="{" horiz-adv-x="702" 
d="M267 -299.5q-57 22.5 -89.5 66t-32.5 104.5q0 22 2 33l62 418q2 18 2 28q0 67 -48 110t-145 43l21 131q216 1 243 189l59 401q10 69 55.5 119.5t112.5 76.5t140 26h123l-22 -144h-79q-49 0 -76.5 -12.5t-39.5 -34.5t-17 -56l-60 -410q-17 -100 -82 -152.5t-146 -61.5
q-13 -2 -13 -7q0 -4 11 -6q71 -6 119 -47t48 -129q0 -20 -3 -44l-59 -414q-3 -17 -3 -31q0 -40 24.5 -57.5t82.5 -17.5h77l-22 -144h-118q-70 0 -127 22.5z" />
    <glyph glyph-name="bar" unicode="|" horiz-adv-x="530" 
d="M343 1652h179l-289 -1974h-177z" />
    <glyph glyph-name="braceright" unicode="}" horiz-adv-x="706" 
d="M420 1423.5q57 -22.5 89.5 -66t32.5 -104.5q0 -22 -2 -33l-62 -418q-2 -18 -2 -28q0 -67 48 -110t145 -43l-21 -131q-216 -1 -243 -189l-59 -401q-10 -69 -55.5 -119.5t-112.5 -76.5t-140 -26h-122l21 144h79q49 0 76.5 12.5t39.5 34.5t17 56l60 410q17 100 82 152.5
t146 61.5q13 2 13 7q0 4 -11 6q-71 6 -119 47.5t-48 129.5q0 20 3 44l59 413q3 17 3 31q0 40 -24.5 57.5t-82.5 17.5h-76l21 144h118q70 0 127 -22.5z" />
    <glyph glyph-name="asciitilde" unicode="~" horiz-adv-x="1151" 
d="M141 705q88 80 157.5 120t152.5 40q53 0 93.5 -15.5t92.5 -45.5q47 -27 79.5 -40t72.5 -13q118 0 218 127l51 -127q-53 -75 -129.5 -117t-160.5 -42q-53 0 -93.5 15.5t-92.5 45.5q-46 27 -80 40.5t-76 13.5q-65 0 -119 -34t-116 -95z" />
    <glyph glyph-name="uni00A0" unicode="&#xa0;" horiz-adv-x="466" 
 />
    <glyph glyph-name="exclamdown" unicode="&#xa1;" horiz-adv-x="530" 
d="M196 1034h270l-38 -276h-270zM199 622h153l-63 -944h-284z" />
    <glyph glyph-name="cent" unicode="&#xa2;" horiz-adv-x="1114" 
d="M535 1045q-65 -42 -109 -120.5t-61 -186.5q-7 -45 -7 -91q0 -126 57.5 -197t159.5 -71q83 0 146 54t90 131h206q-31 -126 -118.5 -215.5t-209.5 -125.5l-22 -223h-162l20 202q-123 3 -213.5 56.5t-139.5 149.5t-49 222q0 46 8 104q21 139 86.5 252t165 186t220.5 95
l18 179h162l-17 -174q95 -11 164 -57t105.5 -119.5t36.5 -167.5l-1 -26l-212 -1q-6 84 -51.5 135t-127.5 51q-80 0 -145 -42z" />
    <glyph glyph-name="sterling" unicode="&#xa3;" horiz-adv-x="1224" 
d="M-6 205h68q76 0 130 58t72 178q7 48 10 101t4 140h-196l22 142h167l3 173q-2 143 66.5 249.5t180.5 163t238 56.5q97 0 177 -32.5t134 -92t75 -139.5l-219 -69q-22 71 -58.5 102.5t-104.5 31.5q-81 0 -140 -51.5t-72 -141.5q-6 -46 -6 -106q0 -72 7 -143h293l-22 -142
h-274q-2 -73 -8.5 -121.5t-20.5 -97.5q-21 -96 -58.5 -154t-90.5 -103h289q94 0 150.5 36t101.5 124l195 -48q-138 -319 -463 -319h-681z" />
    <glyph glyph-name="currency" unicode="&#xa4;" horiz-adv-x="1094" 
d="M67 373l140 125q-38 79 -38 163q0 28 5 66q18 119 89 213q7 10 7 17q0 6 -6 13l-91 114l121 110l104 -129q53 34 112.5 53t117.5 19q115 0 202 -64q8 -4 11 -4q6 0 12 6l122 110l88 -110l-133 -119q38 -78 38 -167q0 -33 -4 -61q-8 -59 -32.5 -116t-61.5 -102
q-4 -6 -4.5 -10.5t2.5 -7.5l94 -110l-122 -110l-96 119q-117 -74 -232 -74q-57 0 -108.5 16t-92.5 46q-7 5 -13 5q-8 0 -16 -8l-128 -115zM657.5 519.5q57.5 33.5 96.5 89t48 119.5q3 18 3 36q0 56 -25 103t-70.5 75t-103.5 28q-64 0 -122 -33.5t-96.5 -89.5t-47.5 -119
q-3 -18 -3 -37q0 -56 25 -103t70 -74.5t104 -27.5q64 0 121.5 33.5z" />
    <glyph glyph-name="yen" unicode="&#xa5;" horiz-adv-x="1229" 
d="M806 688h260l-20 -140h-289l-25 -165h289l-21 -139h-288l-36 -244h-271l35 243h-289l21 139h288l24 165h-289l21 140h240l-327 759h311l245 -616l425 616h252z" />
    <glyph glyph-name="brokenbar" unicode="&#xa6;" horiz-adv-x="530" 
d="M343 1652h179l-119 -809h-177zM173 487h178l-118 -809h-177z" />
    <glyph glyph-name="section" unicode="&#xa7;" horiz-adv-x="974" 
d="M215.5 -119.5q-82.5 30.5 -137 83t-76.5 118.5l162 78q79 -154 255 -154q91 0 149 37.5t58 105.5q0 40 -32.5 74t-109.5 68l-145 61q-123 51 -178.5 112.5t-55.5 148.5q0 22 3 46q13 89 70.5 156.5t145.5 105.5q-72 47 -102.5 97t-30.5 109q0 21 3 43q13 84 69 151.5
t147 106t204 38.5q90 0 163.5 -29t123 -77.5t71.5 -105.5l-161 -79q-42 63 -92 99t-120 36q-79 0 -128.5 -31.5t-57.5 -85.5q-1 -4 -1 -13q0 -70 106 -118l145 -63q131 -57 190.5 -122.5t59.5 -155.5q0 -26 -4 -50q-13 -90 -65 -152t-134 -106q71 -45 104.5 -96t33.5 -116
q0 -19 -3 -42q-14 -91 -72 -160.5t-154 -109t-220 -39.5q-101 0 -183.5 30.5zM555 495q41 0 75.5 22t55 58.5t20.5 77.5q0 46 -29 81t-101 67l-88 38q-46 -4 -84.5 -25t-62.5 -53t-30 -68q-1 -8 -1 -21q0 -39 29 -68t108 -63l95 -45z" />
    <glyph glyph-name="dieresis" unicode="&#xa8;" horiz-adv-x="630" 
d="M135 1452h247l-34 -230h-248zM512 1452h247l-34 -230h-247z" />
    <glyph glyph-name="copyright" unicode="&#xa9;" horiz-adv-x="1588" 
d="M393.5 62.5q-139.5 82.5 -218 226t-78.5 321.5q0 62 8 114q29 201 150 371.5t299.5 270.5t371.5 100q175 0 315 -83t219 -226.5t79 -319.5q0 -54 -9 -113q-30 -203 -151 -374t-299 -270.5t-371 -99.5q-176 0 -315.5 82.5zM1027 200q138 74 231 209.5t119 314.5
q8 51 8 109q0 147 -60.5 258.5t-169.5 172t-250 60.5q-160 0 -298.5 -75t-230.5 -211.5t-118 -313.5q-9 -58 -9 -113q0 -148 60 -257.5t169.5 -168.5t252.5 -59q158 0 296 74zM593 353.5q-73 41.5 -113 117.5t-40 177q0 38 6 78q18 122 80.5 217t156 148t201.5 53
q123 0 195.5 -70t96.5 -173l-173 -27q-17 63 -47.5 98.5t-85.5 35.5q-84 0 -145.5 -73t-80.5 -205q-6 -43 -6 -79q0 -99 42.5 -151t117.5 -52q65 0 116.5 38t93.5 107l119 -37q-31 -59 -81.5 -114.5t-123 -92.5t-159.5 -37q-97 0 -170 41.5z" />
    <glyph glyph-name="ordfeminine" unicode="&#xaa;" horiz-adv-x="754" 
d="M185 833q-45 40 -45 109q0 22 2 33q14 97 102.5 155.5t234.5 65.5l87 7l5 44q2 16 2 24q0 44 -27 64t-73 20q-45 0 -80.5 -19.5t-66.5 -69.5l-125 33q48 83 117.5 123.5t176.5 40.5q115 -1 168.5 -44t53.5 -124q0 -20 -3 -43q-19 -127 -34 -243q-4 -28 -8 -70.5t-4 -68.5
l2 -65h-147l-4 77q-57 -47 -103 -68t-102 -21q-84 0 -129 40zM492 941q21 18 32.5 33.5t13.5 34.5l14 101l-71 -5q-84 -5 -133 -36.5t-57 -83.5q-1 -4 -1 -13q0 -33 24.5 -53t68.5 -20q63 0 109 42z" />
    <glyph glyph-name="guillemotleft" unicode="&#xab;" horiz-adv-x="932" 
d="M90 502l291 384h132l-227 -384l115 -368h-129zM443 502l294 384h130l-227 -384l116 -368h-130z" />
    <glyph glyph-name="logicalnot" unicode="&#xac;" horiz-adv-x="1116" 
d="M1030 759l-62 -417h-196l42 295l-678 -1l28 181l875 1z" />
    <glyph glyph-name="uni00AD" unicode="&#xad;" horiz-adv-x="758" 
d="M132 606l509 1l-26 -182l-509 -1z" />
    <glyph glyph-name="registered" unicode="&#xae;" horiz-adv-x="1054" 
d="M324.5 587q-87.5 51 -136.5 141t-49 200q0 41 5 72q19 127 94 234t187 169.5t234 62.5q109 0 196 -51.5t136 -142t49 -200.5q0 -42 -5 -72q-18 -127 -93.5 -233.5t-186.5 -168.5t-232 -62q-111 0 -198.5 51zM720.5 685q82.5 44 136 125.5t68.5 189.5q5 30 5 70
q0 88 -34.5 154t-99 101.5t-152.5 35.5q-101 0 -183.5 -44.5t-136 -126.5t-69.5 -190q-5 -31 -5 -71q0 -89 34.5 -153.5t99.5 -99.5t154 -35q100 0 182.5 44zM448 1228h204q70 0 108 -26t38 -75q0 -12 -1 -19q-7 -47 -36.5 -77.5t-72.5 -46.5l55 -217h-109l-39 206h-86
l-29 -206h-100zM619 1048q30 0 50 13t24 40q3 24 -13 38.5t-52 14.5h-93l-15 -106h99z" />
    <glyph glyph-name="macron" unicode="&#xaf;" horiz-adv-x="708" 
d="M160 1428h635l-24 -161h-635z" />
    <glyph glyph-name="degree" unicode="&#xb0;" horiz-adv-x="913" 
d="M378 1054.5q-61 33.5 -94 94.5t-33 140q0 30 4 57q14 94 65.5 168.5t129 116.5t166.5 42q79 0 140 -34.5t94.5 -96t33.5 -141.5q0 -30 -4 -55q-14 -94 -65.5 -168t-129 -115.5t-166.5 -41.5q-80 0 -141 33.5zM665 1213q52 50 63 131q3 20 3 37q0 65 -37.5 104t-104.5 39
q-74 0 -126.5 -50t-63.5 -130q-2 -20 -2 -30q0 -69 37.5 -110t104.5 -41q74 0 126 50z" />
    <glyph glyph-name="plusminus" unicode="&#xb1;" horiz-adv-x="1121" 
d="M1066 981l-27 -182h-348l-54 -362h-176l53 362h-350l27 181h349l53 364h179l-54 -363h348zM87 272l874 1l-26 -180l-875 -1z" />
    <glyph glyph-name="uni00B2" unicode="&#xb2;" horiz-adv-x="727" 
d="M106 850l6 42q12 83 57.5 142t103.5 96.5t149 83.5q73 38 115.5 64t73.5 62t38 82q2 14 2 22q0 53 -35.5 84.5t-98.5 31.5q-74 0 -128.5 -44.5t-75.5 -125.5h-146q14 85 62 153t127.5 107.5t184.5 39.5q126 0 197.5 -60.5t71.5 -162.5q0 -21 -3 -44q-12 -83 -57 -141
t-101.5 -93.5t-146.5 -79.5q-71 -35 -112 -59t-70.5 -58.5t-36.5 -79.5l-2 -13h451l-20 -131h-618z" />
    <glyph glyph-name="uni00B3" unicode="&#xb3;" horiz-adv-x="776" 
d="M197 818.5q-76 63.5 -76 175.5q0 22 3 46h145q1 -79 43 -119t114 -40q87 0 143.5 40t66.5 105q1 7 1 21q0 59 -46 92t-123 35l-80 3l18 124l75 4q54 1 98.5 22.5t70.5 56t26 75.5q0 48 -41 78.5t-110 30.5q-71 0 -125 -40.5t-70 -123.5h-146q14 91 65.5 155.5t129 97.5
t167.5 33q135 0 214.5 -52t79.5 -151q0 -17 -3 -37q-10 -70 -57.5 -122t-134.5 -81q70 -21 112 -68.5t42 -118.5q0 -17 -3 -37q-13 -84 -67.5 -144.5t-138 -92t-182.5 -31.5q-135 0 -211 63.5z" />
    <glyph glyph-name="acute" unicode="&#xb4;" horiz-adv-x="589" 
d="M130 1266l508 200l30 -167l-518 -144z" />
    <glyph glyph-name="uni00B5" unicode="&#xb5;" horiz-adv-x="1176" 
d="M222 1060h246l-101 -688q-1 -7 -1 -21q0 -60 42.5 -99t110.5 -39q67 0 132 41.5t121 114.5l100 691h248l-160 -1060h-238l24 164q-74 -64 -130.5 -94.5t-116.5 -37.5q-26 -2 -40 -2q-81 0 -136 41l-58 -401h-246z" />
    <glyph glyph-name="paragraph" unicode="&#xb6;" horiz-adv-x="1134" 
d="M484 596q-101 6 -178.5 49.5t-120.5 119t-43 175.5q0 35 6 74q17 117 82.5 215.5t174.5 157.5t249 59h478l-20 -142h-119l-215 -1470h-150l215 1470h-105l-216 -1470h-150z" />
    <glyph glyph-name="periodcentered" unicode="&#xb7;" horiz-adv-x="486" 
d="M155 857h259l-39 -257h-259z" />
    <glyph glyph-name="cedilla" unicode="&#xb8;" horiz-adv-x="493" 
d="M-98 -367l49 89q59 -48 133 -48q53 0 81.5 21t28.5 59q0 34 -35 52t-112 19q-9 0 -12.5 1t-3.5 5t4 11l95 168h112l-61 -119q86 -3 125 -40.5t39 -91.5q0 -13 -1 -20q-7 -49 -42.5 -84.5t-88.5 -54.5t-113 -19q-124 0 -198 52z" />
    <glyph glyph-name="uni00B9" unicode="&#xb9;" horiz-adv-x="598" 
d="M304 1461h-161l13 91q111 0 163.5 29t66.5 89h102l-134 -910h-153z" />
    <glyph glyph-name="ordmasculine" unicode="&#xba;" horiz-adv-x="748" 
d="M275.5 828.5q-56.5 33.5 -86.5 94t-30 140.5q0 27 5 64q14 100 62.5 176.5t121.5 119t159 42.5q78 0 135.5 -34t88 -95.5t30.5 -143.5q0 -27 -5 -65q-13 -97 -60.5 -172t-121 -117.5t-163.5 -42.5q-79 0 -135.5 33.5zM542.5 965q43.5 57 58.5 167q5 31 5 69
q0 74 -29 112.5t-86 38.5q-70 0 -113 -56.5t-58 -163.5q-6 -40 -6 -73q0 -74 28.5 -112.5t85.5 -38.5q71 0 114.5 57z" />
    <glyph glyph-name="guillemotright" unicode="&#xbb;" horiz-adv-x="930" 
d="M276 502l-114 384h130l180 -384l-291 -368h-128zM631 502l-116 384h131l180 -384l-290 -368h-130z" />
    <glyph glyph-name="onequarter" unicode="&#xbc;" horiz-adv-x="1830" 
d="M275 1253h-161l13 91q111 0 163.5 29t66.5 89h102l-134 -910h-153zM731 683l665 779l-406 -689l-666 -781zM1419 215h-405l20 131l483 564h149l-82 -564h139l-20 -131h-139l-31 -215h-145zM1438 346l54 374l-318 -374h264z" />
    <glyph glyph-name="onehalf" unicode="&#xbd;" horiz-adv-x="1842" 
d="M275 1253h-161l13 91q111 0 163.5 29t66.5 89h102l-134 -910h-153zM731 683l665 779l-406 -689l-666 -781zM1094 82l7 42q12 83 57.5 142t103.5 96.5t149 83.5q73 37 115.5 63.5t73 62.5t37.5 82q2 16 2 23q0 52 -35.5 83.5t-97.5 31.5q-74 0 -128.5 -44.5t-75.5 -125.5
h-146q14 85 61.5 153t127.5 107.5t185 39.5q126 0 197.5 -60.5t71.5 -162.5q0 -21 -3 -44q-12 -83 -57 -141t-101.5 -93.5t-146.5 -79.5q-70 -34 -111.5 -58.5t-71.5 -59t-36 -79.5l-2 -13h451l-21 -131h-618z" />
    <glyph glyph-name="threequarters" unicode="&#xbe;" horiz-adv-x="2009" 
d="M167 608.5q-76 63.5 -76 175.5q0 22 3 46h145q1 -79 43 -119t114 -40q87 0 143.5 40t66.5 105q1 7 1 21q0 59 -46 92t-123 35l-80 3l18 124l75 4q54 1 98.5 22.5t70.5 56t26 75.5q0 48 -41 78.5t-110 30.5q-71 0 -125 -40.5t-70 -123.5h-146q14 91 65.5 155.5t129 97.5
t167.5 33q135 0 214.5 -52t79.5 -151q0 -17 -3 -37q-10 -70 -57.5 -122t-134.5 -81q70 -21 112 -68.5t42 -118.5q0 -17 -3 -37q-13 -84 -67.5 -144.5t-138 -92t-182.5 -31.5q-135 0 -211 63.5zM909 683l665 779l-406 -689l-666 -781zM1597 215h-405l20 131l483 564h149
l-82 -564h139l-20 -131h-139l-31 -215h-145zM1616 346l54 374l-318 -374h264z" />
    <glyph glyph-name="questiondown" unicode="&#xbf;" horiz-adv-x="1035" 
d="M474 1034h270l-38 -276h-270zM173 -303.5q-91 38.5 -137 106t-46 154.5q0 22 3 46q11 78 45.5 136.5t79 99.5t115.5 94q68 51 108.5 88t72 88.5t40.5 118.5h198q-13 -91 -49.5 -159.5t-81.5 -115.5t-115 -105q-54 -46 -85 -77t-54.5 -70t-30.5 -86q-2 -16 -2 -25
q0 -70 50.5 -111.5t134.5 -41.5q56 0 114 24.5t106 67t75 96.5l200 -55q-81 -149 -216.5 -230.5t-303.5 -81.5q-130 0 -221 38.5z" />
    <glyph glyph-name="Agrave" unicode="&#xc0;" horiz-adv-x="1379" 
d="M700 1446h258l286 -1446h-241l-68 363h-528l-177 -363h-241zM907 579l-112 630l-300 -630h412zM583 1711l82 167l449 -200l-53 -111z" />
    <glyph glyph-name="Aacute" unicode="&#xc1;" horiz-adv-x="1379" 
d="M700 1446h258l286 -1446h-241l-68 363h-528l-177 -363h-241zM907 579l-112 630l-300 -630h412zM597 1678l508 200l30 -167l-518 -144z" />
    <glyph glyph-name="Acircumflex" unicode="&#xc2;" horiz-adv-x="1379" 
d="M700 1446h258l286 -1446h-241l-68 363h-528l-177 -363h-241zM907 579l-112 630l-300 -630h412zM773 1869h166l206 -252h-199l-108 143l-163 -143h-188z" />
    <glyph glyph-name="Atilde" unicode="&#xc3;" horiz-adv-x="1379" 
d="M700 1446h258l286 -1446h-241l-68 363h-528l-177 -363h-241zM907 579l-112 630l-300 -630h412zM566 1773q48 41 90 62t98 21q35 0 65.5 -7.5t76.5 -23.5q38 -13 65.5 -20t55.5 -7q41 0 79 17t78 46l14 -138q-91 -65 -193 -65q-36 0 -65 7.5t-69 21.5q-39 13 -64 19.5
t-55 6.5q-45 0 -77 -14.5t-77 -46.5z" />
    <glyph glyph-name="Adieresis" unicode="&#xc4;" horiz-adv-x="1379" 
d="M700 1446h258l286 -1446h-241l-68 363h-528l-177 -363h-241zM907 579l-112 630l-300 -630h412zM575 1861h247l-34 -230h-248zM952 1861h247l-34 -230h-247z" />
    <glyph glyph-name="Aring" unicode="&#xc5;" horiz-adv-x="1379" 
d="M700 1446h258l286 -1446h-241l-68 363h-528l-177 -363h-241zM907 579l-112 630l-300 -630h412zM755 1579.5q-40 23.5 -62.5 64.5t-22.5 92q0 18 3 36q8 55 42.5 102.5t85.5 75t106 27.5q51 0 91 -23t63 -63.5t23 -89.5q0 -16 -3 -33q-8 -59 -42.5 -107.5t-86 -76.5
t-107.5 -28q-50 0 -90 23.5zM915 1678.5q27 17.5 43 46t16 58.5q0 38 -23.5 62t-61.5 24q-29 0 -56 -15.5t-43.5 -43t-16.5 -59.5q0 -37 25 -63.5t61 -26.5q29 0 56 17.5z" />
    <glyph glyph-name="AE" unicode="&#xc6;" horiz-adv-x="1965" 
d="M890 1446h1066l-31 -205h-658l-60 -410h464l-30 -204h-464l-61 -420h680l-30 -207h-953l53 366h-458l-240 -366h-241zM897 579l103 702l-469 -702h366z" />
    <glyph glyph-name="Ccedilla" unicode="&#xc7;" horiz-adv-x="1380" 
d="M552.5 1131q-106.5 -131 -146.5 -403q-14 -103 -14 -178q0 -184 72 -275t211 -91q114 0 204.5 75.5t132.5 199.5l250 -10q-34 -127 -106.5 -228.5t-187 -165t-265.5 -73.5l-47 -91q86 -3 125 -40.5t39 -91.5q0 -13 -1 -20q-7 -49 -42.5 -84.5t-88.5 -54.5t-113 -19
q-124 0 -197 52l48 89q59 -48 133 -48q53 0 81.5 21t28.5 59q0 34 -35 52t-112 19q-9 0 -12.5 1t-3.5 5t4 11l79 141q-146 12 -249 85.5t-156 199t-53 293.5q0 83 13 170q33 226 130 392t247.5 254.5t338.5 88.5q151 0 263 -61t170 -167t52 -238l-253 -7q-4 125 -72 197
t-197 72q-164 0 -270.5 -131z" />
    <glyph glyph-name="Egrave" unicode="&#xc8;" horiz-adv-x="1239" 
d="M312 1446h922l-33 -209h-680l-58 -405h599l-30 -206h-601l-60 -414l696 -1l-33 -211h-934zM507 1711l82 167l449 -200l-53 -111z" />
    <glyph glyph-name="Eacute" unicode="&#xc9;" horiz-adv-x="1239" 
d="M312 1446h922l-33 -209h-680l-58 -405h599l-30 -206h-601l-60 -414l696 -1l-33 -211h-934zM521 1678l508 200l30 -167l-518 -144z" />
    <glyph glyph-name="Ecircumflex" unicode="&#xca;" horiz-adv-x="1239" 
d="M312 1446h922l-33 -209h-680l-58 -405h599l-30 -206h-601l-60 -414l696 -1l-33 -211h-934zM732 1869h166l206 -252h-199l-108 143l-163 -143h-188z" />
    <glyph glyph-name="Edieresis" unicode="&#xcb;" horiz-adv-x="1239" 
d="M312 1446h922l-33 -209h-680l-58 -405h599l-30 -206h-601l-60 -414l696 -1l-33 -211h-934zM499 1861h247l-34 -230h-248zM876 1861h247l-34 -230h-247z" />
    <glyph glyph-name="Igrave" unicode="&#xcc;" horiz-adv-x="589" 
d="M311 1446h240l-210 -1446h-240zM187 1711l82 167l449 -200l-53 -111z" />
    <glyph glyph-name="Iacute" unicode="&#xcd;" horiz-adv-x="589" 
d="M311 1446h240l-210 -1446h-240zM201 1678l508 200l30 -167l-518 -144z" />
    <glyph glyph-name="Icircumflex" unicode="&#xce;" horiz-adv-x="589" 
d="M311 1446h240l-210 -1446h-240zM413 1869h166l206 -252h-199l-108 143l-163 -143h-188z" />
    <glyph glyph-name="Idieresis" unicode="&#xcf;" horiz-adv-x="589" 
d="M311 1446h240l-210 -1446h-240zM179 1861h247l-34 -230h-248zM556 1861h247l-34 -230h-247z" />
    <glyph glyph-name="Eth" unicode="&#xd0;" horiz-adv-x="1471" 
d="M1257 1298q153 -139 153 -401q0 -81 -13 -166q-51 -354 -261 -542.5t-579 -188.5h-365l92 626h-193l21 184h199l94 636q260 0 377 -2q322 -7 475 -146zM1157 865q0 199 -104.5 289.5t-304.5 90.5h-132l-63 -435h297l-22 -184h-302l-61 -425h126q224 0 370 126t186 403
q10 70 10 135z" />
    <glyph glyph-name="Ntilde" unicode="&#xd1;" horiz-adv-x="1497" 
d="M312 1446h235l523 -1033l150 1033h240l-212 -1446h-215l-539 1061l-154 -1061h-240zM623 1773q48 41 90 62t98 21q35 0 65.5 -7.5t76.5 -23.5q38 -13 65.5 -20t55.5 -7q41 0 79 17t78 46l14 -138q-91 -65 -193 -65q-36 0 -65 7.5t-69 21.5q-39 13 -64 19.5t-55 6.5
q-45 0 -77 -14.5t-77 -46.5z" />
    <glyph glyph-name="Ograve" unicode="&#xd2;" horiz-adv-x="1473" 
d="M372 46.5q-119 66.5 -181 194t-62 306.5q0 84 13 171q34 232 135 400.5t255.5 258t343.5 89.5q165 0 283 -68t180 -197t62 -309q0 -84 -13 -172q-34 -230 -133.5 -396.5t-252.5 -255t-343 -88.5q-168 0 -287 66.5zM975 314.5q112 130.5 151 402.5q14 91 14 176
q0 188 -76 278.5t-218 90.5q-173 0 -287.5 -134t-154.5 -411q-13 -88 -13 -166q0 -187 77.5 -277t221.5 -90q173 0 285 130.5zM618 1711l82 167l449 -200l-53 -111z" />
    <glyph glyph-name="Oacute" unicode="&#xd3;" horiz-adv-x="1473" 
d="M372 46.5q-119 66.5 -181 194t-62 306.5q0 84 13 171q34 232 135 400.5t255.5 258t343.5 89.5q165 0 283 -68t180 -197t62 -309q0 -84 -13 -172q-34 -230 -133.5 -396.5t-252.5 -255t-343 -88.5q-168 0 -287 66.5zM975 314.5q112 130.5 151 402.5q14 91 14 176
q0 188 -76 278.5t-218 90.5q-173 0 -287.5 -134t-154.5 -411q-13 -88 -13 -166q0 -187 77.5 -277t221.5 -90q173 0 285 130.5zM632 1678l508 200l30 -167l-518 -144z" />
    <glyph glyph-name="Ocircumflex" unicode="&#xd4;" horiz-adv-x="1473" 
d="M372 46.5q-119 66.5 -181 194t-62 306.5q0 84 13 171q34 232 135 400.5t255.5 258t343.5 89.5q165 0 283 -68t180 -197t62 -309q0 -84 -13 -172q-34 -230 -133.5 -396.5t-252.5 -255t-343 -88.5q-168 0 -287 66.5zM975 314.5q112 130.5 151 402.5q14 91 14 176
q0 188 -76 278.5t-218 90.5q-173 0 -287.5 -134t-154.5 -411q-13 -88 -13 -166q0 -187 77.5 -277t221.5 -90q173 0 285 130.5zM844 1869h166l206 -252h-199l-108 143l-163 -143h-188z" />
    <glyph glyph-name="Otilde" unicode="&#xd5;" horiz-adv-x="1473" 
d="M372 46.5q-119 66.5 -181 194t-62 306.5q0 84 13 171q34 232 135 400.5t255.5 258t343.5 89.5q165 0 283 -68t180 -197t62 -309q0 -84 -13 -172q-34 -230 -133.5 -396.5t-252.5 -255t-343 -88.5q-168 0 -287 66.5zM975 314.5q112 130.5 151 402.5q14 91 14 176
q0 188 -76 278.5t-218 90.5q-173 0 -287.5 -134t-154.5 -411q-13 -88 -13 -166q0 -187 77.5 -277t221.5 -90q173 0 285 130.5zM602 1773q48 41 90 62t98 21q35 0 65.5 -7.5t76.5 -23.5q38 -13 65.5 -20t55.5 -7q41 0 79 17t78 46l14 -138q-91 -65 -193 -65q-36 0 -65 7.5
t-69 21.5q-39 13 -64 19.5t-55 6.5q-45 0 -77 -14.5t-77 -46.5z" />
    <glyph glyph-name="Odieresis" unicode="&#xd6;" horiz-adv-x="1473" 
d="M372 46.5q-119 66.5 -181 194t-62 306.5q0 84 13 171q34 232 135 400.5t255.5 258t343.5 89.5q165 0 283 -68t180 -197t62 -309q0 -84 -13 -172q-34 -230 -133.5 -396.5t-252.5 -255t-343 -88.5q-168 0 -287 66.5zM975 314.5q112 130.5 151 402.5q14 91 14 176
q0 188 -76 278.5t-218 90.5q-173 0 -287.5 -134t-154.5 -411q-13 -88 -13 -166q0 -187 77.5 -277t221.5 -90q173 0 285 130.5zM610 1861h247l-34 -230h-248zM987 1861h247l-34 -230h-247z" />
    <glyph glyph-name="multiply" unicode="&#xd7;" horiz-adv-x="1090" 
d="M698 727l253 -309l-146 -130l-251 309l-343 -309l-105 130l342 309l-253 311l144 128l253 -309l345 311l107 -128z" />
    <glyph glyph-name="Oslash" unicode="&#xd8;" horiz-adv-x="1481" 
d="M-11 89l187 179q-50 120 -50 276q0 79 14 174q34 232 135 400.5t255 258t343 89.5q129 0 229.5 -42t167.5 -123l181 170l94 -114l-194 -187q48 -117 48 -276q0 -86 -13 -174q-33 -230 -133 -396.5t-253.5 -255t-343.5 -88.5q-129 0 -229 40.5t-167 118.5l-176 -166z
M1077 1130q-60 137 -233 137q-154 0 -251.5 -112t-142.5 -343q-26 -138 -26 -259q0 -22 2 -66zM931.5 284.5q94.5 103.5 137.5 319.5q31 146 31 289q0 38 -1 57l-648 -641q32 -65 91 -96.5t146 -31.5q149 0 243.5 103.5z" />
    <glyph glyph-name="Ugrave" unicode="&#xd9;" horiz-adv-x="1406" 
d="M275.5 85.5q-111.5 105.5 -111.5 309.5q0 69 12 147l132 904h245l-136 -929q-6 -43 -6 -81q0 -124 64.5 -185.5t184.5 -61.5q138 0 228.5 82t114.5 246l134 929h242l-133 -918q-40 -267 -189 -407.5t-428 -140.5q-242 0 -353.5 105.5zM598 1711l82 167l449 -200l-53 -111
z" />
    <glyph glyph-name="Uacute" unicode="&#xda;" horiz-adv-x="1406" 
d="M275.5 85.5q-111.5 105.5 -111.5 309.5q0 69 12 147l132 904h245l-136 -929q-6 -43 -6 -81q0 -124 64.5 -185.5t184.5 -61.5q138 0 228.5 82t114.5 246l134 929h242l-133 -918q-40 -267 -189 -407.5t-428 -140.5q-242 0 -353.5 105.5zM612 1678l508 200l30 -167
l-518 -144z" />
    <glyph glyph-name="Ucircumflex" unicode="&#xdb;" horiz-adv-x="1406" 
d="M275.5 85.5q-111.5 105.5 -111.5 309.5q0 69 12 147l132 904h245l-136 -929q-6 -43 -6 -81q0 -124 64.5 -185.5t184.5 -61.5q138 0 228.5 82t114.5 246l134 929h242l-133 -918q-40 -267 -189 -407.5t-428 -140.5q-242 0 -353.5 105.5zM824 1869h166l206 -252h-199
l-108 143l-163 -143h-188z" />
    <glyph glyph-name="Udieresis" unicode="&#xdc;" horiz-adv-x="1406" 
d="M275.5 85.5q-111.5 105.5 -111.5 309.5q0 69 12 147l132 904h245l-136 -929q-6 -43 -6 -81q0 -124 64.5 -185.5t184.5 -61.5q138 0 228.5 82t114.5 246l134 929h242l-133 -918q-40 -267 -189 -407.5t-428 -140.5q-242 0 -353.5 105.5zM591 1861h247l-34 -230h-248z
M968 1861h247l-34 -230h-247z" />
    <glyph glyph-name="Yacute" unicode="&#xdd;" horiz-adv-x="1224" 
d="M500 612l-354 834h259l248 -622l425 622h262l-600 -835l-90 -611h-238zM501 1680l508 200l30 -167l-518 -144z" />
    <glyph glyph-name="Thorn" unicode="&#xde;" horiz-adv-x="1345" 
d="M312 1446h273l-41 -286h295q141 0 248.5 -38.5t168 -116.5t60.5 -194q0 -39 -5 -69q-20 -140 -97 -236.5t-197.5 -144.5t-269.5 -48h-327l-46 -313h-273zM741 515q121 0 198.5 59t93.5 171q3 20 3 37q0 89 -64 132t-178 43h-280l-65 -442h292z" />
    <glyph glyph-name="germandbls" unicode="&#xdf;" horiz-adv-x="1187" 
d="M507 -1.5q-63 18.5 -103 49.5l92 154q39 -29 73.5 -44.5t85.5 -15.5q83 0 139.5 42.5t67.5 120.5q2 20 2 27q0 44 -22 73.5t-56.5 49t-95.5 45.5q-78 35 -122.5 82t-44.5 125q0 18 3 37q11 71 51.5 122t115.5 99l28 20q40 28 64.5 49t43 49.5t23.5 64.5q2 14 2 22
q0 52 -37 82.5t-106 30.5q-95 0 -159.5 -63t-79.5 -176l-147 -1044h-221l116 827h-116l24 172h115q20 128 82 228.5t168.5 159.5t253.5 59q157 0 236 -65t79 -176q0 -23 -3 -47q-10 -70 -43.5 -120t-87.5 -86.5t-139 -75.5q-48 -25 -65 -40t-21 -39q-3 -25 10.5 -37
t54.5 -27q102 -48 160 -83t102 -99t44 -160q0 -24 -5 -61q-16 -112 -75 -190.5t-150 -119t-202 -40.5q-72 0 -135 18.5z" />
    <glyph glyph-name="agrave" unicode="&#xe0;" horiz-adv-x="1078" 
d="M180 10q-66 30 -102 87t-36 137q0 29 4 54q25 173 157.5 259t391.5 90l146 4l10 70q2 12 2 33q0 68 -43 104.5t-120 36.5q-75 0 -141 -38.5t-96 -112.5h-203q20 98 85.5 170t165.5 111t222 39q185 0 275 -70.5t90 -197.5q0 -26 -5 -61l-106 -725h-201l7 181
q-69 -111 -154 -156t-196 -45q-87 0 -153 30zM549 173.5q58 28.5 99 74.5t49 95l23 163l-119 -2q-296 -3 -323 -191q-2 -20 -2 -28q0 -66 43.5 -103t115.5 -37q56 0 114 28.5zM374 1299l82 167l449 -200l-53 -111z" />
    <glyph glyph-name="aacute" unicode="&#xe1;" horiz-adv-x="1078" 
d="M180 10q-66 30 -102 87t-36 137q0 29 4 54q25 173 157.5 259t391.5 90l146 4l10 70q2 12 2 33q0 68 -43 104.5t-120 36.5q-75 0 -141 -38.5t-96 -112.5h-203q20 98 85.5 170t165.5 111t222 39q185 0 275 -70.5t90 -197.5q0 -26 -5 -61l-106 -725h-201l7 181
q-69 -111 -154 -156t-196 -45q-87 0 -153 30zM549 173.5q58 28.5 99 74.5t49 95l23 163l-119 -2q-296 -3 -323 -191q-2 -20 -2 -28q0 -66 43.5 -103t115.5 -37q56 0 114 28.5zM388 1266l508 200l30 -167l-518 -144z" />
    <glyph glyph-name="acircumflex" unicode="&#xe2;" horiz-adv-x="1078" 
d="M180 10q-66 30 -102 87t-36 137q0 29 4 54q25 173 157.5 259t391.5 90l146 4l10 70q2 12 2 33q0 68 -43 104.5t-120 36.5q-75 0 -141 -38.5t-96 -112.5h-203q20 98 85.5 170t165.5 111t222 39q185 0 275 -70.5t90 -197.5q0 -26 -5 -61l-106 -725h-201l7 181
q-69 -111 -154 -156t-196 -45q-87 0 -153 30zM549 173.5q58 28.5 99 74.5t49 95l23 163l-119 -2q-296 -3 -323 -191q-2 -20 -2 -28q0 -66 43.5 -103t115.5 -37q56 0 114 28.5zM600 1457h166l206 -252h-199l-108 143l-163 -143h-188z" />
    <glyph glyph-name="atilde" unicode="&#xe3;" horiz-adv-x="1078" 
d="M180 10q-66 30 -102 87t-36 137q0 29 4 54q25 173 157.5 259t391.5 90l146 4l10 70q2 12 2 33q0 68 -43 104.5t-120 36.5q-75 0 -141 -38.5t-96 -112.5h-203q20 98 85.5 170t165.5 111t222 39q185 0 275 -70.5t90 -197.5q0 -26 -5 -61l-106 -725h-201l7 181
q-69 -111 -154 -156t-196 -45q-87 0 -153 30zM549 173.5q58 28.5 99 74.5t49 95l23 163l-119 -2q-296 -3 -323 -191q-2 -20 -2 -28q0 -66 43.5 -103t115.5 -37q56 0 114 28.5zM358 1361q48 41 90 62t98 21q35 0 65.5 -7.5t76.5 -23.5q38 -13 65.5 -20t55.5 -7q41 0 79 17
t78 46l14 -138q-91 -65 -193 -65q-36 0 -65 7.5t-69 21.5q-39 13 -64 19.5t-55 6.5q-45 0 -77 -14.5t-77 -46.5z" />
    <glyph glyph-name="adieresis" unicode="&#xe4;" horiz-adv-x="1078" 
d="M180 10q-66 30 -102 87t-36 137q0 29 4 54q25 173 157.5 259t391.5 90l146 4l10 70q2 12 2 33q0 68 -43 104.5t-120 36.5q-75 0 -141 -38.5t-96 -112.5h-203q20 98 85.5 170t165.5 111t222 39q185 0 275 -70.5t90 -197.5q0 -26 -5 -61l-106 -725h-201l7 181
q-69 -111 -154 -156t-196 -45q-87 0 -153 30zM549 173.5q58 28.5 99 74.5t49 95l23 163l-119 -2q-296 -3 -323 -191q-2 -20 -2 -28q0 -66 43.5 -103t115.5 -37q56 0 114 28.5zM366 1449h247l-34 -230h-248zM743 1449h247l-34 -230h-247z" />
    <glyph glyph-name="aring" unicode="&#xe5;" horiz-adv-x="1078" 
d="M180 10q-66 30 -102 87t-36 137q0 29 4 54q25 173 157.5 259t391.5 90l146 4l10 70q2 12 2 33q0 68 -43 104.5t-120 36.5q-75 0 -141 -38.5t-96 -112.5h-203q20 98 85.5 170t165.5 111t222 39q185 0 275 -70.5t90 -197.5q0 -26 -5 -61l-106 -725h-201l7 181
q-69 -111 -154 -156t-196 -45q-87 0 -153 30zM549 173.5q58 28.5 99 74.5t49 95l23 163l-119 -2q-296 -3 -323 -191q-2 -20 -2 -28q0 -66 43.5 -103t115.5 -37q56 0 114 28.5zM546 1167.5q-40 23.5 -62.5 64.5t-22.5 92q0 18 3 36q8 55 42.5 102.5t85.5 75t106 27.5
q51 0 91 -23t63 -63.5t23 -89.5q0 -16 -3 -33q-8 -59 -42.5 -107.5t-86 -76.5t-107.5 -28q-50 0 -90 23.5zM706 1266.5q27 17.5 43 46t16 58.5q0 38 -23.5 62t-61.5 24q-29 0 -56 -15.5t-43.5 -43t-16.5 -59.5q0 -37 25 -63.5t61 -26.5q29 0 56 17.5z" />
    <glyph glyph-name="ae" unicode="&#xe6;" horiz-adv-x="1763" 
d="M112.5 43.5q-72.5 63.5 -72.5 174.5q0 29 4 54q22 153 161 244.5t388 107.5l154 12l10 72q3 21 3 40q0 70 -42 108t-124 38q-69 0 -134 -38t-119 -117l-195 55q80 130 195.5 195t288.5 65q129 -1 207 -38.5t110 -112.5q69 75 156.5 113t186.5 38q121 0 211 -53
t138.5 -154.5t48.5 -243.5q0 -67 -10 -134h-717q-4 -24 -4 -52q0 -74 29.5 -134.5t82.5 -95.5t120 -35q61 0 111.5 19.5t93 52.5t93.5 85l140 -71q-100 -134 -219.5 -196t-272.5 -62q-228 0 -359 192q-2 5 -6 5t-9 -5q-95 -91 -197.5 -141.5t-243.5 -50.5
q-135 0 -207.5 63.5zM1466 661q0 62 -22 116t-65.5 86.5t-104.5 32.5q-68 0 -129 -34t-103 -98.5t-54 -151.5l474 -2q4 23 4 51zM551 163q61 25 102 68.5t49 96.5l25 171l-127 -9q-141 -12 -230 -70.5t-89 -157.5q0 -57 37 -90.5t106 -33.5q66 0 127 25z" />
    <glyph glyph-name="ccedilla" unicode="&#xe7;" horiz-adv-x="1034" 
d="M464.5 823q-62.5 -42 -104.5 -120.5t-58 -186.5q-7 -45 -7 -92q0 -125 55 -196t153 -71q79 0 140 54t86 131h198q-24 -100 -82 -178t-142 -124.5t-183 -56.5l-47 -92q86 -3 125 -40.5t39 -91.5q0 -13 -1 -20q-7 -49 -42.5 -84.5t-88.5 -54.5t-113 -19q-124 0 -197 52
l48 89q59 -48 133 -48q53 0 81.5 21t28.5 59q0 34 -35 52t-112 19q-9 0 -12.5 1t-3.5 5t4 11l80 142q-104 12 -180 67.5t-117 147t-41 208.5q0 47 8 105q23 158 100 281t194 192t255 69q109 0 189 -44t122.5 -123t42.5 -182l-1 -25l-204 -1q-5 84 -49 135t-123 51
q-76 0 -138.5 -42z" />
    <glyph glyph-name="egrave" unicode="&#xe8;" horiz-adv-x="1075" 
d="M262 30q-93 50 -143 144.5t-50 224.5q0 58 8 107q23 159 96.5 283.5t190 194.5t261.5 70q187 0 285 -106t98 -294q0 -56 -9 -119l-11 -75h-681q-6 -37 -6 -73q0 -104 52.5 -165t150.5 -61q168 0 242 155h218q-36 -106 -111 -182t-172 -115t-200 -39q-126 0 -219 50z
M785 612q5 35 5 60q0 94 -48 150t-143 56q-73 0 -131 -37.5t-93.5 -98.5t-45.5 -130h456zM377 1299l82 167l449 -200l-53 -111z" />
    <glyph glyph-name="eacute" unicode="&#xe9;" horiz-adv-x="1075" 
d="M262 30q-93 50 -143 144.5t-50 224.5q0 58 8 107q23 159 96.5 283.5t190 194.5t261.5 70q187 0 285 -106t98 -294q0 -56 -9 -119l-11 -75h-681q-6 -37 -6 -73q0 -104 52.5 -165t150.5 -61q168 0 242 155h218q-36 -106 -111 -182t-172 -115t-200 -39q-126 0 -219 50z
M785 612q5 35 5 60q0 94 -48 150t-143 56q-73 0 -131 -37.5t-93.5 -98.5t-45.5 -130h456zM391 1266l508 200l30 -167l-518 -144z" />
    <glyph glyph-name="ecircumflex" unicode="&#xea;" horiz-adv-x="1075" 
d="M262 30q-93 50 -143 144.5t-50 224.5q0 58 8 107q23 159 96.5 283.5t190 194.5t261.5 70q187 0 285 -106t98 -294q0 -56 -9 -119l-11 -75h-681q-6 -37 -6 -73q0 -104 52.5 -165t150.5 -61q168 0 242 155h218q-36 -106 -111 -182t-172 -115t-200 -39q-126 0 -219 50z
M785 612q5 35 5 60q0 94 -48 150t-143 56q-73 0 -131 -37.5t-93.5 -98.5t-45.5 -130h456zM603 1457h166l206 -252h-199l-108 143l-163 -143h-188z" />
    <glyph glyph-name="edieresis" unicode="&#xeb;" horiz-adv-x="1075" 
d="M262 30q-93 50 -143 144.5t-50 224.5q0 58 8 107q23 159 96.5 283.5t190 194.5t261.5 70q187 0 285 -106t98 -294q0 -56 -9 -119l-11 -75h-681q-6 -37 -6 -73q0 -104 52.5 -165t150.5 -61q168 0 242 155h218q-36 -106 -111 -182t-172 -115t-200 -39q-126 0 -219 50z
M785 612q5 35 5 60q0 94 -48 150t-143 56q-73 0 -131 -37.5t-93.5 -98.5t-45.5 -130h456zM369 1449h247l-34 -230h-248zM746 1449h247l-34 -230h-247z" />
    <glyph glyph-name="igrave" unicode="&#xec;" horiz-adv-x="535" 
d="M226 1034h240l-152 -1034h-240zM102 1299l82 167l449 -200l-53 -111z" />
    <glyph glyph-name="iacute" unicode="&#xed;" horiz-adv-x="535" 
d="M226 1034h240l-152 -1034h-240zM116 1266l508 200l30 -167l-518 -144z" />
    <glyph glyph-name="icircumflex" unicode="&#xee;" horiz-adv-x="535" 
d="M226 1034h240l-152 -1034h-240zM328 1457h166l206 -252h-199l-108 143l-163 -143h-188z" />
    <glyph glyph-name="idieresis" unicode="&#xef;" horiz-adv-x="535" 
d="M226 1034h240l-152 -1034h-240zM94 1449h247l-34 -230h-248zM471 1449h247l-34 -230h-247z" />
    <glyph glyph-name="eth" unicode="&#xf0;" horiz-adv-x="1139" 
d="M265 33q-95 53 -146 148.5t-51 219.5q0 48 7 91q22 150 102 269t200.5 186t257.5 67q93 0 139 -57q-25 71 -67 131.5t-108 114.5l-284 -154l-39 85l241 128q-81 51 -189 95l152 111q133 -45 228 -103l201 107l32 -87l-148 -81q141 -113 211 -269.5t70 -345.5
q0 -79 -12 -163q-24 -163 -103 -287t-200.5 -191.5t-270.5 -67.5q-128 0 -223 53zM655 191q62 43 103.5 122t55.5 185q7 45 7 92q0 121 -53.5 191t-149.5 70q-74 0 -137 -44t-105 -124t-57 -185q-7 -45 -7 -89q0 -122 54.5 -191.5t150.5 -69.5q76 0 138 43z" />
    <glyph glyph-name="ntilde" unicode="&#xf1;" horiz-adv-x="1153" 
d="M217 1034h234l-19 -138q59 70 134 110t184 40q84 0 152 -35.5t107.5 -102.5t39.5 -158q0 -27 -5 -65l-100 -685h-240l97 657q3 21 3 39q0 73 -44 114.5t-116 41.5q-57 0 -109 -19.5t-87.5 -58.5t-43.5 -93l-100 -681h-239zM402 1361q48 41 90 62t98 21q35 0 65.5 -7.5
t76.5 -23.5q38 -13 65.5 -20t55.5 -7q41 0 79 17t78 46l14 -138q-91 -65 -193 -65q-36 0 -65 7.5t-69 21.5q-39 13 -64 19.5t-55 6.5q-45 0 -77 -14.5t-77 -46.5z" />
    <glyph glyph-name="ograve" unicode="&#xf2;" horiz-adv-x="1095" 
d="M252 32q-90 52 -136.5 147t-46.5 222q0 48 8 109q24 160 100.5 283.5t193.5 192t258 68.5q126 0 215 -53.5t135 -150.5t46 -225q0 -54 -9 -113q-23 -156 -97.5 -276.5t-190.5 -188t-260 -67.5q-126 0 -216 52zM689.5 265q71.5 100 92.5 254q8 58 8 103q0 114 -46 181.5
t-143 67.5q-120 0 -192.5 -99t-94.5 -253q-8 -54 -8 -100q0 -115 46.5 -184.5t146.5 -69.5q119 0 190.5 100zM379 1299l82 167l449 -200l-53 -111z" />
    <glyph glyph-name="oacute" unicode="&#xf3;" horiz-adv-x="1095" 
d="M252 32q-90 52 -136.5 147t-46.5 222q0 48 8 109q24 160 100.5 283.5t193.5 192t258 68.5q126 0 215 -53.5t135 -150.5t46 -225q0 -54 -9 -113q-23 -156 -97.5 -276.5t-190.5 -188t-260 -67.5q-126 0 -216 52zM689.5 265q71.5 100 92.5 254q8 58 8 103q0 114 -46 181.5
t-143 67.5q-120 0 -192.5 -99t-94.5 -253q-8 -54 -8 -100q0 -115 46.5 -184.5t146.5 -69.5q119 0 190.5 100zM394 1266l508 200l30 -167l-518 -144z" />
    <glyph glyph-name="ocircumflex" unicode="&#xf4;" horiz-adv-x="1095" 
d="M252 32q-90 52 -136.5 147t-46.5 222q0 48 8 109q24 160 100.5 283.5t193.5 192t258 68.5q126 0 215 -53.5t135 -150.5t46 -225q0 -54 -9 -113q-23 -156 -97.5 -276.5t-190.5 -188t-260 -67.5q-126 0 -216 52zM689.5 265q71.5 100 92.5 254q8 58 8 103q0 114 -46 181.5
t-143 67.5q-120 0 -192.5 -99t-94.5 -253q-8 -54 -8 -100q0 -115 46.5 -184.5t146.5 -69.5q119 0 190.5 100zM605 1457h166l206 -252h-199l-108 143l-163 -143h-188z" />
    <glyph glyph-name="otilde" unicode="&#xf5;" horiz-adv-x="1095" 
d="M252 32q-90 52 -136.5 147t-46.5 222q0 48 8 109q24 160 100.5 283.5t193.5 192t258 68.5q126 0 215 -53.5t135 -150.5t46 -225q0 -54 -9 -113q-23 -156 -97.5 -276.5t-190.5 -188t-260 -67.5q-126 0 -216 52zM689.5 265q71.5 100 92.5 254q8 58 8 103q0 114 -46 181.5
t-143 67.5q-120 0 -192.5 -99t-94.5 -253q-8 -54 -8 -100q0 -115 46.5 -184.5t146.5 -69.5q119 0 190.5 100zM363 1361q48 41 90 62t98 21q35 0 65.5 -7.5t76.5 -23.5q38 -13 65.5 -20t55.5 -7q41 0 79 17t78 46l14 -138q-91 -65 -193 -65q-36 0 -65 7.5t-69 21.5
q-39 13 -64 19.5t-55 6.5q-45 0 -77 -14.5t-77 -46.5z" />
    <glyph glyph-name="odieresis" unicode="&#xf6;" horiz-adv-x="1095" 
d="M252 32q-90 52 -136.5 147t-46.5 222q0 48 8 109q24 160 100.5 283.5t193.5 192t258 68.5q126 0 215 -53.5t135 -150.5t46 -225q0 -54 -9 -113q-23 -156 -97.5 -276.5t-190.5 -188t-260 -67.5q-126 0 -216 52zM689.5 265q71.5 100 92.5 254q8 58 8 103q0 114 -46 181.5
t-143 67.5q-120 0 -192.5 -99t-94.5 -253q-8 -54 -8 -100q0 -115 46.5 -184.5t146.5 -69.5q119 0 190.5 100zM372 1449h247l-34 -230h-248zM749 1449h247l-34 -230h-247z" />
    <glyph glyph-name="divide" unicode="&#xf7;" horiz-adv-x="1115" 
d="M531 1233h265l-39 -261h-264zM163 817l875 1l-27 -181l-875 -1zM420 483h264l-38 -261h-265z" />
    <glyph glyph-name="oslash" unicode="&#xf8;" horiz-adv-x="1097" 
d="M959 836q39 -91 39 -211q0 -61 -8 -113q-23 -156 -97.5 -276.5t-190.5 -188t-260 -67.5q-172 0 -277 97l-94 -90l-87 92l105 101q-46 95 -46 221q0 58 8 109q24 160 100.5 283.5t193.5 192t258 68.5q91 0 163.5 -28.5t123.5 -82.5l106 101l85 -92zM280 419q0 -28 3 -55
l445 424q-48 83 -153 83q-120 0 -192.5 -99t-94.5 -253q-8 -54 -8 -100zM764 619l-1 30l-435 -416q50 -68 145 -68q119 0 190 100t93 254q8 54 8 100z" />
    <glyph glyph-name="ugrave" unicode="&#xf9;" horiz-adv-x="1152" 
d="M278 12.5q-75 31.5 -123.5 97t-48.5 161.5q0 30 4 55l105 710h240l-102 -682q-3 -18 -3 -35q0 -79 50 -118t122 -39q56 0 105.5 23t83 68.5t42.5 108.5l99 674h240l-155 -1035h-182l2 202q-41 -115 -131.5 -168.5t-192.5 -53.5q-80 0 -155 31.5zM406 1299l82 167
l449 -200l-53 -111z" />
    <glyph glyph-name="uacute" unicode="&#xfa;" horiz-adv-x="1152" 
d="M278 12.5q-75 31.5 -123.5 97t-48.5 161.5q0 30 4 55l105 710h240l-102 -682q-3 -18 -3 -35q0 -79 50 -118t122 -39q56 0 105.5 23t83 68.5t42.5 108.5l99 674h240l-155 -1035h-182l2 202q-41 -115 -131.5 -168.5t-192.5 -53.5q-80 0 -155 31.5zM420 1266l508 200
l30 -167l-518 -144z" />
    <glyph glyph-name="ucircumflex" unicode="&#xfb;" horiz-adv-x="1152" 
d="M278 12.5q-75 31.5 -123.5 97t-48.5 161.5q0 30 4 55l105 710h240l-102 -682q-3 -18 -3 -35q0 -79 50 -118t122 -39q56 0 105.5 23t83 68.5t42.5 108.5l99 674h240l-155 -1035h-182l2 202q-41 -115 -131.5 -168.5t-192.5 -53.5q-80 0 -155 31.5zM632 1457h166l206 -252
h-199l-108 143l-163 -143h-188z" />
    <glyph glyph-name="udieresis" unicode="&#xfc;" horiz-adv-x="1152" 
d="M278 12.5q-75 31.5 -123.5 97t-48.5 161.5q0 30 4 55l105 710h240l-102 -682q-3 -18 -3 -35q0 -79 50 -118t122 -39q56 0 105.5 23t83 68.5t42.5 108.5l99 674h240l-155 -1035h-182l2 202q-41 -115 -131.5 -168.5t-192.5 -53.5q-80 0 -155 31.5zM398 1449h247l-34 -230
h-248zM775 1449h247l-34 -230h-247z" />
    <glyph glyph-name="yacute" unicode="&#xfd;" horiz-adv-x="1059" 
d="M31 -321q-43 9 -62 22l23 156l100 -3q9 -1 26 -1q64 0 103 17t57.5 39t32.5 50l36 76l-241 999h239l153 -731l367 731h233l-564 -1072q-62 -114 -125 -178t-128.5 -89t-144.5 -25q-62 0 -105 9zM398 1266l508 200l30 -167l-518 -144z" />
    <glyph glyph-name="thorn" unicode="&#xfe;" horiz-adv-x="1160" 
d="M279 1446h239l-79 -548q44 44 86.5 76.5t103.5 56t137 23.5q98 0 171.5 -43.5t115 -131t41.5 -215.5q0 -59 -11 -136q-26 -178 -96 -301t-171.5 -185t-222.5 -62q-150 0 -243 99q-16 16 -21 16q-4 0 -7 -6.5t-5 -21.5l-57 -389h-240zM731 237q81 97 110 293q9 62 9 112
q0 130 -54 190.5t-147 60.5q-59 0 -111.5 -27t-86.5 -70t-41 -87l-66 -458q39 -54 84.5 -82.5t105.5 -28.5q116 0 197 97z" />
    <glyph glyph-name="ydieresis" unicode="&#xff;" horiz-adv-x="1059" 
d="M31 -321q-43 9 -62 22l23 156l100 -3q9 -1 26 -1q64 0 103 17t57.5 39t32.5 50l36 76l-241 999h239l153 -731l367 731h233l-564 -1072q-62 -114 -125 -178t-128.5 -89t-144.5 -25q-62 0 -105 9zM376 1449h247l-34 -230h-248zM753 1449h247l-34 -230h-247z" />
    <glyph glyph-name="Amacron" unicode="&#x100;" horiz-adv-x="1379" 
d="M700 1446h258l286 -1446h-241l-68 363h-528l-177 -363h-241zM907 579l-112 630l-300 -630h412zM569 1840h635l-24 -161h-635z" />
    <glyph glyph-name="amacron" unicode="&#x101;" horiz-adv-x="1078" 
d="M180 10q-66 30 -102 87t-36 137q0 29 4 54q25 173 157.5 259t391.5 90l146 4l10 70q2 12 2 33q0 68 -43 104.5t-120 36.5q-75 0 -141 -38.5t-96 -112.5h-203q20 98 85.5 170t165.5 111t222 39q185 0 275 -70.5t90 -197.5q0 -26 -5 -61l-106 -725h-201l7 181
q-69 -111 -154 -156t-196 -45q-87 0 -153 30zM549 173.5q58 28.5 99 74.5t49 95l23 163l-119 -2q-296 -3 -323 -191q-2 -20 -2 -28q0 -66 43.5 -103t115.5 -37q56 0 114 28.5zM360 1428h635l-24 -161h-635z" />
    <glyph glyph-name="Abreve" unicode="&#x102;" horiz-adv-x="1379" 
d="M700 1446h258l286 -1446h-241l-68 363h-528l-177 -363h-241zM907 579l-112 630l-300 -630h412zM663 1683q-75 64 -88 173h153q19 -47 53 -77.5t95 -30.5q104 0 182 108h154q-46 -105 -142 -171t-214 -66t-193 64z" />
    <glyph glyph-name="abreve" unicode="&#x103;" horiz-adv-x="1078" 
d="M180 10q-66 30 -102 87t-36 137q0 29 4 54q25 173 157.5 259t391.5 90l146 4l10 70q2 12 2 33q0 68 -43 104.5t-120 36.5q-75 0 -141 -38.5t-96 -112.5h-203q20 98 85.5 170t165.5 111t222 39q185 0 275 -70.5t90 -197.5q0 -26 -5 -61l-106 -725h-201l7 181
q-69 -111 -154 -156t-196 -45q-87 0 -153 30zM549 173.5q58 28.5 99 74.5t49 95l23 163l-119 -2q-296 -3 -323 -191q-2 -20 -2 -28q0 -66 43.5 -103t115.5 -37q56 0 114 28.5zM454 1271q-75 64 -88 173h153q19 -47 53 -77.5t95 -30.5q104 0 182 108h154q-46 -105 -142 -171
t-214 -66t-193 64z" />
    <glyph glyph-name="Aogonek" unicode="&#x104;" horiz-adv-x="1379" 
d="M1256 -179l-17 -116q-32 -18 -87 -31t-112 -13q-88 0 -134 34t-46 99q0 8 2 28q8 57 49 100t133 78h-41l-68 363h-528l-177 -363h-241l711 1446h258l285 -1443h5l-4 -2v-1h-4q-101 -39 -144.5 -73t-51.5 -78q-1 -5 -1 -13q0 -28 16 -41.5t52 -13.5q69 0 145 40zM907 579
l-112 630l-300 -630h412z" />
    <glyph glyph-name="aogonek" unicode="&#x105;" horiz-adv-x="1078" 
d="M716.5 -68.5q-40.5 -33.5 -47.5 -75.5q-1 -5 -1 -13q0 -28 16 -41.5t52 -13.5q69 0 145 40l-17 -116q-32 -18 -87 -31t-112 -13q-88 0 -134 34t-46 99q0 8 2 28q8 58 50 102t139 79l7 171q-69 -111 -154 -156t-196 -45q-87 0 -153 30t-102 87t-36 137q0 29 4 54
q25 173 157.5 259t391.5 90l146 4l10 70q2 12 2 33q0 68 -43 104.5t-120 36.5q-75 0 -141 -38.5t-96 -112.5h-203q20 98 85.5 170t165.5 111t222 39q185 0 275 -70.5t90 -197.5q0 -26 -5 -61l-106 -725h-30q-90 -35 -130.5 -68.5zM549 173.5q58 28.5 99 74.5t49 95l23 163
l-119 -2q-296 -3 -323 -191q-2 -20 -2 -28q0 -66 43.5 -103t115.5 -37q56 0 114 28.5z" />
    <glyph glyph-name="Cacute" unicode="&#x106;" horiz-adv-x="1380" 
d="M368.5 50.5q-116.5 70.5 -177 201t-60.5 308.5q0 84 13 171q33 226 130 392t247.5 254.5t338.5 88.5q151 0 263 -61t170 -167t52 -238l-253 -7q-4 125 -72 197t-197 72q-164 0 -270.5 -131t-146.5 -403q-14 -103 -14 -178q0 -184 72 -275t211 -91q114 0 204.5 75.5
t132.5 199.5l250 -10q-36 -134 -115 -239.5t-205 -167.5t-293 -62q-164 0 -280.5 70.5zM626 1678l508 200l30 -167l-518 -144z" />
    <glyph glyph-name="cacute" unicode="&#x107;" horiz-adv-x="1034" 
d="M256.5 33q-90.5 53 -139 149.5t-48.5 225.5q0 46 8 104q23 158 100 281t194 192t255 69q109 0 189 -44t122.5 -123t42.5 -182l-1 -25l-204 -1q-5 84 -49 135t-123 51q-76 0 -138.5 -42t-104.5 -120.5t-58 -186.5q-7 -45 -7 -92q0 -125 55 -196t153 -71q79 0 140 54
t86 131h198q-26 -109 -92 -191t-161.5 -126.5t-205.5 -44.5q-121 0 -211.5 53zM390 1266l508 200l30 -167l-518 -144z" />
    <glyph glyph-name="Ccircumflex" unicode="&#x108;" horiz-adv-x="1380" 
d="M368.5 50.5q-116.5 70.5 -177 201t-60.5 308.5q0 84 13 171q33 226 130 392t247.5 254.5t338.5 88.5q151 0 263 -61t170 -167t52 -238l-253 -7q-4 125 -72 197t-197 72q-164 0 -270.5 -131t-146.5 -403q-14 -103 -14 -178q0 -184 72 -275t211 -91q114 0 204.5 75.5
t132.5 199.5l250 -10q-36 -134 -115 -239.5t-205 -167.5t-293 -62q-164 0 -280.5 70.5zM837 1869h166l206 -252h-199l-108 143l-163 -143h-188z" />
    <glyph glyph-name="ccircumflex" unicode="&#x109;" horiz-adv-x="1034" 
d="M256.5 33q-90.5 53 -139 149.5t-48.5 225.5q0 46 8 104q23 158 100 281t194 192t255 69q109 0 189 -44t122.5 -123t42.5 -182l-1 -25l-204 -1q-5 84 -49 135t-123 51q-76 0 -138.5 -42t-104.5 -120.5t-58 -186.5q-7 -45 -7 -92q0 -125 55 -196t153 -71q79 0 140 54
t86 131h198q-26 -109 -92 -191t-161.5 -126.5t-205.5 -44.5q-121 0 -211.5 53zM601 1457h166l206 -252h-199l-108 143l-163 -143h-188z" />
    <glyph glyph-name="Cdotaccent" unicode="&#x10a;" horiz-adv-x="1380" 
d="M368.5 50.5q-116.5 70.5 -177 201t-60.5 308.5q0 84 13 171q33 226 130 392t247.5 254.5t338.5 88.5q151 0 263 -61t170 -167t52 -238l-253 -7q-4 125 -72 197t-197 72q-164 0 -270.5 -131t-146.5 -403q-14 -103 -14 -178q0 -184 72 -275t211 -91q114 0 204.5 75.5
t132.5 199.5l250 -10q-36 -134 -115 -239.5t-205 -167.5t-293 -62q-164 0 -280.5 70.5zM789 1825h248l-34 -229h-248z" />
    <glyph glyph-name="cdotaccent" unicode="&#x10b;" horiz-adv-x="1034" 
d="M256.5 33q-90.5 53 -139 149.5t-48.5 225.5q0 46 8 104q23 158 100 281t194 192t255 69q109 0 189 -44t122.5 -123t42.5 -182l-1 -25l-204 -1q-5 84 -49 135t-123 51q-76 0 -138.5 -42t-104.5 -120.5t-58 -186.5q-7 -45 -7 -92q0 -125 55 -196t153 -71q79 0 140 54
t86 131h198q-26 -109 -92 -191t-161.5 -126.5t-205.5 -44.5q-121 0 -211.5 53zM553 1413h248l-34 -229h-248z" />
    <glyph glyph-name="Ccaron" unicode="&#x10c;" horiz-adv-x="1380" 
d="M368.5 50.5q-116.5 70.5 -177 201t-60.5 308.5q0 84 13 171q33 226 130 392t247.5 254.5t338.5 88.5q151 0 263 -61t170 -167t52 -238l-253 -7q-4 125 -72 197t-197 72q-164 0 -270.5 -131t-146.5 -403q-14 -103 -14 -178q0 -184 72 -275t211 -91q114 0 204.5 75.5
t132.5 199.5l250 -10q-36 -134 -115 -239.5t-205 -167.5t-293 -62q-164 0 -280.5 70.5zM586 1859h189l120 -143l151 143h199l-280 -253h-168z" />
    <glyph glyph-name="ccaron" unicode="&#x10d;" horiz-adv-x="1034" 
d="M256.5 33q-90.5 53 -139 149.5t-48.5 225.5q0 46 8 104q23 158 100 281t194 192t255 69q109 0 189 -44t122.5 -123t42.5 -182l-1 -25l-204 -1q-5 84 -49 135t-123 51q-76 0 -138.5 -42t-104.5 -120.5t-58 -186.5q-7 -45 -7 -92q0 -125 55 -196t153 -71q79 0 140 54
t86 131h198q-26 -109 -92 -191t-161.5 -126.5t-205.5 -44.5q-121 0 -211.5 53zM350 1447h189l120 -143l151 143h199l-280 -253h-168z" />
    <glyph glyph-name="Dcaron" unicode="&#x10e;" horiz-adv-x="1378" 
d="M312 1446q260 0 378 -2q322 -7 475 -146t153 -401q0 -82 -13 -166q-52 -354 -262 -542.5t-578 -188.5h-365zM498 201q225 0 370.5 126t186.5 403q10 70 10 135q0 199 -105 289.5t-305 90.5h-131l-151 -1044h125zM546 1859h189l120 -143l151 143h199l-280 -253h-168z" />
    <glyph glyph-name="dcaron" unicode="&#x10f;" horiz-adv-x="1393" 
d="M157 85.5q-89 105.5 -89 294.5q0 73 11 142q23 157 85 277t160.5 187.5t226.5 67.5q74 0 132.5 -24.5t96 -62t54.5 -79.5l87 598h240l-219 -1486h-175l3 212q-43 -94 -129 -163t-225 -69q-170 0 -259 105.5zM618.5 193q57.5 34 96 93.5t50.5 134.5l29 199q2 24 2 36
q0 88 -47.5 152.5t-151.5 64.5q-110 0 -184 -86.5t-99 -262.5q-10 -63 -10 -118q0 -126 50.5 -186.5t138.5 -60.5q68 0 125.5 34zM1313 1226l-59 11l30 210h174l-33 -220l-108 -194h-108z" />
    <glyph glyph-name="Dcroat" unicode="&#x110;" horiz-adv-x="1471" 
d="M1257 1298q153 -139 153 -401q0 -81 -13 -166q-51 -354 -261 -542.5t-579 -188.5h-365l92 626h-193l21 184h199l94 636q260 0 377 -2q322 -7 475 -146zM1157 865q0 199 -104.5 289.5t-304.5 90.5h-132l-63 -435h297l-22 -184h-302l-61 -425h126q224 0 370 126t186 403
q10 70 10 135z" />
    <glyph glyph-name="dcroat" unicode="&#x111;" horiz-adv-x="1230" 
d="M1233 1174h-118l-173 -1174h-175l3 212q-43 -94 -129 -163t-225 -69q-170 0 -259 105.5t-89 294.5q0 73 11 142q23 157 85 277t160.5 187.5t226.5 67.5q74 0 132.5 -24.5t96 -62t54.5 -79.5l42 286h-291l15 143h296l25 169h240l-25 -169h112zM796 656q0 88 -47.5 152.5
t-151.5 64.5q-110 0 -184 -86.5t-99 -262.5q-10 -63 -10 -118q0 -126 50.5 -186.5t138.5 -60.5q68 0 125.5 34t96 93.5t50.5 134.5l29 199q2 24 2 36z" />
    <glyph glyph-name="Emacron" unicode="&#x112;" horiz-adv-x="1239" 
d="M312 1446h922l-33 -209h-680l-58 -405h599l-30 -206h-601l-60 -414l696 -1l-33 -211h-934zM493 1840h635l-24 -161h-635z" />
    <glyph glyph-name="emacron" unicode="&#x113;" horiz-adv-x="1075" 
d="M262 30q-93 50 -143 144.5t-50 224.5q0 58 8 107q23 159 96.5 283.5t190 194.5t261.5 70q187 0 285 -106t98 -294q0 -56 -9 -119l-11 -75h-681q-6 -37 -6 -73q0 -104 52.5 -165t150.5 -61q168 0 242 155h218q-36 -106 -111 -182t-172 -115t-200 -39q-126 0 -219 50z
M785 612q5 35 5 60q0 94 -48 150t-143 56q-73 0 -131 -37.5t-93.5 -98.5t-45.5 -130h456zM363 1428h635l-24 -161h-635z" />
    <glyph glyph-name="Ebreve" unicode="&#x114;" horiz-adv-x="1239" 
d="M312 1446h922l-33 -209h-680l-58 -405h599l-30 -206h-601l-60 -414l696 -1l-33 -211h-934zM587 1683q-75 64 -88 173h153q19 -47 53 -77.5t95 -30.5q104 0 182 108h154q-46 -105 -142 -171t-214 -66t-193 64z" />
    <glyph glyph-name="ebreve" unicode="&#x115;" horiz-adv-x="1075" 
d="M262 30q-93 50 -143 144.5t-50 224.5q0 58 8 107q23 159 96.5 283.5t190 194.5t261.5 70q187 0 285 -106t98 -294q0 -56 -9 -119l-11 -75h-681q-6 -37 -6 -73q0 -104 52.5 -165t150.5 -61q168 0 242 155h218q-36 -106 -111 -182t-172 -115t-200 -39q-126 0 -219 50z
M785 612q5 35 5 60q0 94 -48 150t-143 56q-73 0 -131 -37.5t-93.5 -98.5t-45.5 -130h456zM458 1271q-75 64 -88 173h153q19 -47 53 -77.5t95 -30.5q104 0 182 108h154q-46 -105 -142 -171t-214 -66t-193 64z" />
    <glyph glyph-name="Edotaccent" unicode="&#x116;" horiz-adv-x="1239" 
d="M312 1446h922l-33 -209h-680l-58 -405h599l-30 -206h-601l-60 -414l696 -1l-33 -211h-934zM684 1825h248l-34 -229h-248z" />
    <glyph glyph-name="edotaccent" unicode="&#x117;" horiz-adv-x="1075" 
d="M262 30q-93 50 -143 144.5t-50 224.5q0 58 8 107q23 159 96.5 283.5t190 194.5t261.5 70q187 0 285 -106t98 -294q0 -56 -9 -119l-11 -75h-681q-6 -37 -6 -73q0 -104 52.5 -165t150.5 -61q168 0 242 155h218q-36 -106 -111 -182t-172 -115t-200 -39q-126 0 -219 50z
M785 612q5 35 5 60q0 94 -48 150t-143 56q-73 0 -131 -37.5t-93.5 -98.5t-45.5 -130h456zM555 1413h248l-34 -229h-248z" />
    <glyph glyph-name="Eogonek" unicode="&#x118;" horiz-adv-x="1239" 
d="M521 1237l-58 -405h599l-30 -206h-601l-60 -414l696 -1l-32 -204l25 -1q-105 -39 -150.5 -74t-53.5 -80q-1 -5 -1 -13q0 -28 16 -41.5t52 -13.5q69 0 145 40l-17 -116q-32 -18 -87 -31t-112 -13q-88 0 -134 34t-46 99q0 8 2 28q8 56 47 98t127 77h-748l212 1446h922
l-33 -209h-680z" />
    <glyph glyph-name="eogonek" unicode="&#x119;" horiz-adv-x="1075" 
d="M910 948q98 -106 98 -294q0 -56 -9 -119l-11 -75h-681q-6 -37 -6 -73q0 -104 52.5 -165t150.5 -61q168 0 242 155h218q-34 -98 -101 -171t-155 -114l13 -1q-105 -39 -150.5 -74t-53.5 -80q-1 -5 -1 -13q0 -28 16 -41.5t52 -13.5q69 0 145 40l-17 -116q-32 -18 -87 -31
t-112 -13q-88 0 -134 34t-46 99q0 49 21 88.5t72 73.5q-110 10 -190.5 63t-123.5 143t-43 210q0 56 8 107q23 159 96.5 283.5t190 194.5t261.5 70q187 0 285 -106zM790 672q0 94 -48 150t-143 56q-73 0 -131 -37.5t-93.5 -98.5t-45.5 -130h456q5 35 5 60z" />
    <glyph glyph-name="Ecaron" unicode="&#x11a;" horiz-adv-x="1239" 
d="M312 1446h922l-33 -209h-680l-58 -405h599l-30 -206h-601l-60 -414l696 -1l-33 -211h-934zM481 1859h189l120 -143l151 143h199l-280 -253h-168z" />
    <glyph glyph-name="ecaron" unicode="&#x11b;" horiz-adv-x="1080" 
d="M262 30q-93 50 -143 144.5t-50 224.5q0 58 8 107q23 159 96.5 283.5t190 194.5t261.5 70q187 0 285 -106t98 -294q0 -56 -9 -119l-11 -75h-681q-6 -37 -6 -73q0 -104 52.5 -165t150.5 -61q168 0 242 155h218q-36 -106 -111 -182t-172 -115t-200 -39q-126 0 -219 50z
M785 612q5 35 5 60q0 94 -48 150t-143 56q-73 0 -131 -37.5t-93.5 -98.5t-45.5 -130h456zM347 1447h189l120 -143l151 143h199l-280 -253h-168z" />
    <glyph glyph-name="Gcircumflex" unicode="&#x11c;" horiz-adv-x="1456" 
d="M366 49q-116 69 -177 197.5t-61 303.5q0 83 13 168q34 229 136 398t256 259.5t340 90.5q142 0 251.5 -58t170 -155.5t60.5 -211.5q0 -13 -2 -39l-256 -8q-3 75 -34.5 134.5t-89.5 94t-136 34.5q-108 0 -197 -58t-151 -176.5t-88 -292.5q-13 -85 -13 -159
q0 -194 82 -284.5t221 -90.5q90 0 163.5 42.5t119.5 107t61 129.5l24 106h-307l26 172l558 -2l-111 -751h-168l29 203q-79 -99 -185.5 -161t-258.5 -62q-160 0 -276 69zM844 1869h166l206 -252h-199l-108 143l-163 -143h-188z" />
    <glyph glyph-name="gcircumflex" unicode="&#x11d;" horiz-adv-x="1199" 
d="M180 -313q-109 29 -163.5 81.5t-54.5 123.5q0 64 34.5 110t75.5 70.5t89 45.5l23 11q-5 3 -31 19t-44.5 43t-18.5 60q0 61 56 111t161 69q-79 43 -117 105t-38 139q0 17 4 49q15 101 84.5 174.5t178.5 112.5t239 39q94 0 157.5 -21.5t117.5 -63.5q61 23 194 77l99 39
l-30 -201l-178 -32q11 -39 11 -93q0 -14 -2 -30q-13 -90 -73.5 -166.5t-165.5 -122.5t-245 -46q-51 0 -81 3q-74 -3 -106.5 -19t-32.5 -39q0 -16 17.5 -25t52 -13.5t102.5 -9.5l209 -13q155 -10 231.5 -74t76.5 -168q0 -15 -4 -47q-15 -99 -84.5 -172.5t-191 -114
t-285.5 -40.5q-158 0 -267 29zM727 581.5q59 48.5 72 137.5q3 20 3 36q0 74 -47 116.5t-128 42.5q-94 0 -156.5 -53.5t-75.5 -141.5q-2 -12 -2 -34q0 -72 46 -112t132 -40q97 0 156 48.5zM698.5 -164q62.5 35 73.5 107q1 7 1 20q0 98 -146 108l-244 16q-44 2 -86 -19
t-68.5 -58t-26.5 -79q0 -67 76.5 -98.5t229.5 -31.5q128 0 190.5 35zM635 1457h166l206 -252h-199l-108 143l-163 -143h-188z" />
    <glyph glyph-name="Gbreve" unicode="&#x11e;" horiz-adv-x="1456" 
d="M366 49q-116 69 -177 197.5t-61 303.5q0 83 13 168q34 229 136 398t256 259.5t340 90.5q142 0 251.5 -58t170 -155.5t60.5 -211.5q0 -13 -2 -39l-256 -8q-3 75 -34.5 134.5t-89.5 94t-136 34.5q-108 0 -197 -58t-151 -176.5t-88 -292.5q-13 -85 -13 -159
q0 -194 82 -284.5t221 -90.5q90 0 163.5 42.5t119.5 107t61 129.5l24 106h-307l26 172l558 -2l-111 -751h-168l29 203q-79 -99 -185.5 -161t-258.5 -62q-160 0 -276 69zM699 1683q-75 64 -88 173h153q19 -47 53 -77.5t95 -30.5q104 0 182 108h154q-46 -105 -142 -171
t-214 -66t-193 64z" />
    <glyph glyph-name="gbreve" unicode="&#x11f;" horiz-adv-x="1199" 
d="M180 -313q-109 29 -163.5 81.5t-54.5 123.5q0 64 34.5 110t75.5 70.5t89 45.5l23 11q-5 3 -31 19t-44.5 43t-18.5 60q0 61 56 111t161 69q-79 43 -117 105t-38 139q0 17 4 49q15 101 84.5 174.5t178.5 112.5t239 39q94 0 157.5 -21.5t117.5 -63.5q61 23 194 77l99 39
l-30 -201l-178 -32q11 -39 11 -93q0 -14 -2 -30q-13 -90 -73.5 -166.5t-165.5 -122.5t-245 -46q-51 0 -81 3q-74 -3 -106.5 -19t-32.5 -39q0 -16 17.5 -25t52 -13.5t102.5 -9.5l209 -13q155 -10 231.5 -74t76.5 -168q0 -15 -4 -47q-15 -99 -84.5 -172.5t-191 -114
t-285.5 -40.5q-158 0 -267 29zM727 581.5q59 48.5 72 137.5q3 20 3 36q0 74 -47 116.5t-128 42.5q-94 0 -156.5 -53.5t-75.5 -141.5q-2 -12 -2 -34q0 -72 46 -112t132 -40q97 0 156 48.5zM698.5 -164q62.5 35 73.5 107q1 7 1 20q0 98 -146 108l-244 16q-44 2 -86 -19
t-68.5 -58t-26.5 -79q0 -67 76.5 -98.5t229.5 -31.5q128 0 190.5 35zM489 1271q-75 64 -88 173h153q19 -47 53 -77.5t95 -30.5q104 0 182 108h154q-46 -105 -142 -171t-214 -66t-193 64z" />
    <glyph glyph-name="Gdotaccent" unicode="&#x120;" horiz-adv-x="1456" 
d="M366 49q-116 69 -177 197.5t-61 303.5q0 83 13 168q34 229 136 398t256 259.5t340 90.5q142 0 251.5 -58t170 -155.5t60.5 -211.5q0 -13 -2 -39l-256 -8q-3 75 -34.5 134.5t-89.5 94t-136 34.5q-108 0 -197 -58t-151 -176.5t-88 -292.5q-13 -85 -13 -159
q0 -194 82 -284.5t221 -90.5q90 0 163.5 42.5t119.5 107t61 129.5l24 106h-307l26 172l558 -2l-111 -751h-168l29 203q-79 -99 -185.5 -161t-258.5 -62q-160 0 -276 69zM796 1825h248l-34 -229h-248z" />
    <glyph glyph-name="gdotaccent" unicode="&#x121;" horiz-adv-x="1199" 
d="M180 -313q-109 29 -163.5 81.5t-54.5 123.5q0 64 34.5 110t75.5 70.5t89 45.5l23 11q-5 3 -31 19t-44.5 43t-18.5 60q0 61 56 111t161 69q-79 43 -117 105t-38 139q0 17 4 49q15 101 84.5 174.5t178.5 112.5t239 39q94 0 157.5 -21.5t117.5 -63.5q61 23 194 77l99 39
l-30 -201l-178 -32q11 -39 11 -93q0 -14 -2 -30q-13 -90 -73.5 -166.5t-165.5 -122.5t-245 -46q-51 0 -81 3q-74 -3 -106.5 -19t-32.5 -39q0 -16 17.5 -25t52 -13.5t102.5 -9.5l209 -13q155 -10 231.5 -74t76.5 -168q0 -15 -4 -47q-15 -99 -84.5 -172.5t-191 -114
t-285.5 -40.5q-158 0 -267 29zM727 581.5q59 48.5 72 137.5q3 20 3 36q0 74 -47 116.5t-128 42.5q-94 0 -156.5 -53.5t-75.5 -141.5q-2 -12 -2 -34q0 -72 46 -112t132 -40q97 0 156 48.5zM698.5 -164q62.5 35 73.5 107q1 7 1 20q0 98 -146 108l-244 16q-44 2 -86 -19
t-68.5 -58t-26.5 -79q0 -67 76.5 -98.5t229.5 -31.5q128 0 190.5 35zM587 1413h248l-34 -229h-248z" />
    <glyph glyph-name="uni0122" unicode="&#x122;" horiz-adv-x="1456" 
d="M366 49q-116 69 -177 197.5t-61 303.5q0 83 13 168q34 229 136 398t256 259.5t340 90.5q142 0 251.5 -58t170 -155.5t60.5 -211.5q0 -13 -2 -39l-256 -8q-3 75 -34.5 134.5t-89.5 94t-136 34.5q-108 0 -197 -58t-151 -176.5t-88 -292.5q-13 -85 -13 -159
q0 -194 82 -284.5t221 -90.5q90 0 163.5 42.5t119.5 107t61 129.5l24 106h-307l26 172l558 -2l-111 -751h-168l29 203q-79 -99 -185.5 -161t-258.5 -62q-160 0 -276 69zM535 -387l-91 7l38 255h258l-33 -223l-225 -300h-95z" />
    <glyph glyph-name="uni0123" unicode="&#x123;" horiz-adv-x="1199" 
d="M596 1392l124 151h99l-124 -163h86l-26 -182h-186zM180 -313q-109 29 -163.5 81.5t-54.5 123.5q0 64 34.5 110t75.5 70.5t89 45.5l23 11q-5 3 -31 19t-44.5 43t-18.5 60q0 61 56 111t161 69q-79 43 -117 105t-38 139q0 17 4 49q15 101 84.5 174.5t178.5 112.5t239 39
q94 0 157.5 -21.5t117.5 -63.5q61 23 194 77l99 39l-30 -201l-178 -32q11 -39 11 -93q0 -14 -2 -30q-13 -90 -73.5 -166.5t-165.5 -122.5t-245 -46q-51 0 -81 3q-74 -3 -106.5 -19t-32.5 -39q0 -16 17.5 -25t52 -13.5t102.5 -9.5l209 -13q155 -10 231.5 -74t76.5 -168
q0 -15 -4 -47q-15 -99 -84.5 -172.5t-191 -114t-285.5 -40.5q-158 0 -267 29zM727 581.5q59 48.5 72 137.5q3 20 3 36q0 74 -47 116.5t-128 42.5q-94 0 -156.5 -53.5t-75.5 -141.5q-2 -12 -2 -34q0 -72 46 -112t132 -40q97 0 156 48.5zM698.5 -164q62.5 35 73.5 107
q1 7 1 20q0 98 -146 108l-244 16q-44 2 -86 -19t-68.5 -58t-26.5 -79q0 -67 76.5 -98.5t229.5 -31.5q128 0 190.5 35z" />
    <glyph glyph-name="Hcircumflex" unicode="&#x124;" horiz-adv-x="1404" 
d="M312 1446h240l-88 -597h576l87 597h240l-213 -1446h-240l94 642h-575l-93 -642h-240zM819 1869h166l206 -252h-199l-108 143l-163 -143h-188z" />
    <glyph glyph-name="hcircumflex" unicode="&#x125;" horiz-adv-x="1152" 
d="M283 1486h237l-87 -592q51 67 129 108t188 41q87 0 156 -33.5t108 -94.5t39 -141q0 -23 -3 -47l-107 -727h-240l101 688q2 18 2 26q0 64 -45.5 101t-119.5 37q-56 0 -107.5 -20t-86.5 -59.5t-43 -93.5l-100 -679h-239zM808 1457h166l206 -252h-199l-108 143l-163 -143
h-188z" />
    <glyph glyph-name="Hbar" unicode="&#x126;" horiz-adv-x="1471" 
d="M1521 1104h-148l-162 -1104h-240l93 642h-574l-94 -642h-240l163 1104h-206l21 143h206l29 199h240l-29 -199h574l29 199h240l-29 -199h149zM1134 1104h-575l-38 -255h576z" />
    <glyph glyph-name="hbar" unicode="&#x127;" horiz-adv-x="1252" 
d="M1005.5 1009.5q68.5 -33.5 107.5 -94.5t39 -141q0 -23 -3 -47l-107 -727h-240l101 688q2 20 2 28q0 63 -45.5 99.5t-119.5 36.5q-56 0 -107.5 -20t-86.5 -59.5t-42 -93.5l-100 -679h-240l173 1174h-203l19 143h205l25 169h237l-25 -169h206l-19 -143h-208l-41 -280
q50 66 128.5 107.5t188.5 41.5q87 0 155.5 -33.5z" />
    <glyph glyph-name="Itilde" unicode="&#x128;" horiz-adv-x="589" 
d="M311 1446h240l-210 -1446h-240zM171 1773q48 41 90 62t98 21q35 0 65.5 -7.5t76.5 -23.5q38 -13 65.5 -20t55.5 -7q41 0 79 17t78 46l14 -138q-91 -65 -193 -65q-36 0 -65 7.5t-69 21.5q-39 13 -64 19.5t-55 6.5q-45 0 -77 -14.5t-77 -46.5z" />
    <glyph glyph-name="itilde" unicode="&#x129;" horiz-adv-x="535" 
d="M226 1034h240l-152 -1034h-240zM86 1361q48 41 90 62t98 21q35 0 65.5 -7.5t76.5 -23.5q38 -13 65.5 -20t55.5 -7q41 0 79 17t78 46l14 -138q-91 -65 -193 -65q-36 0 -65 7.5t-69 21.5q-39 13 -64 19.5t-55 6.5q-45 0 -77 -14.5t-77 -46.5z" />
    <glyph glyph-name="Imacron" unicode="&#x12a;" horiz-adv-x="589" 
d="M311 1446h240l-210 -1446h-240zM173 1840h635l-24 -161h-635z" />
    <glyph glyph-name="imacron" unicode="&#x12b;" horiz-adv-x="535" 
d="M226 1034h240l-152 -1034h-240zM88 1428h635l-24 -161h-635z" />
    <glyph glyph-name="Ibreve" unicode="&#x12c;" horiz-adv-x="589" 
d="M311 1446h240l-210 -1446h-240zM267 1683q-75 64 -88 173h153q19 -47 53 -77.5t95 -30.5q104 0 182 108h154q-46 -105 -142 -171t-214 -66t-193 64z" />
    <glyph glyph-name="ibreve" unicode="&#x12d;" horiz-adv-x="535" 
d="M226 1034h240l-152 -1034h-240zM183 1271q-75 64 -88 173h153q19 -47 53 -77.5t95 -30.5q104 0 182 108h154q-46 -105 -142 -171t-214 -66t-193 64z" />
    <glyph glyph-name="Iogonek" unicode="&#x12e;" horiz-adv-x="589" 
d="M134 -168q0 -28 16 -41.5t52 -13.5q69 0 145 40l-17 -116q-32 -18 -87 -31t-112 -13q-88 0 -134 34t-46 99q0 8 2 28q8 58 51 102.5t142 79.5h-45l210 1446h240l-210 -1446h-21l19 -1q-105 -39 -150.5 -74t-53.5 -80q-1 -5 -1 -13z" />
    <glyph glyph-name="iogonek" unicode="&#x12f;" horiz-adv-x="535" 
d="M528 1413l-34 -229h-248l34 229h248zM153.5 -69.5q-41.5 -33.5 -48.5 -76.5q-1 -5 -1 -13q0 -28 16 -41.5t52 -13.5q69 0 145 40l-17 -116q-32 -18 -87 -31t-112 -13q-88 0 -134 34t-46 99q0 8 2 28q8 55 46 97t123 76h-18l152 1034h240l-152 -1034h-26
q-93 -36 -134.5 -69.5z" />
    <glyph glyph-name="Idotaccent" unicode="&#x130;" horiz-adv-x="589" 
d="M311 1446h240l-210 -1446h-240zM365 1825h248l-34 -229h-248z" />
    <glyph glyph-name="dotlessi" unicode="&#x131;" horiz-adv-x="535" 
d="M226 1034h240l-152 -1034h-240z" />
    <glyph glyph-name="Jcircumflex" unicode="&#x134;" horiz-adv-x="778" 
d="M82 -7.5q-65 12.5 -102 25.5l42 226q9 -2 26 -9q33 -12 60 -18.5t61 -6.5q64 0 103 23t61 73t34 135l147 1005h239l-157 -1071q-20 -136 -61 -221.5t-119.5 -129.5t-207.5 -44q-61 0 -126 12.5zM608 1869h166l206 -252h-199l-108 143l-163 -143h-188z" />
    <glyph glyph-name="jcircumflex" unicode="&#x135;" horiz-adv-x="540" 
d="M-148 -323q-27 9 -26 17l24 163l86 6q63 7 92.5 35.5t38.5 89.5l152 1046h240l-153 -1051q-24 -161 -109 -238t-250 -77q-68 0 -95 9zM318 1457h166l206 -252h-199l-108 143l-163 -143h-188z" />
    <glyph glyph-name="uni0136" unicode="&#x136;" horiz-adv-x="1358" 
d="M312 1446h249l-102 -701l654 701h277l-518 -560l354 -886h-264l-291 706l-258 -273l-64 -433h-249zM488 -387l-91 7l38 255h258l-33 -223l-225 -300h-95z" />
    <glyph glyph-name="uni0137" unicode="&#x137;" horiz-adv-x="1119" 
d="M282 1486h239l-134 -921l474 469h262l-420 -404l285 -630h-243l-214 479l-183 -176l-45 -303h-238zM372 -387l-91 7l38 255h258l-33 -223l-225 -300h-95z" />
    <glyph glyph-name="kgreenlandic" unicode="&#x138;" horiz-adv-x="1146" 
d="M217 1034h239l-71 -491l507 491h249l-385 -354l265 -680h-275l-179 502l-219 -199l-44 -303h-239z" />
    <glyph glyph-name="Lacute" unicode="&#x139;" horiz-adv-x="1100" 
d="M312 1446h242l-180 -1236h623l-31 -210h-866zM197 1678l508 200l30 -167l-518 -144z" />
    <glyph glyph-name="lacute" unicode="&#x13a;" horiz-adv-x="601" 
d="M157 40q-56 55 -56 150q0 41 8 89l177 1207h235l-173 -1179q-3 -21 -3 -40q0 -50 22.5 -76.5t71.5 -30.5l48 -2l-23 -153q-60 -20 -107 -20q-144 0 -200 55zM176 1759l508 200l30 -167l-518 -144z" />
    <glyph glyph-name="uni013B" unicode="&#x13b;" horiz-adv-x="1100" 
d="M312 1446h242l-180 -1236h623l-31 -210h-866zM412 -387l-91 7l38 255h258l-33 -223l-225 -300h-95z" />
    <glyph glyph-name="uni013C" unicode="&#x13c;" horiz-adv-x="601" 
d="M157 40q-56 55 -56 150q0 41 8 89l177 1207h235l-173 -1179q-3 -21 -3 -40q0 -50 22.5 -76.5t71.5 -30.5l48 -2l-23 -153q-60 -20 -107 -20q-144 0 -200 55zM78 -386l-91 7l38 255h258l-33 -223l-225 -300h-95z" />
    <glyph glyph-name="Lcaron" unicode="&#x13d;" horiz-adv-x="1100" 
d="M312 1446h242l-180 -1236h623l-31 -210h-866zM887 1225l-59 11l30 210h174l-33 -220l-108 -194h-108z" />
    <glyph glyph-name="lcaron" unicode="&#x13e;" horiz-adv-x="601" 
d="M157 40q-56 55 -56 150q0 41 8 89l177 1207h235l-173 -1179q-3 -21 -3 -40q0 -50 22.5 -76.5t71.5 -30.5l48 -2l-23 -153q-60 -20 -107 -20q-144 0 -200 55zM654 1270l-59 11l30 210h174l-33 -220l-108 -194h-108z" />
    <glyph glyph-name="Ldot" unicode="&#x13f;" horiz-adv-x="1147" 
d="M312 1446h242l-180 -1236h623l-31 -210h-866zM884 924h259l-39 -257h-259z" />
    <glyph glyph-name="ldot" unicode="&#x140;" horiz-adv-x="790" 
d="M157 40q-56 55 -56 150q0 41 8 89l177 1207h235l-173 -1179q-3 -21 -3 -40q0 -50 22.5 -76.5t71.5 -30.5l48 -2l-23 -153q-60 -20 -107 -20q-144 0 -200 55zM581 695h259l-39 -257h-259z" />
    <glyph glyph-name="Lslash" unicode="&#x141;" horiz-adv-x="1155" 
d="M1052 210l-31 -210h-866l93 633l-182 -50v205l213 55l88 603h242l-79 -537l270 70v-194l-300 -83l-72 -492h624z" />
    <glyph glyph-name="lslash" unicode="&#x142;" horiz-adv-x="619" 
d="M522 882l74 55v-202l-107 -83l-51 -345q-3 -21 -3 -40q0 -50 22.5 -76.5t71.5 -30.5l48 -2l-23 -153q-60 -20 -107 -20q-144 0 -200 55t-56 150q0 41 8 89l25 169l-180 -138v215l215 160l117 801h235z" />
    <glyph glyph-name="Nacute" unicode="&#x143;" horiz-adv-x="1497" 
d="M312 1446h235l523 -1033l150 1033h240l-212 -1446h-215l-539 1061l-154 -1061h-240zM653 1678l508 200l30 -167l-518 -144z" />
    <glyph glyph-name="nacute" unicode="&#x144;" horiz-adv-x="1153" 
d="M217 1034h234l-19 -138q59 70 134 110t184 40q84 0 152 -35.5t107.5 -102.5t39.5 -158q0 -27 -5 -65l-100 -685h-240l97 657q3 21 3 39q0 73 -44 114.5t-116 41.5q-57 0 -109 -19.5t-87.5 -58.5t-43.5 -93l-100 -681h-239zM433 1266l508 200l30 -167l-518 -144z" />
    <glyph glyph-name="uni0145" unicode="&#x145;" horiz-adv-x="1497" 
d="M312 1446h235l523 -1033l150 1033h240l-212 -1446h-215l-539 1061l-154 -1061h-240zM540 -387l-91 7l38 255h258l-33 -223l-225 -300h-95z" />
    <glyph glyph-name="uni0146" unicode="&#x146;" horiz-adv-x="1153" 
d="M217 1034h234l-19 -138q59 70 134 110t184 40q84 0 152 -35.5t107.5 -102.5t39.5 -158q0 -27 -5 -65l-100 -685h-240l97 657q3 21 3 39q0 73 -44 114.5t-116 41.5q-57 0 -109 -19.5t-87.5 -58.5t-43.5 -93l-100 -681h-239zM394 -387l-91 7l38 255h258l-33 -223l-225 -300
h-95z" />
    <glyph glyph-name="Ncaron" unicode="&#x147;" horiz-adv-x="1497" 
d="M312 1446h235l523 -1033l150 1033h240l-212 -1446h-215l-539 1061l-154 -1061h-240zM614 1859h189l120 -143l151 143h199l-280 -253h-168z" />
    <glyph glyph-name="ncaron" unicode="&#x148;" horiz-adv-x="1153" 
d="M217 1034h234l-19 -138q59 70 134 110t184 40q84 0 152 -35.5t107.5 -102.5t39.5 -158q0 -27 -5 -65l-100 -685h-240l97 657q3 21 3 39q0 73 -44 114.5t-116 41.5q-57 0 -109 -19.5t-87.5 -58.5t-43.5 -93l-100 -681h-239zM393 1447h189l120 -143l151 143h199l-280 -253
h-168z" />
    <glyph glyph-name="Eng" unicode="&#x14a;" horiz-adv-x="1499" 
d="M1252 29l-4 -29l-13 -85q-20 -136 -60.5 -221.5t-119.5 -129.5t-209 -44q-61 0 -124.5 12.5t-102.5 25.5l41 226l27 -9q36 -12 62 -18.5t59 -6.5q64 0 103 23t61 73t34 135l8 56l-520 1024l-154 -1061h-240l212 1446h235l523 -1033l150 1033h240l-197 -1346z" />
    <glyph glyph-name="eng" unicode="&#x14b;" horiz-adv-x="1120" 
d="M482 -325q-22 7 -21 15l24 166l70 4q57 5 86 33.5t37 90.5l101 719q3 21 3 40q0 62 -33.5 96t-102.5 34q-119 0 -252 -139l-103 -734h-226l149 1034h217l-22 -159q104 93 188 136t170 43q116 0 181.5 -66t65.5 -179q0 -31 -4 -58l-107 -759q-14 -100 -59 -173
t-115.5 -112t-159.5 -39q-65 0 -87 7z" />
    <glyph glyph-name="Omacron" unicode="&#x14c;" horiz-adv-x="1473" 
d="M372 46.5q-119 66.5 -181 194t-62 306.5q0 84 13 171q34 232 135 400.5t255.5 258t343.5 89.5q165 0 283 -68t180 -197t62 -309q0 -84 -13 -172q-34 -230 -133.5 -396.5t-252.5 -255t-343 -88.5q-168 0 -287 66.5zM975 314.5q112 130.5 151 402.5q14 91 14 176
q0 188 -76 278.5t-218 90.5q-173 0 -287.5 -134t-154.5 -411q-13 -88 -13 -166q0 -187 77.5 -277t221.5 -90q173 0 285 130.5zM604 1840h635l-24 -161h-635z" />
    <glyph glyph-name="omacron" unicode="&#x14d;" horiz-adv-x="1095" 
d="M252 32q-90 52 -136.5 147t-46.5 222q0 48 8 109q24 160 100.5 283.5t193.5 192t258 68.5q126 0 215 -53.5t135 -150.5t46 -225q0 -54 -9 -113q-23 -156 -97.5 -276.5t-190.5 -188t-260 -67.5q-126 0 -216 52zM689.5 265q71.5 100 92.5 254q8 58 8 103q0 114 -46 181.5
t-143 67.5q-120 0 -192.5 -99t-94.5 -253q-8 -54 -8 -100q0 -115 46.5 -184.5t146.5 -69.5q119 0 190.5 100zM366 1428h635l-24 -161h-635z" />
    <glyph glyph-name="Obreve" unicode="&#x14e;" horiz-adv-x="1473" 
d="M372 46.5q-119 66.5 -181 194t-62 306.5q0 84 13 171q34 232 135 400.5t255.5 258t343.5 89.5q165 0 283 -68t180 -197t62 -309q0 -84 -13 -172q-34 -230 -133.5 -396.5t-252.5 -255t-343 -88.5q-168 0 -287 66.5zM975 314.5q112 130.5 151 402.5q14 91 14 176
q0 188 -76 278.5t-218 90.5q-173 0 -287.5 -134t-154.5 -411q-13 -88 -13 -166q0 -187 77.5 -277t221.5 -90q173 0 285 130.5zM699 1683q-75 64 -88 173h153q19 -47 53 -77.5t95 -30.5q104 0 182 108h154q-46 -105 -142 -171t-214 -66t-193 64z" />
    <glyph glyph-name="obreve" unicode="&#x14f;" horiz-adv-x="1095" 
d="M252 32q-90 52 -136.5 147t-46.5 222q0 48 8 109q24 160 100.5 283.5t193.5 192t258 68.5q126 0 215 -53.5t135 -150.5t46 -225q0 -54 -9 -113q-23 -156 -97.5 -276.5t-190.5 -188t-260 -67.5q-126 0 -216 52zM689.5 265q71.5 100 92.5 254q8 58 8 103q0 114 -46 181.5
t-143 67.5q-120 0 -192.5 -99t-94.5 -253q-8 -54 -8 -100q0 -115 46.5 -184.5t146.5 -69.5q119 0 190.5 100zM460 1271q-75 64 -88 173h153q19 -47 53 -77.5t95 -30.5q104 0 182 108h154q-46 -105 -142 -171t-214 -66t-193 64z" />
    <glyph glyph-name="Ohungarumlaut" unicode="&#x150;" horiz-adv-x="1473" 
d="M372 46.5q-119 66.5 -181 194t-62 306.5q0 84 13 171q34 232 135 400.5t255.5 258t343.5 89.5q165 0 283 -68t180 -197t62 -309q0 -84 -13 -172q-34 -230 -133.5 -396.5t-252.5 -255t-343 -88.5q-168 0 -287 66.5zM975 314.5q112 130.5 151 402.5q14 91 14 176
q0 188 -76 278.5t-218 90.5q-173 0 -287.5 -134t-154.5 -411q-13 -88 -13 -166q0 -187 77.5 -277t221.5 -90q173 0 285 130.5zM910 1608l314 274l91 -134l-344 -229zM565 1608l316 273l89 -133l-342 -228z" />
    <glyph glyph-name="ohungarumlaut" unicode="&#x151;" horiz-adv-x="1095" 
d="M252 32q-90 52 -136.5 147t-46.5 222q0 48 8 109q24 160 100.5 283.5t193.5 192t258 68.5q126 0 215 -53.5t135 -150.5t46 -225q0 -54 -9 -113q-23 -156 -97.5 -276.5t-190.5 -188t-260 -67.5q-126 0 -216 52zM689.5 265q71.5 100 92.5 254q8 58 8 103q0 114 -46 181.5
t-143 67.5q-120 0 -192.5 -99t-94.5 -253q-8 -54 -8 -100q0 -115 46.5 -184.5t146.5 -69.5q119 0 190.5 100zM672 1196l314 274l91 -134l-344 -229zM327 1196l316 273l89 -133l-342 -228z" />
    <glyph glyph-name="OE" unicode="&#x152;" horiz-adv-x="2168" 
d="M377 46.5q-121 66.5 -184.5 193.5t-63.5 306q0 84 13 172q34 233 136.5 401.5t261.5 257.5t360 89q114 0 196 -37.5t129 -111.5l83 129h850l-31 -205h-676l-58 -410h472l-30 -204h-473l-61 -420h699l-32 -207h-884l-34 128q-70 -73 -166.5 -110.5t-213.5 -37.5
q-172 0 -293 66.5zM886 236.5q81 56.5 133 174.5t80 306q17 109 17 206q0 176 -66.5 260.5t-202.5 84.5q-173 0 -276 -134t-143 -417q-16 -106 -16 -195q0 -176 68.5 -259t208.5 -83q116 0 197 56.5z" />
    <glyph glyph-name="oe" unicode="&#x153;" horiz-adv-x="1852" 
d="M267 33.5q-95 53.5 -146 151t-51 226.5q0 51 7 99q24 160 105.5 283.5t203.5 192t264 68.5q111 0 194 -46.5t132 -131.5q11 -11 17 -11q7 0 20 11q70 84 165 131t200 47q124 0 213.5 -53t137.5 -154t48 -242q0 -67 -10 -136h-716q-4 -27 -4 -58q0 -76 30 -135t83 -91
t121 -32q79 0 150 38t143 118l142 -71q-106 -140 -220.5 -199t-268.5 -59q-109 0 -193.5 44.5t-134.5 126.5q-6 12 -13 12q-9 0 -21 -16q-74 -80 -169.5 -123.5t-205.5 -43.5q-128 0 -223 53.5zM1557 662q0 62 -22 115.5t-65.5 85.5t-104.5 32q-70 0 -131 -35t-102.5 -99
t-53.5 -149l475 -2q4 23 4 52zM714.5 244q78.5 96 104.5 272q8 52 8 109q0 128 -52 196t-149 68q-118 0 -198 -97.5t-106 -275.5q-8 -51 -8 -106q0 -126 53 -194t151 -68q118 0 196.5 96z" />
    <glyph glyph-name="Racute" unicode="&#x154;" horiz-adv-x="1337" 
d="M311 1446h566q207 0 310 -88t103 -247q0 -38 -6 -80q-23 -160 -107 -255t-207 -148l172 -628h-249l-151 587h-317l-86 -587h-239zM728 780q130 0 212.5 64t98.5 178q3 23 3 44q0 91 -57.5 140.5t-158.5 49.5h-304l-69 -476h275zM558 1678l508 200l30 -167l-518 -144z" />
    <glyph glyph-name="racute" unicode="&#x155;" horiz-adv-x="767" 
d="M217 1034h228l-32 -224q55 108 156 176t234 68l-34 -232q-38 2 -53 2q-156 0 -232.5 -60.5t-90.5 -162.5l-89 -601h-239zM274 1266l508 200l30 -167l-518 -144z" />
    <glyph glyph-name="uni0156" unicode="&#x156;" horiz-adv-x="1337" 
d="M311 1446h566q207 0 310 -88t103 -247q0 -38 -6 -80q-23 -160 -107 -255t-207 -148l172 -628h-249l-151 587h-317l-86 -587h-239zM728 780q130 0 212.5 64t98.5 178q3 23 3 44q0 91 -57.5 140.5t-158.5 49.5h-304l-69 -476h275zM482 -387l-91 7l38 255h258l-33 -223
l-225 -300h-95z" />
    <glyph glyph-name="uni0157" unicode="&#x157;" horiz-adv-x="767" 
d="M217 1034h228l-32 -224q55 108 156 176t234 68l-34 -232q-38 2 -53 2q-156 0 -232.5 -60.5t-90.5 -162.5l-89 -601h-239zM85 -387l-91 7l38 255h258l-33 -223l-225 -300h-95z" />
    <glyph glyph-name="Rcaron" unicode="&#x158;" horiz-adv-x="1337" 
d="M311 1446h566q207 0 310 -88t103 -247q0 -38 -6 -80q-23 -160 -107 -255t-207 -148l172 -628h-249l-151 587h-317l-86 -587h-239zM728 780q130 0 212.5 64t98.5 178q3 23 3 44q0 91 -57.5 140.5t-158.5 49.5h-304l-69 -476h275zM518 1859h189l120 -143l151 143h199
l-280 -253h-168z" />
    <glyph glyph-name="rcaron" unicode="&#x159;" horiz-adv-x="767" 
d="M217 1034h228l-32 -224q55 108 156 176t234 68l-34 -232q-38 2 -53 2q-156 0 -232.5 -60.5t-90.5 -162.5l-89 -601h-239zM235 1447h189l120 -143l151 143h199l-280 -253h-168z" />
    <glyph glyph-name="Sacute" unicode="&#x15a;" horiz-adv-x="1358" 
d="M345 26.5q-119 46.5 -189 139t-66 224.5l251 9q7 -107 87 -165.5t206 -58.5q88 0 162 24t121.5 71t57.5 112q2 18 2 27q0 140 -213 188l-250 58q-141 30 -217 108.5t-76 204.5q0 34 4 63q18 128 101.5 226.5t212 152.5t278.5 54q158 0 269 -58t165.5 -154.5t49.5 -209.5
l-244 -8q1 121 -70 176.5t-197 55.5q-78 0 -144 -25t-108.5 -72.5t-51.5 -110.5q-3 -16 -3 -32q0 -58 43 -94.5t147 -61.5l243 -58q313 -66 313 -342q0 -39 -7 -86q-17 -114 -99 -206t-216.5 -145t-300.5 -53q-142 0 -261 46.5zM581 1678l508 200l30 -167l-518 -144z" />
    <glyph glyph-name="sacute" unicode="&#x15b;" horiz-adv-x="1012" 
d="M243 17q-87 37 -138 112t-50 185h212q6 -83 62.5 -121.5t133.5 -38.5q90 0 148 33.5t68 95.5q1 6 1 17q0 41 -29.5 67t-89.5 40l-174 44q-117 28 -179.5 85.5t-62.5 153.5q0 21 3 45q14 97 74 169t156.5 111t218.5 39q105 0 183 -31t120 -89.5t42 -140.5q0 -26 -4 -49
h-203q-1 65 -47 101t-123 36q-76 0 -134 -30.5t-68 -98.5q-1 -5 -1 -13q0 -39 35 -63.5t110 -42.5l171 -44q116 -32 164.5 -100.5t48.5 -149.5q0 -22 -3 -42q-15 -100 -78.5 -172t-161 -108.5t-210.5 -36.5q-108 0 -195 37zM344 1266l508 200l30 -167l-518 -144z" />
    <glyph glyph-name="Scircumflex" unicode="&#x15c;" horiz-adv-x="1358" 
d="M345 26.5q-119 46.5 -189 139t-66 224.5l251 9q7 -107 87 -165.5t206 -58.5q88 0 162 24t121.5 71t57.5 112q2 18 2 27q0 140 -213 188l-250 58q-141 30 -217 108.5t-76 204.5q0 34 4 63q18 128 101.5 226.5t212 152.5t278.5 54q158 0 269 -58t165.5 -154.5t49.5 -209.5
l-244 -8q1 121 -70 176.5t-197 55.5q-78 0 -144 -25t-108.5 -72.5t-51.5 -110.5q-3 -16 -3 -32q0 -58 43 -94.5t147 -61.5l243 -58q313 -66 313 -342q0 -39 -7 -86q-17 -114 -99 -206t-216.5 -145t-300.5 -53q-142 0 -261 46.5zM792 1869h166l206 -252h-199l-108 143
l-163 -143h-188z" />
    <glyph glyph-name="scircumflex" unicode="&#x15d;" horiz-adv-x="1012" 
d="M243 17q-87 37 -138 112t-50 185h212q6 -83 62.5 -121.5t133.5 -38.5q90 0 148 33.5t68 95.5q1 6 1 17q0 41 -29.5 67t-89.5 40l-174 44q-117 28 -179.5 85.5t-62.5 153.5q0 21 3 45q14 97 74 169t156.5 111t218.5 39q105 0 183 -31t120 -89.5t42 -140.5q0 -26 -4 -49
h-203q-1 65 -47 101t-123 36q-76 0 -134 -30.5t-68 -98.5q-1 -5 -1 -13q0 -39 35 -63.5t110 -42.5l171 -44q116 -32 164.5 -100.5t48.5 -149.5q0 -22 -3 -42q-15 -100 -78.5 -172t-161 -108.5t-210.5 -36.5q-108 0 -195 37zM555 1457h166l206 -252h-199l-108 143l-163 -143
h-188z" />
    <glyph glyph-name="Scedilla" unicode="&#x15e;" horiz-adv-x="1358" 
d="M1057 1034q1 121 -70 176.5t-197 55.5q-78 0 -144 -25t-108.5 -72.5t-51.5 -110.5q-3 -16 -3 -32q0 -58 43 -94.5t147 -61.5l243 -58q313 -66 313 -342q0 -39 -7 -86q-16 -109 -93 -198.5t-202.5 -144t-281.5 -60.5l-46 -90q86 -3 125 -40.5t39 -91.5q0 -13 -1 -20
q-7 -49 -42.5 -84.5t-88.5 -54.5t-113 -19q-124 0 -197 52l48 89q59 -48 133 -48q53 0 81.5 21t28.5 59q0 34 -35 52t-112 19q-9 0 -12.5 1t-3.5 5t4 11l80 141q-126 11 -228 61t-160.5 137.5t-54.5 208.5l251 9q7 -107 87 -165.5t206 -58.5q88 0 162 24t121.5 71t57.5 112
q2 18 2 27q0 140 -213 188l-250 58q-141 30 -217 108.5t-76 204.5q0 34 4 63q18 128 101.5 226.5t212 152.5t278.5 54q158 0 269 -58t165.5 -154.5t49.5 -209.5z" />
    <glyph glyph-name="scedilla" unicode="&#x15f;" horiz-adv-x="1012" 
d="M431 850.5q-58 -30.5 -68 -98.5q-1 -5 -1 -13q0 -39 35 -63.5t110 -42.5l171 -44q116 -32 164.5 -100.5t48.5 -149.5q0 -22 -3 -42q-14 -94 -71 -163t-145 -107.5t-192 -45.5l-46 -90q86 -3 125 -40.5t39 -91.5q0 -13 -1 -20q-7 -49 -42.5 -84.5t-88.5 -54.5t-113 -19
q-124 0 -197 52l48 89q59 -48 133 -48q53 0 81.5 21t28.5 59q0 34 -35 52t-112 19q-9 0 -12.5 1t-3.5 5t4 11l80 142q-141 18 -227.5 101.5t-85.5 228.5h212q6 -83 62.5 -121.5t133.5 -38.5q90 0 148 33.5t68 95.5q1 6 1 17q0 41 -29.5 67t-89.5 40l-174 44
q-117 28 -179.5 85.5t-62.5 153.5q0 21 3 45q14 97 74 169t156.5 111t218.5 39q105 0 183 -31t120 -89.5t42 -140.5q0 -26 -4 -49h-203q-1 65 -47 101t-123 36q-76 0 -134 -30.5z" />
    <glyph glyph-name="Scaron" unicode="&#x160;" horiz-adv-x="1358" 
d="M345 26.5q-119 46.5 -189 139t-66 224.5l251 9q7 -107 87 -165.5t206 -58.5q88 0 162 24t121.5 71t57.5 112q2 18 2 27q0 140 -213 188l-250 58q-141 30 -217 108.5t-76 204.5q0 34 4 63q18 128 101.5 226.5t212 152.5t278.5 54q158 0 269 -58t165.5 -154.5t49.5 -209.5
l-244 -8q1 121 -70 176.5t-197 55.5q-78 0 -144 -25t-108.5 -72.5t-51.5 -110.5q-3 -16 -3 -32q0 -58 43 -94.5t147 -61.5l243 -58q313 -66 313 -342q0 -39 -7 -86q-17 -114 -99 -206t-216.5 -145t-300.5 -53q-142 0 -261 46.5zM542 1859h189l120 -143l151 143h199
l-280 -253h-168z" />
    <glyph glyph-name="scaron" unicode="&#x161;" horiz-adv-x="1012" 
d="M243 17q-87 37 -138 112t-50 185h212q6 -83 62.5 -121.5t133.5 -38.5q90 0 148 33.5t68 95.5q1 6 1 17q0 41 -29.5 67t-89.5 40l-174 44q-117 28 -179.5 85.5t-62.5 153.5q0 21 3 45q14 97 74 169t156.5 111t218.5 39q105 0 183 -31t120 -89.5t42 -140.5q0 -26 -4 -49
h-203q-1 65 -47 101t-123 36q-76 0 -134 -30.5t-68 -98.5q-1 -5 -1 -13q0 -39 35 -63.5t110 -42.5l171 -44q116 -32 164.5 -100.5t48.5 -149.5q0 -22 -3 -42q-15 -100 -78.5 -172t-161 -108.5t-210.5 -36.5q-108 0 -195 37zM305 1447h189l120 -143l151 143h199l-280 -253
h-168z" />
    <glyph glyph-name="uni0162" unicode="&#x162;" horiz-adv-x="1148" 
d="M1248 1446l-33 -219h-415l-180 -1227h-49l-55 -107q86 -3 125 -40.5t39 -91.5q0 -13 -1 -20q-7 -49 -42.5 -84.5t-88.5 -54.5t-113 -19q-124 0 -197 52l48 89q59 -48 133 -48q53 0 81.5 21t28.5 59q0 34 -35 52t-112 19q-9 0 -12.5 1t-3.5 5t4 11l88 156h-76l178 1227
h-430l33 219h1085z" />
    <glyph glyph-name="uni0163" unicode="&#x163;" horiz-adv-x="762" 
d="M409 274q-3 -21 -3 -37q0 -42 21 -56t70 -14h122l-23 -154q-54 -22 -166 -22h-22l-46 -90q86 -3 125 -40.5t39 -91.5q0 -13 -1 -20q-7 -49 -42.5 -84.5t-88.5 -54.5t-113 -19q-124 0 -197 52l48 89q59 -48 133 -48q53 0 81.5 21t28.5 59q0 34 -35 52t-112 19
q-9 0 -12.5 1t-3.5 5t4 11l86 153q-76 19 -109 65.5t-33 119.5q0 33 6 70l88 602h-161l26 172h167l85 307h193l-44 -306h222l-26 -173h-222z" />
    <glyph glyph-name="Tcaron" unicode="&#x164;" horiz-adv-x="1148" 
d="M560 1227h-430l33 219h1085l-33 -219h-415l-180 -1227h-238zM453 1859h189l120 -143l151 143h199l-280 -253h-168z" />
    <glyph glyph-name="tcaron" unicode="&#x165;" horiz-adv-x="762" 
d="M222.5 41.5q-61.5 50.5 -61.5 149.5q0 39 5 69l88 602h-161l26 172h167l85 307h193l-44 -306h222l-26 -173h-222l-85 -588q-3 -21 -3 -37q0 -42 21 -56t70 -14h122l-23 -154q-54 -22 -166 -22q-146 0 -207.5 50.5zM761 1314l-59 11l30 210h174l-33 -220l-108 -194h-108z
" />
    <glyph glyph-name="Tbar" unicode="&#x166;" horiz-adv-x="1148" 
d="M800 1227l-62 -423h277l-21 -184h-283l-91 -620h-238l90 620h-266l21 184h272l61 423h-430l33 219h1085l-33 -219h-415z" />
    <glyph glyph-name="tbar" unicode="&#x167;" horiz-adv-x="841" 
d="M543 862l-32 -224h189v-143h-210l-32 -221q-3 -19 -3 -36q0 -43 21 -57t70 -14h122l-22 -154q-56 -22 -166 -22q-147 0 -208.5 50.5t-61.5 149.5q0 39 5 69l34 235h-143v143h164l33 224h-161l26 172h168l84 307h193l-44 -306h222l-26 -173h-222z" />
    <glyph glyph-name="Utilde" unicode="&#x168;" horiz-adv-x="1406" 
d="M275.5 85.5q-111.5 105.5 -111.5 309.5q0 69 12 147l132 904h245l-136 -929q-6 -43 -6 -81q0 -124 64.5 -185.5t184.5 -61.5q138 0 228.5 82t114.5 246l134 929h242l-133 -918q-40 -267 -189 -407.5t-428 -140.5q-242 0 -353.5 105.5zM582 1773q48 41 90 62t98 21
q35 0 65.5 -7.5t76.5 -23.5q38 -13 65.5 -20t55.5 -7q41 0 79 17t78 46l14 -138q-91 -65 -193 -65q-36 0 -65 7.5t-69 21.5q-39 13 -64 19.5t-55 6.5q-45 0 -77 -14.5t-77 -46.5z" />
    <glyph glyph-name="utilde" unicode="&#x169;" horiz-adv-x="1152" 
d="M278 12.5q-75 31.5 -123.5 97t-48.5 161.5q0 30 4 55l105 710h240l-102 -682q-3 -18 -3 -35q0 -79 50 -118t122 -39q56 0 105.5 23t83 68.5t42.5 108.5l99 674h240l-155 -1035h-182l2 202q-41 -115 -131.5 -168.5t-192.5 -53.5q-80 0 -155 31.5zM390 1361q48 41 90 62
t98 21q35 0 65.5 -7.5t76.5 -23.5q38 -13 65.5 -20t55.5 -7q41 0 79 17t78 46l14 -138q-91 -65 -193 -65q-36 0 -65 7.5t-69 21.5q-39 13 -64 19.5t-55 6.5q-45 0 -77 -14.5t-77 -46.5z" />
    <glyph glyph-name="Umacron" unicode="&#x16a;" horiz-adv-x="1406" 
d="M275.5 85.5q-111.5 105.5 -111.5 309.5q0 69 12 147l132 904h245l-136 -929q-6 -43 -6 -81q0 -124 64.5 -185.5t184.5 -61.5q138 0 228.5 82t114.5 246l134 929h242l-133 -918q-40 -267 -189 -407.5t-428 -140.5q-242 0 -353.5 105.5zM585 1840h635l-24 -161h-635z" />
    <glyph glyph-name="umacron" unicode="&#x16b;" horiz-adv-x="1152" 
d="M278 12.5q-75 31.5 -123.5 97t-48.5 161.5q0 30 4 55l105 710h240l-102 -682q-3 -18 -3 -35q0 -79 50 -118t122 -39q56 0 105.5 23t83 68.5t42.5 108.5l99 674h240l-155 -1035h-182l2 202q-41 -115 -131.5 -168.5t-192.5 -53.5q-80 0 -155 31.5zM392 1428h635l-24 -161
h-635z" />
    <glyph glyph-name="Ubreve" unicode="&#x16c;" horiz-adv-x="1406" 
d="M275.5 85.5q-111.5 105.5 -111.5 309.5q0 69 12 147l132 904h245l-136 -929q-6 -43 -6 -81q0 -124 64.5 -185.5t184.5 -61.5q138 0 228.5 82t114.5 246l134 929h242l-133 -918q-40 -267 -189 -407.5t-428 -140.5q-242 0 -353.5 105.5zM679 1683q-75 64 -88 173h153
q19 -47 53 -77.5t95 -30.5q104 0 182 108h154q-46 -105 -142 -171t-214 -66t-193 64z" />
    <glyph glyph-name="ubreve" unicode="&#x16d;" horiz-adv-x="1152" 
d="M278 12.5q-75 31.5 -123.5 97t-48.5 161.5q0 30 4 55l105 710h240l-102 -682q-3 -18 -3 -35q0 -79 50 -118t122 -39q56 0 105.5 23t83 68.5t42.5 108.5l99 674h240l-155 -1035h-182l2 202q-41 -115 -131.5 -168.5t-192.5 -53.5q-80 0 -155 31.5zM487 1271q-75 64 -88 173
h153q19 -47 53 -77.5t95 -30.5q104 0 182 108h154q-46 -105 -142 -171t-214 -66t-193 64z" />
    <glyph glyph-name="Uring" unicode="&#x16e;" horiz-adv-x="1406" 
d="M275.5 85.5q-111.5 105.5 -111.5 309.5q0 69 12 147l132 904h245l-136 -929q-6 -43 -6 -81q0 -124 64.5 -185.5t184.5 -61.5q138 0 228.5 82t114.5 246l134 929h242l-133 -918q-40 -267 -189 -407.5t-428 -140.5q-242 0 -353.5 105.5zM771 1579.5q-40 23.5 -62.5 64.5
t-22.5 92q0 18 3 36q8 55 42.5 102.5t85.5 75t106 27.5q51 0 91 -23t63 -63.5t23 -89.5q0 -16 -3 -33q-8 -59 -42.5 -107.5t-86 -76.5t-107.5 -28q-50 0 -90 23.5zM931 1678.5q27 17.5 43 46t16 58.5q0 38 -23.5 62t-61.5 24q-29 0 -56 -15.5t-43.5 -43t-16.5 -59.5
q0 -37 25 -63.5t61 -26.5q29 0 56 17.5z" />
    <glyph glyph-name="uring" unicode="&#x16f;" horiz-adv-x="1152" 
d="M278 12.5q-75 31.5 -123.5 97t-48.5 161.5q0 30 4 55l105 710h240l-102 -682q-3 -18 -3 -35q0 -79 50 -118t122 -39q56 0 105.5 23t83 68.5t42.5 108.5l99 674h240l-155 -1035h-182l2 202q-41 -115 -131.5 -168.5t-192.5 -53.5q-80 0 -155 31.5zM578 1167.5
q-40 23.5 -62.5 64.5t-22.5 92q0 18 3 36q8 55 42.5 102.5t85.5 75t106 27.5q51 0 91 -23t63 -63.5t23 -89.5q0 -16 -3 -33q-8 -59 -42.5 -107.5t-86 -76.5t-107.5 -28q-50 0 -90 23.5zM738 1266.5q27 17.5 43 46t16 58.5q0 38 -23.5 62t-61.5 24q-29 0 -56 -15.5t-43.5 -43
t-16.5 -59.5q0 -37 25 -63.5t61 -26.5q29 0 56 17.5z" />
    <glyph glyph-name="Uhungarumlaut" unicode="&#x170;" horiz-adv-x="1406" 
d="M275.5 85.5q-111.5 105.5 -111.5 309.5q0 69 12 147l132 904h245l-136 -929q-6 -43 -6 -81q0 -124 64.5 -185.5t184.5 -61.5q138 0 228.5 82t114.5 246l134 929h242l-133 -918q-40 -267 -189 -407.5t-428 -140.5q-242 0 -353.5 105.5zM891 1608l314 274l91 -134
l-344 -229zM546 1608l316 273l89 -133l-342 -228z" />
    <glyph glyph-name="uhungarumlaut" unicode="&#x171;" horiz-adv-x="1152" 
d="M278 12.5q-75 31.5 -123.5 97t-48.5 161.5q0 30 4 55l105 710h240l-102 -682q-3 -18 -3 -35q0 -79 50 -118t122 -39q56 0 105.5 23t83 68.5t42.5 108.5l99 674h240l-155 -1035h-182l2 202q-41 -115 -131.5 -168.5t-192.5 -53.5q-80 0 -155 31.5zM698 1196l314 274
l91 -134l-344 -229zM353 1196l316 273l89 -133l-342 -228z" />
    <glyph glyph-name="Uogonek" unicode="&#x172;" horiz-adv-x="1406" 
d="M1379 1446l-133 -918q-35 -233 -152.5 -370t-331.5 -169q-80 -33 -116 -64.5t-43 -71.5q-1 -5 -1 -13q0 -28 16 -41.5t52 -13.5q69 0 145 40l-17 -116q-32 -18 -87 -31t-112 -13q-88 0 -134 34t-46 99q0 8 2 28q7 49 37.5 87t95.5 70q-202 16 -295.5 120.5t-93.5 292.5
q0 75 11 146l132 904h245l-136 -929q-6 -43 -6 -81q0 -124 64.5 -185.5t184.5 -61.5q138 0 228.5 82t114.5 246l134 929h242z" />
    <glyph glyph-name="uogonek" unicode="&#x173;" horiz-adv-x="1152" 
d="M727 -160q0 -28 16 -41.5t52 -13.5q69 0 145 40l-17 -116q-32 -18 -87 -31t-112 -13q-88 0 -134 34t-46 99q0 8 2 28q9 61 55.5 106t153.5 82l2 189q-41 -115 -131.5 -168.5t-192.5 -53.5q-80 0 -155 31.5t-123.5 97.5t-48.5 162q0 29 4 54l105 710h240l-102 -682
q-3 -18 -3 -35q0 -79 50 -118t122 -39q56 0 105.5 23t83 68.5t42.5 108.5l99 674h240l-155 -1035h-21q-96 -37 -138 -71t-50 -77q-1 -5 -1 -13z" />
    <glyph glyph-name="Wcircumflex" unicode="&#x174;" horiz-adv-x="1855" 
d="M175 1446h237l126 -1044l430 1044h177l132 -1044l430 1044h235l-620 -1446h-199l-129 1025l-430 -1025h-196zM1038 1869h166l206 -252h-199l-108 143l-163 -143h-188z" />
    <glyph glyph-name="wcircumflex" unicode="&#x175;" horiz-adv-x="1518" 
d="M116 1034h215l101 -711h10l303 711h173l101 -710h11l300 710h218l-468 -1034h-203l-101 689l-297 -689h-199zM819 1457h166l206 -252h-199l-108 143l-163 -143h-188z" />
    <glyph glyph-name="Ycircumflex" unicode="&#x176;" horiz-adv-x="1224" 
d="M500 612l-354 834h259l248 -622l425 622h262l-600 -835l-90 -611h-238zM713 1871h166l206 -252h-199l-108 143l-163 -143h-188z" />
    <glyph glyph-name="ycircumflex" unicode="&#x177;" horiz-adv-x="1059" 
d="M31 -321q-43 9 -62 22l23 156l100 -3q9 -1 26 -1q64 0 103 17t57.5 39t32.5 50l36 76l-241 999h239l153 -731l367 731h233l-564 -1072q-62 -114 -125 -178t-128.5 -89t-144.5 -25q-62 0 -105 9zM610 1457h166l206 -252h-199l-108 143l-163 -143h-188z" />
    <glyph glyph-name="Ydieresis" unicode="&#x178;" horiz-adv-x="1224" 
d="M500 612l-354 834h259l248 -622l425 622h262l-600 -835l-90 -611h-238zM479 1863h247l-34 -230h-248zM856 1863h247l-34 -230h-247z" />
    <glyph glyph-name="Zacute" unicode="&#x179;" horiz-adv-x="1269" 
d="M46 124l887 1115h-684l31 207h1025l-17 -118l-899 -1119h729l-32 -209h-1060zM571 1678l508 200l30 -167l-518 -144z" />
    <glyph glyph-name="zacute" unicode="&#x17a;" horiz-adv-x="1013" 
d="M25 133l644 743h-494l24 158h792l-20 -133l-645 -741h544l-24 -160h-840zM362 1266l508 200l30 -167l-518 -144z" />
    <glyph glyph-name="Zdotaccent" unicode="&#x17b;" horiz-adv-x="1269" 
d="M46 124l887 1115h-684l31 207h1025l-17 -118l-899 -1119h729l-32 -209h-1060zM734 1825h248l-34 -229h-248z" />
    <glyph glyph-name="zdotaccent" unicode="&#x17c;" horiz-adv-x="1013" 
d="M25 133l644 743h-494l24 158h792l-20 -133l-645 -741h544l-24 -160h-840zM526 1413h248l-34 -229h-248z" />
    <glyph glyph-name="Zcaron" unicode="&#x17d;" horiz-adv-x="1269" 
d="M46 124l887 1115h-684l31 207h1025l-17 -118l-899 -1119h729l-32 -209h-1060zM531 1859h189l120 -143l151 143h199l-280 -253h-168z" />
    <glyph glyph-name="zcaron" unicode="&#x17e;" horiz-adv-x="1013" 
d="M25 133l644 743h-494l24 158h792l-20 -133l-645 -741h544l-24 -160h-840zM323 1447h189l120 -143l151 143h199l-280 -253h-168z" />
    <glyph glyph-name="uni018F" unicode="&#x18f;" horiz-adv-x="1470" 
d="M259 130q-128 150 -128 415q0 95 15 198q4 26 10.5 35.5t27.5 9.5h895q13 0 20.5 6t10.5 22q9 63 9 114q0 136 -61.5 226.5t-215.5 90.5q-93 0 -160.5 -36.5t-109 -86t-90.5 -125.5q-29 -45 -37 -56q-4 -7 -13 -7q-7 0 -22 6l-160 82q-11 4 -11 14q0 8 11 27
q65 104 144 190.5t199.5 148.5t278.5 62q181 0 298.5 -76.5t172.5 -206.5t55 -293q0 -80 -12 -161q-30 -202 -130.5 -373.5t-257 -273.5t-345.5 -102q-266 0 -394 150zM944 294.5q91 113.5 131 309.5l-626 1q-17 0 -23.5 -5t-9.5 -20q-7 -52 -7 -89q0 -136 66 -223t206 -87
q172 0 263 113.5z" />
    <glyph glyph-name="florin" unicode="&#x192;" horiz-adv-x="953" 
d="M-163 -168l113 1q42 1 69.5 14t47.5 44.5t37 87.5l276 883h-160l55 172h161l47 154q40 124 129.5 191t211.5 67h211l-52 -166h-132q-46 0 -87 -36.5t-58 -93.5l-37 -116h229l-57 -172h-221l-292 -931q-39 -126 -128 -195.5t-214 -69.5h-198z" />
    <glyph glyph-name="Ohorn" unicode="&#x1a0;" horiz-adv-x="1586" 
d="M1602 1295q-34 -72 -92 -109t-148 -41q39 -111 39 -254q0 -84 -13 -171q-34 -230 -133.5 -396.5t-252.5 -255t-343 -88.5q-168 0 -287 66.5t-181 194t-62 306.5q0 84 13 171q34 232 135 400.5t255.5 258t343.5 89.5q136 0 241.5 -47t172.5 -137q63 -1 96 11t56.5 54.5
t42.5 134.5h168q-17 -115 -51 -187zM1140 893q0 188 -76 278.5t-218 90.5q-173 0 -287.5 -134t-154.5 -411q-13 -88 -13 -166q0 -187 77.5 -277t221.5 -90q173 0 285 130.5t151 402.5q14 91 14 176z" />
    <glyph glyph-name="ohorn" unicode="&#x1a1;" horiz-adv-x="1333" 
d="M1276 831q-35 -73 -96.5 -109t-157.5 -37q3 -28 3 -59q0 -55 -9 -114q-23 -156 -97.5 -276.5t-190.5 -188t-260 -67.5q-126 0 -216 52t-136.5 147t-46.5 222q0 48 8 109q24 160 100.5 283.5t193.5 192t258 68.5q134 0 226 -60.5t135 -170.5q52 1 81.5 15.5t51 56
t39.5 127.5h168q-19 -118 -54 -191zM790 622q0 114 -46 181.5t-143 67.5q-120 0 -192.5 -99t-94.5 -253q-8 -54 -8 -100q0 -115 46.5 -184.5t146.5 -69.5q119 0 190.5 100t92.5 254q8 58 8 103z" />
    <glyph glyph-name="Uhorn" unicode="&#x1af;" horiz-adv-x="1644" 
d="M1685 1481q-19 -119 -54.5 -192.5t-98.5 -109t-161 -35.5q-24 0 -36 1l-89 -617q-40 -267 -189 -407.5t-428 -140.5q-242 0 -353.5 105.5t-111.5 309.5q0 69 12 147l132 904h245l-136 -929q-6 -43 -6 -81q0 -124 64.5 -185.5t184.5 -61.5q138 0 228.5 82t114.5 246
l134 929h242l-24 -164q47 2 75.5 17.5t49 57t37.5 124.5h168z" />
    <glyph glyph-name="uhorn" unicode="&#x1b0;" horiz-adv-x="1390" 
d="M1406 1113q-19 -120 -55 -193t-98.5 -108.5t-160.5 -35.5q-26 0 -39 1l-116 -776h-182l2 202q-41 -115 -131.5 -168.5t-192.5 -53.5q-80 0 -155 31.5t-123.5 97.5t-48.5 162q0 29 4 54l105 710h240l-102 -682q-3 -18 -3 -35q0 -79 50 -118t122 -39q56 0 105.5 23t83 68.5
t42.5 108.5l99 674h240l-18 -122q48 2 76.5 17t49.5 56.5t38 125.5h168z" />
    <glyph glyph-name="uni01EA" unicode="&#x1ea;" horiz-adv-x="1473" 
d="M1159 1398q118 -68 180 -197t62 -309q0 -84 -13 -172q-28 -191 -102.5 -339.5t-188 -244.5t-256.5 -133q-102 -38 -146 -73t-52 -79q-1 -5 -1 -13q0 -28 16 -41.5t52 -13.5q69 0 145 40l-17 -116q-32 -18 -87 -31t-112 -13q-88 0 -134 34t-46 99q0 8 2 28q7 49 38 87.5
t98 70.5q-148 12 -253 82t-160 192.5t-55 290.5q0 84 13 171q34 232 135 400.5t255.5 258t343.5 89.5q165 0 283 -68zM1140 893q0 188 -76 278.5t-218 90.5q-173 0 -287.5 -134t-154.5 -411q-13 -88 -13 -166q0 -187 77.5 -277t221.5 -90q173 0 285 130.5t151 402.5
q14 91 14 176z" />
    <glyph glyph-name="uni01EB" unicode="&#x1eb;" horiz-adv-x="1095" 
d="M844 1000.5q89 -53.5 135 -150.5t46 -225q0 -54 -9 -113q-28 -188 -128.5 -322t-252.5 -184h2q-105 -39 -150.5 -74t-53.5 -80q-1 -5 -1 -13q0 -28 16 -41.5t52 -13.5q69 0 145 40l-17 -116q-32 -18 -87 -31t-112 -13q-88 0 -134 34t-46 99q0 8 2 28q7 50 39 89t101 71
q-154 23 -238 133.5t-84 282.5q0 48 8 109q24 160 100.5 283.5t193.5 192t258 68.5q126 0 215 -53.5zM790 622q0 114 -46 181.5t-143 67.5q-120 0 -192.5 -99t-94.5 -253q-8 -54 -8 -100q0 -115 46.5 -184.5t146.5 -69.5q119 0 190.5 100t92.5 254q8 58 8 103z" />
    <glyph glyph-name="Aringacute" unicode="&#x1fa;" horiz-adv-x="1379" 
d="M1244 0h-241l-68 363h-528l-177 -363h-241l696 1416q-39 46 -39 112q0 16 3 34q10 69 59.5 120.5t117.5 67.5l49 130h150l-76 -140q45 -19 70.5 -58.5t25.5 -92.5q0 -20 -2 -31q-13 -87 -79 -143zM767 1477.5q25 -27.5 61 -27.5q30 0 56 18t42 46.5t16 58.5
q0 38 -23.5 62t-60.5 24q-28 0 -55 -15.5t-44 -42.5t-17 -59q0 -37 25 -64.5zM907 579l-112 630l-300 -630h412z" />
    <glyph glyph-name="aringacute" unicode="&#x1fb;" horiz-adv-x="1078" 
d="M988 787q0 -27 -5 -62l-106 -725h-201l7 181q-69 -111 -154 -156t-196 -45q-87 0 -153 30t-102 87t-36 137q0 29 4 54q25 173 157.5 259t391.5 90l146 4l10 70q2 12 2 33q0 68 -43 104.5t-120 36.5q-75 0 -141 -38.5t-96 -112.5h-203q26 129 129.5 212t256.5 103
q-25 41 -25 95q0 22 2 33q10 69 59.5 120.5t117.5 66.5l50 131h150l-76 -140q44 -19 69.5 -58.5t25.5 -92.5q0 -20 -2 -31q-7 -45 -29.5 -83t-56.5 -66q167 -61 167 -237zM631 1092.5q25 -27.5 61 -27.5q30 0 56.5 18t42.5 46.5t16 58.5q0 38 -24 62t-61 24q-28 0 -55 -15.5
t-44 -42.5t-17 -59q0 -37 25 -64.5zM720 506l-119 -2q-296 -3 -323 -191q-2 -20 -2 -28q0 -66 43.5 -103t115.5 -37q56 0 114 28.5t99 74.5t49 95z" />
    <glyph glyph-name="AEacute" unicode="&#x1fc;" horiz-adv-x="1965" 
d="M890 1446h1066l-31 -205h-658l-60 -410h464l-30 -204h-464l-61 -420h680l-30 -207h-953l53 366h-458l-240 -366h-241zM897 579l103 702l-469 -702h366zM1168 1678l508 200l30 -167l-518 -144z" />
    <glyph glyph-name="aeacute" unicode="&#x1fd;" horiz-adv-x="1763" 
d="M112.5 43.5q-72.5 63.5 -72.5 174.5q0 29 4 54q22 153 161 244.5t388 107.5l154 12l10 72q3 21 3 40q0 70 -42 108t-124 38q-69 0 -134 -38t-119 -117l-195 55q80 130 195.5 195t288.5 65q129 -1 207 -38.5t110 -112.5q69 75 156.5 113t186.5 38q121 0 211 -53
t138.5 -154.5t48.5 -243.5q0 -67 -10 -134h-717q-4 -24 -4 -52q0 -74 29.5 -134.5t82.5 -95.5t120 -35q61 0 111.5 19.5t93 52.5t93.5 85l140 -71q-100 -134 -219.5 -196t-272.5 -62q-228 0 -359 192q-2 5 -6 5t-9 -5q-95 -91 -197.5 -141.5t-243.5 -50.5
q-135 0 -207.5 63.5zM1466 661q0 62 -22 116t-65.5 86.5t-104.5 32.5q-68 0 -129 -34t-103 -98.5t-54 -151.5l474 -2q4 23 4 51zM551 163q61 25 102 68.5t49 96.5l25 171l-127 -9q-141 -12 -230 -70.5t-89 -157.5q0 -57 37 -90.5t106 -33.5q66 0 127 25zM715 1266l508 200
l30 -167l-518 -144z" />
    <glyph glyph-name="Oslashacute" unicode="&#x1fe;" horiz-adv-x="1481" 
d="M-11 89l187 179q-50 120 -50 276q0 79 14 174q34 232 135 400.5t255 258t343 89.5q129 0 229.5 -42t167.5 -123l181 170l94 -114l-194 -187q48 -117 48 -276q0 -86 -13 -174q-33 -230 -133 -396.5t-253.5 -255t-343.5 -88.5q-129 0 -229 40.5t-167 118.5l-176 -166z
M1077 1130q-60 137 -233 137q-154 0 -251.5 -112t-142.5 -343q-26 -138 -26 -259q0 -22 2 -66zM931.5 284.5q94.5 103.5 137.5 319.5q31 146 31 289q0 38 -1 57l-648 -641q32 -65 91 -96.5t146 -31.5q149 0 243.5 103.5zM638 1678l508 200l30 -167l-518 -144z" />
    <glyph glyph-name="oslashacute" unicode="&#x1ff;" horiz-adv-x="1097" 
d="M959 836q39 -91 39 -211q0 -61 -8 -113q-23 -156 -97.5 -276.5t-190.5 -188t-260 -67.5q-172 0 -277 97l-94 -90l-87 92l105 101q-46 95 -46 221q0 58 8 109q24 160 100.5 283.5t193.5 192t258 68.5q91 0 163.5 -28.5t123.5 -82.5l106 101l85 -92zM280 419q0 -28 3 -55
l445 424q-48 83 -153 83q-120 0 -192.5 -99t-94.5 -253q-8 -54 -8 -100zM764 619l-1 30l-435 -416q50 -68 145 -68q119 0 190 100t93 254q8 54 8 100zM302 1266l508 200l30 -167l-518 -144z" />
    <glyph glyph-name="uni0200" unicode="&#x200;" horiz-adv-x="1379" 
d="M700 1446h258l286 -1446h-241l-68 363h-528l-177 -363h-241zM907 579l-112 630l-300 -630h412zM498 1748l131 134l234 -274l-88 -89zM841 1748l131 134l235 -274l-89 -89z" />
    <glyph glyph-name="uni0201" unicode="&#x201;" horiz-adv-x="1078" 
d="M180 10q-66 30 -102 87t-36 137q0 29 4 54q25 173 157.5 259t391.5 90l146 4l10 70q2 12 2 33q0 68 -43 104.5t-120 36.5q-75 0 -141 -38.5t-96 -112.5h-203q20 98 85.5 170t165.5 111t222 39q185 0 275 -70.5t90 -197.5q0 -26 -5 -61l-106 -725h-201l7 181
q-69 -111 -154 -156t-196 -45q-87 0 -153 30zM549 173.5q58 28.5 99 74.5t49 95l23 163l-119 -2q-296 -3 -323 -191q-2 -20 -2 -28q0 -66 43.5 -103t115.5 -37q56 0 114 28.5zM289 1336l131 134l234 -274l-88 -89zM632 1336l131 134l235 -274l-89 -89z" />
    <glyph glyph-name="uni0202" unicode="&#x202;" horiz-adv-x="1379" 
d="M700 1446h258l286 -1446h-241l-68 363h-528l-177 -363h-241zM907 579l-112 630l-300 -630h412zM1045.5 1903.5q61.5 -30.5 99.5 -84t49 -122.5h-154q-48 108 -152 108q-61 0 -103 -30.5t-75 -77.5h-153q44 109 137 173t211 64q79 0 140.5 -30.5z" />
    <glyph glyph-name="uni0203" unicode="&#x203;" horiz-adv-x="1078" 
d="M180 10q-66 30 -102 87t-36 137q0 29 4 54q25 173 157.5 259t391.5 90l146 4l10 70q2 12 2 33q0 68 -43 104.5t-120 36.5q-75 0 -141 -38.5t-96 -112.5h-203q20 98 85.5 170t165.5 111t222 39q185 0 275 -70.5t90 -197.5q0 -26 -5 -61l-106 -725h-201l7 181
q-69 -111 -154 -156t-196 -45q-87 0 -153 30zM549 173.5q58 28.5 99 74.5t49 95l23 163l-119 -2q-296 -3 -323 -191q-2 -20 -2 -28q0 -66 43.5 -103t115.5 -37q56 0 114 28.5zM836.5 1491.5q61.5 -30.5 99.5 -84t49 -122.5h-154q-48 108 -152 108q-61 0 -103 -30.5
t-75 -77.5h-153q44 109 137 173t211 64q79 0 140.5 -30.5z" />
    <glyph glyph-name="uni0204" unicode="&#x204;" horiz-adv-x="1239" 
d="M312 1446h922l-33 -209h-680l-58 -405h599l-30 -206h-601l-60 -414l696 -1l-33 -211h-934zM422 1748l131 134l234 -274l-88 -89zM765 1748l131 134l235 -274l-89 -89z" />
    <glyph glyph-name="uni0205" unicode="&#x205;" horiz-adv-x="1075" 
d="M262 30q-93 50 -143 144.5t-50 224.5q0 58 8 107q23 159 96.5 283.5t190 194.5t261.5 70q187 0 285 -106t98 -294q0 -56 -9 -119l-11 -75h-681q-6 -37 -6 -73q0 -104 52.5 -165t150.5 -61q168 0 242 155h218q-36 -106 -111 -182t-172 -115t-200 -39q-126 0 -219 50z
M785 612q5 35 5 60q0 94 -48 150t-143 56q-73 0 -131 -37.5t-93.5 -98.5t-45.5 -130h456zM293 1336l131 134l234 -274l-88 -89zM636 1336l131 134l235 -274l-89 -89z" />
    <glyph glyph-name="uni0206" unicode="&#x206;" horiz-adv-x="1239" 
d="M312 1446h922l-33 -209h-680l-58 -405h599l-30 -206h-601l-60 -414l696 -1l-33 -211h-934zM969.5 1903.5q61.5 -30.5 99.5 -84t49 -122.5h-154q-48 108 -152 108q-61 0 -103 -30.5t-75 -77.5h-153q44 109 137 173t211 64q79 0 140.5 -30.5z" />
    <glyph glyph-name="uni0207" unicode="&#x207;" horiz-adv-x="1075" 
d="M262 30q-93 50 -143 144.5t-50 224.5q0 58 8 107q23 159 96.5 283.5t190 194.5t261.5 70q187 0 285 -106t98 -294q0 -56 -9 -119l-11 -75h-681q-6 -37 -6 -73q0 -104 52.5 -165t150.5 -61q168 0 242 155h218q-36 -106 -111 -182t-172 -115t-200 -39q-126 0 -219 50z
M785 612q5 35 5 60q0 94 -48 150t-143 56q-73 0 -131 -37.5t-93.5 -98.5t-45.5 -130h456zM839.5 1491.5q61.5 -30.5 99.5 -84t49 -122.5h-154q-48 108 -152 108q-61 0 -103 -30.5t-75 -77.5h-153q44 109 137 173t211 64q79 0 140.5 -30.5z" />
    <glyph glyph-name="uni0208" unicode="&#x208;" horiz-adv-x="589" 
d="M311 1446h240l-210 -1446h-240zM102 1748l131 134l234 -274l-88 -89zM445 1748l131 134l235 -274l-89 -89z" />
    <glyph glyph-name="uni0209" unicode="&#x209;" horiz-adv-x="535" 
d="M226 1034h240l-152 -1034h-240zM18 1336l131 134l234 -274l-88 -89zM361 1336l131 134l235 -274l-89 -89z" />
    <glyph glyph-name="uni020A" unicode="&#x20a;" horiz-adv-x="589" 
d="M311 1446h240l-210 -1446h-240zM649.5 1903.5q61.5 -30.5 99.5 -84t49 -122.5h-154q-48 108 -152 108q-61 0 -103 -30.5t-75 -77.5h-153q44 109 137 173t211 64q79 0 140.5 -30.5z" />
    <glyph glyph-name="uni020B" unicode="&#x20b;" horiz-adv-x="535" 
d="M226 1034h240l-152 -1034h-240zM564.5 1491.5q61.5 -30.5 99.5 -84t49 -122.5h-154q-48 108 -152 108q-61 0 -103 -30.5t-75 -77.5h-153q44 109 137 173t211 64q79 0 140.5 -30.5z" />
    <glyph glyph-name="uni020C" unicode="&#x20c;" horiz-adv-x="1473" 
d="M372 46.5q-119 66.5 -181 194t-62 306.5q0 84 13 171q34 232 135 400.5t255.5 258t343.5 89.5q165 0 283 -68t180 -197t62 -309q0 -84 -13 -172q-34 -230 -133.5 -396.5t-252.5 -255t-343 -88.5q-168 0 -287 66.5zM975 314.5q112 130.5 151 402.5q14 91 14 176
q0 188 -76 278.5t-218 90.5q-173 0 -287.5 -134t-154.5 -411q-13 -88 -13 -166q0 -187 77.5 -277t221.5 -90q173 0 285 130.5zM533 1748l131 134l234 -274l-88 -89zM876 1748l131 134l235 -274l-89 -89z" />
    <glyph glyph-name="uni020D" unicode="&#x20d;" horiz-adv-x="1095" 
d="M252 32q-90 52 -136.5 147t-46.5 222q0 48 8 109q24 160 100.5 283.5t193.5 192t258 68.5q126 0 215 -53.5t135 -150.5t46 -225q0 -54 -9 -113q-23 -156 -97.5 -276.5t-190.5 -188t-260 -67.5q-126 0 -216 52zM689.5 265q71.5 100 92.5 254q8 58 8 103q0 114 -46 181.5
t-143 67.5q-120 0 -192.5 -99t-94.5 -253q-8 -54 -8 -100q0 -115 46.5 -184.5t146.5 -69.5q119 0 190.5 100zM295 1336l131 134l234 -274l-88 -89zM638 1336l131 134l235 -274l-89 -89z" />
    <glyph glyph-name="uni020E" unicode="&#x20e;" horiz-adv-x="1473" 
d="M372 46.5q-119 66.5 -181 194t-62 306.5q0 84 13 171q34 232 135 400.5t255.5 258t343.5 89.5q165 0 283 -68t180 -197t62 -309q0 -84 -13 -172q-34 -230 -133.5 -396.5t-252.5 -255t-343 -88.5q-168 0 -287 66.5zM975 314.5q112 130.5 151 402.5q14 91 14 176
q0 188 -76 278.5t-218 90.5q-173 0 -287.5 -134t-154.5 -411q-13 -88 -13 -166q0 -187 77.5 -277t221.5 -90q173 0 285 130.5zM1080.5 1903.5q61.5 -30.5 99.5 -84t49 -122.5h-154q-48 108 -152 108q-61 0 -103 -30.5t-75 -77.5h-153q44 109 137 173t211 64
q79 0 140.5 -30.5z" />
    <glyph glyph-name="uni020F" unicode="&#x20f;" horiz-adv-x="1095" 
d="M252 32q-90 52 -136.5 147t-46.5 222q0 48 8 109q24 160 100.5 283.5t193.5 192t258 68.5q126 0 215 -53.5t135 -150.5t46 -225q0 -54 -9 -113q-23 -156 -97.5 -276.5t-190.5 -188t-260 -67.5q-126 0 -216 52zM689.5 265q71.5 100 92.5 254q8 58 8 103q0 114 -46 181.5
t-143 67.5q-120 0 -192.5 -99t-94.5 -253q-8 -54 -8 -100q0 -115 46.5 -184.5t146.5 -69.5q119 0 190.5 100zM842.5 1491.5q61.5 -30.5 99.5 -84t49 -122.5h-154q-48 108 -152 108q-61 0 -103 -30.5t-75 -77.5h-153q44 109 137 173t211 64q79 0 140.5 -30.5z" />
    <glyph glyph-name="uni0210" unicode="&#x210;" horiz-adv-x="1337" 
d="M311 1446h566q207 0 310 -88t103 -247q0 -38 -6 -80q-23 -160 -107 -255t-207 -148l172 -628h-249l-151 587h-317l-86 -587h-239zM728 780q130 0 212.5 64t98.5 178q3 23 3 44q0 91 -57.5 140.5t-158.5 49.5h-304l-69 -476h275zM459 1748l131 134l234 -274l-88 -89z
M802 1748l131 134l235 -274l-89 -89z" />
    <glyph glyph-name="uni0211" unicode="&#x211;" horiz-adv-x="767" 
d="M217 1034h228l-32 -224q55 108 156 176t234 68l-34 -232q-38 2 -53 2q-156 0 -232.5 -60.5t-90.5 -162.5l-89 -601h-239zM175 1336l131 134l234 -274l-88 -89zM518 1336l131 134l235 -274l-89 -89z" />
    <glyph glyph-name="uni0212" unicode="&#x212;" horiz-adv-x="1337" 
d="M1026.5 1903.5q59.5 -30.5 93 -84t39.5 -122.5h-154q-38 108 -144 108q-60 0 -105 -30.5t-81 -77.5h-153q52 109 150 173t216 64q79 0 138.5 -30.5zM311 1446h566q207 0 310 -88t103 -247q0 -38 -6 -80q-23 -160 -107 -255t-207 -148l172 -628h-249l-151 587h-317
l-86 -587h-239zM728 780q130 0 212.5 64t98.5 178q3 23 3 44q0 91 -57.5 140.5t-158.5 49.5h-304l-69 -476h275z" />
    <glyph glyph-name="uni0213" unicode="&#x213;" horiz-adv-x="767" 
d="M217 1034h228l-32 -224q55 108 156 176t234 68l-34 -232q-38 2 -53 2q-156 0 -232.5 -60.5t-90.5 -162.5l-89 -601h-239zM722.5 1491.5q61.5 -30.5 99.5 -84t49 -122.5h-154q-48 108 -152 108q-61 0 -103 -30.5t-75 -77.5h-153q44 109 137 173t211 64q79 0 140.5 -30.5z
" />
    <glyph glyph-name="uni0214" unicode="&#x214;" horiz-adv-x="1406" 
d="M275.5 85.5q-111.5 105.5 -111.5 309.5q0 69 12 147l132 904h245l-136 -929q-6 -43 -6 -81q0 -124 64.5 -185.5t184.5 -61.5q138 0 228.5 82t114.5 246l134 929h242l-133 -918q-40 -267 -189 -407.5t-428 -140.5q-242 0 -353.5 105.5zM514 1748l131 134l234 -274l-88 -89
zM857 1748l131 134l235 -274l-89 -89z" />
    <glyph glyph-name="uni0215" unicode="&#x215;" horiz-adv-x="1152" 
d="M278 12.5q-75 31.5 -123.5 97t-48.5 161.5q0 30 4 55l105 710h240l-102 -682q-3 -18 -3 -35q0 -79 50 -118t122 -39q56 0 105.5 23t83 68.5t42.5 108.5l99 674h240l-155 -1035h-182l2 202q-41 -115 -131.5 -168.5t-192.5 -53.5q-80 0 -155 31.5zM321 1336l131 134
l234 -274l-88 -89zM664 1336l131 134l235 -274l-89 -89z" />
    <glyph glyph-name="uni0216" unicode="&#x216;" horiz-adv-x="1406" 
d="M275.5 85.5q-111.5 105.5 -111.5 309.5q0 69 12 147l132 904h245l-136 -929q-6 -43 -6 -81q0 -124 64.5 -185.5t184.5 -61.5q138 0 228.5 82t114.5 246l134 929h242l-133 -918q-40 -267 -189 -407.5t-428 -140.5q-242 0 -353.5 105.5zM1061.5 1903.5q61.5 -30.5 99.5 -84
t49 -122.5h-154q-48 108 -152 108q-61 0 -103 -30.5t-75 -77.5h-153q44 109 137 173t211 64q79 0 140.5 -30.5z" />
    <glyph glyph-name="uni0217" unicode="&#x217;" horiz-adv-x="1152" 
d="M278 12.5q-75 31.5 -123.5 97t-48.5 161.5q0 30 4 55l105 710h240l-102 -682q-3 -18 -3 -35q0 -79 50 -118t122 -39q56 0 105.5 23t83 68.5t42.5 108.5l99 674h240l-155 -1035h-182l2 202q-41 -115 -131.5 -168.5t-192.5 -53.5q-80 0 -155 31.5zM868.5 1491.5
q61.5 -30.5 99.5 -84t49 -122.5h-154q-48 108 -152 108q-61 0 -103 -30.5t-75 -77.5h-153q44 109 137 173t211 64q79 0 140.5 -30.5z" />
    <glyph glyph-name="uni0218" unicode="&#x218;" horiz-adv-x="1358" 
d="M345 26.5q-119 46.5 -189 139t-66 224.5l251 9q7 -107 87 -165.5t206 -58.5q88 0 162 24t121.5 71t57.5 112q2 18 2 27q0 140 -213 188l-250 58q-141 30 -217 108.5t-76 204.5q0 34 4 63q18 128 101.5 226.5t212 152.5t278.5 54q158 0 269 -58t165.5 -154.5t49.5 -209.5
l-244 -8q1 121 -70 176.5t-197 55.5q-78 0 -144 -25t-108.5 -72.5t-51.5 -110.5q-3 -16 -3 -32q0 -58 43 -94.5t147 -61.5l243 -58q313 -66 313 -342q0 -39 -7 -86q-17 -114 -99 -206t-216.5 -145t-300.5 -53q-142 0 -261 46.5zM484 -387l-91 7l38 255h258l-33 -223
l-225 -300h-95z" />
    <glyph glyph-name="uni0219" unicode="&#x219;" horiz-adv-x="1012" 
d="M243 17q-87 37 -138 112t-50 185h212q6 -83 62.5 -121.5t133.5 -38.5q90 0 148 33.5t68 95.5q1 6 1 17q0 41 -29.5 67t-89.5 40l-174 44q-117 28 -179.5 85.5t-62.5 153.5q0 21 3 45q14 97 74 169t156.5 111t218.5 39q105 0 183 -31t120 -89.5t42 -140.5q0 -26 -4 -49
h-203q-1 65 -47 101t-123 36q-76 0 -134 -30.5t-68 -98.5q-1 -5 -1 -13q0 -39 35 -63.5t110 -42.5l171 -44q116 -32 164.5 -100.5t48.5 -149.5q0 -22 -3 -42q-15 -100 -78.5 -172t-161 -108.5t-210.5 -36.5q-108 0 -195 37zM319 -387l-91 7l38 255h258l-33 -223l-225 -300
h-95z" />
    <glyph glyph-name="uni021A" unicode="&#x21a;" horiz-adv-x="1148" 
d="M560 1227h-430l33 219h1085l-33 -219h-415l-180 -1227h-238zM401 -385l-91 7l38 255h258l-33 -223l-225 -300h-95z" />
    <glyph glyph-name="uni021B" unicode="&#x21b;" horiz-adv-x="762" 
d="M222.5 41.5q-61.5 50.5 -61.5 149.5q0 39 5 69l88 602h-161l26 172h167l85 307h193l-44 -306h222l-26 -173h-222l-85 -588q-3 -21 -3 -37q0 -42 21 -56t70 -14h122l-23 -154q-54 -22 -166 -22q-146 0 -207.5 50.5zM247 -377l-91 7l38 255h258l-33 -223l-225 -300h-95z
" />
    <glyph glyph-name="uni0237" unicode="&#x237;" horiz-adv-x="540" 
d="M-148 -323q-27 9 -26 17l24 163l86 6q63 7 92.5 35.5t38.5 89.5l152 1046h240l-153 -1051q-24 -161 -109 -238t-250 -77q-68 0 -95 9z" />
    <glyph glyph-name="uni0259" unicode="&#x259;" horiz-adv-x="1075" 
d="M813 1003.5q93 -50.5 143.5 -145t50.5 -223.5q0 -48 -8 -107q-23 -159 -97 -283.5t-190.5 -194.5t-261.5 -70q-187 0 -285 106.5t-98 293.5q0 58 9 119l12 75h680q6 38 6 73q0 104 -52.5 165t-150.5 61q-168 0 -242 -155h-218q36 106 111 182t172 115t200 39
q126 0 219 -50.5zM290 422q-5 -35 -5 -60q0 -94 48.5 -150t143.5 -56q72 0 130 37.5t93.5 98.5t45.5 130h-456z" />
    <glyph glyph-name="uni02BB" unicode="&#x2bb;" horiz-adv-x="454" 
d="M194 1167q10 70 49 132.5t96 100.5t117 38q20 0 36 -4l-13 -78l-19 -2q-27 -3 -55 -22t-48 -48.5t-25 -63.5l-3 -15l126 -10l-37 -251h-258z" />
    <glyph glyph-name="uni02BC" unicode="&#x2bc;" horiz-adv-x="517" 
d="M489 1215q-20 -70 -66.5 -132.5t-106.5 -100.5t-118 -38q-19 0 -34 4l23 78l19 2q27 3 56.5 22t53 48.5t33.5 63.5l5 15l-120 10l72 251h248z" />
    <glyph glyph-name="circumflex" unicode="&#x2c6;" horiz-adv-x="685" 
d="M396 1457h166l206 -252h-199l-108 143l-163 -143h-188z" />
    <glyph glyph-name="caron" unicode="&#x2c7;" horiz-adv-x="701" 
d="M144 1447h189l120 -143l151 143h199l-280 -253h-168z" />
    <glyph glyph-name="breve" unicode="&#x2d8;" horiz-adv-x="694" 
d="M248 1273q-75 64 -88 173h153q19 -47 53 -77.5t95 -30.5q104 0 182 108h154q-46 -105 -142 -171t-214 -66t-193 64z" />
    <glyph glyph-name="dotaccent" unicode="&#x2d9;" horiz-adv-x="321" 
d="M163 1413h248l-34 -229h-248z" />
    <glyph glyph-name="ring" unicode="&#x2da;" horiz-adv-x="479" 
d="M230 1155.5q-40 23.5 -62.5 64.5t-22.5 92q0 18 3 36q8 55 42.5 102.5t85.5 75t106 27.5q51 0 91 -23t63 -63.5t23 -89.5q0 -16 -3 -33q-8 -59 -42.5 -107.5t-86 -76.5t-107.5 -28q-50 0 -90 23.5zM390 1254.5q27 17.5 43 46t16 58.5q0 38 -23.5 62t-61.5 24
q-29 0 -56 -15.5t-43.5 -43t-16.5 -59.5q0 -37 25 -63.5t61 -26.5q29 0 56 17.5z" />
    <glyph glyph-name="ogonek" unicode="&#x2db;" horiz-adv-x="465" 
d="M-22 -300q-46 34 -46 99q0 8 2 28q9 62 57 107.5t159 82.5l170 -9q-105 -39 -150.5 -74t-53.5 -80q-1 -5 -1 -13q0 -28 16 -41.5t52 -13.5q69 0 145 40l-17 -116q-32 -18 -87 -31t-112 -13q-88 0 -134 34z" />
    <glyph glyph-name="tilde" unicode="&#x2dc;" horiz-adv-x="745" 
d="M174 1361q48 41 90 62t98 21q35 0 65.5 -7.5t76.5 -23.5q38 -13 65.5 -20t55.5 -7q41 0 79 17t78 46l14 -138q-91 -65 -193 -65q-36 0 -65 7.5t-69 21.5q-39 13 -64 19.5t-55 6.5q-45 0 -77 -14.5t-77 -46.5z" />
    <glyph glyph-name="hungarumlaut" unicode="&#x2dd;" horiz-adv-x="813" 
d="M479 1196l314 274l91 -134l-344 -229zM134 1196l316 273l89 -133l-342 -228z" />
    <glyph glyph-name="gravecomb" unicode="&#x300;" 
d="M-460 1299l82 167l449 -200l-53 -111z" />
    <glyph glyph-name="acutecomb" unicode="&#x301;" 
d="M-459 1266l508 200l30 -167l-518 -144z" />
    <glyph glyph-name="uni0302" unicode="&#x302;" 
d="M-289 1457h166l206 -252h-199l-108 143l-163 -143h-188z" />
    <glyph glyph-name="tildecomb" unicode="&#x303;" 
d="M-571 1361q48 41 90 62t98 21q35 0 65.5 -7.5t76.5 -23.5q38 -13 65.5 -20t55.5 -7q41 0 79 17t78 46l14 -138q-91 -65 -193 -65q-36 0 -65 7.5t-69 21.5q-39 13 -64 19.5t-55 6.5q-45 0 -77 -14.5t-77 -46.5z" />
    <glyph glyph-name="uni0304" unicode="&#x304;" 
d="M-548 1428h635l-24 -161h-635z" />
    <glyph glyph-name="uni0306" unicode="&#x306;" 
d="M-446 1273q-75 64 -88 173h153q19 -47 53 -77.5t95 -30.5q104 0 182 108h154q-46 -105 -142 -171t-214 -66t-193 64z" />
    <glyph glyph-name="uni0307" unicode="&#x307;" 
d="M-158 1413h248l-34 -229h-248z" />
    <glyph glyph-name="uni0308" unicode="&#x308;" 
d="M-495 1452h247l-34 -230h-248zM-118 1452h247l-34 -230h-247z" />
    <glyph glyph-name="hookabovecomb" unicode="&#x309;" 
d="M-483 1287q34 22 53.5 48t19.5 53q0 29 -17 44.5t-44 15.5q-38 0 -76 -24l-46 96q77 46 147 46q48 0 84.5 -21t55.5 -61q20 -43 20 -85q0 -60 -38.5 -113.5t-112.5 -95.5z" />
    <glyph glyph-name="uni030A" unicode="&#x30a;" 
d="M-249 1155.5q-40 23.5 -62.5 64.5t-22.5 92q0 18 3 36q8 55 42.5 102.5t85.5 75t106 27.5q51 0 91 -23t63 -63.5t23 -89.5q0 -16 -3 -33q-8 -59 -42.5 -107.5t-86 -76.5t-107.5 -28q-50 0 -90 23.5zM-89 1254.5q27 17.5 43 46t16 58.5q0 38 -23.5 62t-61.5 24
q-29 0 -56 -15.5t-43.5 -43t-16.5 -59.5q0 -37 25 -63.5t61 -26.5q29 0 56 17.5z" />
    <glyph glyph-name="uni030B" unicode="&#x30b;" 
d="M-334 1196l314 274l91 -134l-344 -229zM-679 1196l316 273l89 -133l-342 -228z" />
    <glyph glyph-name="uni030C" unicode="&#x30c;" 
d="M-557 1447h189l120 -143l151 143h199l-280 -253h-168z" />
    <glyph glyph-name="uni030F" unicode="&#x30f;" 
d="M-664 1336l131 134l234 -274l-88 -89zM-321 1336l131 134l235 -274l-89 -89z" />
    <glyph glyph-name="uni0311" unicode="&#x311;" 
d="M-58.5 1491.5q61.5 -30.5 99.5 -84t49 -122.5h-154q-48 108 -152 108q-61 0 -103 -30.5t-75 -77.5h-153q44 109 137 173t211 64q79 0 140.5 -30.5z" />
    <glyph glyph-name="uni031B" unicode="&#x31b;" 
d="M-274 1060q71 -1 106 9t59.5 52t44.5 138h168q-19 -119 -55 -192.5t-99 -109t-161 -35.5q-34 0 -82 5z" />
    <glyph glyph-name="dotbelowcomb" unicode="&#x323;" 
d="M-358 -166h248l-34 -229h-248z" />
    <glyph glyph-name="uni0326" unicode="&#x326;" 
d="M-297 -387l-91 7l38 255h258l-33 -223l-225 -300h-95z" />
    <glyph glyph-name="uni0327" unicode="&#x327;" 
d="M-591 -367l49 89q59 -48 133 -48q53 0 81.5 21t28.5 59q0 34 -35 52t-112 19q-9 0 -12.5 1t-3.5 5t4 11l95 168h112l-61 -119q86 -3 125 -40.5t39 -91.5q0 -13 -1 -20q-7 -49 -42.5 -84.5t-88.5 -54.5t-113 -19q-124 0 -198 52z" />
    <glyph glyph-name="uni0328" unicode="&#x328;" 
d="M-487 -300q-46 34 -46 99q0 8 2 28q9 62 57 107.5t159 82.5l170 -9q-105 -39 -150.5 -74t-53.5 -80q-1 -5 -1 -13q0 -28 16 -41.5t52 -13.5q69 0 145 40l-17 -116q-32 -18 -87 -31t-112 -13q-88 0 -134 34z" />
    <glyph glyph-name="pi" unicode="&#x3c0;" horiz-adv-x="1340" 
d="M231 414.5q48 232.5 57 427.5v3q0 17 -15 17h-170l19 172h1226l-19 -172h-206l-57 -862h-234l56 862h-365q-7 -141 -34 -305.5t-64.5 -312.5t-76.5 -244h-226q61 182 109 414.5z" />
    <glyph glyph-name="uni1E0C" unicode="&#x1e0c;" horiz-adv-x="1378" 
d="M312 1446q260 0 378 -2q322 -7 475 -146t153 -401q0 -82 -13 -166q-52 -354 -262 -542.5t-578 -188.5h-365zM498 201q225 0 370.5 126t186.5 403q10 70 10 135q0 199 -105 289.5t-305 90.5h-131l-151 -1044h125zM470 -166h248l-34 -229h-248z" />
    <glyph glyph-name="uni1E0D" unicode="&#x1e0d;" horiz-adv-x="1157" 
d="M157 85.5q-89 105.5 -89 294.5q0 73 11 142q23 157 85 277t160.5 187.5t226.5 67.5q74 0 132.5 -24.5t96 -62t54.5 -79.5l87 598h240l-219 -1486h-175l3 212q-43 -94 -129 -163t-225 -69q-170 0 -259 105.5zM618.5 193q57.5 34 96 93.5t50.5 134.5l29 199q2 24 2 36
q0 88 -47.5 152.5t-151.5 64.5q-110 0 -184 -86.5t-99 -262.5q-10 -63 -10 -118q0 -126 50.5 -186.5t138.5 -60.5q68 0 125.5 34zM343 -166h248l-34 -229h-248z" />
    <glyph glyph-name="uni1E24" unicode="&#x1e24;" horiz-adv-x="1404" 
d="M312 1446h240l-88 -597h576l87 597h240l-213 -1446h-240l94 642h-575l-93 -642h-240zM479 -166h248l-34 -229h-248z" />
    <glyph glyph-name="uni1E25" unicode="&#x1e25;" horiz-adv-x="1152" 
d="M283 1486h237l-87 -592q51 67 129 108t188 41q87 0 156 -33.5t108 -94.5t39 -141q0 -23 -3 -47l-107 -727h-240l101 688q2 18 2 26q0 64 -45.5 101t-119.5 37q-56 0 -107.5 -20t-86.5 -59.5t-43 -93.5l-100 -679h-239zM371 -166h248l-34 -229h-248z" />
    <glyph glyph-name="uni1E44" unicode="&#x1e44;" horiz-adv-x="1497" 
d="M312 1446h235l523 -1033l150 1033h240l-212 -1446h-215l-539 1061l-154 -1061h-240zM817 1825h248l-34 -229h-248z" />
    <glyph glyph-name="uni1E45" unicode="&#x1e45;" horiz-adv-x="1153" 
d="M217 1034h234l-19 -138q59 70 134 110t184 40q84 0 152 -35.5t107.5 -102.5t39.5 -158q0 -27 -5 -65l-100 -685h-240l97 657q3 21 3 39q0 73 -44 114.5t-116 41.5q-57 0 -109 -19.5t-87.5 -58.5t-43.5 -93l-100 -681h-239zM596 1413h248l-34 -229h-248z" />
    <glyph glyph-name="uni1E5A" unicode="&#x1e5a;" horiz-adv-x="1337" 
d="M311 1446h566q207 0 310 -88t103 -247q0 -38 -6 -80q-23 -160 -107 -255t-207 -148l172 -628h-249l-151 587h-317l-86 -587h-239zM728 780q130 0 212.5 64t98.5 178q3 23 3 44q0 91 -57.5 140.5t-158.5 49.5h-304l-69 -476h275zM451 -166h248l-34 -229h-248z" />
    <glyph glyph-name="uni1E5B" unicode="&#x1e5b;" horiz-adv-x="767" 
d="M217 1034h228l-32 -224q55 108 156 176t234 68l-34 -232q-38 2 -53 2q-156 0 -232.5 -60.5t-90.5 -162.5l-89 -601h-239zM54 -166h248l-34 -229h-248z" />
    <glyph glyph-name="uni1E62" unicode="&#x1e62;" horiz-adv-x="1358" 
d="M345 26.5q-119 46.5 -189 139t-66 224.5l251 9q7 -107 87 -165.5t206 -58.5q88 0 162 24t121.5 71t57.5 112q2 18 2 27q0 140 -213 188l-250 58q-141 30 -217 108.5t-76 204.5q0 34 4 63q18 128 101.5 226.5t212 152.5t278.5 54q158 0 269 -58t165.5 -154.5t49.5 -209.5
l-244 -8q1 121 -70 176.5t-197 55.5q-78 0 -144 -25t-108.5 -72.5t-51.5 -110.5q-3 -16 -3 -32q0 -58 43 -94.5t147 -61.5l243 -58q313 -66 313 -342q0 -39 -7 -86q-17 -114 -99 -206t-216.5 -145t-300.5 -53q-142 0 -261 46.5zM452 -166h248l-34 -229h-248z" />
    <glyph glyph-name="uni1E63" unicode="&#x1e63;" horiz-adv-x="1012" 
d="M243 17q-87 37 -138 112t-50 185h212q6 -83 62.5 -121.5t133.5 -38.5q90 0 148 33.5t68 95.5q1 6 1 17q0 41 -29.5 67t-89.5 40l-174 44q-117 28 -179.5 85.5t-62.5 153.5q0 21 3 45q14 97 74 169t156.5 111t218.5 39q105 0 183 -31t120 -89.5t42 -140.5q0 -26 -4 -49
h-203q-1 65 -47 101t-123 36q-76 0 -134 -30.5t-68 -98.5q-1 -5 -1 -13q0 -39 35 -63.5t110 -42.5l171 -44q116 -32 164.5 -100.5t48.5 -149.5q0 -22 -3 -42q-15 -100 -78.5 -172t-161 -108.5t-210.5 -36.5q-108 0 -195 37zM288 -166h248l-34 -229h-248z" />
    <glyph glyph-name="uni1E6C" unicode="&#x1e6c;" horiz-adv-x="1148" 
d="M560 1227h-430l33 219h1085l-33 -219h-415l-180 -1227h-238zM369 -164h248l-34 -229h-248z" />
    <glyph glyph-name="uni1E6D" unicode="&#x1e6d;" horiz-adv-x="762" 
d="M222.5 41.5q-61.5 50.5 -61.5 149.5q0 39 5 69l88 602h-161l26 172h167l85 307h193l-44 -306h222l-26 -173h-222l-85 -588q-3 -21 -3 -37q0 -42 21 -56t70 -14h122l-23 -154q-54 -22 -166 -22q-146 0 -207.5 50.5zM215 -156h248l-34 -229h-248z" />
    <glyph glyph-name="Wgrave" unicode="&#x1e80;" horiz-adv-x="1855" 
d="M175 1446h237l126 -1044l430 1044h177l132 -1044l430 1044h235l-620 -1446h-199l-129 1025l-430 -1025h-196zM812 1711l82 167l449 -200l-53 -111z" />
    <glyph glyph-name="wgrave" unicode="&#x1e81;" horiz-adv-x="1518" 
d="M116 1034h215l101 -711h10l303 711h173l101 -710h11l300 710h218l-468 -1034h-203l-101 689l-297 -689h-199zM593 1299l82 167l449 -200l-53 -111z" />
    <glyph glyph-name="Wacute" unicode="&#x1e82;" horiz-adv-x="1855" 
d="M175 1446h237l126 -1044l430 1044h177l132 -1044l430 1044h235l-620 -1446h-199l-129 1025l-430 -1025h-196zM826 1678l508 200l30 -167l-518 -144z" />
    <glyph glyph-name="wacute" unicode="&#x1e83;" horiz-adv-x="1518" 
d="M116 1034h215l101 -711h10l303 711h173l101 -710h11l300 710h218l-468 -1034h-203l-101 689l-297 -689h-199zM607 1266l508 200l30 -167l-518 -144z" />
    <glyph glyph-name="Wdieresis" unicode="&#x1e84;" horiz-adv-x="1855" 
d="M175 1446h237l126 -1044l430 1044h177l132 -1044l430 1044h235l-620 -1446h-199l-129 1025l-430 -1025h-196zM804 1861h247l-34 -230h-248zM1181 1861h247l-34 -230h-247z" />
    <glyph glyph-name="wdieresis" unicode="&#x1e85;" horiz-adv-x="1518" 
d="M116 1034h215l101 -711h10l303 711h173l101 -710h11l300 710h218l-468 -1034h-203l-101 689l-297 -689h-199zM585 1449h247l-34 -230h-248zM962 1449h247l-34 -230h-247z" />
    <glyph glyph-name="uni1E92" unicode="&#x1e92;" horiz-adv-x="1269" 
d="M46 124l887 1115h-684l31 207h1025l-17 -118l-899 -1119h729l-32 -209h-1060zM429 -166h248l-34 -229h-248z" />
    <glyph glyph-name="uni1E93" unicode="&#x1e93;" horiz-adv-x="1013" 
d="M25 133l644 743h-494l24 158h792l-20 -133l-645 -741h544l-24 -160h-840zM300 -166h248l-34 -229h-248z" />
    <glyph glyph-name="uni1EA0" unicode="&#x1ea0;" horiz-adv-x="1379" 
d="M700 1446h258l286 -1446h-241l-68 363h-528l-177 -363h-241zM907 579l-112 630l-300 -630h412zM473 -166h248l-34 -229h-248z" />
    <glyph glyph-name="uni1EA1" unicode="&#x1ea1;" horiz-adv-x="1078" 
d="M180 10q-66 30 -102 87t-36 137q0 29 4 54q25 173 157.5 259t391.5 90l146 4l10 70q2 12 2 33q0 68 -43 104.5t-120 36.5q-75 0 -141 -38.5t-96 -112.5h-203q20 98 85.5 170t165.5 111t222 39q185 0 275 -70.5t90 -197.5q0 -26 -5 -61l-106 -725h-201l7 181
q-69 -111 -154 -156t-196 -45q-87 0 -153 30zM549 173.5q58 28.5 99 74.5t49 95l23 163l-119 -2q-296 -3 -323 -191q-2 -20 -2 -28q0 -66 43.5 -103t115.5 -37q56 0 114 28.5zM325 -166h248l-34 -229h-248z" />
    <glyph glyph-name="uni1EA2" unicode="&#x1ea2;" horiz-adv-x="1379" 
d="M700 1446h258l286 -1446h-241l-68 363h-528l-177 -363h-241zM907 579l-112 630l-300 -630h412zM875 1687q34 22 53.5 48t19.5 53q0 29 -17 44.5t-44 15.5q-38 0 -76 -24l-46 96q77 46 147 46q48 0 84.5 -21t55.5 -61q20 -43 20 -85q0 -60 -38.5 -113.5t-112.5 -95.5z" />
    <glyph glyph-name="uni1EA3" unicode="&#x1ea3;" horiz-adv-x="1078" 
d="M180 10q-66 30 -102 87t-36 137q0 29 4 54q25 173 157.5 259t391.5 90l146 4l10 70q2 12 2 33q0 68 -43 104.5t-120 36.5q-75 0 -141 -38.5t-96 -112.5h-203q20 98 85.5 170t165.5 111t222 39q185 0 275 -70.5t90 -197.5q0 -26 -5 -61l-106 -725h-201l7 181
q-69 -111 -154 -156t-196 -45q-87 0 -153 30zM549 173.5q58 28.5 99 74.5t49 95l23 163l-119 -2q-296 -3 -323 -191q-2 -20 -2 -28q0 -66 43.5 -103t115.5 -37q56 0 114 28.5zM666 1275q34 22 53.5 48t19.5 53q0 29 -17 44.5t-44 15.5q-38 0 -76 -24l-46 96q77 46 147 46
q48 0 84.5 -21t55.5 -61q20 -43 20 -85q0 -60 -38.5 -113.5t-112.5 -95.5z" />
    <glyph glyph-name="uni1EA4" unicode="&#x1ea4;" horiz-adv-x="1379" 
d="M700 1446h258l286 -1446h-241l-68 363h-528l-177 -363h-241zM907 579l-112 630l-300 -630h412zM811 1869h166l206 -252h-199l-108 143l-163 -143h-188zM597 2045l508 200l30 -167l-518 -144z" />
    <glyph glyph-name="uni1EA5" unicode="&#x1ea5;" horiz-adv-x="1078" 
d="M180 10q-66 30 -102 87t-36 137q0 29 4 54q25 173 157.5 259t391.5 90l146 4l10 70q2 12 2 33q0 68 -43 104.5t-120 36.5q-75 0 -141 -38.5t-96 -112.5h-203q20 98 85.5 170t165.5 111t222 39q185 0 275 -70.5t90 -197.5q0 -26 -5 -61l-106 -725h-201l7 181
q-69 -111 -154 -156t-196 -45q-87 0 -153 30zM549 173.5q58 28.5 99 74.5t49 95l23 163l-119 -2q-296 -3 -323 -191q-2 -20 -2 -28q0 -66 43.5 -103t115.5 -37q56 0 114 28.5zM602 1457h166l206 -252h-199l-108 143l-163 -143h-188zM388 1633l508 200l30 -167l-518 -144z
" />
    <glyph glyph-name="uni1EA6" unicode="&#x1ea6;" horiz-adv-x="1379" 
d="M700 1446h258l286 -1446h-241l-68 363h-528l-177 -363h-241zM907 579l-112 630l-300 -630h412zM808 1869h166l206 -252h-199l-108 143l-163 -143h-188zM605 2067l82 167l449 -200l-53 -111z" />
    <glyph glyph-name="uni1EA7" unicode="&#x1ea7;" horiz-adv-x="1078" 
d="M180 10q-66 30 -102 87t-36 137q0 29 4 54q25 173 157.5 259t391.5 90l146 4l10 70q2 12 2 33q0 68 -43 104.5t-120 36.5q-75 0 -141 -38.5t-96 -112.5h-203q20 98 85.5 170t165.5 111t222 39q185 0 275 -70.5t90 -197.5q0 -26 -5 -61l-106 -725h-201l7 181
q-69 -111 -154 -156t-196 -45q-87 0 -153 30zM549 173.5q58 28.5 99 74.5t49 95l23 163l-119 -2q-296 -3 -323 -191q-2 -20 -2 -28q0 -66 43.5 -103t115.5 -37q56 0 114 28.5zM599 1457h166l206 -252h-199l-108 143l-163 -143h-188zM396 1655l82 167l449 -200l-53 -111z" />
    <glyph glyph-name="uni1EA8" unicode="&#x1ea8;" horiz-adv-x="1379" 
d="M700 1446h258l286 -1446h-241l-68 363h-528l-177 -363h-241zM907 579l-112 630l-300 -630h412zM799 1869h166l206 -252h-199l-108 143l-163 -143h-188zM1063 1919q34 22 53.5 48t19.5 53q0 29 -17 44.5t-44 15.5q-38 0 -76 -24l-46 96q77 46 147 46q48 0 84.5 -21
t55.5 -61q20 -43 20 -85q0 -60 -38.5 -113.5t-112.5 -95.5z" />
    <glyph glyph-name="uni1EA9" unicode="&#x1ea9;" horiz-adv-x="1078" 
d="M180 10q-66 30 -102 87t-36 137q0 29 4 54q25 173 157.5 259t391.5 90l146 4l10 70q2 12 2 33q0 68 -43 104.5t-120 36.5q-75 0 -141 -38.5t-96 -112.5h-203q20 98 85.5 170t165.5 111t222 39q185 0 275 -70.5t90 -197.5q0 -26 -5 -61l-106 -725h-201l7 181
q-69 -111 -154 -156t-196 -45q-87 0 -153 30zM549 173.5q58 28.5 99 74.5t49 95l23 163l-119 -2q-296 -3 -323 -191q-2 -20 -2 -28q0 -66 43.5 -103t115.5 -37q56 0 114 28.5zM590 1457h166l206 -252h-199l-108 143l-163 -143h-188zM854 1507q34 22 53.5 48t19.5 53
q0 29 -17 44.5t-44 15.5q-38 0 -76 -24l-46 96q77 46 147 46q48 0 84.5 -21t55.5 -61q20 -43 20 -85q0 -60 -38.5 -113.5t-112.5 -95.5z" />
    <glyph glyph-name="uni1EAA" unicode="&#x1eaa;" horiz-adv-x="1379" 
d="M700 1446h258l286 -1446h-241l-68 363h-528l-177 -363h-241zM907 579l-112 630l-300 -630h412zM824 1869h166l206 -252h-199l-108 143l-163 -143h-188zM575 2067q48 41 90 62t98 21q35 0 65.5 -7.5t76.5 -23.5q38 -13 65.5 -20t55.5 -7q41 0 79 17t78 46l14 -138
q-91 -65 -193 -65q-36 0 -65 7.5t-69 21.5q-39 13 -64 19.5t-55 6.5q-45 0 -77 -14.5t-77 -46.5z" />
    <glyph glyph-name="uni1EAB" unicode="&#x1eab;" horiz-adv-x="1078" 
d="M180 10q-66 30 -102 87t-36 137q0 29 4 54q25 173 157.5 259t391.5 90l146 4l10 70q2 12 2 33q0 68 -43 104.5t-120 36.5q-75 0 -141 -38.5t-96 -112.5h-203q20 98 85.5 170t165.5 111t222 39q185 0 275 -70.5t90 -197.5q0 -26 -5 -61l-106 -725h-201l7 181
q-69 -111 -154 -156t-196 -45q-87 0 -153 30zM549 173.5q58 28.5 99 74.5t49 95l23 163l-119 -2q-296 -3 -323 -191q-2 -20 -2 -28q0 -66 43.5 -103t115.5 -37q56 0 114 28.5zM615 1457h166l206 -252h-199l-108 143l-163 -143h-188zM366 1655q48 41 90 62t98 21
q35 0 65.5 -7.5t76.5 -23.5q38 -13 65.5 -20t55.5 -7q41 0 79 17t78 46l14 -138q-91 -65 -193 -65q-36 0 -65 7.5t-69 21.5q-39 13 -64 19.5t-55 6.5q-45 0 -77 -14.5t-77 -46.5z" />
    <glyph glyph-name="uni1EAC" unicode="&#x1eac;" horiz-adv-x="1379" 
d="M700 1446h258l286 -1446h-241l-68 363h-528l-177 -363h-241zM907 579l-112 630l-300 -630h412zM473 -166h248l-34 -229h-248zM809 1869h166l206 -252h-199l-108 143l-163 -143h-188z" />
    <glyph glyph-name="uni1EAD" unicode="&#x1ead;" horiz-adv-x="1078" 
d="M180 10q-66 30 -102 87t-36 137q0 29 4 54q25 173 157.5 259t391.5 90l146 4l10 70q2 12 2 33q0 68 -43 104.5t-120 36.5q-75 0 -141 -38.5t-96 -112.5h-203q20 98 85.5 170t165.5 111t222 39q185 0 275 -70.5t90 -197.5q0 -26 -5 -61l-106 -725h-201l7 181
q-69 -111 -154 -156t-196 -45q-87 0 -153 30zM549 173.5q58 28.5 99 74.5t49 95l23 163l-119 -2q-296 -3 -323 -191q-2 -20 -2 -28q0 -66 43.5 -103t115.5 -37q56 0 114 28.5zM325 -166h248l-34 -229h-248zM600 1457h166l206 -252h-199l-108 143l-163 -143h-188z" />
    <glyph glyph-name="uni1EAE" unicode="&#x1eae;" horiz-adv-x="1379" 
d="M700 1446h258l286 -1446h-241l-68 363h-528l-177 -363h-241zM907 579l-112 630l-300 -630h412zM708 1685q-75 64 -88 173h153q19 -47 53 -77.5t95 -30.5q104 0 182 108h154q-46 -105 -142 -171t-214 -66t-193 64zM641 2045l508 200l30 -167l-518 -144z" />
    <glyph glyph-name="uni1EAF" unicode="&#x1eaf;" horiz-adv-x="1078" 
d="M180 10q-66 30 -102 87t-36 137q0 29 4 54q25 173 157.5 259t391.5 90l146 4l10 70q2 12 2 33q0 68 -43 104.5t-120 36.5q-75 0 -141 -38.5t-96 -112.5h-203q20 98 85.5 170t165.5 111t222 39q185 0 275 -70.5t90 -197.5q0 -26 -5 -61l-106 -725h-201l7 181
q-69 -111 -154 -156t-196 -45q-87 0 -153 30zM549 173.5q58 28.5 99 74.5t49 95l23 163l-119 -2q-296 -3 -323 -191q-2 -20 -2 -28q0 -66 43.5 -103t115.5 -37q56 0 114 28.5zM500 1273q-75 64 -88 173h153q19 -47 53 -77.5t95 -30.5q104 0 182 108h154q-46 -105 -142 -171
t-214 -66t-193 64zM433 1633l508 200l30 -167l-518 -144z" />
    <glyph glyph-name="uni1EB0" unicode="&#x1eb0;" horiz-adv-x="1379" 
d="M700 1446h258l286 -1446h-241l-68 363h-528l-177 -363h-241zM907 579l-112 630l-300 -630h412zM705 1685q-75 64 -88 173h153q19 -47 53 -77.5t95 -30.5q104 0 182 108h154q-46 -105 -142 -171t-214 -66t-193 64zM650 2067l82 167l449 -200l-53 -111z" />
    <glyph glyph-name="uni1EB1" unicode="&#x1eb1;" horiz-adv-x="1078" 
d="M180 10q-66 30 -102 87t-36 137q0 29 4 54q25 173 157.5 259t391.5 90l146 4l10 70q2 12 2 33q0 68 -43 104.5t-120 36.5q-75 0 -141 -38.5t-96 -112.5h-203q20 98 85.5 170t165.5 111t222 39q185 0 275 -70.5t90 -197.5q0 -26 -5 -61l-106 -725h-201l7 181
q-69 -111 -154 -156t-196 -45q-87 0 -153 30zM549 173.5q58 28.5 99 74.5t49 95l23 163l-119 -2q-296 -3 -323 -191q-2 -20 -2 -28q0 -66 43.5 -103t115.5 -37q56 0 114 28.5zM496 1273q-75 64 -88 173h153q19 -47 53 -77.5t95 -30.5q104 0 182 108h154q-46 -105 -142 -171
t-214 -66t-193 64zM441 1655l82 167l449 -200l-53 -111z" />
    <glyph glyph-name="uni1EB2" unicode="&#x1eb2;" horiz-adv-x="1379" 
d="M700 1446h258l286 -1446h-241l-68 363h-528l-177 -363h-241zM907 579l-112 630l-300 -630h412zM689 1685q-75 64 -88 173h153q19 -47 53 -77.5t95 -30.5q104 0 182 108h154q-46 -105 -142 -171t-214 -66t-193 64zM933 1971q34 22 53.5 48t19.5 53q0 29 -17 44.5t-44 15.5
q-38 0 -76 -24l-46 96q77 46 147 46q48 0 84.5 -21t55.5 -61q20 -43 20 -85q0 -60 -38.5 -113.5t-112.5 -95.5z" />
    <glyph glyph-name="uni1EB3" unicode="&#x1eb3;" horiz-adv-x="1078" 
d="M180 10q-66 30 -102 87t-36 137q0 29 4 54q25 173 157.5 259t391.5 90l146 4l10 70q2 12 2 33q0 68 -43 104.5t-120 36.5q-75 0 -141 -38.5t-96 -112.5h-203q20 98 85.5 170t165.5 111t222 39q185 0 275 -70.5t90 -197.5q0 -26 -5 -61l-106 -725h-201l7 181
q-69 -111 -154 -156t-196 -45q-87 0 -153 30zM549 173.5q58 28.5 99 74.5t49 95l23 163l-119 -2q-296 -3 -323 -191q-2 -20 -2 -28q0 -66 43.5 -103t115.5 -37q56 0 114 28.5zM480 1273q-75 64 -88 173h153q19 -47 53 -77.5t95 -30.5q104 0 182 108h154q-46 -105 -142 -171
t-214 -66t-193 64zM724 1559q34 22 53.5 48t19.5 53q0 29 -17 44.5t-44 15.5q-38 0 -76 -24l-46 96q77 46 147 46q48 0 84.5 -21t55.5 -61q20 -43 20 -85q0 -60 -38.5 -113.5t-112.5 -95.5z" />
    <glyph glyph-name="uni1EB4" unicode="&#x1eb4;" horiz-adv-x="1379" 
d="M700 1446h258l286 -1446h-241l-68 363h-528l-177 -363h-241zM907 579l-112 630l-300 -630h412zM703 1685q-75 64 -88 173h153q19 -47 53 -77.5t95 -30.5q104 0 182 108h154q-46 -105 -142 -171t-214 -66t-193 64zM602 2067q48 41 90 62t98 21q35 0 65.5 -7.5t76.5 -23.5
q38 -13 65.5 -20t55.5 -7q41 0 79 17t78 46l14 -138q-91 -65 -193 -65q-36 0 -65 7.5t-69 21.5q-39 13 -64 19.5t-55 6.5q-45 0 -77 -14.5t-77 -46.5z" />
    <glyph glyph-name="uni1EB5" unicode="&#x1eb5;" horiz-adv-x="1078" 
d="M180 10q-66 30 -102 87t-36 137q0 29 4 54q25 173 157.5 259t391.5 90l146 4l10 70q2 12 2 33q0 68 -43 104.5t-120 36.5q-75 0 -141 -38.5t-96 -112.5h-203q20 98 85.5 170t165.5 111t222 39q185 0 275 -70.5t90 -197.5q0 -26 -5 -61l-106 -725h-201l7 181
q-69 -111 -154 -156t-196 -45q-87 0 -153 30zM549 173.5q58 28.5 99 74.5t49 95l23 163l-119 -2q-296 -3 -323 -191q-2 -20 -2 -28q0 -66 43.5 -103t115.5 -37q56 0 114 28.5zM494 1273q-75 64 -88 173h153q19 -47 53 -77.5t95 -30.5q104 0 182 108h154q-46 -105 -142 -171
t-214 -66t-193 64zM393 1655q48 41 90 62t98 21q35 0 65.5 -7.5t76.5 -23.5q38 -13 65.5 -20t55.5 -7q41 0 79 17t78 46l14 -138q-91 -65 -193 -65q-36 0 -65 7.5t-69 21.5q-39 13 -64 19.5t-55 6.5q-45 0 -77 -14.5t-77 -46.5z" />
    <glyph glyph-name="uni1EB6" unicode="&#x1eb6;" horiz-adv-x="1379" 
d="M700 1446h258l286 -1446h-241l-68 363h-528l-177 -363h-241zM907 579l-112 630l-300 -630h412zM473 -166h248l-34 -229h-248zM663 1683q-75 64 -88 173h153q19 -47 53 -77.5t95 -30.5q104 0 182 108h154q-46 -105 -142 -171t-214 -66t-193 64z" />
    <glyph glyph-name="uni1EB7" unicode="&#x1eb7;" horiz-adv-x="1078" 
d="M180 10q-66 30 -102 87t-36 137q0 29 4 54q25 173 157.5 259t391.5 90l146 4l10 70q2 12 2 33q0 68 -43 104.5t-120 36.5q-75 0 -141 -38.5t-96 -112.5h-203q20 98 85.5 170t165.5 111t222 39q185 0 275 -70.5t90 -197.5q0 -26 -5 -61l-106 -725h-201l7 181
q-69 -111 -154 -156t-196 -45q-87 0 -153 30zM549 173.5q58 28.5 99 74.5t49 95l23 163l-119 -2q-296 -3 -323 -191q-2 -20 -2 -28q0 -66 43.5 -103t115.5 -37q56 0 114 28.5zM325 -166h248l-34 -229h-248zM454 1271q-75 64 -88 173h153q19 -47 53 -77.5t95 -30.5
q104 0 182 108h154q-46 -105 -142 -171t-214 -66t-193 64z" />
    <glyph glyph-name="uni1EB8" unicode="&#x1eb8;" horiz-adv-x="1239" 
d="M312 1446h922l-33 -209h-680l-58 -405h599l-30 -206h-601l-60 -414l696 -1l-33 -211h-934zM427 -166h248l-34 -229h-248z" />
    <glyph glyph-name="uni1EB9" unicode="&#x1eb9;" horiz-adv-x="1075" 
d="M262 30q-93 50 -143 144.5t-50 224.5q0 58 8 107q23 159 96.5 283.5t190 194.5t261.5 70q187 0 285 -106t98 -294q0 -56 -9 -119l-11 -75h-681q-6 -37 -6 -73q0 -104 52.5 -165t150.5 -61q168 0 242 155h218q-36 -106 -111 -182t-172 -115t-200 -39q-126 0 -219 50z
M785 612q5 35 5 60q0 94 -48 150t-143 56q-73 0 -131 -37.5t-93.5 -98.5t-45.5 -130h456zM331 -166h248l-34 -229h-248z" />
    <glyph glyph-name="uni1EBA" unicode="&#x1eba;" horiz-adv-x="1239" 
d="M312 1446h922l-33 -209h-680l-58 -405h599l-30 -206h-601l-60 -414l696 -1l-33 -211h-934zM798 1687q34 22 53.5 48t19.5 53q0 29 -17 44.5t-44 15.5q-38 0 -76 -24l-46 96q77 46 147 46q48 0 84.5 -21t55.5 -61q20 -43 20 -85q0 -60 -38.5 -113.5t-112.5 -95.5z" />
    <glyph glyph-name="uni1EBB" unicode="&#x1ebb;" horiz-adv-x="1075" 
d="M262 30q-93 50 -143 144.5t-50 224.5q0 58 8 107q23 159 96.5 283.5t190 194.5t261.5 70q187 0 285 -106t98 -294q0 -56 -9 -119l-11 -75h-681q-6 -37 -6 -73q0 -104 52.5 -165t150.5 -61q168 0 242 155h218q-36 -106 -111 -182t-172 -115t-200 -39q-126 0 -219 50z
M785 612q5 35 5 60q0 94 -48 150t-143 56q-73 0 -131 -37.5t-93.5 -98.5t-45.5 -130h456zM669 1275q34 22 53.5 48t19.5 53q0 29 -17 44.5t-44 15.5q-38 0 -76 -24l-46 96q77 46 147 46q48 0 84.5 -21t55.5 -61q20 -43 20 -85q0 -60 -38.5 -113.5t-112.5 -95.5z" />
    <glyph glyph-name="uni1EBC" unicode="&#x1ebc;" horiz-adv-x="1239" 
d="M312 1446h922l-33 -209h-680l-58 -405h599l-30 -206h-601l-60 -414l696 -1l-33 -211h-934zM490 1773q48 41 90 62t98 21q35 0 65.5 -7.5t76.5 -23.5q38 -13 65.5 -20t55.5 -7q41 0 79 17t78 46l14 -138q-91 -65 -193 -65q-36 0 -65 7.5t-69 21.5q-39 13 -64 19.5t-55 6.5
q-45 0 -77 -14.5t-77 -46.5z" />
    <glyph glyph-name="uni1EBD" unicode="&#x1ebd;" horiz-adv-x="1075" 
d="M262 30q-93 50 -143 144.5t-50 224.5q0 58 8 107q23 159 96.5 283.5t190 194.5t261.5 70q187 0 285 -106t98 -294q0 -56 -9 -119l-11 -75h-681q-6 -37 -6 -73q0 -104 52.5 -165t150.5 -61q168 0 242 155h218q-36 -106 -111 -182t-172 -115t-200 -39q-126 0 -219 50z
M785 612q5 35 5 60q0 94 -48 150t-143 56q-73 0 -131 -37.5t-93.5 -98.5t-45.5 -130h456zM361 1361q48 41 90 62t98 21q35 0 65.5 -7.5t76.5 -23.5q38 -13 65.5 -20t55.5 -7q41 0 79 17t78 46l14 -138q-91 -65 -193 -65q-36 0 -65 7.5t-69 21.5q-39 13 -64 19.5t-55 6.5
q-45 0 -77 -14.5t-77 -46.5z" />
    <glyph glyph-name="uni1EBE" unicode="&#x1ebe;" horiz-adv-x="1239" 
d="M312 1446h922l-33 -209h-680l-58 -405h599l-30 -206h-601l-60 -414l696 -1l-33 -211h-934zM735 1869h166l206 -252h-199l-108 143l-163 -143h-188zM521 2045l508 200l30 -167l-518 -144z" />
    <glyph glyph-name="uni1EBF" unicode="&#x1ebf;" horiz-adv-x="1075" 
d="M262 30q-93 50 -143 144.5t-50 224.5q0 58 8 107q23 159 96.5 283.5t190 194.5t261.5 70q187 0 285 -106t98 -294q0 -56 -9 -119l-11 -75h-681q-6 -37 -6 -73q0 -104 52.5 -165t150.5 -61q168 0 242 155h218q-36 -106 -111 -182t-172 -115t-200 -39q-126 0 -219 50z
M785 612q5 35 5 60q0 94 -48 150t-143 56q-73 0 -131 -37.5t-93.5 -98.5t-45.5 -130h456zM605 1457h166l206 -252h-199l-108 143l-163 -143h-188zM391 1633l508 200l30 -167l-518 -144z" />
    <glyph glyph-name="uni1EC0" unicode="&#x1ec0;" horiz-adv-x="1239" 
d="M312 1446h922l-33 -209h-680l-58 -405h599l-30 -206h-601l-60 -414l696 -1l-33 -211h-934zM732 1869h166l206 -252h-199l-108 143l-163 -143h-188zM529 2067l82 167l449 -200l-53 -111z" />
    <glyph glyph-name="uni1EC1" unicode="&#x1ec1;" horiz-adv-x="1075" 
d="M262 30q-93 50 -143 144.5t-50 224.5q0 58 8 107q23 159 96.5 283.5t190 194.5t261.5 70q187 0 285 -106t98 -294q0 -56 -9 -119l-11 -75h-681q-6 -37 -6 -73q0 -104 52.5 -165t150.5 -61q168 0 242 155h218q-36 -106 -111 -182t-172 -115t-200 -39q-126 0 -219 50z
M785 612q5 35 5 60q0 94 -48 150t-143 56q-73 0 -131 -37.5t-93.5 -98.5t-45.5 -130h456zM602 1457h166l206 -252h-199l-108 143l-163 -143h-188zM399 1655l82 167l449 -200l-53 -111z" />
    <glyph glyph-name="uni1EC2" unicode="&#x1ec2;" horiz-adv-x="1239" 
d="M312 1446h922l-33 -209h-680l-58 -405h599l-30 -206h-601l-60 -414l696 -1l-33 -211h-934zM723 1869h166l206 -252h-199l-108 143l-163 -143h-188zM987 1919q34 22 53.5 48t19.5 53q0 29 -17 44.5t-44 15.5q-38 0 -76 -24l-46 96q77 46 147 46q48 0 84.5 -21t55.5 -61
q20 -43 20 -85q0 -60 -38.5 -113.5t-112.5 -95.5z" />
    <glyph glyph-name="uni1EC3" unicode="&#x1ec3;" horiz-adv-x="1075" 
d="M262 30q-93 50 -143 144.5t-50 224.5q0 58 8 107q23 159 96.5 283.5t190 194.5t261.5 70q187 0 285 -106t98 -294q0 -56 -9 -119l-11 -75h-681q-6 -37 -6 -73q0 -104 52.5 -165t150.5 -61q168 0 242 155h218q-36 -106 -111 -182t-172 -115t-200 -39q-126 0 -219 50z
M785 612q5 35 5 60q0 94 -48 150t-143 56q-73 0 -131 -37.5t-93.5 -98.5t-45.5 -130h456zM593 1457h166l206 -252h-199l-108 143l-163 -143h-188zM857 1507q34 22 53.5 48t19.5 53q0 29 -17 44.5t-44 15.5q-38 0 -76 -24l-46 96q77 46 147 46q48 0 84.5 -21t55.5 -61
q20 -43 20 -85q0 -60 -38.5 -113.5t-112.5 -95.5z" />
    <glyph glyph-name="uni1EC4" unicode="&#x1ec4;" horiz-adv-x="1239" 
d="M312 1446h922l-33 -209h-680l-58 -405h599l-30 -206h-601l-60 -414l696 -1l-33 -211h-934zM748 1869h166l206 -252h-199l-108 143l-163 -143h-188zM499 2067q48 41 90 62t98 21q35 0 65.5 -7.5t76.5 -23.5q38 -13 65.5 -20t55.5 -7q41 0 79 17t78 46l14 -138
q-91 -65 -193 -65q-36 0 -65 7.5t-69 21.5q-39 13 -64 19.5t-55 6.5q-45 0 -77 -14.5t-77 -46.5z" />
    <glyph glyph-name="uni1EC5" unicode="&#x1ec5;" horiz-adv-x="1075" 
d="M262 30q-93 50 -143 144.5t-50 224.5q0 58 8 107q23 159 96.5 283.5t190 194.5t261.5 70q187 0 285 -106t98 -294q0 -56 -9 -119l-11 -75h-681q-6 -37 -6 -73q0 -104 52.5 -165t150.5 -61q168 0 242 155h218q-36 -106 -111 -182t-172 -115t-200 -39q-126 0 -219 50z
M785 612q5 35 5 60q0 94 -48 150t-143 56q-73 0 -131 -37.5t-93.5 -98.5t-45.5 -130h456zM619 1457h166l206 -252h-199l-108 143l-163 -143h-188zM370 1655q48 41 90 62t98 21q35 0 65.5 -7.5t76.5 -23.5q38 -13 65.5 -20t55.5 -7q41 0 79 17t78 46l14 -138
q-91 -65 -193 -65q-36 0 -65 7.5t-69 21.5q-39 13 -64 19.5t-55 6.5q-45 0 -77 -14.5t-77 -46.5z" />
    <glyph glyph-name="uni1EC6" unicode="&#x1ec6;" horiz-adv-x="1239" 
d="M312 1446h922l-33 -209h-680l-58 -405h599l-30 -206h-601l-60 -414l696 -1l-33 -211h-934zM427 -166h248l-34 -229h-248zM732 1869h166l206 -252h-199l-108 143l-163 -143h-188z" />
    <glyph glyph-name="uni1EC7" unicode="&#x1ec7;" horiz-adv-x="1075" 
d="M262 30q-93 50 -143 144.5t-50 224.5q0 58 8 107q23 159 96.5 283.5t190 194.5t261.5 70q187 0 285 -106t98 -294q0 -56 -9 -119l-11 -75h-681q-6 -37 -6 -73q0 -104 52.5 -165t150.5 -61q168 0 242 155h218q-36 -106 -111 -182t-172 -115t-200 -39q-126 0 -219 50z
M785 612q5 35 5 60q0 94 -48 150t-143 56q-73 0 -131 -37.5t-93.5 -98.5t-45.5 -130h456zM331 -166h248l-34 -229h-248zM603 1457h166l206 -252h-199l-108 143l-163 -143h-188z" />
    <glyph glyph-name="uni1EC8" unicode="&#x1ec8;" horiz-adv-x="589" 
d="M311 1446h240l-210 -1446h-240zM479 1687q34 22 53.5 48t19.5 53q0 29 -17 44.5t-44 15.5q-38 0 -76 -24l-46 96q77 46 147 46q48 0 84.5 -21t55.5 -61q20 -43 20 -85q0 -60 -38.5 -113.5t-112.5 -95.5z" />
    <glyph glyph-name="uni1EC9" unicode="&#x1ec9;" horiz-adv-x="535" 
d="M226 1034h240l-152 -1034h-240zM394 1275q34 22 53.5 48t19.5 53q0 29 -17 44.5t-44 15.5q-38 0 -76 -24l-46 96q77 46 147 46q48 0 84.5 -21t55.5 -61q20 -43 20 -85q0 -60 -38.5 -113.5t-112.5 -95.5z" />
    <glyph glyph-name="uni1ECA" unicode="&#x1eca;" horiz-adv-x="589" 
d="M311 1446h240l-210 -1446h-240zM89 -166h248l-34 -229h-248z" />
    <glyph glyph-name="uni1ECB" unicode="&#x1ecb;" horiz-adv-x="547" 
d="M288 1452h247l-35 -230h-247zM230 1034h239l-151 -1034h-239zM55 -166h248l-34 -229h-248z" />
    <glyph glyph-name="uni1ECC" unicode="&#x1ecc;" horiz-adv-x="1473" 
d="M372 46.5q-119 66.5 -181 194t-62 306.5q0 84 13 171q34 232 135 400.5t255.5 258t343.5 89.5q165 0 283 -68t180 -197t62 -309q0 -84 -13 -172q-34 -230 -133.5 -396.5t-252.5 -255t-343 -88.5q-168 0 -287 66.5zM975 314.5q112 130.5 151 402.5q14 91 14 176
q0 188 -76 278.5t-218 90.5q-173 0 -287.5 -134t-154.5 -411q-13 -88 -13 -166q0 -187 77.5 -277t221.5 -90q173 0 285 130.5zM520 -166h248l-34 -229h-248z" />
    <glyph glyph-name="uni1ECD" unicode="&#x1ecd;" horiz-adv-x="1095" 
d="M252 32q-90 52 -136.5 147t-46.5 222q0 48 8 109q24 160 100.5 283.5t193.5 192t258 68.5q126 0 215 -53.5t135 -150.5t46 -225q0 -54 -9 -113q-23 -156 -97.5 -276.5t-190.5 -188t-260 -67.5q-126 0 -216 52zM689.5 265q71.5 100 92.5 254q8 58 8 103q0 114 -46 181.5
t-143 67.5q-120 0 -192.5 -99t-94.5 -253q-8 -54 -8 -100q0 -115 46.5 -184.5t146.5 -69.5q119 0 190.5 100zM328 -166h248l-34 -229h-248z" />
    <glyph glyph-name="uni1ECE" unicode="&#x1ece;" horiz-adv-x="1473" 
d="M372 46.5q-119 66.5 -181 194t-62 306.5q0 84 13 171q34 232 135 400.5t255.5 258t343.5 89.5q165 0 283 -68t180 -197t62 -309q0 -84 -13 -172q-34 -230 -133.5 -396.5t-252.5 -255t-343 -88.5q-168 0 -287 66.5zM975 314.5q112 130.5 151 402.5q14 91 14 176
q0 188 -76 278.5t-218 90.5q-173 0 -287.5 -134t-154.5 -411q-13 -88 -13 -166q0 -187 77.5 -277t221.5 -90q173 0 285 130.5zM910 1687q34 22 53.5 48t19.5 53q0 29 -17 44.5t-44 15.5q-38 0 -76 -24l-46 96q77 46 147 46q48 0 84.5 -21t55.5 -61q20 -43 20 -85
q0 -60 -38.5 -113.5t-112.5 -95.5z" />
    <glyph glyph-name="uni1ECF" unicode="&#x1ecf;" horiz-adv-x="1095" 
d="M252 32q-90 52 -136.5 147t-46.5 222q0 48 8 109q24 160 100.5 283.5t193.5 192t258 68.5q126 0 215 -53.5t135 -150.5t46 -225q0 -54 -9 -113q-23 -156 -97.5 -276.5t-190.5 -188t-260 -67.5q-126 0 -216 52zM689.5 265q71.5 100 92.5 254q8 58 8 103q0 114 -46 181.5
t-143 67.5q-120 0 -192.5 -99t-94.5 -253q-8 -54 -8 -100q0 -115 46.5 -184.5t146.5 -69.5q119 0 190.5 100zM671 1275q34 22 53.5 48t19.5 53q0 29 -17 44.5t-44 15.5q-38 0 -76 -24l-46 96q77 46 147 46q48 0 84.5 -21t55.5 -61q20 -43 20 -85q0 -60 -38.5 -113.5
t-112.5 -95.5z" />
    <glyph glyph-name="uni1ED0" unicode="&#x1ed0;" horiz-adv-x="1473" 
d="M372 46.5q-119 66.5 -181 194t-62 306.5q0 84 13 171q34 232 135 400.5t255.5 258t343.5 89.5q165 0 283 -68t180 -197t62 -309q0 -84 -13 -172q-34 -230 -133.5 -396.5t-252.5 -255t-343 -88.5q-168 0 -287 66.5zM975 314.5q112 130.5 151 402.5q14 91 14 176
q0 188 -76 278.5t-218 90.5q-173 0 -287.5 -134t-154.5 -411q-13 -88 -13 -166q0 -187 77.5 -277t221.5 -90q173 0 285 130.5zM846 1869h166l206 -252h-199l-108 143l-163 -143h-188zM632 2045l508 200l30 -167l-518 -144z" />
    <glyph glyph-name="uni1ED1" unicode="&#x1ed1;" horiz-adv-x="1095" 
d="M252 32q-90 52 -136.5 147t-46.5 222q0 48 8 109q24 160 100.5 283.5t193.5 192t258 68.5q126 0 215 -53.5t135 -150.5t46 -225q0 -54 -9 -113q-23 -156 -97.5 -276.5t-190.5 -188t-260 -67.5q-126 0 -216 52zM689.5 265q71.5 100 92.5 254q8 58 8 103q0 114 -46 181.5
t-143 67.5q-120 0 -192.5 -99t-94.5 -253q-8 -54 -8 -100q0 -115 46.5 -184.5t146.5 -69.5q119 0 190.5 100zM607 1457h166l206 -252h-199l-108 143l-163 -143h-188zM393 1633l508 200l30 -167l-518 -144z" />
    <glyph glyph-name="uni1ED2" unicode="&#x1ed2;" horiz-adv-x="1473" 
d="M372 46.5q-119 66.5 -181 194t-62 306.5q0 84 13 171q34 232 135 400.5t255.5 258t343.5 89.5q165 0 283 -68t180 -197t62 -309q0 -84 -13 -172q-34 -230 -133.5 -396.5t-252.5 -255t-343 -88.5q-168 0 -287 66.5zM975 314.5q112 130.5 151 402.5q14 91 14 176
q0 188 -76 278.5t-218 90.5q-173 0 -287.5 -134t-154.5 -411q-13 -88 -13 -166q0 -187 77.5 -277t221.5 -90q173 0 285 130.5zM843 1869h166l206 -252h-199l-108 143l-163 -143h-188zM640 2067l82 167l449 -200l-53 -111z" />
    <glyph glyph-name="uni1ED3" unicode="&#x1ed3;" horiz-adv-x="1095" 
d="M252 32q-90 52 -136.5 147t-46.5 222q0 48 8 109q24 160 100.5 283.5t193.5 192t258 68.5q126 0 215 -53.5t135 -150.5t46 -225q0 -54 -9 -113q-23 -156 -97.5 -276.5t-190.5 -188t-260 -67.5q-126 0 -216 52zM689.5 265q71.5 100 92.5 254q8 58 8 103q0 114 -46 181.5
t-143 67.5q-120 0 -192.5 -99t-94.5 -253q-8 -54 -8 -100q0 -115 46.5 -184.5t146.5 -69.5q119 0 190.5 100zM604 1457h166l206 -252h-199l-108 143l-163 -143h-188zM401 1655l82 167l449 -200l-53 -111z" />
    <glyph glyph-name="uni1ED4" unicode="&#x1ed4;" horiz-adv-x="1473" 
d="M372 46.5q-119 66.5 -181 194t-62 306.5q0 84 13 171q34 232 135 400.5t255.5 258t343.5 89.5q165 0 283 -68t180 -197t62 -309q0 -84 -13 -172q-34 -230 -133.5 -396.5t-252.5 -255t-343 -88.5q-168 0 -287 66.5zM975 314.5q112 130.5 151 402.5q14 91 14 176
q0 188 -76 278.5t-218 90.5q-173 0 -287.5 -134t-154.5 -411q-13 -88 -13 -166q0 -187 77.5 -277t221.5 -90q173 0 285 130.5zM834 1869h166l206 -252h-199l-108 143l-163 -143h-188zM1098 1919q34 22 53.5 48t19.5 53q0 29 -17 44.5t-44 15.5q-38 0 -76 -24l-46 96
q77 46 147 46q48 0 84.5 -21t55.5 -61q20 -43 20 -85q0 -60 -38.5 -113.5t-112.5 -95.5z" />
    <glyph glyph-name="uni1ED5" unicode="&#x1ed5;" horiz-adv-x="1095" 
d="M252 32q-90 52 -136.5 147t-46.5 222q0 48 8 109q24 160 100.5 283.5t193.5 192t258 68.5q126 0 215 -53.5t135 -150.5t46 -225q0 -54 -9 -113q-23 -156 -97.5 -276.5t-190.5 -188t-260 -67.5q-126 0 -216 52zM689.5 265q71.5 100 92.5 254q8 58 8 103q0 114 -46 181.5
t-143 67.5q-120 0 -192.5 -99t-94.5 -253q-8 -54 -8 -100q0 -115 46.5 -184.5t146.5 -69.5q119 0 190.5 100zM595 1457h166l206 -252h-199l-108 143l-163 -143h-188zM859 1507q34 22 53.5 48t19.5 53q0 29 -17 44.5t-44 15.5q-38 0 -76 -24l-46 96q77 46 147 46
q48 0 84.5 -21t55.5 -61q20 -43 20 -85q0 -60 -38.5 -113.5t-112.5 -95.5z" />
    <glyph glyph-name="uni1ED6" unicode="&#x1ed6;" horiz-adv-x="1473" 
d="M372 46.5q-119 66.5 -181 194t-62 306.5q0 84 13 171q34 232 135 400.5t255.5 258t343.5 89.5q165 0 283 -68t180 -197t62 -309q0 -84 -13 -172q-34 -230 -133.5 -396.5t-252.5 -255t-343 -88.5q-168 0 -287 66.5zM975 314.5q112 130.5 151 402.5q14 91 14 176
q0 188 -76 278.5t-218 90.5q-173 0 -287.5 -134t-154.5 -411q-13 -88 -13 -166q0 -187 77.5 -277t221.5 -90q173 0 285 130.5zM860 1869h166l206 -252h-199l-108 143l-163 -143h-188zM611 2067q48 41 90 62t98 21q35 0 65.5 -7.5t76.5 -23.5q38 -13 65.5 -20t55.5 -7
q41 0 79 17t78 46l14 -138q-91 -65 -193 -65q-36 0 -65 7.5t-69 21.5q-39 13 -64 19.5t-55 6.5q-45 0 -77 -14.5t-77 -46.5z" />
    <glyph glyph-name="uni1ED7" unicode="&#x1ed7;" horiz-adv-x="1095" 
d="M252 32q-90 52 -136.5 147t-46.5 222q0 48 8 109q24 160 100.5 283.5t193.5 192t258 68.5q126 0 215 -53.5t135 -150.5t46 -225q0 -54 -9 -113q-23 -156 -97.5 -276.5t-190.5 -188t-260 -67.5q-126 0 -216 52zM689.5 265q71.5 100 92.5 254q8 58 8 103q0 114 -46 181.5
t-143 67.5q-120 0 -192.5 -99t-94.5 -253q-8 -54 -8 -100q0 -115 46.5 -184.5t146.5 -69.5q119 0 190.5 100zM621 1457h166l206 -252h-199l-108 143l-163 -143h-188zM372 1655q48 41 90 62t98 21q35 0 65.5 -7.5t76.5 -23.5q38 -13 65.5 -20t55.5 -7q41 0 79 17t78 46
l14 -138q-91 -65 -193 -65q-36 0 -65 7.5t-69 21.5q-39 13 -64 19.5t-55 6.5q-45 0 -77 -14.5t-77 -46.5z" />
    <glyph glyph-name="uni1ED8" unicode="&#x1ed8;" horiz-adv-x="1473" 
d="M372 46.5q-119 66.5 -181 194t-62 306.5q0 84 13 171q34 232 135 400.5t255.5 258t343.5 89.5q165 0 283 -68t180 -197t62 -309q0 -84 -13 -172q-34 -230 -133.5 -396.5t-252.5 -255t-343 -88.5q-168 0 -287 66.5zM975 314.5q112 130.5 151 402.5q14 91 14 176
q0 188 -76 278.5t-218 90.5q-173 0 -287.5 -134t-154.5 -411q-13 -88 -13 -166q0 -187 77.5 -277t221.5 -90q173 0 285 130.5zM520 -166h248l-34 -229h-248zM844 1869h166l206 -252h-199l-108 143l-163 -143h-188z" />
    <glyph glyph-name="uni1ED9" unicode="&#x1ed9;" horiz-adv-x="1095" 
d="M252 32q-90 52 -136.5 147t-46.5 222q0 48 8 109q24 160 100.5 283.5t193.5 192t258 68.5q126 0 215 -53.5t135 -150.5t46 -225q0 -54 -9 -113q-23 -156 -97.5 -276.5t-190.5 -188t-260 -67.5q-126 0 -216 52zM689.5 265q71.5 100 92.5 254q8 58 8 103q0 114 -46 181.5
t-143 67.5q-120 0 -192.5 -99t-94.5 -253q-8 -54 -8 -100q0 -115 46.5 -184.5t146.5 -69.5q119 0 190.5 100zM328 -166h248l-34 -229h-248zM605 1457h166l206 -252h-199l-108 143l-163 -143h-188z" />
    <glyph glyph-name="uni1EDA" unicode="&#x1eda;" horiz-adv-x="1586" 
d="M1602 1295q-34 -72 -92 -109t-148 -41q39 -111 39 -254q0 -84 -13 -171q-34 -230 -133.5 -396.5t-252.5 -255t-343 -88.5q-168 0 -287 66.5t-181 194t-62 306.5q0 84 13 171q34 232 135 400.5t255.5 258t343.5 89.5q136 0 241.5 -47t172.5 -137q63 -1 96 11t56.5 54.5
t42.5 134.5h168q-17 -115 -51 -187zM1140 893q0 188 -76 278.5t-218 90.5q-173 0 -287.5 -134t-154.5 -411q-13 -88 -13 -166q0 -187 77.5 -277t221.5 -90q173 0 285 130.5t151 402.5q14 91 14 176zM632 1678l508 200l30 -167l-518 -144z" />
    <glyph glyph-name="uni1EDB" unicode="&#x1edb;" horiz-adv-x="1333" 
d="M414 1155l-20 111l508 200l30 -167zM1276 831q-35 -73 -96.5 -109t-157.5 -37q3 -28 3 -59q0 -55 -9 -114q-23 -156 -97.5 -276.5t-190.5 -188t-260 -67.5q-126 0 -216 52t-136.5 147t-46.5 222q0 48 8 109q24 160 100.5 283.5t193.5 192t258 68.5q134 0 226 -60.5
t135 -170.5q52 1 81.5 15.5t51 56t39.5 127.5h168q-19 -118 -54 -191zM790 622q0 114 -46 181.5t-143 67.5q-120 0 -192.5 -99t-94.5 -253q-8 -54 -8 -100q0 -115 46.5 -184.5t146.5 -69.5q119 0 190.5 100t92.5 254q8 58 8 103z" />
    <glyph glyph-name="uni1EDC" unicode="&#x1edc;" horiz-adv-x="1586" 
d="M1602 1295q-34 -72 -92 -109t-148 -41q39 -111 39 -254q0 -84 -13 -171q-34 -230 -133.5 -396.5t-252.5 -255t-343 -88.5q-168 0 -287 66.5t-181 194t-62 306.5q0 84 13 171q34 232 135 400.5t255.5 258t343.5 89.5q136 0 241.5 -47t172.5 -137q63 -1 96 11t56.5 54.5
t42.5 134.5h168q-17 -115 -51 -187zM1140 893q0 188 -76 278.5t-218 90.5q-173 0 -287.5 -134t-154.5 -411q-13 -88 -13 -166q0 -187 77.5 -277t221.5 -90q173 0 285 130.5t151 402.5q14 91 14 176zM618 1711l82 167l449 -200l-53 -111z" />
    <glyph glyph-name="uni1EDD" unicode="&#x1edd;" horiz-adv-x="1333" 
d="M857 1155l-478 144l82 167l449 -200zM1276 831q-35 -73 -96.5 -109t-157.5 -37q3 -28 3 -59q0 -55 -9 -114q-23 -156 -97.5 -276.5t-190.5 -188t-260 -67.5q-126 0 -216 52t-136.5 147t-46.5 222q0 48 8 109q24 160 100.5 283.5t193.5 192t258 68.5q134 0 226 -60.5
t135 -170.5q52 1 81.5 15.5t51 56t39.5 127.5h168q-19 -118 -54 -191zM790 622q0 114 -46 181.5t-143 67.5q-120 0 -192.5 -99t-94.5 -253q-8 -54 -8 -100q0 -115 46.5 -184.5t146.5 -69.5q119 0 190.5 100t92.5 254q8 58 8 103z" />
    <glyph glyph-name="uni1EDE" unicode="&#x1ede;" horiz-adv-x="1586" 
d="M1602 1295q-34 -72 -92 -109t-148 -41q39 -111 39 -254q0 -84 -13 -171q-34 -230 -133.5 -396.5t-252.5 -255t-343 -88.5q-168 0 -287 66.5t-181 194t-62 306.5q0 84 13 171q34 232 135 400.5t255.5 258t343.5 89.5q136 0 241.5 -47t172.5 -137q63 -1 96 11t56.5 54.5
t42.5 134.5h168q-17 -115 -51 -187zM1140 893q0 188 -76 278.5t-218 90.5q-173 0 -287.5 -134t-154.5 -411q-13 -88 -13 -166q0 -187 77.5 -277t221.5 -90q173 0 285 130.5t151 402.5q14 91 14 176zM910 1687q34 22 53.5 48t19.5 53q0 29 -17 44.5t-44 15.5q-38 0 -76 -24
l-46 96q77 46 147 46q48 0 84.5 -21t55.5 -61q20 -43 20 -85q0 -60 -38.5 -113.5t-112.5 -95.5z" />
    <glyph glyph-name="uni1EDF" unicode="&#x1edf;" horiz-adv-x="1333" 
d="M682 1436q-37 0 -75 -24l-46 96q77 46 147 46q48 0 84.5 -21t55.5 -61q20 -43 20 -85q0 -60 -38.5 -113.5t-112.5 -95.5l-46 97q34 22 53.5 48t19.5 53q0 15 -6 28q-13 32 -56 32zM1276 831q-35 -73 -96.5 -109t-157.5 -37q3 -28 3 -59q0 -55 -9 -114
q-23 -156 -97.5 -276.5t-190.5 -188t-260 -67.5q-126 0 -216 52t-136.5 147t-46.5 222q0 48 8 109q24 160 100.5 283.5t193.5 192t258 68.5q134 0 226 -60.5t135 -170.5q52 1 81.5 15.5t51 56t39.5 127.5h168q-19 -118 -54 -191zM790 622q0 114 -46 181.5t-143 67.5
q-120 0 -192.5 -99t-94.5 -253q-8 -54 -8 -100q0 -115 46.5 -184.5t146.5 -69.5q119 0 190.5 100t92.5 254q8 58 8 103z" />
    <glyph glyph-name="uni1EE0" unicode="&#x1ee0;" horiz-adv-x="1586" 
d="M1602 1295q-34 -72 -92 -109t-148 -41q39 -111 39 -254q0 -84 -13 -171q-34 -230 -133.5 -396.5t-252.5 -255t-343 -88.5q-168 0 -287 66.5t-181 194t-62 306.5q0 84 13 171q34 232 135 400.5t255.5 258t343.5 89.5q136 0 241.5 -47t172.5 -137q63 -1 96 11t56.5 54.5
t42.5 134.5h168q-17 -115 -51 -187zM1140 893q0 188 -76 278.5t-218 90.5q-173 0 -287.5 -134t-154.5 -411q-13 -88 -13 -166q0 -187 77.5 -277t221.5 -90q173 0 285 130.5t151 402.5q14 91 14 176zM602 1773q48 41 90 62t98 21q35 0 65.5 -7.5t76.5 -23.5q38 -13 65.5 -20
t55.5 -7q41 0 79 17t78 46l14 -138q-91 -65 -193 -65q-36 0 -65 7.5t-69 21.5q-39 13 -64 19.5t-55 6.5q-45 0 -77 -14.5t-77 -46.5z" />
    <glyph glyph-name="uni1EE1" unicode="&#x1ee1;" horiz-adv-x="1333" 
d="M462 1286.5q-32 -14.5 -77 -46.5l-22 121q48 41 90 62t98 21q35 0 65.5 -7.5t76.5 -23.5q38 -13 65.5 -20t55.5 -7q41 0 79 17t78 46l14 -138q-91 -65 -193 -65q-36 0 -65 7.5t-69 21.5q-39 13 -64 19.5t-55 6.5q-45 0 -77 -14.5zM1276 831q-35 -73 -96.5 -109
t-157.5 -37q3 -28 3 -59q0 -55 -9 -114q-23 -156 -97.5 -276.5t-190.5 -188t-260 -67.5q-126 0 -216 52t-136.5 147t-46.5 222q0 48 8 109q24 160 100.5 283.5t193.5 192t258 68.5q134 0 226 -60.5t135 -170.5q52 1 81.5 15.5t51 56t39.5 127.5h168q-19 -118 -54 -191z
M790 622q0 114 -46 181.5t-143 67.5q-120 0 -192.5 -99t-94.5 -253q-8 -54 -8 -100q0 -115 46.5 -184.5t146.5 -69.5q119 0 190.5 100t92.5 254q8 58 8 103z" />
    <glyph glyph-name="uni1EE2" unicode="&#x1ee2;" horiz-adv-x="1586" 
d="M1602 1295q-34 -72 -92 -109t-148 -41q39 -111 39 -254q0 -84 -13 -171q-34 -230 -133.5 -396.5t-252.5 -255t-343 -88.5q-168 0 -287 66.5t-181 194t-62 306.5q0 84 13 171q34 232 135 400.5t255.5 258t343.5 89.5q136 0 241.5 -47t172.5 -137q63 -1 96 11t56.5 54.5
t42.5 134.5h168q-17 -115 -51 -187zM1140 893q0 188 -76 278.5t-218 90.5q-173 0 -287.5 -134t-154.5 -411q-13 -88 -13 -166q0 -187 77.5 -277t221.5 -90q173 0 285 130.5t151 402.5q14 91 14 176zM520 -166h248l-34 -229h-248z" />
    <glyph glyph-name="uni1EE3" unicode="&#x1ee3;" horiz-adv-x="1333" 
d="M1276 831q-35 -73 -96.5 -109t-157.5 -37q3 -28 3 -59q0 -55 -9 -114q-23 -156 -97.5 -276.5t-190.5 -188t-260 -67.5q-126 0 -216 52t-136.5 147t-46.5 222q0 48 8 109q24 160 100.5 283.5t193.5 192t258 68.5q134 0 226 -60.5t135 -170.5q52 1 81.5 15.5t51 56
t39.5 127.5h168q-19 -118 -54 -191zM790 622q0 114 -46 181.5t-143 67.5q-120 0 -192.5 -99t-94.5 -253q-8 -54 -8 -100q0 -115 46.5 -184.5t146.5 -69.5q119 0 190.5 100t92.5 254q8 58 8 103zM328 -165h248l-35 -230h-247z" />
    <glyph glyph-name="uni1EE4" unicode="&#x1ee4;" horiz-adv-x="1406" 
d="M275.5 85.5q-111.5 105.5 -111.5 309.5q0 69 12 147l132 904h245l-136 -929q-6 -43 -6 -81q0 -124 64.5 -185.5t184.5 -61.5q138 0 228.5 82t114.5 246l134 929h242l-133 -918q-40 -267 -189 -407.5t-428 -140.5q-242 0 -353.5 105.5zM487 -164h248l-34 -229h-248z" />
    <glyph glyph-name="uni1EE5" unicode="&#x1ee5;" horiz-adv-x="1152" 
d="M278 12.5q-75 31.5 -123.5 97t-48.5 161.5q0 30 4 55l105 710h240l-102 -682q-3 -18 -3 -35q0 -79 50 -118t122 -39q56 0 105.5 23t83 68.5t42.5 108.5l99 674h240l-155 -1035h-182l2 202q-41 -115 -131.5 -168.5t-192.5 -53.5q-80 0 -155 31.5zM358 -166h248l-34 -229
h-248z" />
    <glyph glyph-name="uni1EE6" unicode="&#x1ee6;" horiz-adv-x="1406" 
d="M275.5 85.5q-111.5 105.5 -111.5 309.5q0 69 12 147l132 904h245l-136 -929q-6 -43 -6 -81q0 -124 64.5 -185.5t184.5 -61.5q138 0 228.5 82t114.5 246l134 929h242l-133 -918q-40 -267 -189 -407.5t-428 -140.5q-242 0 -353.5 105.5zM890 1687q34 22 53.5 48t19.5 53
q0 29 -17 44.5t-44 15.5q-38 0 -76 -24l-46 96q77 46 147 46q48 0 84.5 -21t55.5 -61q20 -43 20 -85q0 -60 -38.5 -113.5t-112.5 -95.5z" />
    <glyph glyph-name="uni1EE7" unicode="&#x1ee7;" horiz-adv-x="1152" 
d="M278 12.5q-75 31.5 -123.5 97t-48.5 161.5q0 30 4 55l105 710h240l-102 -682q-3 -18 -3 -35q0 -79 50 -118t122 -39q56 0 105.5 23t83 68.5t42.5 108.5l99 674h240l-155 -1035h-182l2 202q-41 -115 -131.5 -168.5t-192.5 -53.5q-80 0 -155 31.5zM698 1275q34 22 53.5 48
t19.5 53q0 29 -17 44.5t-44 15.5q-38 0 -76 -24l-46 96q77 46 147 46q48 0 84.5 -21t55.5 -61q20 -43 20 -85q0 -60 -38.5 -113.5t-112.5 -95.5z" />
    <glyph glyph-name="uni1EE8" unicode="&#x1ee8;" horiz-adv-x="1644" 
d="M632 1567l-20 111l508 200l30 -167zM1685 1481q-19 -119 -54.5 -192.5t-98.5 -109t-161 -35.5q-24 0 -36 1l-89 -617q-40 -267 -189 -407.5t-428 -140.5q-242 0 -353.5 105.5t-111.5 309.5q0 69 12 147l132 904h245l-136 -929q-6 -43 -6 -81q0 -124 64.5 -185.5
t184.5 -61.5q138 0 228.5 82t114.5 246l134 929h242l-24 -164q47 2 75.5 17.5t49 57t37.5 124.5h168z" />
    <glyph glyph-name="uni1EE9" unicode="&#x1ee9;" horiz-adv-x="1390" 
d="M440 1155l-20 111l508 200l30 -167zM1406 1113q-19 -120 -55 -193t-98.5 -108.5t-160.5 -35.5q-26 0 -39 1l-116 -776h-182l2 202q-41 -115 -131.5 -168.5t-192.5 -53.5q-80 0 -155 31.5t-123.5 97.5t-48.5 162q0 29 4 54l105 710h240l-102 -682q-3 -18 -3 -35
q0 -79 50 -118t122 -39q56 0 105.5 23t83 68.5t42.5 108.5l99 674h240l-18 -122q48 2 76.5 17t49.5 56.5t38 125.5h168z" />
    <glyph glyph-name="uni1EEA" unicode="&#x1eea;" horiz-adv-x="1644" 
d="M1076 1567l-478 144l82 167l449 -200zM1685 1481q-19 -119 -54.5 -192.5t-98.5 -109t-161 -35.5q-24 0 -36 1l-89 -617q-40 -267 -189 -407.5t-428 -140.5q-242 0 -353.5 105.5t-111.5 309.5q0 69 12 147l132 904h245l-136 -929q-6 -43 -6 -81q0 -124 64.5 -185.5
t184.5 -61.5q138 0 228.5 82t114.5 246l134 929h242l-24 -164q47 2 75.5 17.5t49 57t37.5 124.5h168z" />
    <glyph glyph-name="uni1EEB" unicode="&#x1eeb;" horiz-adv-x="1390" 
d="M884 1155l-478 144l82 167l449 -200zM1406 1113q-19 -120 -55 -193t-98.5 -108.5t-160.5 -35.5q-26 0 -39 1l-116 -776h-182l2 202q-41 -115 -131.5 -168.5t-192.5 -53.5q-80 0 -155 31.5t-123.5 97.5t-48.5 162q0 29 4 54l105 710h240l-102 -682q-3 -18 -3 -35
q0 -79 50 -118t122 -39q56 0 105.5 23t83 68.5t42.5 108.5l99 674h240l-18 -122q48 2 76.5 17t49.5 56.5t38 125.5h168z" />
    <glyph glyph-name="uni1EEC" unicode="&#x1eec;" horiz-adv-x="1644" 
d="M901 1848q-38 0 -75 -24l-46 96q77 46 147 46q48 0 84.5 -21t55.5 -61q20 -43 20 -85q0 -60 -38.5 -113.5t-112.5 -95.5l-46 97q34 22 53.5 48t19.5 53q0 15 -6 28q-13 32 -56 32zM1685 1481q-19 -119 -54.5 -192.5t-98.5 -109t-161 -35.5q-24 0 -36 1l-89 -617
q-40 -267 -189 -407.5t-428 -140.5q-242 0 -353.5 105.5t-111.5 309.5q0 69 12 147l132 904h245l-136 -929q-6 -43 -6 -81q0 -124 64.5 -185.5t184.5 -61.5q138 0 228.5 82t114.5 246l134 929h242l-24 -164q47 2 75.5 17.5t49 57t37.5 124.5h168z" />
    <glyph glyph-name="uni1EED" unicode="&#x1eed;" horiz-adv-x="1390" 
d="M709 1436q-37 0 -75 -24l-46 96q77 46 147 46q48 0 84.5 -21t55.5 -61q20 -43 20 -85q0 -60 -38.5 -113.5t-112.5 -95.5l-46 97q34 22 53.5 48t19.5 53q0 15 -6 28q-13 32 -56 32zM1406 1113q-19 -120 -55 -193t-98.5 -108.5t-160.5 -35.5q-26 0 -39 1l-116 -776h-182
l2 202q-41 -115 -131.5 -168.5t-192.5 -53.5q-80 0 -155 31.5t-123.5 97.5t-48.5 162q0 29 4 54l105 710h240l-102 -682q-3 -18 -3 -35q0 -79 50 -118t122 -39q56 0 105.5 23t83 68.5t42.5 108.5l99 674h240l-18 -122q48 2 76.5 17t49.5 56.5t38 125.5h168z" />
    <glyph glyph-name="uni1EEE" unicode="&#x1eee;" horiz-adv-x="1644" 
d="M681 1698.5q-32 -14.5 -77 -46.5l-22 121q48 41 90 62t98 21q35 0 65.5 -7.5t76.5 -23.5q38 -13 65.5 -20t55.5 -7q41 0 79 17t78 46l14 -138q-91 -65 -193 -65q-36 0 -65 7.5t-69 21.5q-39 13 -64 19.5t-55 6.5q-45 0 -77 -14.5zM1685 1481q-19 -119 -54.5 -192.5
t-98.5 -109t-161 -35.5q-24 0 -36 1l-89 -617q-40 -267 -189 -407.5t-428 -140.5q-242 0 -353.5 105.5t-111.5 309.5q0 69 12 147l132 904h245l-136 -929q-6 -43 -6 -81q0 -124 64.5 -185.5t184.5 -61.5q138 0 228.5 82t114.5 246l134 929h242l-24 -164q47 2 75.5 17.5
t49 57t37.5 124.5h168z" />
    <glyph glyph-name="uni1EEF" unicode="&#x1eef;" horiz-adv-x="1390" 
d="M489 1286.5q-32 -14.5 -77 -46.5l-22 121q48 41 90 62t98 21q35 0 65.5 -7.5t76.5 -23.5q38 -13 65.5 -20t55.5 -7q41 0 79 17t78 46l14 -138q-91 -65 -193 -65q-36 0 -65 7.5t-69 21.5q-39 13 -64 19.5t-55 6.5q-45 0 -77 -14.5zM1406 1113q-19 -120 -55 -193
t-98.5 -108.5t-160.5 -35.5q-26 0 -39 1l-116 -776h-182l2 202q-41 -115 -131.5 -168.5t-192.5 -53.5q-80 0 -155 31.5t-123.5 97.5t-48.5 162q0 29 4 54l105 710h240l-102 -682q-3 -18 -3 -35q0 -79 50 -118t122 -39q56 0 105.5 23t83 68.5t42.5 108.5l99 674h240l-18 -122
q48 2 76.5 17t49.5 56.5t38 125.5h168z" />
    <glyph glyph-name="uni1EF0" unicode="&#x1ef0;" horiz-adv-x="1644" 
d="M1685 1481q-19 -119 -54.5 -192.5t-98.5 -109t-161 -35.5q-24 0 -36 1l-89 -617q-40 -267 -189 -407.5t-428 -140.5q-242 0 -353.5 105.5t-111.5 309.5q0 69 12 147l132 904h245l-136 -929q-6 -43 -6 -81q0 -124 64.5 -185.5t184.5 -61.5q138 0 228.5 82t114.5 246
l134 929h242l-24 -164q47 2 75.5 17.5t49 57t37.5 124.5h168zM487 -163h248l-35 -230h-247z" />
    <glyph glyph-name="uni1EF1" unicode="&#x1ef1;" horiz-adv-x="1390" 
d="M1406 1113q-19 -120 -55 -193t-98.5 -108.5t-160.5 -35.5q-26 0 -39 1l-116 -776h-182l2 202q-41 -115 -131.5 -168.5t-192.5 -53.5q-80 0 -155 31.5t-123.5 97.5t-48.5 162q0 29 4 54l105 710h240l-102 -682q-3 -18 -3 -35q0 -79 50 -118t122 -39q56 0 105.5 23t83 68.5
t42.5 108.5l99 674h240l-18 -122q48 2 76.5 17t49.5 56.5t38 125.5h168zM358 -165h248l-35 -230h-247z" />
    <glyph glyph-name="Ygrave" unicode="&#x1ef2;" horiz-adv-x="1224" 
d="M500 612l-354 834h259l248 -622l425 622h262l-600 -835l-90 -611h-238zM487 1713l82 167l449 -200l-53 -111z" />
    <glyph glyph-name="ygrave" unicode="&#x1ef3;" horiz-adv-x="1059" 
d="M31 -321q-43 9 -62 22l23 156l100 -3q9 -1 26 -1q64 0 103 17t57.5 39t32.5 50l36 76l-241 999h239l153 -731l367 731h233l-564 -1072q-62 -114 -125 -178t-128.5 -89t-144.5 -25q-62 0 -105 9zM384 1299l82 167l449 -200l-53 -111z" />
    <glyph glyph-name="uni1EF4" unicode="&#x1ef4;" horiz-adv-x="1224" 
d="M500 612l-354 834h259l248 -622l425 622h262l-600 -835l-90 -611h-238zM388 -166h248l-34 -229h-248z" />
    <glyph glyph-name="uni1EF5" unicode="&#x1ef5;" horiz-adv-x="1059" 
d="M31 -321q-43 9 -62 22l23 156l100 -3q9 -1 26 -1q64 0 103 17t57.5 39t32.5 50l36 76l-241 999h239l153 -731l367 731h233l-564 -1072q-62 -114 -125 -178t-128.5 -89t-144.5 -25q-62 0 -105 9zM322 -381h248l-34 -229h-248z" />
    <glyph glyph-name="uni1EF6" unicode="&#x1ef6;" horiz-adv-x="1224" 
d="M500 612l-354 834h259l248 -622l425 622h262l-600 -835l-90 -611h-238zM779 1689q34 22 53.5 48t19.5 53q0 29 -17 44.5t-44 15.5q-38 0 -76 -24l-46 96q77 46 147 46q48 0 84.5 -21t55.5 -61q20 -43 20 -85q0 -60 -38.5 -113.5t-112.5 -95.5z" />
    <glyph glyph-name="uni1EF7" unicode="&#x1ef7;" horiz-adv-x="1059" 
d="M31 -321q-43 9 -62 22l23 156l100 -3q9 -1 26 -1q64 0 103 17t57.5 39t32.5 50l36 76l-241 999h239l153 -731l367 731h233l-564 -1072q-62 -114 -125 -178t-128.5 -89t-144.5 -25q-62 0 -105 9zM676 1275q34 22 53.5 48t19.5 53q0 29 -17 44.5t-44 15.5q-38 0 -76 -24
l-46 96q77 46 147 46q48 0 84.5 -21t55.5 -61q20 -43 20 -85q0 -60 -38.5 -113.5t-112.5 -95.5z" />
    <glyph glyph-name="uni1EF8" unicode="&#x1ef8;" horiz-adv-x="1224" 
d="M500 612l-354 834h259l248 -622l425 622h262l-600 -835l-90 -611h-238zM471 1775q48 41 90 62t98 21q35 0 65.5 -7.5t76.5 -23.5q38 -13 65.5 -20t55.5 -7q41 0 79 17t78 46l14 -138q-91 -65 -193 -65q-36 0 -65 7.5t-69 21.5q-39 13 -64 19.5t-55 6.5q-45 0 -77 -14.5
t-77 -46.5z" />
    <glyph glyph-name="uni1EF9" unicode="&#x1ef9;" horiz-adv-x="1059" 
d="M31 -321q-43 9 -62 22l23 156l100 -3q9 -1 26 -1q64 0 103 17t57.5 39t32.5 50l36 76l-241 999h239l153 -731l367 731h233l-564 -1072q-62 -114 -125 -178t-128.5 -89t-144.5 -25q-62 0 -105 9zM368 1361q48 41 90 62t98 21q35 0 65.5 -7.5t76.5 -23.5q38 -13 65.5 -20
t55.5 -7q41 0 79 17t78 46l14 -138q-91 -65 -193 -65q-36 0 -65 7.5t-69 21.5q-39 13 -64 19.5t-55 6.5q-45 0 -77 -14.5t-77 -46.5z" />
    <glyph glyph-name="endash" unicode="&#x2013;" horiz-adv-x="1127" 
d="M131 590l875 1l-27 -182l-875 -1z" />
    <glyph glyph-name="emdash" unicode="&#x2014;" horiz-adv-x="1732" 
d="M132 590l1481 1l-28 -182l-1481 -1z" />
    <glyph glyph-name="quoteleft" unicode="&#x2018;" horiz-adv-x="528" 
d="M371 1247l89 -8l-46 -252h-253l40 222l226 299h94z" />
    <glyph glyph-name="quoteright" unicode="&#x2019;" horiz-adv-x="471" 
d="M303 1186l-94 7l28 253h265l-25 -222l-213 -299h-98z" />
    <glyph glyph-name="quotesinglbase" unicode="&#x201a;" horiz-adv-x="533" 
d="M133 -4l-96 7l38 255h276l-33 -223l-236 -300h-101z" />
    <glyph glyph-name="quotedblleft" unicode="&#x201c;" horiz-adv-x="897" 
d="M619 1186l94 -8l-28 -253h-394l24 223l214 298h98l-91 -171l123 171h98z" />
    <glyph glyph-name="quotedblright" unicode="&#x201d;" horiz-adv-x="868" 
d="M303 1186l-94 7l28 253h265l-25 -222l-213 -299h-98zM700 1186l-93 7l26 253h265l-24 -222l-214 -299h-99z" />
    <glyph glyph-name="quotedblbase" unicode="&#x201e;" horiz-adv-x="942" 
d="M542 -4l-96 7l38 255h276l-33 -223l-236 -300h-101zM133 -4l-96 7l38 255h276l-33 -223l-236 -300h-101z" />
    <glyph glyph-name="dagger" unicode="&#x2020;" horiz-adv-x="953" 
d="M437 787l-356 -36l32 218l337 -32l36 509h239l-114 -509l347 32l-33 -218l-346 36l-114 -1109h-235z" />
    <glyph glyph-name="daggerdbl" unicode="&#x2021;" horiz-adv-x="957" 
d="M342 167l-348 -33l33 219l343 -36l65 447l-353 -34l31 216l338 -31l40 531h237l-116 -531l346 31l-32 -216l-343 34l-65 -447l354 36l-33 -219l-338 33l-31 -489h-238z" />
    <glyph glyph-name="bullet" unicode="&#x2022;" horiz-adv-x="677" 
d="M248 539.5q-52 30.5 -82 82.5t-30 114q0 61 30 112.5t82 82t113 30.5t113 -30.5t82.5 -82t30.5 -112.5q0 -62 -30.5 -114t-82.5 -82.5t-113 -30.5t-113 30.5z" />
    <glyph glyph-name="ellipsis" unicode="&#x2026;" horiz-adv-x="1659" 
d="M1280 280h268l-42 -280h-268zM105 280h268l-42 -280h-268zM692 280h268l-42 -280h-268z" />
    <glyph glyph-name="perthousand" unicode="&#x2030;" horiz-adv-x="2465" 
d="M299.5 686q-62.5 41 -97 115.5t-34.5 171.5q0 39 6 81q17 118 73 212.5t138.5 148t174.5 53.5q80 0 142 -42t96 -117.5t34 -172.5q0 -40 -6 -82q-17 -118 -72 -211.5t-136 -145.5t-173 -52q-83 0 -145.5 41zM806 683l722 779l-471 -689l-722 -781zM589 848q51 74 70 206
q6 50 6 91q0 94 -31.5 145t-93.5 51q-77 0 -129 -77.5t-70 -209.5q-7 -46 -7 -92q0 -90 31.5 -139t94.5 -49q78 0 129 74zM1060.5 21.5q-62.5 41.5 -97 116.5t-34.5 173q0 38 6 80q17 118 73 212.5t138.5 148t173.5 53.5q81 0 143.5 -42t96.5 -117.5t34 -172.5q0 -40 -6 -82
q-17 -119 -72 -212.5t-136.5 -146t-174.5 -52.5q-82 0 -144.5 41.5zM1810.5 21q-62.5 41 -96.5 115.5t-34 172.5q0 40 6 82q16 118 72 212.5t138.5 148t174.5 53.5q81 0 143 -42.5t96 -118t34 -173.5q0 -39 -6 -80q-17 -119 -72.5 -212.5t-136.5 -146t-173 -52.5
q-83 0 -145.5 41zM1349 185.5q52 75.5 70 203.5q7 56 7 90q0 92 -32 144.5t-93 52.5q-74 0 -127 -78.5t-71 -208.5q-6 -46 -6 -86q0 -91 31.5 -142t92.5 -51q76 0 128 75.5zM2098.5 185.5q51.5 75.5 69.5 203.5q7 45 7 91q0 92 -32 144t-92 52q-74 0 -127 -78.5t-72 -208.5
q-6 -45 -6 -85q0 -91 32 -142.5t93 -51.5q76 0 127.5 75.5z" />
    <glyph glyph-name="guilsinglleft" unicode="&#x2039;" horiz-adv-x="578" 
d="M90 502l293 384h130l-227 -384l116 -368h-130z" />
    <glyph glyph-name="guilsinglright" unicode="&#x203a;" horiz-adv-x="577" 
d="M278 502l-115 384h130l180 -384l-292 -368h-127z" />
    <glyph glyph-name="fraction" unicode="&#x2044;" horiz-adv-x="480" 
d="M133 683l665 779l-406 -689l-666 -781z" />
    <glyph glyph-name="uni2070" unicode="&#x2070;" horiz-adv-x="804" 
d="M182 839.5q-70 84.5 -70 246.5q0 63 10 132q22 151 77.5 256.5t137 160t181.5 54.5q128 0 197.5 -87t69.5 -251q0 -63 -10 -132q-33 -226 -136.5 -345t-257.5 -119q-129 0 -199 84.5zM537.5 960q51.5 79 78.5 258q12 86 12 149q0 103 -32 150t-97 47q-85 0 -138 -82.5
t-80 -263.5q-12 -82 -12 -143q0 -100 32.5 -147t98.5 -47q86 0 137.5 79z" />
    <glyph glyph-name="uni2074" unicode="&#x2074;" horiz-adv-x="808" 
d="M504 975h-405l20 131l483 564h149l-82 -564h139l-20 -131h-139l-31 -215h-145zM523 1106l54 374l-318 -374h264z" />
    <glyph glyph-name="uni2075" unicode="&#x2075;" horiz-adv-x="779" 
d="M285 775q-68 28 -113 78.5t-60 115.5l131 65q53 -162 196 -162q85 0 143.5 49t70.5 131q2 18 2 27q0 66 -43.5 107t-113.5 41q-50 0 -89.5 -14.5t-88.5 -58.5q-8 -3 -10 -3q-4 0 -9 4l-107 48l108 467h545l-25 -128h-417l-57 -253q51 34 100.5 49t105.5 15
q76 0 135.5 -28t93 -82.5t33.5 -131.5q0 -29 -4 -54q-14 -94 -65 -164t-131.5 -108t-180.5 -38q-82 0 -150 28z" />
    <glyph glyph-name="uni2076" unicode="&#x2076;" horiz-adv-x="756" 
d="M209.5 855q-76.5 90 -76.5 250q0 58 8 109q22 148 80 256.5t147 167.5t200 59q79 0 141 -30t96 -86.5t29 -133.5h-140q-8 61 -43.5 94t-97.5 33q-102 0 -166 -90.5t-76 -250.5q36 56 97 89t129 33q119 0 187.5 -62t68.5 -170q0 -27 -4 -51q-13 -89 -63 -159t-128.5 -109
t-173.5 -39q-138 0 -214.5 90zM524 906q41 23 69 64.5t36 94.5q2 12 2 34q0 66 -37.5 102t-104.5 36q-41 0 -83 -20t-71 -52.5t-34 -67.5q-4 -34 -4 -48q0 -76 37.5 -121t102.5 -45q46 0 87 23z" />
    <glyph glyph-name="uni2077" unicode="&#x2077;" horiz-adv-x="716" 
d="M332.5 978q56.5 129 147 278.5t205.5 285.5h-476l19 128h636l-19 -128q-85 -98 -177.5 -245t-162 -293.5t-89.5 -243.5h-163q23 89 79.5 218z" />
    <glyph glyph-name="uni2078" unicode="&#x2078;" horiz-adv-x="776" 
d="M246.5 789q-69.5 27 -107 77.5t-37.5 118.5q0 20 3 39q7 50 39 98.5t76 82t87 41.5q-49 25 -77 65t-28 96q0 22 2 33q11 79 59 135.5t121.5 86t161.5 29.5q122 0 197 -55t75 -154q0 -21 -3 -42q-10 -69 -52.5 -117.5t-106.5 -76.5q36 -7 68 -35.5t51.5 -70.5t19.5 -87
q0 -19 -2 -29q-12 -80 -63.5 -139t-134 -91t-185.5 -32q-94 0 -163.5 27zM607.5 1343q47.5 36 57.5 100q2 16 2 23q0 55 -37 87t-99 32q-49 0 -89.5 -20.5t-64 -58.5t-23.5 -87q0 -53 37 -82.5t100 -29.5q69 0 116.5 36zM567 919q55 40 66 107q1 7 1 22q0 60 -43 95.5
t-120 35.5q-83 0 -139 -42.5t-66 -110.5q-1 -7 -1 -21q0 -58 43 -92t120 -34q84 0 139 40z" />
    <glyph glyph-name="uni2079" unicode="&#x2079;" horiz-adv-x="761" 
d="M236 793.5q-60 30.5 -93.5 87.5t-29.5 132h134q5 -58 40.5 -92t94.5 -34q105 0 172.5 84.5t82.5 260.5q-32 -61 -92 -97t-133 -36q-114 0 -182 63.5t-68 173.5q0 28 4 52q13 90 60 159.5t121 108.5t165 39q132 0 204.5 -89t72.5 -249q0 -49 -8 -111q-33 -235 -139.5 -359
t-270.5 -124q-75 0 -135 30.5zM529.5 1243q40.5 20 69 52.5t33.5 67.5q4 24 4 50q0 77 -36.5 121t-100.5 44q-68 0 -118 -51t-62 -132q-3 -19 -3 -36q0 -65 35 -100.5t99 -35.5q39 0 79.5 20z" />
    <glyph glyph-name="colonmonetary" unicode="&#x20a1;" horiz-adv-x="1193" 
d="M805 1020q-46 51 -128 51q-80 0 -145 -42t-108.5 -120.5t-60.5 -186.5q-7 -45 -7 -91q0 -126 57.5 -197t159.5 -71q83 0 146 54t90 131h205q-27 -109 -95.5 -191t-168 -126.5t-214.5 -44.5q-19 0 -51 2l-93 -187l-73 125l42 91q-114 45 -177 148.5t-63 246.5q0 57 8 106
q24 158 104.5 281t201.5 192t265 69q32 0 70 -5l54 189l145 2l-63 -234q78 -44 120.5 -121.5t42.5 -178.5l-1 -26l-212 -1q-5 84 -51 135zM556 571l1 5l-57 126l92 177l34 -49l19 69l141 -32l-85 -309l-122 11l-9 -21l-10 23h-4z" />
    <glyph glyph-name="franc" unicode="&#x20a3;" horiz-adv-x="1197" 
d="M524 1241l-63 -431h535l-30 -201h-534l-32 -218h297l-21 -140h-296l-36 -251h-273l37 250h-173l21 140h172l155 1056h957l-33 -205h-683z" />
    <glyph glyph-name="lira" unicode="&#x20a4;" horiz-adv-x="1224" 
d="M-6 205h68q67 -1 118.5 51t74.5 156q6 18 13 69q0 7 -3.5 10t-11.5 3h-202l21 139h199v154h-177l20 140h157l3 70q4 160 71.5 265t175.5 154.5t238 49.5q88 0 169 -31.5t139 -91t79 -141.5l-220 -69q-18 64 -56 99t-107 35q-81 0 -140 -51.5t-72 -141.5q-3 -27 -3 -127
q0 -20 18 -20l275 1l-21 -140l-272 -1l-1 -154l252 1l-22 -139h-253q-17 -82 -57.5 -160t-100.5 -128h294q91 0 151 37t101 123l195 -48q-65 -155 -185.5 -237t-277.5 -82h-681z" />
    <glyph glyph-name="uni20A6" unicode="&#x20a6;" horiz-adv-x="1530" 
d="M1460 1007h48l-19 -128h-66l-77 -267h103l-18 -128h-122l-139 -484h-206l-165 484l-362 -1l-138 -483h-230l139 483h-197l18 128h216l77 267h-253l19 128h270l127 440h225l149 -439h371l126 439h230zM587 1006h35l-19 55zM1193 879h-291l91 -267h124zM756 612l-91 266
h-114l-77 -267zM1080 484h-44l24 -71z" />
    <glyph glyph-name="uni20A9" unicode="&#x20a9;" horiz-adv-x="2104" 
d="M2120 857h-1l-3 -20h-355l-466 -837h-192l22 837l-98 -1l-459 -836h-188l15 836h-325l21 139h1l3 20h303l8 451h228l-14 -451h303l244 451h170l-12 -450h307l244 450h225l-251 -450h290zM1114 995l15 1l1 29zM1546 837h-225l-11 -435zM836 836h-221l-14 -434z" />
    <glyph glyph-name="dong" unicode="&#x20ab;" horiz-adv-x="1016" 
d="M1077 1214h-116l-139 -950h-198l17 111q-41 -39 -75.5 -64t-84 -44t-112.5 -19q-83 0 -144.5 36.5t-96 109.5t-34.5 178q0 56 8 107q20 133 80.5 235.5t148 158.5t184.5 56q65 0 109.5 -22t83.5 -65q9 -9 16 -9q8 0 11 20l24 161h-232l17 114h232l17 117h202l-17 -117
h117zM709 901q-31 43 -67.5 64.5t-85.5 21.5q-90 0 -155.5 -76.5t-87.5 -227.5q-7 -46 -7 -90q0 -105 42.5 -156t116.5 -51q48 0 90 22.5t69 58.5t33 75zM70 124h736l-19 -124h-735z" />
    <glyph glyph-name="Euro" unicode="&#x20ac;" horiz-adv-x="1217" 
d="M854.5 222.5q69.5 33.5 119.5 82.5l108 -146q-87 -81 -198 -130t-226 -49q-143 0 -250.5 62t-169.5 178t-73 274h-176l21 140h156q3 54 10 97q6 46 15 85h-154l20 139h173q56 160 151 274.5t220 175.5t270 61q119 0 216.5 -47t157.5 -130l-184 -135q-45 54 -90.5 83.5
t-108.5 29.5q-121 0 -210.5 -77t-143.5 -234h343l-21 -139h-360q-1 -7 -5 -26l-10 -63q-5 -31 -11 -94h358l-20 -139h-339q12 -153 83 -229.5t193 -76.5q66 0 135.5 33.5z" />
    <glyph glyph-name="uni20B9" unicode="&#x20b9;" horiz-adv-x="1195" 
d="M1008 1319q61 -69 66 -174h162l-20 -129h-158q-32 -121 -115 -200.5t-192 -117.5q-10 -3 -10 -17q0 -6 1 -9l158 -672h-296l-129 651h-424l27 182h390q129 0 202.5 43.5t102.5 139.5l-666 -1l18 129l665 1q-4 83 -61.5 123.5t-167.5 40.5h-413l19 137l1112 1l-18 -128
h-253z" />
    <glyph glyph-name="uni20BA" unicode="&#x20ba;" horiz-adv-x="1190" 
d="M1156 487q-108 -226 -286.5 -356.5t-440.5 -130.5h-260l64 439l-156 -56l-26 138l205 73l25 170l-178 -63l-28 138l229 81l77 526h273l-61 -423l256 91l29 -137l-308 -110l-25 -170l277 99l29 -138l-328 -117l-49 -334h75q238 5 400 327z" />
    <glyph glyph-name="uni2113" unicode="&#x2113;" horiz-adv-x="1056" 
d="M426 396q-5 -32 -5 -71q0 -82 35.5 -120.5t103.5 -38.5q98 0 191 76l-267 -262q-125 0 -191 51t-86.5 115.5t-29.5 149.5q0 8 -2 22q0 12 -9 5l-97 -64l-41 140l173 118l68 469q23 158 88 266t159 161t207 53q133 0 196 -68t63 -184q0 -36 -6 -75q-20 -136 -98 -255
t-181.5 -215t-263.5 -221zM465 653q316 267 350 505q3 23 3 42q0 54 -25.5 83t-76.5 29q-76 0 -127 -76.5t-78 -261.5zM850 340l-17 -17q-2 0 17 17zM751 242l82 81q-42 -47 -82 -81z" />
    <glyph glyph-name="uni2116" unicode="&#x2116;" horiz-adv-x="2245" 
d="M312 1446h235l523 -1033l150 1033h240l-212 -1446h-215l-539 1061l-154 -1061h-240zM1772.5 828.5q-56.5 33.5 -86.5 94t-30 140.5q0 27 5 64q14 100 62.5 176.5t121.5 119t159 42.5q78 0 135.5 -34t88 -95.5t30.5 -143.5q0 -27 -5 -65q-13 -97 -60.5 -172t-121 -117.5
t-163.5 -42.5q-79 0 -135.5 33.5zM2039.5 965q43.5 57 58.5 167q5 31 5 69q0 74 -29 112.5t-86 38.5q-70 0 -113 -56.5t-58 -163.5q-6 -40 -6 -73q0 -74 28.5 -112.5t85.5 -38.5q71 0 114.5 57z" />
    <glyph glyph-name="uni2117" unicode="&#x2117;" horiz-adv-x="1588" 
d="M393.5 62.5q-139.5 82.5 -218 226t-78.5 321.5q0 62 8 114q29 201 150 371.5t299.5 270.5t371.5 100q175 0 315 -83t219 -226.5t79 -319.5q0 -54 -9 -113q-30 -203 -151 -374t-299 -270.5t-371 -99.5q-176 0 -315.5 82.5zM1027 200q138 74 231 209.5t119 314.5
q8 51 8 109q0 147 -60.5 258.5t-169.5 172t-250 60.5q-160 0 -298.5 -75t-230.5 -211.5t-118 -313.5q-9 -58 -9 -113q0 -148 60 -257.5t169.5 -168.5t252.5 -59q158 0 296 74zM610 1108h315q115 0 185 -49t70 -145q0 -20 -3 -41q-18 -121 -101.5 -186t-205.5 -65h-174
l-42 -288h-158zM870 742q56 0 96 32t49 92q2 16 2 24q0 50 -32 73t-86 23h-149l-36 -244h156z" />
    <glyph glyph-name="uni2120" unicode="&#x2120;" horiz-adv-x="1976" 
d="M199.5 16q-74.5 29 -118.5 87t-41 141l157 5q4 -67 54 -103.5t129 -36.5q84 0 144 34.5t69 95.5q1 6 1 17q0 87 -133 117l-156 36q-89 19 -136.5 68t-47.5 128q0 18 3 39q11 80 63 142t132.5 95.5t174.5 33.5q99 0 168.5 -36.5t103.5 -96.5t31 -131l-153 -5
q1 145 -167 145q-52 0 -95.5 -18t-69.5 -51.5t-26 -78.5q0 -37 27 -60.5t91 -38.5l152 -37q195 -42 195 -213q0 -31 -4 -54q-10 -71 -61.5 -128.5t-135 -91t-187.5 -33.5q-89 0 -163.5 29zM1055 904h215l123 -691l326 691h213l-132 -904h-152l104 709l-329 -709h-124
l-121 704l-103 -704h-151z" />
    <glyph glyph-name="trademark" unicode="&#x2122;" horiz-adv-x="1844" 
d="M333 767h-268l20 137h678l-20 -137h-260l-112 -767h-149zM922 904h215l122 -691l327 691h213l-132 -904h-152l103 709l-328 -709h-124l-121 704l-104 -704h-151z" />
    <glyph glyph-name="uni2126" unicode="&#x2126;" horiz-adv-x="1483" 
d="M96 214h279q-57 55 -106 117t-90 163.5t-41 228.5q0 46 8 104q26 176 125.5 331t259.5 250.5t358 95.5q178 0 300.5 -79t182.5 -208t60 -280q0 -50 -8 -108q-19 -127 -67 -227.5t-131 -192t-216 -195.5h285l-32 -214h-539l29 191q136 93 247.5 239.5t144.5 367.5
q10 73 10 126q0 114 -34.5 199t-101.5 131t-162 46q-111 0 -203 -62.5t-154 -177.5t-84 -268q-9 -64 -9 -124q0 -148 57.5 -264.5t169.5 -212.5l-29 -191h-541z" />
    <glyph glyph-name="uni2153" unicode="&#x2153;" horiz-adv-x="1855" 
d="M275 1253h-161l13 91q111 0 163.5 29t66.5 89h102l-134 -910h-153zM731 683l665 779l-406 -689l-666 -781zM1165.5 44q-75.5 63 -75.5 174q0 24 3 48h145q1 -79 42.5 -119t113.5 -40q63 0 111 21t74.5 59t26.5 87q0 58 -46.5 91t-122.5 35l-81 3l18 124l76 4
q54 1 98.5 22.5t70.5 56t26 75.5q0 48 -41 78.5t-110 30.5q-71 0 -125 -40.5t-70 -123.5h-146q13 91 64.5 155.5t129 97.5t167.5 33q135 0 214.5 -51.5t79.5 -150.5q0 -18 -3 -38q-9 -69 -57 -121.5t-134 -81.5q70 -21 111.5 -68.5t41.5 -118.5q0 -17 -3 -37
q-12 -84 -66.5 -144.5t-138.5 -92t-183 -31.5q-135 0 -210.5 63z" />
    <glyph glyph-name="uni2154" unicode="&#x2154;" horiz-adv-x="2003" 
d="M76 640l6 42q12 83 57.5 142t103.5 96.5t149 83.5q73 38 115.5 64t73.5 62t38 82q2 14 2 22q0 53 -35.5 84.5t-98.5 31.5q-74 0 -128.5 -44.5t-75.5 -125.5h-146q14 85 62 153t127.5 107.5t184.5 39.5q126 0 197.5 -60.5t71.5 -162.5q0 -21 -3 -44q-12 -83 -57 -141
t-101.5 -93.5t-146.5 -79.5q-71 -35 -112 -59t-70.5 -58.5t-36.5 -79.5l-2 -13h451l-20 -131h-618zM879 683l665 779l-406 -689l-666 -781zM1313.5 44q-75.5 63 -75.5 174q0 24 3 48h145q1 -79 42.5 -119t113.5 -40q63 0 111 21t74.5 59t26.5 87q0 58 -46.5 91t-122.5 35
l-81 3l18 124l76 4q54 1 98.5 22.5t70.5 56t26 75.5q0 48 -41 78.5t-110 30.5q-71 0 -125 -40.5t-70 -123.5h-146q13 91 64.5 155.5t129 97.5t167.5 33q135 0 214.5 -51.5t79.5 -150.5q0 -18 -3 -38q-9 -69 -57 -121.5t-134 -81.5q70 -21 111.5 -68.5t41.5 -118.5
q0 -17 -3 -37q-12 -84 -66.5 -144.5t-138.5 -92t-183 -31.5q-135 0 -210.5 63z" />
    <glyph glyph-name="oneeighth" unicode="&#x215b;" horiz-adv-x="1854" 
d="M275 1253h-161l13 91q111 0 163.5 29t66.5 89h102l-134 -910h-153zM731 683l665 779l-406 -689l-666 -781zM1215 13q-70 27 -107.5 77.5t-37.5 119.5q0 19 3 38q8 50 39.5 98.5t76 82t87.5 41.5q-49 25 -77 65t-28 96q0 22 2 33q11 79 59 135.5t121.5 86t161.5 29.5
q123 0 197.5 -55.5t74.5 -155.5q0 -19 -3 -40q-10 -69 -52.5 -117.5t-107.5 -76.5q36 -7 68 -35.5t51.5 -70.5t19.5 -87q0 -19 -2 -29q-11 -80 -62.5 -139t-134 -91t-185.5 -32q-94 0 -164 27zM1575.5 567q47.5 36 57.5 100q2 16 2 24q0 55 -37 86.5t-99 31.5
q-68 0 -116.5 -39t-58.5 -103q-2 -16 -2 -24q0 -53 37 -82.5t100 -29.5q69 0 116.5 36zM1535.5 143q55.5 40 66.5 107q1 7 1 22q0 59 -43.5 95t-119.5 36q-84 0 -140 -42.5t-66 -110.5q-1 -7 -1 -21q0 -58 43 -92t120 -34q84 0 139.5 40z" />
    </font>
</defs>
</svg>
